<svg width="89" height="74" viewBox="0 0 89 74" fill="none" xmlns="http://www.w3.org/2000/svg">
<mask id="path-1-outside-1_59_367" maskUnits="userSpaceOnUse" x="0" y="0.0693359" width="89" height="74" fill="black">
<rect fill="white" y="0.0693359" width="89" height="74"/>
<path d="M17.75 70.8193L5 60.8193C8.5 57.1527 11.25 53.736 13.25 50.5693C15.4167 47.236 16.9167 43.986 17.75 40.8193C18.75 37.486 19.25 34.0693 19.25 30.5693L27 37.5693H2.5V2.81933H37.5V25.5693C37.5 31.236 36.8333 36.6527 35.5 41.8193C34.3333 46.8193 32.3333 51.736 29.5 56.5693C26.6667 61.236 22.75 65.986 17.75 70.8193ZM66.5 70.8193L53.75 60.8193C57.25 57.1527 60 53.736 62 50.5693C64.1667 47.236 65.6667 43.986 66.5 40.8193C67.5 37.486 68 34.0693 68 30.5693L75.75 37.5693H51.25V2.81933H86.25V25.5693C86.25 31.236 85.5833 36.6527 84.25 41.8193C83.0833 46.8193 81.0833 51.736 78.25 56.5693C75.4167 61.236 71.5 65.986 66.5 70.8193Z"/>
</mask>
<path d="M17.75 70.8193L16.5157 72.393L17.887 73.4686L19.14 72.2573L17.75 70.8193ZM5 60.8193L3.55329 59.4384L2.03137 61.0328L3.76572 62.393L5 60.8193ZM13.25 50.5693L11.5731 49.4794L11.566 49.4903L11.559 49.5014L13.25 50.5693ZM17.75 40.8193L15.8343 40.2446L15.8245 40.2773L15.8159 40.3103L17.75 40.8193ZM19.25 30.5693L20.5906 29.0851L17.25 26.0678V30.5693H19.25ZM27 37.5693V39.5693H32.1981L28.3406 36.0851L27 37.5693ZM2.5 37.5693H0.5V39.5693H2.5V37.5693ZM2.5 2.81933V0.819328H0.5V2.81933H2.5ZM37.5 2.81933H39.5V0.819328H37.5V2.81933ZM35.5 41.8193L33.5634 41.3196L33.5576 41.3422L33.5523 41.3649L35.5 41.8193ZM29.5 56.5693L31.2096 57.6073L31.2176 57.5941L31.2254 57.5808L29.5 56.5693ZM66.5 70.8193L65.2657 72.393L66.637 73.4686L67.89 72.2573L66.5 70.8193ZM53.75 60.8193L52.3033 59.4384L50.7814 61.0328L52.5157 62.393L53.75 60.8193ZM62 50.5693L60.3231 49.4794L60.316 49.4903L60.309 49.5014L62 50.5693ZM66.5 40.8193L64.5844 40.2446L64.5745 40.2773L64.5658 40.3103L66.5 40.8193ZM68 30.5693L69.3406 29.0851L66 26.0678V30.5693H68ZM75.75 37.5693V39.5693H80.9481L77.0906 36.0851L75.75 37.5693ZM51.25 37.5693H49.25V39.5693H51.25V37.5693ZM51.25 2.81933V0.819328H49.25V2.81933H51.25ZM86.25 2.81933H88.25V0.819328H86.25V2.81933ZM84.25 41.8193L82.3134 41.3196L82.3076 41.3422L82.3023 41.3649L84.25 41.8193ZM78.25 56.5693L79.9596 57.6073L79.9676 57.5941L79.9754 57.5808L78.25 56.5693ZM18.9843 69.2456L6.23428 59.2456L3.76572 62.393L16.5157 72.393L18.9843 69.2456ZM6.44671 62.2003C10.0085 58.4689 12.8503 54.9475 14.941 51.6373L11.559 49.5014C9.64969 52.5245 6.99148 55.8365 3.55329 59.4384L6.44671 62.2003ZM14.9269 51.6593C17.1857 48.1842 18.7864 44.7398 19.6841 41.3283L15.8159 40.3103C15.0469 43.2322 13.6476 46.2878 11.5731 49.4794L14.9269 51.6593ZM19.6657 41.394C20.7219 37.8732 21.25 34.2628 21.25 30.5693H17.25C17.25 33.8758 16.7781 37.0988 15.8343 40.2446L19.6657 41.394ZM17.9094 32.0535L25.6594 39.0535L28.3406 36.0851L20.5906 29.0851L17.9094 32.0535ZM27 35.5693H2.5V39.5693H27V35.5693ZM4.5 37.5693V2.81933H0.5V37.5693H4.5ZM2.5 4.81933H37.5V0.819328H2.5V4.81933ZM35.5 2.81933V25.5693H39.5V2.81933H35.5ZM35.5 25.5693C35.5 31.0778 34.8521 36.3259 33.5634 41.3196L37.4366 42.3191C38.8145 36.9794 39.5 31.3942 39.5 25.5693H35.5ZM33.5523 41.3649C32.4353 46.1521 30.5155 50.8823 27.7746 55.5579L31.2254 57.5808C34.1512 52.5897 36.2314 47.4865 37.4477 42.2738L33.5523 41.3649ZM27.7904 55.5314C25.0664 60.018 21.2686 64.6363 16.36 69.3813L19.14 72.2573C24.2314 67.3357 28.2669 62.454 31.2096 57.6073L27.7904 55.5314ZM67.7343 69.2456L54.9843 59.2456L52.5157 62.393L65.2657 72.393L67.7343 69.2456ZM55.1967 62.2003C58.7585 58.4689 61.6003 54.9475 63.691 51.6373L60.309 49.5014C58.3997 52.5245 55.7415 55.8365 52.3033 59.4384L55.1967 62.2003ZM63.6769 51.6593C65.9357 48.1842 67.5364 44.7398 68.4342 41.3283L64.5658 40.3103C63.7969 43.2322 62.3976 46.2878 60.3231 49.4794L63.6769 51.6593ZM68.4156 41.394C69.4719 37.8732 70 34.2628 70 30.5693H66C66 33.8758 65.5281 37.0988 64.5844 40.2446L68.4156 41.394ZM66.6594 32.0535L74.4094 39.0535L77.0906 36.0851L69.3406 29.0851L66.6594 32.0535ZM75.75 35.5693H51.25V39.5693H75.75V35.5693ZM53.25 37.5693V2.81933H49.25V37.5693H53.25ZM51.25 4.81933H86.25V0.819328H51.25V4.81933ZM84.25 2.81933V25.5693H88.25V2.81933H84.25ZM84.25 25.5693C84.25 31.0778 83.6021 36.3259 82.3134 41.3196L86.1866 42.3191C87.5645 36.9794 88.25 31.3942 88.25 25.5693H84.25ZM82.3023 41.3649C81.1853 46.1521 79.2655 50.8823 76.5246 55.5579L79.9754 57.5808C82.9012 52.5897 84.9814 47.4865 86.1977 42.2738L82.3023 41.3649ZM76.5404 55.5314C73.8164 60.018 70.0186 64.6363 65.11 69.3813L67.89 72.2573C72.9814 67.3357 77.0169 62.454 79.9596 57.6073L76.5404 55.5314Z" fill="white" mask="url(#path-1-outside-1_59_367)"/>
</svg>
