<svg width="89" height="74" viewBox="0 0 89 74" fill="none" xmlns="http://www.w3.org/2000/svg">
<mask id="path-1-outside-1_61_728" maskUnits="userSpaceOnUse" x="0" y="0" width="89" height="74" fill="black">
<rect fill="white" width="89" height="74"/>
<path d="M17.75 70.75L5 60.75C8.5 57.0833 11.25 53.6667 13.25 50.5C15.4167 47.1667 16.9167 43.9167 17.75 40.75C18.75 37.4167 19.25 34 19.25 30.5L27 37.5H2.5V2.74999H37.5V25.5C37.5 31.1667 36.8333 36.5833 35.5 41.75C34.3333 46.75 32.3333 51.6667 29.5 56.5C26.6667 61.1667 22.75 65.9167 17.75 70.75ZM66.5 70.75L53.75 60.75C57.25 57.0833 60 53.6667 62 50.5C64.1667 47.1667 65.6667 43.9167 66.5 40.75C67.5 37.4167 68 34 68 30.5L75.75 37.5H51.25V2.74999H86.25V25.5C86.25 31.1667 85.5833 36.5833 84.25 41.75C83.0833 46.75 81.0833 51.6667 78.25 56.5C75.4167 61.1667 71.5 65.9167 66.5 70.75Z"/>
</mask>
<path d="M17.75 70.75L16.5157 72.3237L17.887 73.3992L19.14 72.188L17.75 70.75ZM5 60.75L3.55329 59.369L2.03137 60.9634L3.76572 62.3237L5 60.75ZM13.25 50.5L11.5731 49.41L11.566 49.421L11.559 49.432L13.25 50.5ZM17.75 40.75L15.8343 40.1753L15.8245 40.208L15.8159 40.241L17.75 40.75ZM19.25 30.5L20.5906 29.0158L17.25 25.9985V30.5H19.25ZM27 37.5V39.5H32.1981L28.3406 36.0158L27 37.5ZM2.5 37.5H0.5V39.5H2.5V37.5ZM2.5 2.74999V0.749992H0.5V2.74999H2.5ZM37.5 2.74999H39.5V0.749992H37.5V2.74999ZM35.5 41.75L33.5634 41.2502L33.5576 41.2728L33.5523 41.2955L35.5 41.75ZM29.5 56.5L31.2096 57.5379L31.2176 57.5247L31.2254 57.5114L29.5 56.5ZM66.5 70.75L65.2657 72.3237L66.637 73.3992L67.89 72.188L66.5 70.75ZM53.75 60.75L52.3033 59.369L50.7814 60.9634L52.5157 62.3237L53.75 60.75ZM62 50.5L60.3231 49.41L60.316 49.421L60.309 49.432L62 50.5ZM66.5 40.75L64.5844 40.1753L64.5745 40.208L64.5658 40.241L66.5 40.75ZM68 30.5L69.3406 29.0158L66 25.9985V30.5H68ZM75.75 37.5V39.5H80.9481L77.0906 36.0158L75.75 37.5ZM51.25 37.5H49.25V39.5H51.25V37.5ZM51.25 2.74999V0.749992H49.25V2.74999H51.25ZM86.25 2.74999H88.25V0.749992H86.25V2.74999ZM84.25 41.75L82.3134 41.2502L82.3076 41.2728L82.3023 41.2955L84.25 41.75ZM78.25 56.5L79.9596 57.5379L79.9676 57.5247L79.9754 57.5114L78.25 56.5ZM18.9843 69.1763L6.23428 59.1763L3.76572 62.3237L16.5157 72.3237L18.9843 69.1763ZM6.44671 62.131C10.0085 58.3995 12.8503 54.8782 14.941 51.568L11.559 49.432C9.64969 52.4551 6.99148 55.7671 3.55329 59.369L6.44671 62.131ZM14.9269 51.59C17.1857 48.1149 18.7864 44.6704 19.6841 41.259L15.8159 40.241C15.0469 43.1629 13.6476 46.2185 11.5731 49.41L14.9269 51.59ZM19.6657 41.3247C20.7219 37.8038 21.25 34.1935 21.25 30.5H17.25C17.25 33.8065 16.7781 37.0295 15.8343 40.1753L19.6657 41.3247ZM17.9094 31.9842L25.6594 38.9842L28.3406 36.0158L20.5906 29.0158L17.9094 31.9842ZM27 35.5H2.5V39.5H27V35.5ZM4.5 37.5V2.74999H0.5V37.5H4.5ZM2.5 4.74999H37.5V0.749992H2.5V4.74999ZM35.5 2.74999V25.5H39.5V2.74999H35.5ZM35.5 25.5C35.5 31.0085 34.8521 36.2566 33.5634 41.2502L37.4366 42.2497C38.8145 36.91 39.5 31.3248 39.5 25.5H35.5ZM33.5523 41.2955C32.4353 46.0828 30.5155 50.8129 27.7746 55.4886L31.2254 57.5114C34.1512 52.5204 36.2314 47.4172 37.4477 42.2045L33.5523 41.2955ZM27.7904 55.462C25.0664 59.9487 21.2686 64.567 16.36 69.312L19.14 72.188C24.2314 67.2663 28.2669 62.3847 31.2096 57.5379L27.7904 55.462ZM67.7343 69.1763L54.9843 59.1763L52.5157 62.3237L65.2657 72.3237L67.7343 69.1763ZM55.1967 62.131C58.7585 58.3995 61.6003 54.8782 63.691 51.568L60.309 49.432C58.3997 52.4551 55.7415 55.7671 52.3033 59.369L55.1967 62.131ZM63.6769 51.59C65.9357 48.1149 67.5364 44.6704 68.4342 41.259L64.5658 40.241C63.7969 43.1629 62.3976 46.2185 60.3231 49.41L63.6769 51.59ZM68.4156 41.3247C69.4719 37.8038 70 34.1935 70 30.5H66C66 33.8065 65.5281 37.0295 64.5844 40.1753L68.4156 41.3247ZM66.6594 31.9842L74.4094 38.9842L77.0906 36.0158L69.3406 29.0158L66.6594 31.9842ZM75.75 35.5H51.25V39.5H75.75V35.5ZM53.25 37.5V2.74999H49.25V37.5H53.25ZM51.25 4.74999H86.25V0.749992H51.25V4.74999ZM84.25 2.74999V25.5H88.25V2.74999H84.25ZM84.25 25.5C84.25 31.0085 83.6021 36.2566 82.3134 41.2502L86.1866 42.2497C87.5645 36.91 88.25 31.3248 88.25 25.5H84.25ZM82.3023 41.2955C81.1853 46.0828 79.2655 50.8129 76.5246 55.4886L79.9754 57.5114C82.9012 52.5204 84.9814 47.4172 86.1977 42.2045L82.3023 41.2955ZM76.5404 55.462C73.8164 59.9487 70.0186 64.567 65.11 69.312L67.89 72.188C72.9814 67.2663 77.0169 62.3847 79.9596 57.5379L76.5404 55.462Z" fill="#291237" mask="url(#path-1-outside-1_61_728)"/>
</svg>
