<svg width="326" height="57" viewBox="0 0 326 57" fill="none" xmlns="http://www.w3.org/2000/svg">
<g clip-path="url(#clip0_115_17)">
<path d="M60.0181 49.6279H76.0852V56.174H51.9402V0.0390625H75.4638V6.58514H60.0181V23.8919H72.8008V30.438H60.0181V49.6279Z" fill="white"/>
<path d="M82.3878 0.0390625H100.585C106.089 0.0390625 108.841 2.66983 108.841 7.93023V26.5821C108.841 31.8425 106.089 34.4733 100.585 34.4733H90.377V56.174H82.3878V0.0390625ZM100.852 25.3267V9.18564C100.852 8.10957 100.674 7.40677 100.319 7.07834C99.964 6.74992 99.2538 6.58514 98.1886 6.58514H90.377V28.0168H98.1886C99.2538 28.0168 99.964 27.8375 100.319 27.4788C100.674 27.1201 100.852 26.4027 100.852 25.3267Z" fill="white"/>
<path fill-rule="evenodd" clip-rule="evenodd" d="M116.652 0.0390625H124.642V56.174H116.652V0.0390625Z" fill="white"/>
<path d="M163.167 0.0390625L151.45 28.1962L163.078 56.174H154.379L143.106 28.1962L154.557 0.0390625H163.167ZM134.584 56.174V0.0390625H142.573V56.174H134.584Z" fill="white"/>
<path d="M192.905 6.58514H176.749V25.0577H189.531V31.4244H176.749V56.174H168.671V0.0390625H192.905V6.58514Z" fill="white"/>
<path d="M206.042 0.0390625H215.896C221.399 0.0390625 224.151 2.66983 224.151 7.93023V48.2828C224.151 53.5432 221.399 56.174 215.896 56.174H206.042C200.48 56.174 197.698 53.5432 197.698 48.2828V7.93023C197.698 2.66983 200.48 0.0390625 206.042 0.0390625ZM216.162 47.0274V9.18564C216.162 8.10957 215.984 7.40677 215.629 7.07834C215.274 6.74992 214.564 6.58514 213.499 6.58514H208.35C207.285 6.58514 206.591 6.74992 206.264 7.07834C205.939 7.40677 205.776 8.10957 205.776 9.18564V47.0274C205.776 48.1035 205.939 48.8063 206.264 49.1347C206.591 49.4631 207.285 49.6279 208.35 49.6279H213.499C214.564 49.6279 215.274 49.4631 215.629 49.1347C215.984 48.8063 216.162 48.1035 216.162 47.0274Z" fill="white"/>
<path d="M241.017 33.4869V56.174H233.028V0.0390625H251.226C256.729 0.0390625 259.481 2.66983 259.481 7.93023V25.506C259.481 30.049 257.499 32.6495 253.533 33.3075L262.322 56.174H253.711L245.367 33.4869H241.017ZM241.017 6.58514V27.0305H248.829C249.894 27.0305 250.604 26.8657 250.959 26.5373C251.314 26.2088 251.492 25.506 251.492 24.43V9.18564C251.492 8.10957 251.314 7.40677 250.959 7.07834C250.604 6.74992 249.894 6.58514 248.829 6.58514H241.017Z" fill="white"/>
<path d="M293.746 16.4491H285.668V9.0063C285.668 7.93023 285.49 7.22742 285.135 6.89899C284.78 6.57057 284.07 6.4058 283.005 6.4058H278.477C277.412 6.4058 276.702 6.57057 276.347 6.89899C275.992 7.22742 275.814 7.93023 275.814 9.0063V47.2964C275.814 48.3725 275.992 49.0753 276.347 49.4037C276.702 49.7321 277.412 49.8969 278.477 49.8969H283.005C284.07 49.8969 284.78 49.7321 285.135 49.4037C285.49 49.0753 285.668 48.3725 285.668 47.2964V33.5765H281.229V27.2995H293.746V48.2828C293.746 53.6037 290.994 56.2636 285.49 56.2636H275.992C270.488 56.2636 267.736 53.6037 267.736 48.2828V7.93023C267.736 2.66983 270.488 0.0390625 275.992 0.0390625H285.49C290.994 0.0390625 293.746 2.66983 293.746 7.93023V16.4491Z" fill="white"/>
<path d="M310.168 49.6279H326.235V56.174H302.09V0.0390625H325.613V6.58514H310.168V23.8919H322.95V30.438H310.168V49.6279Z" fill="white"/>
<path fill-rule="evenodd" clip-rule="evenodd" d="M20.9878 43.2061L0 56.5362H41.9757L20.9878 43.2061Z" fill="white"/>
<path fill-rule="evenodd" clip-rule="evenodd" d="M20.9878 35.2671L0 48.5973L20.9878 0.536133L41.9757 48.5973L20.9878 35.2671Z" fill="white"/>
</g>
<defs>
<clipPath id="clip0_115_17">
<rect width="326" height="57" fill="white"/>
</clipPath>
</defs>
</svg>
