<svg width="275" height="434" viewBox="0 0 275 434" fill="none" xmlns="http://www.w3.org/2000/svg">
<g clip-path="url(#clip0_37_375)">
<path fill-rule="evenodd" clip-rule="evenodd" d="M135.343 274.942L0.731812 360.835H269.955L135.343 274.942Z" fill="#644790"/>
<path fill-rule="evenodd" clip-rule="evenodd" d="M135.343 223.789L0.731812 309.682L135.343 0L269.955 309.682L135.343 223.789Z" fill="#644790"/>
</g>
<g clip-path="url(#clip1_37_375)">
<path d="M8.74993 427.092H24.817V433.638H0.671997V377.503H24.1956V384.049H8.74993V401.356H21.5326V407.902H8.74993V427.092Z" fill="#644790"/>
<path d="M31.1196 377.503H49.3172C54.8208 377.503 57.5727 380.134 57.5727 385.394V404.046C57.5727 409.307 54.8208 411.937 49.3172 411.937H39.1088V433.638H31.1196V377.503ZM49.5835 402.791V386.65C49.5835 385.574 49.4059 384.871 49.0509 384.542C48.6958 384.214 47.9857 384.049 46.9204 384.049H39.1088V405.481H46.9204C47.9857 405.481 48.6958 405.302 49.0509 404.943C49.4059 404.584 49.5835 403.867 49.5835 402.791Z" fill="#644790"/>
<path fill-rule="evenodd" clip-rule="evenodd" d="M65.3843 377.503H73.3734V433.638H65.3843V377.503Z" fill="#644790"/>
<path d="M111.899 377.503L100.182 405.66L111.81 433.638H103.111L91.8373 405.66L103.288 377.503H111.899ZM83.3156 433.638V377.503H91.3047V433.638H83.3156Z" fill="#644790"/>
<path d="M141.636 384.049H125.481V402.522H138.263V408.889H125.481V433.638H117.403V377.503H141.636V384.049Z" fill="#33334F"/>
<path d="M154.774 377.503H164.627C170.131 377.503 172.883 380.134 172.883 385.394V425.747C172.883 431.007 170.131 433.638 164.627 433.638H154.774C149.212 433.638 146.43 431.007 146.43 425.747V385.394C146.43 380.134 149.212 377.503 154.774 377.503ZM164.894 424.492V386.65C164.894 385.574 164.716 384.871 164.361 384.542C164.006 384.214 163.296 384.049 162.231 384.049H157.082C156.017 384.049 155.322 384.214 154.996 384.542C154.671 384.871 154.508 385.574 154.508 386.65V424.492C154.508 425.568 154.671 426.27 154.996 426.599C155.322 426.927 156.017 427.092 157.082 427.092H162.231C163.296 427.092 164.006 426.927 164.361 426.599C164.716 426.27 164.894 425.568 164.894 424.492Z" fill="#33334F"/>
<path d="M189.749 410.951V433.638H181.76V377.503H199.957C205.461 377.503 208.213 380.134 208.213 385.394V402.97C208.213 407.513 206.231 410.114 202.265 410.772L211.053 433.638H202.443L194.099 410.951H189.749ZM189.749 384.049V404.495H197.561C198.626 404.495 199.336 404.33 199.691 404.001C200.046 403.673 200.224 402.97 200.224 401.894V386.65C200.224 385.574 200.046 384.871 199.691 384.542C199.336 384.214 198.626 384.049 197.561 384.049H189.749Z" fill="#33334F"/>
<path d="M242.477 393.913H234.4V386.47C234.4 385.394 234.222 384.692 233.867 384.363C233.512 384.035 232.802 383.87 231.736 383.87H227.209C226.144 383.87 225.434 384.035 225.079 384.363C224.724 384.692 224.546 385.394 224.546 386.47V424.761C224.546 425.837 224.724 426.539 225.079 426.868C225.434 427.196 226.144 427.361 227.209 427.361H231.736C232.802 427.361 233.512 427.196 233.867 426.868C234.222 426.539 234.4 425.837 234.4 424.761V411.041H229.961V404.764H242.477V425.747C242.477 431.068 239.726 433.728 234.222 433.728H224.724C219.22 433.728 216.468 431.068 216.468 425.747V385.394C216.468 380.134 219.22 377.503 224.724 377.503H234.222C239.726 377.503 242.477 380.134 242.477 385.394V393.913Z" fill="#33334F"/>
<path d="M258.9 427.092H274.967V433.638H250.822V377.503H274.345V384.049H258.9V401.356H271.682V407.902H258.9V427.092Z" fill="#33334F"/>
</g>
<defs>
<clipPath id="clip0_37_375">
<rect width="269.379" height="360.835" fill="white" transform="translate(0.731812)"/>
</clipPath>
<clipPath id="clip1_37_375">
<rect width="273.536" height="56.5364" fill="white" transform="translate(0.731812 377.464)"/>
</clipPath>
</defs>
</svg>
