<svg width="286" height="286" viewBox="0 0 286 286" fill="none" xmlns="http://www.w3.org/2000/svg">
<circle cx="3.03571" cy="34.1072" r="3.03571" fill="white"/>
<circle cx="3.03571" cy="96.2501" r="3.03571" fill="white"/>
<circle cx="3.03571" cy="220.536" r="3.03571" fill="white"/>
<circle cx="3.03571" cy="251.607" r="3.03571" fill="white"/>
<circle cx="34.1071" cy="3.03571" r="3.03571" fill="white"/>
<circle cx="34.1071" cy="65.1786" r="3.03571" fill="white"/>
<circle cx="34.1071" cy="127.321" r="3.03571" fill="white"/>
<circle cx="34.1071" cy="189.464" r="3.03571" fill="white"/>
<circle cx="34.1071" cy="282.679" r="3.03571" fill="white"/>
<circle cx="65.1785" cy="3.03571" r="3.03571" fill="white"/>
<circle cx="65.1785" cy="34.1072" r="3.03571" fill="white"/>
<circle cx="65.1785" cy="158.393" r="3.03571" fill="white"/>
<circle cx="65.1785" cy="220.536" r="3.03571" fill="white"/>
<circle cx="96.2499" cy="3.03571" r="3.03571" fill="white"/>
<circle cx="96.2499" cy="96.2501" r="3.03571" fill="white"/>
<circle cx="96.2499" cy="127.321" r="3.03571" fill="white"/>
<circle cx="96.2499" cy="251.607" r="3.03571" fill="white"/>
<circle cx="96.2499" cy="282.679" r="3.03571" fill="white"/>
<circle cx="127.321" cy="158.393" r="3.03571" fill="white"/>
<circle cx="127.321" cy="220.536" r="3.03571" fill="white"/>
<circle cx="127.321" cy="251.607" r="3.03571" fill="white"/>
<circle cx="158.393" cy="34.1072" r="3.03571" fill="white"/>
<circle cx="158.393" cy="127.321" r="3.03571" fill="white"/>
<circle cx="158.393" cy="189.464" r="3.03571" fill="white"/>
<circle cx="158.393" cy="220.536" r="3.03571" fill="white"/>
<circle cx="189.464" cy="96.2501" r="3.03571" fill="white"/>
<circle cx="189.464" cy="127.321" r="3.03571" fill="white"/>
<circle cx="189.464" cy="158.393" r="3.03571" fill="white"/>
<circle cx="189.464" cy="220.536" r="3.03571" fill="white"/>
<circle cx="189.464" cy="251.607" r="3.03571" fill="white"/>
<circle cx="189.464" cy="282.679" r="3.03571" fill="white"/>
<circle cx="220.536" cy="3.03571" r="3.03571" fill="white"/>
<circle cx="220.536" cy="34.1072" r="3.03571" fill="white"/>
<circle cx="220.536" cy="65.1786" r="3.03571" fill="white"/>
<circle cx="220.536" cy="127.321" r="3.03571" fill="white"/>
<circle cx="220.536" cy="189.464" r="3.03571" fill="white"/>
<circle cx="220.536" cy="282.679" r="3.03571" fill="white"/>
<circle cx="251.607" cy="3.03571" r="3.03571" fill="white"/>
<circle cx="251.607" cy="65.1786" r="3.03571" fill="white"/>
<circle cx="251.607" cy="127.321" r="3.03571" fill="white"/>
<circle cx="251.607" cy="158.393" r="3.03571" fill="white"/>
<circle cx="251.607" cy="189.464" r="3.03571" fill="white"/>
<circle cx="251.607" cy="251.607" r="3.03571" fill="white"/>
<circle cx="282.678" cy="3.03571" r="3.03571" fill="white"/>
<circle cx="282.678" cy="34.1072" r="3.03571" fill="white"/>
<circle cx="282.678" cy="65.1786" r="3.03571" fill="white"/>
<circle cx="282.678" cy="96.2501" r="3.03571" fill="white"/>
<circle cx="282.678" cy="127.321" r="3.03571" fill="white"/>
<circle cx="282.678" cy="189.464" r="3.03571" fill="white"/>
<circle cx="282.678" cy="251.607" r="3.03571" fill="white"/>
</svg>
