<svg width="116" height="286" viewBox="0 0 116 286" fill="none" xmlns="http://www.w3.org/2000/svg">
<circle cx="3.03571" cy="3.03571" r="3.03571" fill="white"/>
<circle cx="3.03571" cy="34.1071" r="3.03571" fill="white"/>
<circle cx="3.03571" cy="65.1786" r="3.03571" fill="white"/>
<circle cx="3.03571" cy="96.25" r="3.03571" fill="white"/>
<circle cx="3.03571" cy="127.321" r="3.03571" fill="white"/>
<circle cx="3.03571" cy="158.393" r="3.03571" fill="white"/>
<circle cx="3.03571" cy="189.464" r="3.03571" fill="white"/>
<circle cx="3.03571" cy="220.536" r="3.03571" fill="white"/>
<circle cx="3.03571" cy="251.607" r="3.03571" fill="white"/>
<circle cx="3.03571" cy="282.679" r="3.03571" fill="white"/>
<circle cx="34.1071" cy="3.03571" r="3.03571" fill="white"/>
<circle cx="34.1071" cy="34.1071" r="3.03571" fill="white"/>
<circle cx="34.1071" cy="65.1786" r="3.03571" fill="white"/>
<circle cx="34.1071" cy="96.25" r="3.03571" fill="white"/>
<circle cx="34.1071" cy="127.321" r="3.03571" fill="white"/>
<circle cx="34.1071" cy="158.393" r="3.03571" fill="white"/>
<circle cx="34.1071" cy="189.464" r="3.03571" fill="white"/>
<circle cx="34.1071" cy="220.536" r="3.03571" fill="white"/>
<circle cx="34.1071" cy="251.607" r="3.03571" fill="white"/>
<circle cx="34.1071" cy="282.679" r="3.03571" fill="white"/>
<circle cx="65.1785" cy="3.03571" r="3.03571" fill="white"/>
<circle cx="65.1785" cy="34.1071" r="3.03571" fill="white"/>
<circle cx="65.1785" cy="65.1786" r="3.03571" fill="white"/>
<circle cx="65.1785" cy="96.25" r="3.03571" fill="white"/>
<circle cx="65.1785" cy="127.321" r="3.03571" fill="white"/>
<circle cx="65.1785" cy="158.393" r="3.03571" fill="white"/>
<circle cx="65.1785" cy="189.464" r="3.03571" fill="white"/>
<circle cx="65.1785" cy="220.536" r="3.03571" fill="white"/>
<circle cx="65.1785" cy="251.607" r="3.03571" fill="white"/>
<circle cx="65.1785" cy="282.679" r="3.03571" fill="white"/>
<circle cx="96.2499" cy="3.03571" r="3.03571" fill="white"/>
<circle cx="96.2499" cy="34.1071" r="3.03571" fill="white"/>
<circle cx="96.2499" cy="65.1786" r="3.03571" fill="white"/>
<circle cx="96.2499" cy="96.25" r="3.03571" fill="white"/>
<circle cx="96.2499" cy="127.321" r="3.03571" fill="white"/>
<circle cx="96.2499" cy="158.393" r="3.03571" fill="white"/>
<circle cx="96.2499" cy="189.464" r="3.03571" fill="white"/>
<circle cx="96.2499" cy="220.536" r="3.03571" fill="white"/>
<circle cx="96.2499" cy="251.607" r="3.03571" fill="white"/>
<circle cx="96.2499" cy="282.679" r="3.03571" fill="white"/>
</svg>
