<svg width="427" height="597" viewBox="0 0 427 597" fill="none" xmlns="http://www.w3.org/2000/svg">
<circle cx="314.036" cy="3.03571" r="3.03571" fill="white"/>
<circle cx="314.036" cy="34.1071" r="3.03571" fill="white"/>
<circle cx="314.036" cy="65.1786" r="3.03571" fill="white"/>
<circle cx="314.036" cy="96.25" r="3.03571" fill="white"/>
<circle cx="314.036" cy="127.321" r="3.03571" fill="white"/>
<circle cx="314.036" cy="158.393" r="3.03571" fill="white"/>
<circle cx="314.036" cy="189.464" r="3.03571" fill="white"/>
<circle cx="314.036" cy="220.536" r="3.03571" fill="white"/>
<circle cx="314.036" cy="251.607" r="3.03571" fill="white"/>
<circle cx="314.036" cy="282.679" r="3.03571" fill="white"/>
<circle cx="345.107" cy="3.03571" r="3.03571" fill="white"/>
<circle cx="345.107" cy="34.1071" r="3.03571" fill="white"/>
<circle cx="345.107" cy="65.1786" r="3.03571" fill="white"/>
<circle cx="345.107" cy="96.25" r="3.03571" fill="white"/>
<circle cx="345.107" cy="127.321" r="3.03571" fill="white"/>
<circle cx="345.107" cy="158.393" r="3.03571" fill="white"/>
<circle cx="345.107" cy="189.464" r="3.03571" fill="white"/>
<circle cx="345.107" cy="220.536" r="3.03571" fill="white"/>
<circle cx="345.107" cy="251.607" r="3.03571" fill="white"/>
<circle cx="345.107" cy="282.679" r="3.03571" fill="white"/>
<circle cx="376.179" cy="3.03571" r="3.03571" fill="white"/>
<circle cx="376.179" cy="34.1071" r="3.03571" fill="white"/>
<circle cx="376.179" cy="65.1786" r="3.03571" fill="white"/>
<circle cx="376.179" cy="96.25" r="3.03571" fill="white"/>
<circle cx="376.179" cy="127.321" r="3.03571" fill="white"/>
<circle cx="376.179" cy="158.393" r="3.03571" fill="white"/>
<circle cx="376.179" cy="189.464" r="3.03571" fill="white"/>
<circle cx="376.179" cy="220.536" r="3.03571" fill="white"/>
<circle cx="376.179" cy="251.607" r="3.03571" fill="white"/>
<circle cx="376.179" cy="282.679" r="3.03571" fill="white"/>
<circle cx="407.25" cy="3.03571" r="3.03571" fill="white"/>
<circle cx="407.25" cy="34.1071" r="3.03571" fill="white"/>
<circle cx="407.25" cy="65.1786" r="3.03571" fill="white"/>
<circle cx="407.25" cy="96.25" r="3.03571" fill="white"/>
<circle cx="407.25" cy="127.321" r="3.03571" fill="white"/>
<circle cx="407.25" cy="158.393" r="3.03571" fill="white"/>
<circle cx="407.25" cy="189.464" r="3.03571" fill="white"/>
<circle cx="407.25" cy="220.536" r="3.03571" fill="white"/>
<circle cx="407.25" cy="251.607" r="3.03571" fill="white"/>
<circle cx="407.25" cy="282.679" r="3.03571" fill="white"/>
<circle cx="3.03571" cy="158.393" r="3.03571" fill="white"/>
<circle cx="3.03571" cy="220.536" r="3.03571" fill="white"/>
<circle cx="34.1071" cy="3.03571" r="3.03571" fill="white"/>
<circle cx="34.1071" cy="65.1786" r="3.03571" fill="white"/>
<circle cx="34.1071" cy="220.536" r="3.03571" fill="white"/>
<circle cx="34.1071" cy="282.679" r="3.03571" fill="white"/>
<circle cx="65.1785" cy="3.03571" r="3.03571" fill="white"/>
<circle cx="65.1785" cy="34.1071" r="3.03571" fill="white"/>
<circle cx="65.1785" cy="158.393" r="3.03571" fill="white"/>
<circle cx="96.2499" cy="3.03571" r="3.03571" fill="white"/>
<circle cx="96.2499" cy="34.1071" r="3.03571" fill="white"/>
<circle cx="96.2499" cy="96.25" r="3.03571" fill="white"/>
<circle cx="96.2499" cy="220.536" r="3.03571" fill="white"/>
<circle cx="127.321" cy="3.03571" r="3.03571" fill="white"/>
<circle cx="127.321" cy="65.1786" r="3.03571" fill="white"/>
<circle cx="127.321" cy="96.25" r="3.03571" fill="white"/>
<circle cx="127.321" cy="189.464" r="3.03571" fill="white"/>
<circle cx="158.393" cy="34.1071" r="3.03571" fill="white"/>
<circle cx="158.393" cy="127.321" r="3.03571" fill="white"/>
<circle cx="158.393" cy="158.393" r="3.03571" fill="white"/>
<circle cx="158.393" cy="220.536" r="3.03571" fill="white"/>
<circle cx="158.393" cy="282.679" r="3.03571" fill="white"/>
<circle cx="189.464" cy="3.03571" r="3.03571" fill="white"/>
<circle cx="189.464" cy="34.1071" r="3.03571" fill="white"/>
<circle cx="189.464" cy="65.1786" r="3.03571" fill="white"/>
<circle cx="189.464" cy="96.25" r="3.03571" fill="white"/>
<circle cx="189.464" cy="220.536" r="3.03571" fill="white"/>
<circle cx="189.464" cy="251.607" r="3.03571" fill="white"/>
<circle cx="189.464" cy="282.679" r="3.03571" fill="white"/>
<circle cx="220.536" cy="3.03571" r="3.03571" fill="white"/>
<circle cx="220.536" cy="65.1786" r="3.03571" fill="white"/>
<circle cx="220.536" cy="96.25" r="3.03571" fill="white"/>
<circle cx="220.536" cy="158.393" r="3.03571" fill="white"/>
<circle cx="220.536" cy="189.464" r="3.03571" fill="white"/>
<circle cx="220.536" cy="282.679" r="3.03571" fill="white"/>
<circle cx="251.607" cy="3.03571" r="3.03571" fill="white"/>
<circle cx="251.607" cy="65.1786" r="3.03571" fill="white"/>
<circle cx="251.607" cy="127.321" r="3.03571" fill="white"/>
<circle cx="251.607" cy="220.536" r="3.03571" fill="white"/>
<circle cx="251.607" cy="251.607" r="3.03571" fill="white"/>
<circle cx="251.607" cy="282.679" r="3.03571" fill="white"/>
<circle cx="282.678" cy="3.03571" r="3.03571" fill="white"/>
<circle cx="282.678" cy="65.1786" r="3.03571" fill="white"/>
<circle cx="282.678" cy="96.25" r="3.03571" fill="white"/>
<circle cx="282.678" cy="127.321" r="3.03571" fill="white"/>
<circle cx="282.678" cy="189.464" r="3.03571" fill="white"/>
<circle cx="282.678" cy="220.536" r="3.03571" fill="white"/>
<circle cx="282.678" cy="282.679" r="3.03571" fill="white"/>
<circle cx="314.036" cy="314.036" r="3.03571" fill="white"/>
<circle cx="314.036" cy="345.107" r="3.03571" fill="white"/>
<circle cx="314.036" cy="376.179" r="3.03571" fill="white"/>
<circle cx="314.036" cy="407.25" r="3.03571" fill="white"/>
<circle cx="314.036" cy="438.321" r="3.03571" fill="white"/>
<circle cx="314.036" cy="469.393" r="3.03571" fill="white"/>
<circle cx="314.036" cy="500.464" r="3.03571" fill="white"/>
<circle cx="314.036" cy="531.536" r="3.03571" fill="white"/>
<circle cx="314.036" cy="562.607" r="3.03571" fill="white"/>
<circle cx="314.036" cy="593.679" r="3.03571" fill="white"/>
<circle cx="345.107" cy="314.036" r="3.03571" fill="white"/>
<circle cx="345.107" cy="345.107" r="3.03571" fill="white"/>
<circle cx="345.107" cy="376.179" r="3.03571" fill="white"/>
<circle cx="345.107" cy="407.25" r="3.03571" fill="white"/>
<circle cx="345.107" cy="438.321" r="3.03571" fill="white"/>
<circle cx="345.107" cy="469.393" r="3.03571" fill="white"/>
<circle cx="345.107" cy="500.464" r="3.03571" fill="white"/>
<circle cx="345.107" cy="531.536" r="3.03571" fill="white"/>
<circle cx="345.107" cy="562.607" r="3.03571" fill="white"/>
<circle cx="345.107" cy="593.679" r="3.03571" fill="white"/>
<circle cx="376.179" cy="314.036" r="3.03571" fill="white"/>
<circle cx="376.179" cy="345.107" r="3.03571" fill="white"/>
<circle cx="376.179" cy="376.179" r="3.03571" fill="white"/>
<circle cx="376.179" cy="407.25" r="3.03571" fill="white"/>
<circle cx="376.179" cy="438.321" r="3.03571" fill="white"/>
<circle cx="376.179" cy="469.393" r="3.03571" fill="white"/>
<circle cx="376.179" cy="500.464" r="3.03571" fill="white"/>
<circle cx="376.179" cy="531.536" r="3.03571" fill="white"/>
<circle cx="376.179" cy="562.607" r="3.03571" fill="white"/>
<circle cx="376.179" cy="593.679" r="3.03571" fill="white"/>
<circle cx="407.25" cy="314.036" r="3.03571" fill="white"/>
<circle cx="407.25" cy="345.107" r="3.03571" fill="white"/>
<circle cx="407.25" cy="376.179" r="3.03571" fill="white"/>
<circle cx="407.25" cy="407.25" r="3.03571" fill="white"/>
<circle cx="407.25" cy="438.321" r="3.03571" fill="white"/>
<circle cx="407.25" cy="469.393" r="3.03571" fill="white"/>
<circle cx="407.25" cy="500.464" r="3.03571" fill="white"/>
<circle cx="407.25" cy="531.536" r="3.03571" fill="white"/>
<circle cx="407.25" cy="562.607" r="3.03571" fill="white"/>
<circle cx="407.25" cy="593.679" r="3.03571" fill="white"/>
<circle cx="3.03571" cy="345.107" r="3.03571" fill="white"/>
<circle cx="3.03571" cy="407.25" r="3.03571" fill="white"/>
<circle cx="3.03571" cy="531.536" r="3.03571" fill="white"/>
<circle cx="3.03571" cy="562.607" r="3.03571" fill="white"/>
<circle cx="34.1071" cy="314.036" r="3.03571" fill="white"/>
<circle cx="34.1071" cy="376.179" r="3.03571" fill="white"/>
<circle cx="34.1071" cy="438.321" r="3.03571" fill="white"/>
<circle cx="34.1071" cy="500.464" r="3.03571" fill="white"/>
<circle cx="34.1071" cy="593.679" r="3.03571" fill="white"/>
<circle cx="65.1785" cy="314.036" r="3.03571" fill="white"/>
<circle cx="65.1785" cy="345.107" r="3.03571" fill="white"/>
<circle cx="65.1785" cy="469.393" r="3.03571" fill="white"/>
<circle cx="65.1785" cy="531.536" r="3.03571" fill="white"/>
<circle cx="96.2499" cy="314.036" r="3.03571" fill="white"/>
<circle cx="96.2499" cy="407.25" r="3.03571" fill="white"/>
<circle cx="96.2499" cy="438.321" r="3.03571" fill="white"/>
<circle cx="96.2499" cy="562.607" r="3.03571" fill="white"/>
<circle cx="96.2499" cy="593.679" r="3.03571" fill="white"/>
<circle cx="127.321" cy="469.393" r="3.03571" fill="white"/>
<circle cx="127.321" cy="531.536" r="3.03571" fill="white"/>
<circle cx="127.321" cy="562.607" r="3.03571" fill="white"/>
<circle cx="158.393" cy="345.107" r="3.03571" fill="white"/>
<circle cx="158.393" cy="438.321" r="3.03571" fill="white"/>
<circle cx="158.393" cy="500.464" r="3.03571" fill="white"/>
<circle cx="158.393" cy="531.536" r="3.03571" fill="white"/>
<circle cx="189.464" cy="407.25" r="3.03571" fill="white"/>
<circle cx="189.464" cy="438.321" r="3.03571" fill="white"/>
<circle cx="189.464" cy="469.393" r="3.03571" fill="white"/>
<circle cx="189.464" cy="531.536" r="3.03571" fill="white"/>
<circle cx="189.464" cy="562.607" r="3.03571" fill="white"/>
<circle cx="189.464" cy="593.679" r="3.03571" fill="white"/>
<circle cx="220.536" cy="314.036" r="3.03571" fill="white"/>
<circle cx="220.536" cy="345.107" r="3.03571" fill="white"/>
<circle cx="220.536" cy="376.179" r="3.03571" fill="white"/>
<circle cx="220.536" cy="438.321" r="3.03571" fill="white"/>
<circle cx="220.536" cy="500.464" r="3.03571" fill="white"/>
<circle cx="220.536" cy="593.679" r="3.03571" fill="white"/>
<circle cx="251.607" cy="314.036" r="3.03571" fill="white"/>
<circle cx="251.607" cy="376.179" r="3.03571" fill="white"/>
<circle cx="251.607" cy="438.321" r="3.03571" fill="white"/>
<circle cx="251.607" cy="469.393" r="3.03571" fill="white"/>
<circle cx="251.607" cy="500.464" r="3.03571" fill="white"/>
<circle cx="251.607" cy="562.607" r="3.03571" fill="white"/>
<circle cx="282.678" cy="314.036" r="3.03571" fill="white"/>
<circle cx="282.678" cy="345.107" r="3.03571" fill="white"/>
<circle cx="282.678" cy="376.179" r="3.03571" fill="white"/>
<circle cx="282.678" cy="407.25" r="3.03571" fill="white"/>
<circle cx="282.678" cy="438.321" r="3.03571" fill="white"/>
<circle cx="282.678" cy="500.464" r="3.03571" fill="white"/>
<circle cx="282.678" cy="562.607" r="3.03571" fill="white"/>
</svg>
