<svg width="131" height="126" viewBox="0 0 131 126" fill="none" xmlns="http://www.w3.org/2000/svg">
<path d="M22.3053 101.751C22.3053 92.4613 26.0139 85.435 30.4887 77.4797C31.1549 76.2953 32.7453 75.803 33.3715 74.5969C33.6783 74.0061 41.0849 63.7382 41.5084 65.8555C41.7451 67.0389 39.3899 70.8407 41.1364 69.4823C44.2649 67.049 46.7838 63.8146 49.9243 61.3919C54.637 57.7564 51.1689 65.0346 50.1103 66.7855C49.3276 68.0799 47.6794 70.6076 50.2963 68.7383C53.8197 66.2216 56.7078 61.8773 59.0376 58.2766C59.7754 57.1364 65.7331 48.9503 65.7331 49.5352C65.7331 53.7428 61.6414 57.4706 61.6414 61.5779C61.6414 62.1645 63.7394 59.5766 64.1522 59.253C66.5828 57.348 69.0628 55.4868 71.4987 53.5804C73.7785 51.7962 78.9318 49.5184 77.1713 54.0454C75.4899 58.3689 73.1976 63.2384 78.8917 59.0205C85.7587 53.9338 92.6876 48.7421 99.3037 43.3512C110.888 33.9125 92.1482 61.0437 93.5381 54.7894C95.1529 47.5228 102.056 41.0162 107.301 36.3767C111.767 32.4262 103.151 37.1408 102 37.9576C98.1708 40.6754 93.4357 45.5328 88.4235 45.676C85.3338 45.7643 85.9127 44.4099 85.9127 41.8168C85.9127 38.7355 86.5329 34.9597 85.8662 31.9595C85.3929 29.8297 79.8878 32.3902 79.2171 33.3079C78.1493 34.7692 74.2812 38.9132 78.5662 36.2837C81.1612 34.6913 83.0433 32.5202 84.8897 30.1462C85.7014 29.1025 87.8288 28.5133 88.3305 27.6353C88.7389 26.9206 88.4235 32.7808 88.4235 34.3309C88.4235 38.5665 90.8741 37.3908 94.468 36.6557C96.9478 36.1485 101.855 33.2655 104.139 33.4939C106.776 33.7576 95.6465 50.5051 95.212 51.1161C92.6583 54.7073 90.7473 58.2312 87.726 61.4849C85.8896 63.4625 85.6892 64.7297 88.4235 63.2517C93.434 60.5433 97.2689 53.2085 103.442 53.2085C106.747 53.2085 94.8106 67.5342 93.3986 69.0638C89.8054 72.9564 86.0057 77.0002 81.821 80.2695C79.8034 81.8457 78.3591 83.8988 80.891 81.2924C83.3555 78.7555 84.2534 73.296 87.7725 71.8071C88.2511 71.6046 90.8749 69.7465 91.2133 70.1332C91.6209 70.5992 85.4256 76.2929 85.0292 76.6893C82.7085 79.0099 72.8008 91.5682 68.8484 89.9873C67.8989 89.6075 77.1291 83.0672 77.1713 82.6873C77.2436 82.0362 66.6649 88.4519 66.0121 88.8249C62.0871 91.0677 57.0241 94.1097 52.5281 95.0089C50.4863 95.4173 56.909 94.9644 58.6656 93.8465C62.3867 91.4785 56.6661 95.8951 55.7829 96.7293C55.0834 97.3899 49.1876 100.163 51.4122 100.077C57.2248 99.8535 64.0525 95.6799 68.7554 92.5446C71.5424 90.6866 73.825 88.6563 76.2879 86.686C78.3008 85.0757 71.3014 84.8537 70.8478 84.6402C63.0742 80.982 51.2584 74.048 47.46 66.1345C45.5729 62.2032 46.5342 60.4965 48.6224 57.8116C49.3232 56.9106 52.8263 49.6138 52.0631 49.2098C49.837 48.0312 42.1553 55.1362 40.067 56.5562C38.5713 57.5733 40.2387 57.0379 40.9039 56.5562C44.4128 54.0154 45.4374 50.5063 46.995 46.6989C47.8926 44.5047 49.4832 42.3283 46.1581 42.3283C43.3081 42.3283 42.837 45.135 40.718 46.327C37.8663 47.931 46.1236 42.4515 48.0644 39.8175C48.9986 38.5497 50.8542 36.0047 50.8542 36.0047C50.8542 36.0047 48.0152 39.0881 46.623 40.6544C44.9707 42.5133 43.6702 44.0021 41.1364 44.0021C38.3041 44.0021 40.1145 50.139 41.3689 51.3486C45.6165 55.4445 54.8755 53.9803 60.1535 54.0454C64.4389 54.0983 72.4037 53.9535 75.4044 57.8116C76.4767 59.1902 77.6568 62.0425 78.3802 63.6702C79.8222 66.9147 82.2544 69.8818 84.2388 72.83C85.9126 75.3169 89.3384 80.5282 91.7712 76.2708C92.3143 75.3203 94.6482 79.729 94.282 80.8275" stroke="#E7D7FF" stroke-width="43.9535" stroke-linecap="round"/>
<path d="M103.962 12H26.0376C23.8114 12 22 13.8087 22 16.0316V109.968C22 112.191 23.8114 114 26.0376 114H103.962C106.189 114 108 112.191 108 109.968V16.0316C108 13.8087 106.189 12 103.962 12ZM106.385 109.968C106.385 111.302 105.298 112.387 103.962 112.387H26.0376C24.7017 112.387 23.615 111.302 23.615 109.968V16.0316C23.615 14.6977 24.7017 13.6126 26.0376 13.6126H103.962C105.298 13.6126 106.385 14.6977 106.385 16.0316V109.968ZM103.962 22.6862C103.962 23.1314 103.601 23.4925 103.155 23.4925H81.4846L73.6461 31.3195C73.4946 31.4707 73.2892 31.5557 73.0751 31.5557H26.8451C26.3991 31.5557 26.0376 31.1947 26.0376 30.7494C26.0376 30.3041 26.3991 29.9431 26.8451 29.9431H72.7408L80.5793 22.1161C80.7307 21.9649 80.9361 21.8798 81.1502 21.8798H103.155C103.601 21.8798 103.962 22.2409 103.962 22.6862ZM28.4601 25.1028H37.0935C38.4294 25.1028 39.5161 24.0177 39.5161 22.6838V20.8696C39.5161 19.5357 38.4294 18.4506 37.0935 18.4506H28.4601C27.1242 18.4506 26.0376 19.5357 26.0376 20.8696V22.6838C26.0376 24.0177 27.1242 25.1028 28.4601 25.1028ZM27.6526 20.8696C27.6526 20.4251 28.0149 20.0632 28.4601 20.0632H37.0935C37.5387 20.0632 37.901 20.4251 37.901 20.8696V22.6838C37.901 23.1283 37.5387 23.4901 37.0935 23.4901H28.4601C28.0149 23.4901 27.6526 23.1283 27.6526 22.6838V20.8696ZM44.7602 25.1028H53.3936C54.7295 25.1028 55.8161 24.0177 55.8161 22.6838V20.8696C55.8161 19.5357 54.7295 18.4506 53.3936 18.4506H44.7602C43.4243 18.4506 42.3376 19.5357 42.3376 20.8696V22.6838C42.3376 24.0177 43.4243 25.1028 44.7602 25.1028ZM43.9527 20.8696C43.9527 20.4251 44.315 20.0632 44.7602 20.0632H53.3936C53.8388 20.0632 54.2011 20.4251 54.2011 20.8696V22.6838C54.2011 23.1283 53.8388 23.4901 53.3936 23.4901H44.7602C44.315 23.4901 43.9527 23.1283 43.9527 22.6838V20.8696ZM61.0602 25.1028H69.6937C71.0295 25.1028 72.1162 24.0177 72.1162 22.6838V20.8696C72.1162 19.5357 71.0295 18.4506 69.6937 18.4506H61.0602C59.7244 18.4506 58.6377 19.5357 58.6377 20.8696V22.6838C58.6377 24.0177 59.7244 25.1028 61.0602 25.1028ZM60.2527 20.8696C60.2527 20.4251 60.6151 20.0632 61.0602 20.0632H69.6937C70.1388 20.0632 70.5012 20.4251 70.5012 20.8696V22.6838C70.5012 23.1283 70.1388 23.4901 69.6937 23.4901H61.0602C60.6151 23.4901 60.2527 23.1283 60.2527 22.6838V20.8696ZM42.4894 55.6435C42.4894 61.8267 45.0902 67.8053 49.625 72.0463C49.9506 72.3507 49.9672 72.8609 49.6624 73.1861C49.5035 73.3554 49.2882 73.4413 49.0729 73.4413C48.875 73.4413 48.6767 73.3692 48.5209 73.2235C43.6613 68.6789 40.8744 62.2712 40.8744 55.6435C40.8744 55.1982 41.236 54.8371 41.6819 54.8371C42.1279 54.8371 42.4894 55.1982 42.4894 55.6435ZM80.1038 38.991C79.7734 38.6922 79.7481 38.1823 80.0478 37.8524C80.3467 37.5228 80.8577 37.4968 81.1881 37.7965C86.2327 42.3624 89.1256 48.8673 89.1256 55.6435C89.1256 56.0888 88.764 56.4498 88.3181 56.4498C87.8721 56.4498 87.5106 56.0888 87.5106 55.6435C87.5106 49.3216 84.8109 43.2518 80.1038 38.991ZM65 35.585C53.9235 35.585 44.912 44.5833 44.912 55.6435C44.912 66.7037 53.9235 75.702 65 75.702C76.0765 75.702 85.088 66.7037 85.088 55.6435C85.088 44.5833 76.0765 35.585 65 35.585ZM65 74.0893C54.8138 74.0893 46.527 65.8147 46.527 55.6435C46.527 45.4723 54.8139 37.1976 65 37.1976C75.1862 37.1976 83.473 45.4723 83.473 55.6435C83.473 65.8147 75.1862 74.0893 65 74.0893ZM73.7415 68.132C73.9777 68.51 73.8629 69.0073 73.4848 69.2435C70.9408 70.831 68.0069 71.6704 65 71.6704C62.7766 71.6704 60.623 71.2227 58.5991 70.3404C58.1906 70.162 58.0037 69.6868 58.1823 69.2786C58.3605 68.8703 58.8372 68.6848 59.2457 68.8624C63.523 70.729 68.6508 70.3593 72.6284 67.8758C73.0077 67.6403 73.5049 67.7549 73.7415 68.132ZM89.2254 80.5399H40.7747C39.4388 80.5399 38.3521 81.625 38.3521 82.9589V84.7755C38.3521 86.1094 39.4388 87.1945 40.7747 87.1945H89.2254C90.5612 87.1945 91.6479 86.1094 91.6479 84.7755V82.9589C91.6479 81.625 90.5612 80.5399 89.2254 80.5399ZM39.9671 84.7755V82.9589C39.9671 82.5144 40.3295 82.1526 40.7747 82.1526H79.838V85.5818H40.7747C40.3295 85.5818 39.9671 85.22 39.9671 84.7755ZM90.0329 84.7755C90.0329 85.22 89.6705 85.5818 89.2254 85.5818H81.4531V82.1526H89.2254C89.6705 82.1526 90.0329 82.5144 90.0329 82.9589V84.7755ZM89.2254 90.7174H40.7747C39.4388 90.7174 38.3521 91.8025 38.3521 93.1364V94.953C38.3521 96.2869 39.4388 97.3719 40.7747 97.3719H89.2254C90.5612 97.3719 91.6479 96.2869 91.6479 94.953V93.1364C91.6479 91.8025 90.5612 90.7174 89.2254 90.7174ZM39.9671 94.953V93.1364C39.9671 92.6919 40.3295 92.33 40.7747 92.33H79.838V95.7593H40.7747C40.3295 95.7593 39.9671 95.3975 39.9671 94.953ZM90.0329 94.953C90.0329 95.3975 89.6705 95.7593 89.2254 95.7593H81.4531V92.33H89.2254C89.6705 92.33 90.0329 92.6919 90.0329 93.1364V94.953ZM89.2254 100.895H72.5704C71.2346 100.895 70.1479 101.98 70.1479 103.314V105.13C70.1479 106.464 71.2346 107.549 72.5704 107.549H89.2254C90.5612 107.549 91.6479 106.464 91.6479 105.13V103.314C91.6479 101.98 90.5612 100.895 89.2254 100.895ZM90.0329 105.13C90.0329 105.575 89.6705 105.937 89.2254 105.937H72.5704C72.1253 105.937 71.7629 105.575 71.7629 105.13V103.314C71.7629 102.869 72.1253 102.508 72.5704 102.508H89.2254C89.6705 102.508 90.0329 102.869 90.0329 103.314V105.13ZM65 55.8462C69.3692 55.8462 72.9237 52.2969 72.9237 47.9342C72.9237 43.5715 69.3692 40.0221 65 40.0221C60.6309 40.0221 57.0763 43.5715 57.0763 47.9342C57.0763 52.2969 60.6308 55.8462 65 55.8462ZM65 41.6348C68.4785 41.6348 71.3087 44.4608 71.3087 47.9342C71.3087 51.4075 68.4785 54.2336 65 54.2336C61.5216 54.2336 58.6913 51.4075 58.6913 47.9342C58.6913 44.4608 61.5216 41.6348 65 41.6348ZM74.3266 57.7613C76.388 57.7613 78.3981 58.4857 79.9863 59.8015C80.3293 60.0857 80.3766 60.594 80.092 60.9369C79.9323 61.1291 79.702 61.2283 79.4702 61.2283C79.2884 61.2283 79.1058 61.1673 78.9548 61.0425C77.656 59.9664 76.0122 59.3739 74.3266 59.3739H55.6734C53.9878 59.3739 52.344 59.9664 51.0452 61.0425C50.7018 61.3263 50.1935 61.2803 49.9081 60.9369C49.6234 60.594 49.6707 60.0857 50.0137 59.8015C51.6019 58.4857 53.612 57.7613 55.6734 57.7613H74.3266Z" fill="#6D06B0"/>
</svg>
