<svg width="131" height="119" viewBox="0 0 131 119" fill="none" xmlns="http://www.w3.org/2000/svg">
<path d="M22.3053 96.7509C22.3053 87.4613 26.0139 80.435 30.4887 72.4797C31.1549 71.2953 32.7453 70.803 33.3715 69.5969C33.6783 69.0061 41.0849 58.7382 41.5084 60.8555C41.7451 62.0389 39.3899 65.8407 41.1364 64.4823C44.2649 62.049 46.7838 58.8146 49.9243 56.3919C54.637 52.7564 51.1689 60.0346 50.1103 61.7855C49.3276 63.0799 47.6794 65.6076 50.2963 63.7383C53.8197 61.2216 56.7078 56.8773 59.0376 53.2766C59.7754 52.1364 65.7331 43.9503 65.7331 44.5352C65.7331 48.7428 61.6414 52.4706 61.6414 56.5779C61.6414 57.1645 63.7394 54.5766 64.1522 54.253C66.5828 52.348 69.0628 50.4868 71.4987 48.5804C73.7785 46.7962 78.9318 44.5184 77.1713 49.0454C75.4899 53.3689 73.1976 58.2384 78.8917 54.0205C85.7587 48.9338 92.6876 43.7421 99.3037 38.3512C110.888 28.9125 92.1482 56.0437 93.5381 49.7894C95.1529 42.5228 102.056 36.0162 107.301 31.3767C111.767 27.4262 103.151 32.1408 102 32.9576C98.1708 35.6754 93.4357 40.5328 88.4235 40.676C85.3338 40.7643 85.9127 39.4099 85.9127 36.8168C85.9127 33.7355 86.5329 29.9597 85.8662 26.9595C85.3929 24.8297 79.8878 27.3902 79.2171 28.3079C78.1493 29.7692 74.2812 33.9132 78.5662 31.2837C81.1612 29.6913 83.0433 27.5202 84.8897 25.1462C85.7014 24.1025 87.8288 23.5133 88.3305 22.6353C88.7389 21.9206 88.4235 27.7808 88.4235 29.3309C88.4235 33.5665 90.8741 32.3908 94.468 31.6557C96.9478 31.1485 101.855 28.2655 104.139 28.4939C106.776 28.7576 95.6465 45.5051 95.212 46.1161C92.6583 49.7073 90.7473 53.2312 87.726 56.4849C85.8896 58.4625 85.6892 59.7297 88.4235 58.2517C93.434 55.5433 97.2689 48.2085 103.442 48.2085C106.747 48.2085 94.8106 62.5342 93.3986 64.0638C89.8054 67.9564 86.0057 72.0002 81.821 75.2695C79.8034 76.8457 78.3591 78.8988 80.891 76.2924C83.3555 73.7555 84.2534 68.296 87.7725 66.8071C88.2511 66.6046 90.8749 64.7465 91.2133 65.1332C91.6209 65.5992 85.4256 71.2929 85.0292 71.6893C82.7085 74.0099 72.8008 86.5682 68.8484 84.9873C67.8989 84.6075 77.1291 78.0672 77.1713 77.6873C77.2436 77.0362 66.6649 83.4519 66.0121 83.8249C62.0871 86.0677 57.0241 89.1097 52.5281 90.0089C50.4863 90.4173 56.909 89.9644 58.6656 88.8465C62.3867 86.4785 56.6661 90.8951 55.7829 91.7293C55.0834 92.3899 49.1876 95.1626 51.4122 95.0771C57.2248 94.8535 64.0525 90.6799 68.7554 87.5446C71.5424 85.6866 73.825 83.6563 76.2879 81.686C78.3008 80.0757 71.3014 79.8537 70.8478 79.6402C63.0742 75.982 51.2584 69.048 47.46 61.1345C45.5729 57.2032 46.5342 55.4965 48.6224 52.8116C49.3232 51.9106 52.8263 44.6138 52.0631 44.2098C49.837 43.0312 42.1553 50.1362 40.067 51.5562C38.5713 52.5733 40.2387 52.0379 40.9039 51.5562C44.4128 49.0154 45.4374 45.5063 46.995 41.6989C47.8926 39.5047 49.4832 37.3283 46.1581 37.3283C43.3081 37.3283 42.837 40.135 40.718 41.327C37.8663 42.931 46.1236 37.4515 48.0644 34.8175C48.9986 33.5497 50.8542 31.0047 50.8542 31.0047C50.8542 31.0047 48.0152 34.0881 46.623 35.6544C44.9707 37.5133 43.6702 39.0021 41.1364 39.0021C38.3041 39.0021 40.1145 45.139 41.3689 46.3486C45.6165 50.4445 54.8755 48.9803 60.1535 49.0454C64.4389 49.0983 72.4037 48.9535 75.4044 52.8116C76.4767 54.1902 77.6568 57.0425 78.3802 58.6702C79.8222 61.9147 82.2544 64.8818 84.2388 67.83C85.9126 70.3169 89.3384 75.5282 91.7712 71.2708C92.3143 70.3203 94.6482 74.729 94.282 75.8275" stroke="#E7D7FF" stroke-width="43.9535" stroke-linecap="round"/>
<path d="M103.449 7.5957H26.5508C24.3539 7.5957 22.5664 9.38322 22.5664 11.5801V104.416C22.5664 106.613 24.3539 108.4 26.5508 108.4H103.449C105.646 108.4 107.434 106.613 107.434 104.416V11.5801C107.434 9.38322 105.646 7.5957 103.449 7.5957ZM105.84 104.416C105.84 105.734 104.767 106.807 103.449 106.807H26.5508C25.2325 106.807 24.1602 105.734 24.1602 104.416V11.5801C24.1602 10.2618 25.2325 9.18945 26.5508 9.18945H103.449C104.767 9.18945 105.84 10.2618 105.84 11.5801V104.416ZM103.449 18.1566C103.449 18.5967 103.093 18.9535 102.652 18.9535H81.2675L73.5322 26.6888C73.3828 26.8382 73.1804 26.9223 72.9688 26.9223H27.3477C26.9072 26.9223 26.5508 26.5655 26.5508 26.1254C26.5508 25.6853 26.9072 25.3285 27.3477 25.3285H72.6388L80.3741 17.5932C80.5235 17.4438 80.7258 17.3598 80.9375 17.3598H102.652C103.093 17.3598 103.449 17.7166 103.449 18.1566ZM28.9414 20.5449H37.4611C38.7794 20.5449 39.8517 19.4726 39.8517 18.1543V16.3613C39.8517 15.0431 38.7794 13.9707 37.4611 13.9707H28.9414C27.6231 13.9707 26.5508 15.0431 26.5508 16.3613V18.1543C26.5508 19.4726 27.6231 20.5449 28.9414 20.5449ZM28.1445 16.3613C28.1445 15.922 28.5017 15.5645 28.9414 15.5645H37.4611C37.9008 15.5645 38.258 15.922 38.258 16.3613V18.1543C38.258 18.5936 37.9008 18.9512 37.4611 18.9512H28.9414C28.5017 18.9512 28.1445 18.5936 28.1445 18.1543V16.3613ZM45.0268 20.5449H53.5465C54.8648 20.5449 55.9371 19.4726 55.9371 18.1543V16.3613C55.9371 15.0431 54.8648 13.9707 53.5465 13.9707H45.0268C43.7085 13.9707 42.6361 15.0431 42.6361 16.3613V18.1543C42.6361 19.4726 43.7085 20.5449 45.0268 20.5449ZM44.2299 16.3613C44.2299 15.922 44.5871 15.5645 45.0268 15.5645H53.5465C53.9862 15.5645 54.3434 15.922 54.3434 16.3613V18.1543C54.3434 18.5936 53.9862 18.9512 53.5465 18.9512H45.0268C44.5871 18.9512 44.2299 18.5936 44.2299 18.1543V16.3613ZM61.1121 20.5449H69.6318C70.9501 20.5449 72.0225 19.4726 72.0225 18.1543V16.3613C72.0225 15.0431 70.9501 13.9707 69.6318 13.9707H61.1121C59.7939 13.9707 58.7215 15.0431 58.7215 16.3613V18.1543C58.7215 19.4726 59.7939 20.5449 61.1121 20.5449ZM60.3153 16.3613C60.3153 15.922 60.6724 15.5645 61.1121 15.5645H69.6318C70.0715 15.5645 70.4287 15.922 70.4287 16.3613V18.1543C70.4287 18.5936 70.0715 18.9512 69.6318 18.9512H61.1121C60.6724 18.9512 60.3153 18.5936 60.3153 18.1543V16.3613ZM101.059 30.9043H28.9414C28.5009 30.9043 28.1445 31.2611 28.1445 31.7012V51.476C28.1445 51.916 28.5009 52.2728 28.9414 52.2728H101.059C101.499 52.2728 101.855 51.916 101.855 51.476V31.7012C101.855 31.2611 101.499 30.9043 101.059 30.9043ZM100.262 50.6791H29.7383V32.498H100.262L100.262 50.6791ZM32.9258 48.2885H97.0742C97.5147 48.2885 97.8711 47.9317 97.8711 47.4916V35.6855C97.8711 35.2455 97.5147 34.8887 97.0742 34.8887H32.9258C32.4853 34.8887 32.1289 35.2455 32.1289 35.6855V47.4916C32.1289 47.9317 32.4853 48.2885 32.9258 48.2885ZM33.7227 36.4824H96.2774V46.6947H33.7227L33.7227 36.4824ZM101.059 86.5385H28.9414C28.5009 86.5385 28.1445 86.8953 28.1445 87.3353V102.025C28.1445 102.465 28.5009 102.822 28.9414 102.822H101.059C101.499 102.822 101.855 102.465 101.855 102.025V87.3353C101.855 86.8953 101.499 86.5385 101.059 86.5385ZM100.262 101.229H29.7383V88.1322H100.262L100.262 101.229ZM32.9258 98.8379H97.0742C97.5147 98.8379 97.8711 98.4811 97.8711 98.041V91.3197C97.8711 90.8796 97.5147 90.5228 97.0742 90.5228H32.9258C32.4853 90.5228 32.1289 90.8796 32.1289 91.3197V98.041C32.1289 98.4811 32.4853 98.8379 32.9258 98.8379ZM33.7227 92.1166H96.2774V97.2441H33.7227L33.7227 92.1166ZM28.9414 82.5541H53.6445C54.085 82.5541 54.4414 82.1973 54.4414 81.7572V57.0541C54.4414 56.614 54.085 56.2572 53.6445 56.2572H28.9414C28.501 56.2572 28.1445 56.614 28.1445 57.0541V81.7572C28.1445 82.1973 28.501 82.5541 28.9414 82.5541ZM29.7383 57.851H52.8477V80.9603H29.7383V57.851ZM49.6602 60.2416H32.9258C32.4853 60.2416 32.1289 60.5984 32.1289 61.0385V77.7728C32.1289 78.2129 32.4853 78.5697 32.9258 78.5697H49.6602C50.1006 78.5697 50.457 78.2129 50.457 77.7728V61.0385C50.457 60.5984 50.1006 60.2416 49.6602 60.2416ZM48.8633 76.976H33.7227V61.8353H48.8633V76.976ZM101.059 56.2572H59.2227C58.7822 56.2572 58.4258 56.614 58.4258 57.0541V81.7572C58.4258 82.1973 58.7822 82.5541 59.2227 82.5541H101.059C101.499 82.5541 101.855 82.1973 101.855 81.7572V57.0541C101.855 56.614 101.499 56.2572 101.059 56.2572ZM100.262 80.9603H60.0195V57.851H100.262V80.9603ZM63.207 78.5697H97.0742C97.5147 78.5697 97.8711 78.2129 97.8711 77.7728V61.0385C97.8711 60.5984 97.5147 60.2416 97.0742 60.2416H63.207C62.7666 60.2416 62.4102 60.5984 62.4102 61.0385V77.7728C62.4102 78.2129 62.7666 78.5697 63.207 78.5697ZM64.0039 61.8353H96.2774V76.976H64.0039V61.8353Z" fill="#6D06B0"/>
</svg>
