<svg width="89" height="74" viewBox="0 0 89 74" fill="none" xmlns="http://www.w3.org/2000/svg">
<mask id="path-1-outside-1_17_174" maskUnits="userSpaceOnUse" x="-0.000610352" y="0.166016" width="89" height="74" fill="black">
<rect fill="white" x="-0.000610352" y="0.166016" width="89" height="74"/>
<path d="M17.7494 70.916L4.99939 60.916C8.49939 57.2493 11.2494 53.8327 13.2494 50.666C15.4161 47.3327 16.9161 44.0827 17.7494 40.916C18.7494 37.5827 19.2494 34.166 19.2494 30.666L26.9994 37.666H2.49939V2.916H37.4994V25.666C37.4994 31.3327 36.8327 36.7493 35.4994 41.916C34.3327 46.916 32.3327 51.8327 29.4994 56.666C26.6661 61.3327 22.7494 66.0827 17.7494 70.916ZM66.4994 70.916L53.7494 60.916C57.2494 57.2493 59.9994 53.8327 61.9994 50.666C64.1661 47.3327 65.6661 44.0827 66.4994 40.916C67.4994 37.5827 67.9994 34.166 67.9994 30.666L75.7494 37.666H51.2494V2.916H86.2494V25.666C86.2494 31.3327 85.5827 36.7493 84.2494 41.916C83.0827 46.916 81.0827 51.8327 78.2494 56.666C75.4161 61.3327 71.4994 66.0827 66.4994 70.916Z"/>
</mask>
<path d="M17.7494 70.916L16.5151 72.4897L17.8864 73.5652L19.1394 72.354L17.7494 70.916ZM4.99939 60.916L3.55268 59.5351L2.03076 61.1294L3.76511 62.4897L4.99939 60.916ZM13.2494 50.666L11.5725 49.576L11.5654 49.587L11.5584 49.598L13.2494 50.666ZM17.7494 40.916L15.8337 40.3413L15.8239 40.374L15.8152 40.407L17.7494 40.916ZM19.2494 30.666L20.59 29.1818L17.2494 26.1645V30.666H19.2494ZM26.9994 37.666V39.666H32.1975L28.34 36.1818L26.9994 37.666ZM2.49939 37.666H0.49939V39.666H2.49939V37.666ZM2.49939 2.91601V0.916008H0.49939V2.91601H2.49939ZM37.4994 2.91601H39.4994V0.916008H37.4994V2.91601ZM35.4994 41.916L33.5628 41.4163L33.557 41.4388L33.5517 41.4615L35.4994 41.916ZM29.4994 56.666L31.209 57.704L31.217 57.6908L31.2248 57.6774L29.4994 56.666ZM66.4994 70.916L65.2651 72.4897L66.6364 73.5652L67.8894 72.354L66.4994 70.916ZM53.7494 60.916L52.3027 59.5351L50.7808 61.1294L52.5151 62.4897L53.7494 60.916ZM61.9994 50.666L60.3225 49.576L60.3154 49.587L60.3084 49.598L61.9994 50.666ZM66.4994 40.916L64.5837 40.3413L64.5739 40.374L64.5652 40.407L66.4994 40.916ZM67.9994 30.666L69.34 29.1818L65.9994 26.1645V30.666H67.9994ZM75.7494 37.666V39.666H80.9475L77.09 36.1818L75.7494 37.666ZM51.2494 37.666H49.2494V39.666H51.2494V37.666ZM51.2494 2.91601V0.916008H49.2494V2.91601H51.2494ZM86.2494 2.91601H88.2494V0.916008H86.2494V2.91601ZM84.2494 41.916L82.3128 41.4163L82.307 41.4388L82.3017 41.4615L84.2494 41.916ZM78.2494 56.666L79.959 57.704L79.967 57.6908L79.9748 57.6774L78.2494 56.666ZM18.9837 69.3423L6.23367 59.3423L3.76511 62.4897L16.5151 72.4897L18.9837 69.3423ZM6.4461 62.297C10.0079 58.5655 12.8497 55.0442 14.9404 51.734L11.5584 49.598C9.64908 52.6211 6.99087 55.9331 3.55268 59.5351L6.4461 62.297ZM14.9263 51.756C17.1851 48.2809 18.7858 44.8365 19.6835 41.425L15.8152 40.407C15.0463 43.3289 13.647 46.3845 11.5725 49.576L14.9263 51.756ZM19.665 41.4907C20.7213 37.9699 21.2494 34.3595 21.2494 30.666H17.2494C17.2494 33.9725 16.7775 37.1955 15.8337 40.3413L19.665 41.4907ZM17.9088 32.1502L25.6588 39.1502L28.34 36.1818L20.59 29.1818L17.9088 32.1502ZM26.9994 35.666H2.49939V39.666H26.9994V35.666ZM4.49939 37.666V2.91601H0.49939V37.666H4.49939ZM2.49939 4.91601H37.4994V0.916008H2.49939V4.91601ZM35.4994 2.91601V25.666H39.4994V2.91601H35.4994ZM35.4994 25.666C35.4994 31.1745 34.8515 36.4226 33.5628 41.4163L37.4359 42.4158C38.8139 37.0761 39.4994 31.4909 39.4994 25.666H35.4994ZM33.5517 41.4615C32.4347 46.2488 30.5149 50.9789 27.774 55.6546L31.2248 57.6774C34.1506 52.6864 36.2308 47.5832 37.4471 42.3705L33.5517 41.4615ZM27.7898 55.6281C25.0658 60.1147 21.268 64.733 16.3593 69.478L19.1394 72.354C24.2308 67.4323 28.2663 62.5507 31.209 57.704L27.7898 55.6281ZM67.7337 69.3423L54.9837 59.3423L52.5151 62.4897L65.2651 72.4897L67.7337 69.3423ZM55.1961 62.297C58.7579 58.5655 61.5997 55.0442 63.6904 51.734L60.3084 49.598C58.3991 52.6211 55.7409 55.9331 52.3027 59.5351L55.1961 62.297ZM63.6763 51.756C65.9351 48.2809 67.5358 44.8365 68.4335 41.425L64.5652 40.407C63.7963 43.3289 62.397 46.3845 60.3225 49.576L63.6763 51.756ZM68.415 41.4907C69.4713 37.9699 69.9994 34.3595 69.9994 30.666H65.9994C65.9994 33.9725 65.5275 37.1955 64.5837 40.3413L68.415 41.4907ZM66.6588 32.1502L74.4088 39.1502L77.09 36.1818L69.34 29.1818L66.6588 32.1502ZM75.7494 35.666H51.2494V39.666H75.7494V35.666ZM53.2494 37.666V2.91601H49.2494V37.666H53.2494ZM51.2494 4.91601H86.2494V0.916008H51.2494V4.91601ZM84.2494 2.91601V25.666H88.2494V2.91601H84.2494ZM84.2494 25.666C84.2494 31.1745 83.6015 36.4226 82.3128 41.4163L86.1859 42.4158C87.5639 37.0761 88.2494 31.4909 88.2494 25.666H84.2494ZM82.3017 41.4615C81.1847 46.2488 79.2649 50.9789 76.524 55.6546L79.9748 57.6774C82.9006 52.6864 84.9808 47.5832 86.1971 42.3705L82.3017 41.4615ZM76.5398 55.6281C73.8158 60.1147 70.018 64.733 65.1093 69.478L67.8894 72.354C72.9808 67.4323 77.0163 62.5507 79.959 57.704L76.5398 55.6281Z" fill="#FFC200" mask="url(#path-1-outside-1_17_174)"/>
</svg>
