<svg width="304" height="250" viewBox="0 0 304 250" fill="none" xmlns="http://www.w3.org/2000/svg">
<path d="M128.373 1V83.9668C128.373 104.462 125.976 124.062 121.178 142.764L121.177 142.763C116.972 160.876 109.771 178.676 99.5801 196.162L99.5762 196.168L99.5723 196.175C89.3688 213.078 75.2801 230.258 57.3242 247.717L56.6953 248.328L56.0078 247.785L10.3359 211.756L9.47559 211.077L10.2295 210.282C22.7359 197.104 32.541 184.846 39.6602 173.509L39.668 173.498L40.3838 172.38C47.7134 160.834 52.7982 149.593 55.6592 138.658L55.6641 138.643L55.6689 138.626C56.6978 135.176 57.5766 131.702 58.3076 128.202H1V1H128.373ZM303 1V83.9668C303 104.462 300.603 124.062 295.805 142.764L295.804 142.763C291.599 160.876 284.398 178.676 274.207 196.162L274.203 196.168L274.199 196.175C263.996 213.078 249.907 230.258 231.951 247.717L231.322 248.328L230.635 247.785L184.963 211.756L184.103 211.077L184.856 210.282C197.363 197.104 207.168 184.846 214.287 173.509L214.294 173.498L215.135 174.04L214.295 173.498C222.01 161.559 227.333 149.946 230.286 138.658L230.291 138.643L230.295 138.626C231.324 135.176 232.204 131.702 232.935 128.202H175.627V1H303Z" stroke="#E6291F" stroke-opacity="0.2" stroke-width="2"/>
</svg>
