<svg width="36" height="36" viewBox="0 0 36 36" fill="none" xmlns="http://www.w3.org/2000/svg">
<path d="M33 15.5002C33 13.5702 31.43 12.0002 29.5 12.0002H27.554L22.848 4.47018C22.555 4.00218 21.94 3.85918 21.47 4.15218C21.002 4.44518 20.86 5.06218 21.153 5.53018L25.197 12.0002H10.805L14.849 5.53018C15.141 5.06218 14.999 4.44518 14.531 4.15218C14.064 3.85918 13.447 4.00218 13.153 4.47018L8.44698 12.0002H6.50098C4.57098 12.0002 3.00098 13.5702 3.00098 15.5002C3.00098 16.9482 3.88498 18.1932 5.14198 18.7252L7.58498 29.3102C7.95098 30.8932 9.34098 32.0002 10.967 32.0002H25.036C26.662 32.0002 28.053 30.8942 28.419 29.3102L30.861 18.7252C32.118 18.1932 33.002 16.9482 33.002 15.5002H33ZM26.468 28.8602C26.314 29.5312 25.724 30.0002 25.034 30.0002H10.965C10.277 30.0002 9.68698 29.5312 9.53198 28.8602L7.25698 19.0002H28.742L26.467 28.8602H26.468ZM29.5 17.0002H6.49998C5.67298 17.0002 4.99998 16.3272 4.99998 15.5002C4.99998 14.6732 5.67298 14.0002 6.49998 14.0002H29.5C30.327 14.0002 31 14.6732 31 15.5002C31 16.3272 30.327 17.0002 29.5 17.0002Z" fill="#171717"/>
<path d="M15 21C14.448 21 14 21.448 14 22V27C14 27.552 14.448 28 15 28C15.552 28 16 27.552 16 27V22C16 21.448 15.552 21 15 21Z" fill="#171717"/>
<path d="M21 21C20.447 21 20 21.448 20 22V27C20 27.552 20.447 28 21 28C21.553 28 22 27.552 22 27V22C22 21.448 21.553 21 21 21Z" fill="#171717"/>
</svg>
