<svg width="89" height="74" viewBox="0 0 89 74" fill="none" xmlns="http://www.w3.org/2000/svg">
<mask id="path-1-outside-1_24_4859" maskUnits="userSpaceOnUse" x="-3.05176e-05" y="0.000732422" width="89" height="74" fill="black">
<rect fill="white" x="-3.05176e-05" y="0.000732422" width="89" height="74"/>
<path d="M17.75 70.7507L4.99997 60.7507C8.49997 57.0841 11.25 53.6674 13.25 50.5007C15.4166 47.1674 16.9166 43.9174 17.75 40.7507C18.75 37.4174 19.25 34.0007 19.25 30.5007L27 37.5007H2.49997V2.75072H37.5V25.5007C37.5 31.1674 36.8333 36.5841 35.5 41.7507C34.3333 46.7507 32.3333 51.6674 29.5 56.5007C26.6666 61.1674 22.75 65.9174 17.75 70.7507ZM66.5 70.7507L53.75 60.7507C57.25 57.0841 60 53.6674 62 50.5007C64.1666 47.1674 65.6666 43.9174 66.5 40.7507C67.5 37.4174 68 34.0007 68 30.5007L75.75 37.5007H51.25V2.75072H86.25V25.5007C86.25 31.1674 85.5833 36.5841 84.25 41.7507C83.0833 46.7507 81.0833 51.6674 78.25 56.5007C75.4166 61.1674 71.5 65.9174 66.5 70.7507Z"/>
</mask>
<path d="M17.75 70.7507L16.5157 72.3244L17.887 73.4L19.14 72.1887L17.75 70.7507ZM4.99997 60.7507L3.55326 59.3698L2.03134 60.9642L3.76569 62.3244L4.99997 60.7507ZM13.25 50.5007L11.5731 49.4108L11.566 49.4217L11.559 49.4327L13.25 50.5007ZM17.75 40.7507L15.8343 40.176L15.8245 40.2087L15.8158 40.2417L17.75 40.7507ZM19.25 30.5007L20.5905 29.0165L17.25 25.9992V30.5007H19.25ZM27 37.5007V39.5007H32.1981L28.3405 36.0165L27 37.5007ZM2.49997 37.5007H0.499969V39.5007H2.49997V37.5007ZM2.49997 2.75072V0.750725H0.499969V2.75072H2.49997ZM37.5 2.75072H39.5V0.750725H37.5V2.75072ZM35.5 41.7507L33.5634 41.251L33.5576 41.2736L33.5523 41.2963L35.5 41.7507ZM29.5 56.5007L31.2095 57.5387L31.2176 57.5255L31.2254 57.5122L29.5 56.5007ZM66.5 70.7507L65.2657 72.3244L66.637 73.4L67.89 72.1887L66.5 70.7507ZM53.75 60.7507L52.3033 59.3698L50.7813 60.9642L52.5157 62.3244L53.75 60.7507ZM62 50.5007L60.3231 49.4108L60.316 49.4217L60.309 49.4327L62 50.5007ZM66.5 40.7507L64.5843 40.176L64.5745 40.2087L64.5658 40.2417L66.5 40.7507ZM68 30.5007L69.3405 29.0165L66 25.9992V30.5007H68ZM75.75 37.5007V39.5007H80.9481L77.0905 36.0165L75.75 37.5007ZM51.25 37.5007H49.25V39.5007H51.25V37.5007ZM51.25 2.75072V0.750725H49.25V2.75072H51.25ZM86.25 2.75072H88.25V0.750725H86.25V2.75072ZM84.25 41.7507L82.3134 41.251L82.3076 41.2736L82.3023 41.2963L84.25 41.7507ZM78.25 56.5007L79.9595 57.5387L79.9676 57.5255L79.9754 57.5122L78.25 56.5007ZM18.9842 69.177L6.23425 59.177L3.76569 62.3244L16.5157 72.3244L18.9842 69.177ZM6.44668 62.1317C10.0085 58.4003 12.8503 54.8789 14.9409 51.5687L11.559 49.4327C9.64966 52.4559 6.99145 55.7679 3.55326 59.3698L6.44668 62.1317ZM14.9269 51.5907C17.1857 48.1156 18.7864 44.6712 19.6841 41.2597L15.8158 40.2417C15.0469 43.1636 13.6476 46.2192 11.5731 49.4108L14.9269 51.5907ZM19.6656 41.3254C20.7219 37.8046 21.25 34.1942 21.25 30.5007H17.25C17.25 33.8072 16.7781 37.0302 15.8343 40.176L19.6656 41.3254ZM17.9094 31.9849L25.6594 38.9849L28.3405 36.0165L20.5905 29.0165L17.9094 31.9849ZM27 35.5007H2.49997V39.5007H27V35.5007ZM4.49997 37.5007V2.75072H0.499969V37.5007H4.49997ZM2.49997 4.75072H37.5V0.750725H2.49997V4.75072ZM35.5 2.75072V25.5007H39.5V2.75072H35.5ZM35.5 25.5007C35.5 31.0092 34.8521 36.2573 33.5634 41.251L37.4365 42.2505C38.8145 36.9108 39.5 31.3256 39.5 25.5007H35.5ZM33.5523 41.2963C32.4353 46.0835 30.5155 50.8137 27.7746 55.4893L31.2254 57.5122C34.1511 52.5211 36.2313 47.4179 37.4477 42.2052L33.5523 41.2963ZM27.7904 55.4628C25.0664 59.9494 21.2686 64.5677 16.3599 69.3127L19.14 72.1887C24.2314 67.2671 28.2669 62.3854 31.2095 57.5387L27.7904 55.4628ZM67.7343 69.177L54.9843 59.177L52.5157 62.3244L65.2657 72.3244L67.7343 69.177ZM55.1967 62.1317C58.7585 58.4003 61.6003 54.8789 63.6909 51.5687L60.309 49.4327C58.3997 52.4559 55.7415 55.7679 52.3033 59.3698L55.1967 62.1317ZM63.6769 51.5907C65.9357 48.1156 67.5364 44.6712 68.4341 41.2597L64.5658 40.2417C63.7969 43.1636 62.3976 46.2192 60.3231 49.4108L63.6769 51.5907ZM68.4156 41.3254C69.4719 37.8046 70 34.1942 70 30.5007H66C66 33.8072 65.5281 37.0302 64.5843 40.176L68.4156 41.3254ZM66.6594 31.9849L74.4094 38.9849L77.0905 36.0165L69.3405 29.0165L66.6594 31.9849ZM75.75 35.5007H51.25V39.5007H75.75V35.5007ZM53.25 37.5007V2.75072H49.25V37.5007H53.25ZM51.25 4.75072H86.25V0.750725H51.25V4.75072ZM84.25 2.75072V25.5007H88.25V2.75072H84.25ZM84.25 25.5007C84.25 31.0092 83.6021 36.2573 82.3134 41.251L86.1865 42.2505C87.5645 36.9108 88.25 31.3256 88.25 25.5007H84.25ZM82.3023 41.2963C81.1853 46.0835 79.2655 50.8137 76.5246 55.4893L79.9754 57.5122C82.9012 52.5211 84.9813 47.4179 86.1977 42.2052L82.3023 41.2963ZM76.5404 55.4628C73.8164 59.9494 70.0186 64.5677 65.1099 69.3127L67.89 72.1887C72.9814 67.2671 77.0169 62.3854 79.9595 57.5387L76.5404 55.4628Z" fill="#E84659" mask="url(#path-1-outside-1_24_4859)"/>
</svg>
