<svg width="95" height="98" viewBox="0 0 95 98" fill="none" xmlns="http://www.w3.org/2000/svg">
<path d="M69.0087 69.6577H0.773865V84.9599H69.0087V69.6577Z" fill="#FFD7DC"/>
<path d="M69.0089 81.8997H12.6401L0.773865 69.6579V29.8726H69.0089V81.8997Z" fill="#FFD7DC"/>
<path d="M69.0087 16.1006H0.773865V29.8725H69.0087V16.1006Z" fill="#FF5C74"/>
<path d="M12.6407 9.97974C11.8215 9.97974 11.1575 10.665 11.1575 11.51V20.6912C11.1575 21.5363 11.8217 22.2213 12.6407 22.2213C13.4599 22.2213 14.1242 21.5363 14.1242 20.6912V11.5098C14.1244 10.6648 13.4599 9.97974 12.6407 9.97974Z" fill="#FFD7DC"/>
<path d="M12.6407 20.6914C11.8215 20.6914 11.1575 20.0062 11.1575 19.1611V20.6914C11.1575 21.5365 11.8217 22.2215 12.6407 22.2215C13.4599 22.2215 14.1242 21.5365 14.1242 20.6914V19.1611C14.1244 20.0062 13.4599 20.6914 12.6407 20.6914Z" fill="#FF949F"/>
<path d="M27.4744 9.97974C26.6552 9.97974 25.991 10.665 25.991 11.51V20.6912C25.991 21.5363 26.6552 22.2213 27.4744 22.2213C28.2936 22.2213 28.9579 21.5363 28.9579 20.6912V11.5098C28.9579 10.6648 28.2936 9.97974 27.4744 9.97974Z" fill="#FFD7DC"/>
<path d="M42.3082 9.97974C41.489 9.97974 40.8247 10.665 40.8247 11.51V20.6912C40.8247 21.5363 41.489 22.2213 42.3082 22.2213C43.1273 22.2213 43.7914 21.5363 43.7914 20.6912V11.5098C43.7914 10.6648 43.1273 9.97974 42.3082 9.97974Z" fill="#FFD7DC"/>
<path d="M57.142 9.97974C56.3218 9.97974 55.6587 10.665 55.6587 11.51V20.6912C55.6587 21.5363 56.3218 22.2213 57.142 22.2213C57.9617 22.2213 58.6252 21.5363 58.6252 20.6912V11.5098C58.6252 10.6648 57.9617 9.97974 57.142 9.97974Z" fill="#FFD7DC"/>
<path d="M27.4744 20.6914C26.6552 20.6914 25.991 20.0062 25.991 19.1611V20.6914C25.991 21.5365 26.6552 22.2215 27.4744 22.2215C28.2936 22.2215 28.9579 21.5365 28.9579 20.6914V19.1611C28.9579 20.0062 28.2936 20.6914 27.4744 20.6914Z" fill="#FF949F"/>
<path d="M42.3082 20.6914C41.489 20.6914 40.8247 20.0062 40.8247 19.1611V20.6914C40.8247 21.5365 41.489 22.2215 42.3082 22.2215C43.1273 22.2215 43.7914 21.5365 43.7914 20.6914V19.1611C43.7914 20.0062 43.1273 20.6914 42.3082 20.6914Z" fill="#FF949F"/>
<path d="M57.142 20.6914C56.3218 20.6914 55.6587 20.0062 55.6587 19.1611V20.6914C55.6587 21.5365 56.3218 22.2215 57.142 22.2215C57.9617 22.2215 58.6252 21.5365 58.6252 20.6914V19.1611C58.6252 20.0062 57.9617 20.6914 57.142 20.6914Z" fill="#FF949F"/>
<path d="M57.142 11.51C57.9617 11.51 58.6252 12.1953 58.6252 13.0403V11.51C58.6252 10.665 57.9617 9.97974 57.142 9.97974C56.3233 9.97974 55.6587 10.665 55.6587 11.51V13.0403C55.6587 12.1953 56.3233 11.51 57.142 11.51Z" fill="white"/>
<path d="M42.3082 11.51C43.1273 11.51 43.7914 12.1953 43.7914 13.0403V11.51C43.7914 10.665 43.1273 9.97974 42.3082 9.97974C41.489 9.97974 40.8247 10.665 40.8247 11.51V13.0403C40.8247 12.1953 41.489 11.51 42.3082 11.51Z" fill="white"/>
<path d="M27.4744 11.51C28.2936 11.51 28.9579 12.1953 28.9579 13.0403V11.51C28.9579 10.665 28.2936 9.97974 27.4744 9.97974C26.6552 9.97974 25.991 10.665 25.991 11.51V13.0403C25.9912 12.1953 26.6554 11.51 27.4744 11.51Z" fill="white"/>
<path d="M12.6407 11.51C13.4607 11.51 14.1242 12.1953 14.1242 13.0403V11.51C14.1242 10.665 13.4607 9.97974 12.6407 9.97974C11.821 9.97974 11.1575 10.665 11.1575 11.51V13.0403C11.1575 12.1953 11.821 11.51 12.6407 11.51Z" fill="white"/>
<path d="M12.6407 81.8995V69.6577H0.773865L12.6407 81.8995Z" fill="white"/>
<path d="M71.2336 84.96H0.773865V88.0204H71.2336V84.96Z" fill="#FFD7DC"/>
<path d="M37.858 34.4631H31.9246V40.5839H37.858V34.4631Z" fill="white"/>
<path d="M46.7581 34.4631H40.8247V40.5839H46.7581V34.4631Z" fill="white"/>
<path d="M55.6587 34.4631H49.7251V40.5839H55.6587V34.4631Z" fill="white"/>
<path d="M11.1577 43.6443H5.22406V49.7653H11.1577V43.6443Z" fill="white"/>
<path d="M20.0577 43.6443H14.1243V49.7653H20.0577V43.6443Z" fill="white"/>
<path d="M28.9579 43.6443H23.0243V49.7653H28.9579V43.6443Z" fill="white"/>
<path d="M37.858 43.6443H31.9246V49.7653H37.858V43.6443Z" fill="white"/>
<path d="M46.7581 43.6443H40.8247V49.7653H46.7581V43.6443Z" fill="white"/>
<path d="M55.6587 43.6443H49.7251V49.7653H55.6587V43.6443Z" fill="white"/>
<path d="M11.2192 52.8254H5.28564V58.9464H11.2192V52.8254Z" fill="white"/>
<path d="M11.1577 62.0068H5.22406V68.1278H11.1577V62.0068Z" fill="white"/>
<path d="M20.0577 62.0068H14.1243V68.1278H20.0577V62.0068Z" fill="white"/>
<path d="M29.0195 62.0068H23.0859V68.1278H29.0195V62.0068Z" fill="white"/>
<path d="M37.9196 62.0068H31.9862V68.1278H37.9196V62.0068Z" fill="white"/>
<path d="M46.82 62.0068H40.8864V68.1278H46.82V62.0068Z" fill="white"/>
<path d="M46.82 71.1882H40.8864V77.3092H46.82V71.1882Z" fill="white"/>
<path d="M37.9196 71.1882H31.9862V77.3092H37.9196V71.1882Z" fill="white"/>
<path d="M28.9579 71.1882H23.0243V77.3092H28.9579V71.1882Z" fill="white"/>
<path d="M20.0577 71.1882H14.1243V77.3092H20.0577V71.1882Z" fill="white"/>
<path d="M20.1192 52.8254H14.1858V58.9464H20.1192V52.8254Z" fill="white"/>
<path d="M29.0195 52.8254H23.0859V58.9464H29.0195V52.8254Z" fill="white"/>
<g opacity="0.2">
<path d="M69.0089 16.1006H67.5253V29.8725H69.0089V16.1006Z" fill="#47383A"/>
</g>
<path d="M65.8563 29.8726H0.773865V31.4029H65.8563V29.8726Z" fill="#FF949F"/>
<path d="M37.9196 52.8254H31.9862V58.9464H37.9196V52.8254Z" fill="white"/>
<path d="M46.82 52.8254H40.8864V58.9464H46.82V52.8254Z" fill="white"/>
<path d="M82.3589 34.4632C82.3589 34.4632 94.2259 47.5311 94.2259 64.3023C94.2259 77.4167 83.9466 88.0206 71.2337 88.0206C58.5207 88.0206 48.2418 77.4167 48.2418 64.3023C48.2418 38.2739 73.4588 23.752 73.4588 23.752C73.4588 23.752 70.0619 32.4743 73.4588 35.9935C76.8704 39.4976 82.3589 34.4632 82.3589 34.4632Z" fill="#FF949F"/>
<path d="M82.3588 34.4631C82.3588 34.4631 81.6204 35.1384 80.5193 35.8215C83.4801 39.5723 91.2593 50.7202 91.2593 64.3022C91.2593 76.8994 81.7668 87.1523 69.7504 87.9428C70.2428 87.9757 70.7325 88.0205 71.2336 88.0205C83.9466 88.0205 94.2259 77.4166 94.2259 64.3022C94.2259 47.531 82.3588 34.4631 82.3588 34.4631Z" fill="#FF5C74"/>
<path d="M51.2083 64.302C51.2083 44.6059 65.6422 31.505 72.668 26.2933C73.0576 24.7952 73.4588 23.7515 73.4588 23.7515C73.4588 23.7515 48.2418 38.2735 48.2418 64.3018C48.2418 77.4162 58.5207 88.0201 71.2337 88.0201C71.7348 88.0201 72.2249 87.9753 72.7173 87.9424C60.7009 87.1521 51.2083 76.8994 51.2083 64.302Z" fill="#FFD7DC"/>
<path d="M91.2593 64.3022C91.2593 75.7113 82.294 84.9601 71.2336 84.9601C60.1737 84.9601 51.2083 75.7115 51.2083 64.3022C51.2083 52.8928 60.1735 43.6443 71.2336 43.6443C82.2938 43.6445 91.2593 52.893 91.2593 64.3022Z" fill="white"/>
<g opacity="0.5">
<path d="M88.2924 64.3022C88.2924 75.1944 80.1154 84.0963 69.7504 84.8824C70.2413 84.9197 70.7325 84.9601 71.2336 84.9601C82.2939 84.9601 91.2593 75.7115 91.2593 64.3022C91.2593 52.8928 82.2941 43.6443 71.2336 43.6443C70.7325 43.6443 70.2413 43.6847 69.7504 43.722C80.1152 44.5081 88.2924 53.41 88.2924 64.3022Z" fill="white"/>
</g>
<path d="M14.1241 68.1277H0.773865V69.6578H14.1241V68.1277Z" fill="#FF949F"/>
<path d="M14.1242 69.6577H12.6407V81.8995H14.1242V69.6577Z" fill="#FF949F"/>
<g opacity="0.3">
<path d="M2.25713 16.1006H0.773865V29.8725H2.25713V16.1006Z" fill="white"/>
</g>
<path d="M2.25713 31.4026H0.773865V68.1275H2.25713V31.4026Z" fill="white"/>
<path d="M51.2083 82.6646H12.6407C12.2309 82.6646 11.8991 82.3224 11.8991 81.8996C11.8991 81.4768 12.2309 81.1345 12.6407 81.1345H51.2083C51.6182 81.1345 51.9501 81.4768 51.9501 81.8996C51.9501 82.3224 51.6182 82.6646 51.2083 82.6646Z" fill="#FF1125"/>
<path d="M0.773918 70.4231C0.364045 70.4231 0.0322876 70.0809 0.0322876 69.6579V16.1007C0.0322876 15.6777 0.364045 15.3354 0.773918 15.3354C1.18379 15.3354 1.51555 15.6777 1.51555 16.1007V69.6579C1.51555 70.0809 1.18379 70.4231 0.773918 70.4231Z" fill="#FF1125"/>
<path d="M8.19078 16.8657H0.773919C0.364045 16.8657 0.0322876 16.5235 0.0322876 16.1007C0.0322876 15.6777 0.364045 15.3354 0.773919 15.3354H8.19078C8.60066 15.3354 8.93242 15.6777 8.93242 16.1007C8.93242 16.5235 8.60084 16.8657 8.19078 16.8657Z" fill="#FF1125"/>
<path d="M69.0089 16.8657H61.5917C61.1818 16.8657 60.8502 16.5235 60.8502 16.1007C60.8502 15.6777 61.1818 15.3354 61.5917 15.3354H69.0089C69.4188 15.3354 69.7503 15.6777 69.7503 16.1007C69.7503 16.5235 69.4188 16.8657 69.0089 16.8657Z" fill="#FF1125"/>
<path d="M69.0089 22.9865C68.5987 22.9865 68.2671 22.6443 68.2671 22.2213V16.1007C68.2671 15.6777 68.5987 15.3354 69.0089 15.3354C69.4188 15.3354 69.7503 15.6777 69.7503 16.1007V22.2215C69.7503 22.6445 69.4188 22.9865 69.0089 22.9865Z" fill="#FF1125"/>
<path d="M60.1085 30.6377H0.773919C0.364045 30.6377 0.0322876 30.2954 0.0322876 29.8724C0.0322876 29.4494 0.364045 29.1072 0.773919 29.1072H60.1085C60.5187 29.1072 60.8503 29.4494 60.8503 29.8724C60.8503 30.2954 60.5187 30.6377 60.1085 30.6377Z" fill="#FF1125"/>
<path d="M37.858 41.349H31.9246C31.5147 41.349 31.183 41.0068 31.183 40.5838V34.463C31.183 34.04 31.5147 33.6978 31.9246 33.6978H37.858C38.2679 33.6978 38.5999 34.04 38.5999 34.463V40.5838C38.5999 41.0068 38.2681 41.349 37.858 41.349ZM32.6662 39.8187H37.1162V35.2282H32.6662V39.8187Z" fill="#FF1125"/>
<path d="M46.7589 41.349H40.8247C40.4148 41.349 40.0829 41.0068 40.0829 40.5838V34.463C40.0829 34.04 40.4146 33.6978 40.8247 33.6978H46.7589C47.1687 33.6978 47.5005 34.04 47.5005 34.463V40.5838C47.5005 41.0068 47.1689 41.349 46.7589 41.349ZM41.5663 39.8187H46.0172V35.2282H41.5663V39.8187Z" fill="#FF1125"/>
<path d="M49.7251 41.349C49.3152 41.349 48.9833 41.0068 48.9833 40.5838V34.463C48.9833 34.04 49.3152 33.6978 49.7251 33.6978H55.6587C56.0686 33.6978 56.4001 34.04 56.4001 34.463C56.4001 34.8858 56.0686 35.228 55.6587 35.228H50.4667V40.5838C50.4665 41.0068 50.135 41.349 49.7251 41.349Z" fill="#FF1125"/>
<path d="M11.1575 50.5302H5.22405C4.81418 50.5302 4.48242 50.1882 4.48242 49.7652V43.6442C4.48242 43.2214 4.81418 42.8792 5.22405 42.8792H11.1577C11.5675 42.8792 11.8993 43.2214 11.8993 43.6442V49.7652C11.8991 50.1882 11.5673 50.5302 11.1575 50.5302ZM5.96568 49.0001H10.4158V44.4094H5.96568V49.0001Z" fill="#FF1125"/>
<path d="M20.0578 50.5302H14.1244C13.7143 50.5302 13.3826 50.1882 13.3826 49.7652V43.6442C13.3826 43.2214 13.7143 42.8792 14.1244 42.8792H20.0578C20.4677 42.8792 20.7996 43.2214 20.7996 43.6442V49.7652C20.7994 50.1882 20.4677 50.5302 20.0578 50.5302ZM14.866 49.0001H19.316V44.4094H14.866V49.0001Z" fill="#FF1125"/>
<path d="M28.9579 50.5302H23.0243C22.6145 50.5302 22.2827 50.1882 22.2827 49.7652V43.6442C22.2827 43.2214 22.6145 42.8792 23.0243 42.8792H28.9579C29.3678 42.8792 29.6996 43.2214 29.6996 43.6442V49.7652C29.6996 50.1882 29.3678 50.5302 28.9579 50.5302ZM23.7662 49.0001H28.2163V44.4094H23.7662V49.0001Z" fill="#FF1125"/>
<path d="M37.858 50.5302H31.9246C31.5147 50.5302 31.183 50.1882 31.183 49.7652V43.6442C31.183 43.2214 31.5147 42.8792 31.9246 42.8792H37.858C38.2679 42.8792 38.5999 43.2214 38.5999 43.6442V49.7652C38.5999 50.1882 38.2681 50.5302 37.858 50.5302ZM32.6662 49.0001H37.1162V44.4094H32.6662V49.0001Z" fill="#FF1125"/>
<path d="M46.7589 50.5302H40.8247C40.4148 50.5302 40.0829 50.1882 40.0829 49.7652V43.6442C40.0829 43.2214 40.4146 42.8792 40.8247 42.8792H46.7589C47.1687 42.8792 47.5005 43.2214 47.5005 43.6442V49.7652C47.5005 50.1882 47.1689 50.5302 46.7589 50.5302ZM41.5663 49.0001H46.0172V44.4094H41.5663V49.0001Z" fill="#FF1125"/>
<path d="M49.7251 45.9398C49.3152 45.9398 48.9833 45.5976 48.9833 45.1747V43.6444C48.9833 43.2216 49.3152 42.8794 49.7251 42.8794C50.135 42.8794 50.4665 43.2216 50.4665 43.6444V45.1747C50.4665 45.5976 50.135 45.9398 49.7251 45.9398Z" fill="#FF1125"/>
<path d="M11.1575 59.7116H5.22405C4.81418 59.7116 4.48242 59.3694 4.48242 58.9466V52.8256C4.48242 52.4028 4.81418 52.0605 5.22405 52.0605H11.1577C11.5675 52.0605 11.8993 52.4028 11.8993 52.8256V58.9466C11.8991 59.3694 11.5673 59.7116 11.1575 59.7116ZM5.96568 58.1813H10.4158V53.5908H5.96568V58.1813Z" fill="#FF1125"/>
<path d="M20.0578 59.7116H14.1244C13.7143 59.7116 13.3826 59.3694 13.3826 58.9466V52.8256C13.3826 52.4028 13.7143 52.0605 14.1244 52.0605H20.0578C20.4677 52.0605 20.7996 52.4028 20.7996 52.8256V58.9466C20.7994 59.3694 20.4677 59.7116 20.0578 59.7116ZM14.866 58.1813H19.316V53.5908H14.866V58.1813Z" fill="#FF1125"/>
<path d="M28.9579 59.7116H23.0243C22.6145 59.7116 22.2827 59.3694 22.2827 58.9466V52.8256C22.2827 52.4028 22.6145 52.0605 23.0243 52.0605H28.9579C29.3678 52.0605 29.6996 52.4028 29.6996 52.8256V58.9466C29.6996 59.3694 29.3678 59.7116 28.9579 59.7116ZM23.7662 58.1813H28.2163V53.5908H23.7662V58.1813Z" fill="#FF1125"/>
<path d="M37.858 59.7116H31.9246C31.5147 59.7116 31.183 59.3694 31.183 58.9466V52.8256C31.183 52.4028 31.5147 52.0605 31.9246 52.0605H37.858C38.2679 52.0605 38.5999 52.4028 38.5999 52.8256V58.9466C38.5999 59.3694 38.2681 59.7116 37.858 59.7116ZM32.6662 58.1813H37.1162V53.5908H32.6662V58.1813Z" fill="#FF1125"/>
<path d="M40.8247 59.7116C40.4148 59.7116 40.0829 59.3694 40.0829 58.9466V52.8256C40.0829 52.4028 40.4146 52.0605 40.8247 52.0605H46.7589C47.1687 52.0605 47.5005 52.4028 47.5005 52.8256C47.5005 53.2484 47.1687 53.5906 46.7589 53.5906H41.5663V58.9464C41.5663 59.3694 41.2348 59.7116 40.8247 59.7116Z" fill="#FF1125"/>
<path d="M28.9579 68.8928H23.0243C22.6145 68.8928 22.2827 68.5505 22.2827 68.1277V62.0068C22.2827 61.5839 22.6145 61.2417 23.0243 61.2417H28.9579C29.3678 61.2417 29.6996 61.5839 29.6996 62.0068V68.1277C29.6996 68.5505 29.3678 68.8928 28.9579 68.8928ZM23.7662 67.3627H28.2163V62.7722H23.7662V67.3627Z" fill="#FF1125"/>
<path d="M37.858 68.8928H31.9246C31.5147 68.8928 31.183 68.5505 31.183 68.1277V62.0068C31.183 61.5839 31.5147 61.2417 31.9246 61.2417H37.858C38.2679 61.2417 38.5999 61.5839 38.5999 62.0068V68.1277C38.5999 68.5505 38.2681 68.8928 37.858 68.8928ZM32.6662 67.3627H37.1162V62.7722H32.6662V67.3627Z" fill="#FF1125"/>
<path d="M45.2756 68.8928H40.8247C40.4148 68.8928 40.0829 68.5505 40.0829 68.1277V62.0068C40.0829 61.5839 40.4146 61.2417 40.8247 61.2417H45.2756C45.6855 61.2417 46.0172 61.5839 46.0172 62.0068C46.0172 62.4298 45.6855 62.772 45.2756 62.772H41.5663V67.3625H45.2756C45.6855 67.3625 46.0172 67.7047 46.0172 68.1275C46.0172 68.5504 45.6855 68.8928 45.2756 68.8928Z" fill="#FF1125"/>
<path d="M28.9579 78.0739H23.0243C22.6145 78.0739 22.2827 77.7317 22.2827 77.3089V71.1879C22.2827 70.7649 22.6145 70.4229 23.0243 70.4229H28.9579C29.3678 70.4229 29.6996 70.7649 29.6996 71.1879V77.3089C29.6996 77.7317 29.3678 78.0739 28.9579 78.0739ZM23.7662 76.5438H28.2163V71.9531H23.7662V76.5438Z" fill="#FF1125"/>
<path d="M37.858 78.0739H31.9246C31.5147 78.0739 31.183 77.7317 31.183 77.3089V71.1879C31.183 70.7649 31.5147 70.4229 31.9246 70.4229H37.858C38.2679 70.4229 38.5999 70.7649 38.5999 71.1879V77.3089C38.5999 77.7317 38.2681 78.0739 37.858 78.0739ZM32.6662 76.5438H37.1162V71.9531H32.6662V76.5438Z" fill="#FF1125"/>
<path d="M46.7589 78.0739H40.8247C40.4148 78.0739 40.0829 77.7317 40.0829 77.3089V71.1879C40.0829 70.7649 40.4146 70.4229 40.8247 70.4229C41.2348 70.4229 41.5663 70.7649 41.5663 71.1879V76.5436H46.7589C47.1687 76.5436 47.5005 76.8857 47.5005 77.3087C47.5005 77.7317 47.1689 78.0739 46.7589 78.0739Z" fill="#FF1125"/>
<path d="M54.175 85.7249H0.773918C0.364045 85.7249 0.0322876 85.3827 0.0322876 84.9599C0.0322876 84.5369 0.364045 84.1948 0.773918 84.1948H54.1749C54.5851 84.1948 54.9167 84.5369 54.9167 84.9599C54.9169 85.3827 54.5853 85.7249 54.175 85.7249Z" fill="#FF1125"/>
<path d="M58.6252 88.7854H0.773918C0.364045 88.7854 0.0322876 88.4432 0.0322876 88.0204C0.0322876 87.5974 0.364045 87.2551 0.773918 87.2551H58.6252C59.0351 87.2551 59.367 87.5974 59.367 88.0204C59.367 88.4432 59.0351 88.7854 58.6252 88.7854Z" fill="#FF1125"/>
<path d="M12.6407 82.6646C12.4511 82.6646 12.2613 82.59 12.1164 82.4405L0.249534 70.1987C-0.0402905 69.9 -0.0402905 69.4159 0.249534 69.1169C0.539358 68.8181 1.00861 68.8181 1.29824 69.1169L13.1651 81.3587C13.4549 81.6577 13.4549 82.1417 13.1651 82.4405C13.0204 82.59 12.8305 82.6646 12.6407 82.6646Z" fill="#FF1125"/>
<path d="M12.6407 82.6647C12.2309 82.6647 11.8991 82.3225 11.8991 81.8996V69.6579C11.8991 69.2351 12.2309 68.8928 12.6407 68.8928C13.0508 68.8928 13.3826 69.2351 13.3826 69.6579V81.8996C13.3826 82.3225 13.0508 82.6647 12.6407 82.6647Z" fill="#FF1125"/>
<path d="M12.6408 70.4231H0.773918C0.364045 70.4231 0.0322876 70.0809 0.0322876 69.6579C0.0322876 69.2351 0.364045 68.8928 0.773918 68.8928H12.6408C13.0508 68.8928 13.3826 69.2351 13.3826 69.6579C13.3826 70.0809 13.0508 70.4231 12.6408 70.4231Z" fill="#FF1125"/>
<path d="M0.773918 85.7249C0.364045 85.7249 0.0322876 85.3827 0.0322876 84.9599V73.9301C0.0322876 73.5071 0.364045 73.165 0.773918 73.165C1.18379 73.165 1.51555 73.5071 1.51555 73.9301V84.9599C1.51555 85.3827 1.18379 85.7249 0.773918 85.7249Z" fill="#FF1125"/>
<path d="M11.1575 62.772H5.22405C4.81418 62.772 4.48242 62.4298 4.48242 62.0068C4.48242 61.5839 4.81418 61.2417 5.22405 61.2417H11.1577C11.5675 61.2417 11.8993 61.5839 11.8993 62.0068C11.8991 62.4298 11.5673 62.772 11.1575 62.772Z" fill="#FF1125"/>
<path d="M11.1575 67.3627C10.7476 67.3627 10.4158 67.0205 10.4158 66.5977V62.007C10.4158 61.5842 10.7476 61.2419 11.1575 61.2419C11.5673 61.2419 11.8991 61.5842 11.8991 62.007V66.5977C11.8991 67.0203 11.5673 67.3627 11.1575 67.3627Z" fill="#FF1125"/>
<path d="M5.22405 67.3627C4.81418 67.3627 4.48242 67.0205 4.48242 66.5977V62.007C4.48242 61.5842 4.81418 61.2419 5.22405 61.2419C5.63411 61.2419 5.96587 61.5842 5.96587 62.007V66.5977C5.96568 67.0203 5.63411 67.3627 5.22405 67.3627Z" fill="#FF1125"/>
<path d="M14.1244 67.3627C13.7143 67.3627 13.3826 67.0205 13.3826 66.5977V62.007C13.3826 61.5842 13.7143 61.2419 14.1244 61.2419C14.5343 61.2419 14.866 61.5842 14.866 62.007V66.5977C14.866 67.0203 14.5343 67.3627 14.1244 67.3627Z" fill="#FF1125"/>
<path d="M20.0578 62.772H14.1244C13.7143 62.772 13.3826 62.4298 13.3826 62.0068C13.3826 61.5839 13.7143 61.2417 14.1244 61.2417H20.0578C20.4677 61.2417 20.7996 61.5839 20.7996 62.0068C20.7994 62.4298 20.4677 62.772 20.0578 62.772Z" fill="#FF1125"/>
<path d="M20.0577 68.8928C19.6479 68.8928 19.3159 68.5505 19.3159 68.1277V62.0068C19.3159 61.5839 19.6477 61.2417 20.0577 61.2417C20.4678 61.2417 20.7996 61.5839 20.7996 62.0068V68.1277C20.7994 68.5505 20.4676 68.8928 20.0577 68.8928Z" fill="#FF1125"/>
<path d="M20.0578 68.8929H15.6076C15.1977 68.8929 14.866 68.5507 14.866 68.1278C14.866 67.705 15.1977 67.3628 15.6076 67.3628H20.0578C20.4676 67.3628 20.7996 67.705 20.7996 68.1278C20.7996 68.5507 20.4676 68.8929 20.0578 68.8929Z" fill="#FF1125"/>
<path d="M20.0577 78.0739C19.6479 78.0739 19.3159 77.7317 19.3159 77.3089V71.1879C19.3159 70.7649 19.6477 70.4229 20.0577 70.4229C20.4678 70.4229 20.7996 70.7649 20.7996 71.1879V77.3089C20.7994 77.7317 20.4676 78.0739 20.0577 78.0739Z" fill="#FF1125"/>
<path d="M20.0578 78.074H15.6076C15.1977 78.074 14.866 77.7318 14.866 77.309C14.866 76.886 15.1977 76.5439 15.6076 76.5439H20.0578C20.4676 76.5439 20.7996 76.886 20.7996 77.309C20.7994 77.7318 20.4676 78.074 20.0578 78.074Z" fill="#FF1125"/>
<path d="M20.0578 71.9532H15.6076C15.1977 71.9532 14.866 71.6112 14.866 71.1881C14.866 70.7651 15.1977 70.4231 15.6076 70.4231H20.0578C20.4676 70.4231 20.7996 70.7651 20.7996 71.1881C20.7996 71.6112 20.4676 71.9532 20.0578 71.9532Z" fill="#FF1125"/>
<path d="M10.4158 27.5772H5.96569C5.55582 27.5772 5.22388 27.2349 5.22388 26.8121C5.22388 26.3891 5.55563 26.0469 5.96569 26.0469H10.4158C10.8257 26.0469 11.1575 26.3891 11.1575 26.8121C11.1575 27.2349 10.8257 27.5772 10.4158 27.5772Z" fill="#FF1125"/>
<path d="M19.3159 27.5772H14.866C14.4561 27.5772 14.1243 27.2349 14.1243 26.8121C14.1243 26.3891 14.4561 26.0469 14.866 26.0469H19.3159C19.726 26.0469 20.0577 26.3891 20.0577 26.8121C20.0577 27.2349 19.726 27.5772 19.3159 27.5772Z" fill="#FF1125"/>
<path d="M28.2163 27.5772H23.7661C23.3562 27.5772 23.0243 27.2349 23.0243 26.8121C23.0243 26.3891 23.3561 26.0469 23.7661 26.0469H28.2163C28.6261 26.0469 28.9579 26.3891 28.9579 26.8121C28.9579 27.2349 28.6261 27.5772 28.2163 27.5772Z" fill="#FF1125"/>
<path d="M37.1164 27.5772H32.6664C32.2566 27.5772 31.9248 27.2349 31.9248 26.8121C31.9248 26.3891 32.2566 26.0469 32.6664 26.0469H37.1164C37.5265 26.0469 37.8582 26.3891 37.8582 26.8121C37.858 27.2349 37.5265 27.5772 37.1164 27.5772Z" fill="#FF1125"/>
<path d="M46.0172 27.5772H41.5671C41.1572 27.5772 40.8254 27.2349 40.8254 26.8121C40.8254 26.3891 41.1572 26.0469 41.5671 26.0469H46.0172C46.4271 26.0469 46.7589 26.3891 46.7589 26.8121C46.7589 27.2349 46.4271 27.5772 46.0172 27.5772Z" fill="#FF1125"/>
<path d="M54.9168 27.5772H50.4667C50.0568 27.5772 49.7252 27.2349 49.7252 26.8121C49.7252 26.3891 50.0568 26.0469 50.4667 26.0469H54.9168C55.3267 26.0469 55.6586 26.3891 55.6586 26.8121C55.6586 27.2349 55.3267 27.5772 54.9168 27.5772Z" fill="#FF1125"/>
<path d="M63.8167 27.5772H59.3669C58.9567 27.5772 58.6251 27.2349 58.6251 26.8121C58.6251 26.3891 58.9567 26.0469 59.3669 26.0469H63.8167C64.227 26.0469 64.5585 26.3891 64.5585 26.8121C64.5587 27.2349 64.227 27.5772 63.8167 27.5772Z" fill="#FF1125"/>
<path d="M12.6407 22.9865C11.4139 22.9865 10.4158 21.9569 10.4158 20.6911V11.5099C10.4158 10.2442 11.4139 9.2146 12.6407 9.2146C13.8677 9.2146 14.8658 10.2442 14.8658 11.5099V20.6911C14.866 21.9569 13.8679 22.9865 12.6407 22.9865ZM12.6407 10.7449C12.2316 10.7449 11.8991 11.0879 11.8991 11.5101V20.6913C11.8991 21.1136 12.2316 21.4564 12.6407 21.4564C13.05 21.4564 13.3825 21.1134 13.3825 20.6913V11.5099C13.3825 11.0879 13.05 10.7449 12.6407 10.7449Z" fill="#FF1125"/>
<path d="M27.4745 22.9865C26.2474 22.9865 25.2494 21.9569 25.2494 20.6911V11.5099C25.2494 10.2442 26.2474 9.2146 27.4745 9.2146C28.7015 9.2146 29.6995 10.2442 29.6995 11.5099V20.6911C29.6995 21.9569 28.7015 22.9865 27.4745 22.9865ZM27.4745 10.7449C27.0652 10.7449 26.7327 11.0879 26.7327 11.5101V20.6913C26.7327 21.1136 27.0652 21.4564 27.4745 21.4564C27.8838 21.4564 28.2163 21.1134 28.2163 20.6913V11.5099C28.2163 11.0879 27.8838 10.7449 27.4745 10.7449Z" fill="#FF1125"/>
<path d="M42.309 22.9865C41.0819 22.9865 40.0831 21.9569 40.0831 20.6911V11.5099C40.0831 10.2442 41.0819 9.2146 42.309 9.2146C43.5358 9.2146 44.534 10.2442 44.534 11.5099V20.6911C44.534 21.9569 43.5358 22.9865 42.309 22.9865ZM42.309 10.7449C41.8996 10.7449 41.5666 11.0879 41.5666 11.5101V20.6913C41.5666 21.1136 41.8996 21.4564 42.309 21.4564C42.7181 21.4564 43.0506 21.1134 43.0506 20.6913V11.5099C43.0506 11.0879 42.7181 10.7449 42.309 10.7449Z" fill="#FF1125"/>
<path d="M57.1419 22.9865C55.9149 22.9865 54.9169 21.9569 54.9169 20.6911V11.5099C54.9169 10.2442 55.9149 9.2146 57.1419 9.2146C58.369 9.2146 59.367 10.2442 59.367 11.5099V20.6911C59.367 21.9569 58.369 22.9865 57.1419 22.9865ZM57.1419 10.7449C56.7336 10.7449 56.4001 11.0879 56.4001 11.5101V20.6913C56.4001 21.1136 56.7336 21.4564 57.1419 21.4564C57.5503 21.4564 57.8834 21.1134 57.8834 20.6913V11.5099C57.8834 11.0879 57.5503 10.7449 57.1419 10.7449Z" fill="#FF1125"/>
<path d="M23.0243 16.8657H17.0909C16.681 16.8657 16.3491 16.5235 16.3491 16.1007C16.3491 15.6777 16.6808 15.3354 17.0909 15.3354H23.0243C23.4344 15.3354 23.7661 15.6777 23.7661 16.1007C23.7661 16.5235 23.4344 16.8657 23.0243 16.8657Z" fill="#FF1125"/>
<path d="M37.858 16.8657H31.9246C31.5147 16.8657 31.183 16.5235 31.183 16.1007C31.183 15.6777 31.5147 15.3354 31.9246 15.3354H37.858C38.2679 15.3354 38.5999 15.6777 38.5999 16.1007C38.5999 16.5235 38.2681 16.8657 37.858 16.8657Z" fill="#FF1125"/>
<path d="M52.6915 16.8657H46.7588C46.349 16.8657 46.0172 16.5235 46.0172 16.1007C46.0172 15.6777 46.349 15.3354 46.7588 15.3354H52.6915C53.1014 15.3354 53.4333 15.6777 53.4333 16.1007C53.4335 16.5235 53.1014 16.8657 52.6915 16.8657Z" fill="#FF1125"/>
<path d="M71.2336 88.7853C70.8238 88.7853 70.4922 88.443 70.4922 88.0202C70.4922 87.5972 70.8238 87.255 71.2336 87.255C83.5033 87.255 93.4844 76.959 93.4844 64.3019C93.4844 63.8791 93.816 63.5369 94.2259 63.5369C94.6357 63.5369 94.9677 63.8791 94.9677 64.3019C94.9677 77.802 84.3204 88.7853 71.2336 88.7853Z" fill="#FF1125"/>
<path d="M71.2337 88.7853C58.1472 88.7853 47.5 77.802 47.5 64.3019C47.5 63.8791 47.8318 63.5369 48.242 63.5369C48.6519 63.5369 48.9834 63.8791 48.9834 64.3019C48.9834 76.959 58.9642 87.255 71.2339 87.255C71.6441 87.255 71.9757 87.5972 71.9757 88.0202C71.9755 88.443 71.6439 88.7853 71.2337 88.7853Z" fill="#FF1125"/>
<path d="M94.2258 65.0671C93.816 65.0671 93.4844 64.7248 93.4844 64.302C93.4844 49.8889 84.4321 38.1196 82.2737 35.5203C80.6759 36.7843 76.1343 39.8238 72.9358 36.5357C70.2849 33.7898 71.2698 28.4685 72.0972 25.5298C66.4677 29.365 48.9832 42.9966 48.9832 64.302C48.9832 64.7248 48.6516 65.0671 48.2418 65.0671C47.8315 65.0671 47.4998 64.7248 47.4998 64.302C47.4998 38.1272 72.8416 23.2308 73.0967 23.0834C73.3704 22.9274 73.7123 22.964 73.9484 23.1768C74.1846 23.3912 74.2643 23.7358 74.1469 24.0361C74.115 24.119 70.9731 32.3326 73.9845 35.4527C76.8644 38.413 81.8155 33.9375 81.8664 33.8912C82.1649 33.6148 82.6256 33.6364 82.9006 33.9398C83.3934 34.4823 94.9677 47.4225 94.9677 64.3018C94.9677 64.7248 94.6357 65.0671 94.2258 65.0671Z" fill="#FF1125"/>
<path d="M71.2786 47.4697C70.8687 47.4697 70.5299 47.1275 70.5299 46.7045C70.5299 46.2817 70.8542 45.9395 71.2626 45.9395H71.2786C71.6873 45.9395 72.0204 46.2817 72.0204 46.7045C72.0204 47.1277 71.6873 47.4697 71.2786 47.4697Z" fill="#FF1125"/>
<path d="M71.2786 82.6646C70.8687 82.6646 70.5299 82.3224 70.5299 81.8996C70.5299 81.4768 70.8542 81.1345 71.2626 81.1345H71.2786C71.6873 81.1345 72.0204 81.4768 72.0204 81.8996C72.0204 82.3224 71.6873 82.6646 71.2786 82.6646Z" fill="#FF1125"/>
<path d="M62.7493 49.8279C62.3394 49.8279 62.0006 49.4856 62.0006 49.0626C62.0006 48.6396 62.3249 48.2974 62.7333 48.2974H62.7493C63.1581 48.2974 63.4911 48.6396 63.4911 49.0626C63.4911 49.4856 63.1581 49.8279 62.7493 49.8279Z" fill="#FF1125"/>
<path d="M79.8079 80.3067C79.398 80.3067 79.0592 79.9644 79.0592 79.5414C79.0592 79.1186 79.3835 78.7764 79.7919 78.7764H79.8079C80.2163 78.7764 80.5497 79.1186 80.5497 79.5414C80.5497 79.9642 80.2163 80.3067 79.8079 80.3067Z" fill="#FF1125"/>
<path d="M56.5028 56.2684C56.093 56.2684 55.7538 55.9261 55.7538 55.5033C55.7538 55.0805 56.0785 54.7383 56.4869 54.7383H56.5028C56.9112 54.7383 57.2447 55.0805 57.2447 55.5033C57.2447 55.9261 56.9114 56.2684 56.5028 56.2684Z" fill="#FF1125"/>
<path d="M86.0515 73.8658C85.6413 73.8658 85.3025 73.5236 85.3025 73.1007C85.3025 72.6779 85.6268 72.3357 86.0356 72.3357H86.0515C86.4599 72.3357 86.793 72.6779 86.793 73.1007C86.793 73.5236 86.4601 73.8658 86.0515 73.8658Z" fill="#FF1125"/>
<path d="M54.2169 65.067C53.8071 65.067 53.4683 64.7247 53.4683 64.3019C53.4683 63.8791 53.7926 63.5369 54.201 63.5369H54.2169C54.6257 63.5369 54.9588 63.8791 54.9588 64.3019C54.9588 64.7247 54.6257 65.067 54.2169 65.067Z" fill="#FF1125"/>
<path d="M88.3344 65.067C87.9245 65.067 87.5857 64.7247 87.5857 64.3019C87.5857 63.8791 87.91 63.5369 88.3184 63.5369H88.3344C88.7428 63.5369 89.0762 63.8791 89.0762 64.3019C89.0762 64.7247 88.7428 65.067 88.3344 65.067Z" fill="#FF1125"/>
<path d="M56.5002 73.8673C56.0903 73.8673 55.7511 73.525 55.7511 73.1022C55.7511 72.6794 56.0758 72.3372 56.4842 72.3372H56.5002C56.9085 72.3372 57.242 72.6794 57.242 73.1022C57.242 73.525 56.9085 73.8673 56.5002 73.8673Z" fill="#FF1125"/>
<path d="M86.0489 56.2684C85.6386 56.2684 85.2998 55.9261 85.2998 55.5033C85.2998 55.0805 85.6241 54.7383 86.0329 54.7383H86.0489C86.4572 54.7383 86.7903 55.0805 86.7903 55.5033C86.7903 55.9261 86.4572 56.2684 86.0489 56.2684Z" fill="#FF1125"/>
<path d="M62.7464 80.3096C62.3365 80.3096 61.9977 79.9674 61.9977 79.5443C61.9977 79.1215 62.322 78.7793 62.7304 78.7793H62.7464C63.1551 78.7793 63.4882 79.1215 63.4882 79.5443C63.4882 79.9674 63.1551 80.3096 62.7464 80.3096Z" fill="#FF1125"/>
<path d="M79.805 49.8293C79.3951 49.8293 79.0563 49.4871 79.0563 49.0641C79.0563 48.6411 79.3806 48.2988 79.789 48.2988H79.805C80.2137 48.2988 80.5468 48.6411 80.5468 49.0641C80.5468 49.4871 80.2139 49.8293 79.805 49.8293Z" fill="#FF1125"/>
<path d="M71.2337 85.7251C59.7827 85.7251 50.4666 76.1149 50.4666 64.3021C50.4666 52.4893 59.7827 42.8792 71.2337 42.8792C82.6851 42.8792 92.0008 52.4893 92.0008 64.3021C92.0008 76.1149 82.6851 85.7251 71.2337 85.7251ZM71.2337 44.4094C60.6009 44.4094 51.9502 53.3338 51.9502 64.3021C51.9502 75.2705 60.6009 84.195 71.2337 84.195C81.8665 84.195 90.5176 75.2706 90.5176 64.3021C90.5176 53.3336 81.8665 44.4094 71.2337 44.4094Z" fill="#FF1125"/>
<path d="M71.2336 65.0672C70.8238 65.0672 70.4922 64.725 70.4922 64.3021V51.2955C70.4922 50.8725 70.8238 50.5303 71.2336 50.5303C71.6439 50.5303 71.9755 50.8725 71.9755 51.2955V64.3021C71.9755 64.725 71.6439 65.0672 71.2336 65.0672Z" fill="#FF1125"/>
<path d="M79.3923 73.4832C79.2025 73.4832 79.0129 73.4086 78.868 73.2593L70.7093 64.8429C70.4197 64.544 70.4197 64.0599 70.7093 63.7611C70.9991 63.4621 71.4686 63.4621 71.758 63.7611L79.9167 72.1774C80.2065 72.4762 80.2065 72.9603 79.9167 73.2593C79.7718 73.4086 79.5821 73.4832 79.3923 73.4832Z" fill="#FF1125"/>
<path d="M45.2756 59.7117H40.8247C40.4148 59.7117 40.0829 59.3695 40.0829 58.9466C40.0829 58.5236 40.4146 58.1814 40.8247 58.1814H45.2756C45.6855 58.1814 46.0172 58.5236 46.0172 58.9466C46.0172 59.3695 45.6855 59.7117 45.2756 59.7117Z" fill="#FF1125"/>
<path d="M55.6587 36.7583C55.2484 36.7583 54.9169 36.4161 54.9169 35.9931V34.463C54.9169 34.04 55.2484 33.6978 55.6587 33.6978C56.0686 33.6978 56.4001 34.04 56.4001 34.463V35.9931C56.4001 36.4163 56.0686 36.7583 55.6587 36.7583Z" fill="#FF1125"/>
<path d="M51.2084 41.3491H49.7251C49.3152 41.3491 48.9833 41.0069 48.9833 40.5838C48.9833 40.1608 49.3152 39.8186 49.7251 39.8186H51.2084C51.6182 39.8186 51.9502 40.1608 51.9502 40.5838C51.9502 41.0069 51.6182 41.3491 51.2084 41.3491Z" fill="#FF1125"/>
<path d="M46.7588 78.0738C46.349 78.0738 46.0172 77.7316 46.0172 77.3088V74.2484C46.0172 73.8256 46.349 73.4832 46.7588 73.4832C47.1687 73.4832 47.5005 73.8256 47.5005 74.2484V77.3088C47.5005 77.7316 47.1689 78.0738 46.7588 78.0738Z" fill="#FF1125"/>
<path d="M45.2756 71.9532H40.8247C40.4148 71.9532 40.0829 71.6112 40.0829 71.1881C40.0829 70.7651 40.4146 70.4231 40.8247 70.4231H45.2756C45.6855 70.4231 46.0172 70.7651 46.0172 71.1881C46.0172 71.6112 45.6855 71.9532 45.2756 71.9532Z" fill="#FF1125"/>
</svg>
