<svg width="95" height="95" viewBox="0 0 95 95" fill="none" xmlns="http://www.w3.org/2000/svg">
<g clip-path="url(#clip0_24_4651)">
<path d="M91.6111 71.9758H85.6775C87.3159 71.9758 88.6444 70.646 88.6444 69.0091C88.6444 67.3693 87.3159 66.0424 85.6775 66.0424H79.7439C81.3823 66.0424 82.7108 64.7126 82.7108 63.0757C82.7108 61.436 81.3823 60.109 79.7439 60.109H70.8438C72.4821 60.109 73.8107 58.7794 73.8107 57.1425C73.8107 55.5026 72.4821 54.1758 70.8438 54.1758H87.1606C88.7989 54.1758 90.1275 52.846 90.1275 51.2091C90.1275 49.5692 88.7989 48.2416 87.1606 48.2416H79.7437C81.3821 48.2416 82.7106 46.9133 82.7106 45.2749C82.7106 43.6365 81.3821 42.3082 79.7437 42.3082H76.7772C78.4156 42.3082 79.7437 40.9799 79.7437 39.3415C79.7437 37.7031 78.4156 36.3748 76.7772 36.3748H91.6107C93.2491 36.3748 94.5776 35.0465 94.5776 33.4081C94.5776 31.7697 93.2491 30.4414 91.6107 30.4414H85.6771C87.3155 30.4414 88.644 29.113 88.644 27.4747C88.644 25.8363 87.3155 24.508 85.6771 24.508H79.7435C81.3819 24.508 82.7104 23.1796 82.7104 21.5412C82.7104 19.9029 81.3819 18.5745 79.7435 18.5745H75.2937C76.9321 18.5745 78.2603 17.2462 78.2603 15.6078C78.2603 13.9694 76.9321 12.6411 75.2937 12.6411H30.7931C29.1547 12.6411 27.8264 13.9694 27.8264 15.6078C27.8264 17.2462 29.1547 18.5745 30.7931 18.5745H20.4095C18.7711 18.5745 17.4428 19.9029 17.4428 21.5412C17.4428 23.1796 18.7711 24.508 20.4095 24.508H17.4428C15.8044 24.508 14.4761 25.8363 14.4761 27.4747C14.4761 29.113 15.8044 30.4414 17.4428 30.4414H26.3431C24.7047 30.4414 23.3764 31.7697 23.3764 33.4081C23.3764 35.0465 24.7047 36.3748 26.3431 36.3748H10.0261C8.38775 36.3748 7.05942 37.7033 7.05942 39.3415C7.05942 40.9797 8.38775 42.3082 10.0261 42.3082H17.443C15.8046 42.3082 14.4763 43.6365 14.4763 45.2749C14.4763 46.9133 15.8046 48.2416 17.443 48.2416H10.0261C8.38775 48.2416 7.05942 49.5692 7.05942 51.2091C7.05942 52.846 8.38775 54.1758 10.0261 54.1758H7.05924C5.42086 54.1758 4.09253 55.5026 4.09253 57.1425C4.09253 58.7794 5.42086 60.109 7.05924 60.109H14.4763C12.8379 60.109 11.5096 61.436 11.5096 63.0757C11.5096 64.7126 12.8379 66.0424 14.4763 66.0424H11.5094C9.87102 66.0424 8.54269 67.3693 8.54269 69.0091C8.54269 70.646 9.87102 71.9758 11.5094 71.9758H26.3431C24.7047 71.9758 23.3764 73.3027 23.3764 74.9426C23.3764 76.5793 24.7047 77.9093 26.3431 77.9093H20.4095C18.7711 77.9093 17.4428 79.2359 17.4428 80.8758C17.4428 82.5127 18.7711 83.8425 20.4095 83.8425H70.8439C72.4823 83.8425 73.8108 82.5127 73.8108 80.8758C73.8108 79.2359 72.4823 77.9093 70.8439 77.9093H91.6111C93.2495 77.9093 94.578 76.5793 94.578 74.9426C94.5782 73.3027 93.2495 71.9758 91.6111 71.9758Z" fill="#FF5C74"/>
<path d="M81.2755 74.201C80.8653 74.201 80.5265 73.8707 80.5265 73.4592C80.5265 73.0508 80.8508 72.7175 81.2596 72.7175H81.2755C81.6839 72.7175 82.017 73.0508 82.017 73.4592C82.017 73.8707 81.6839 74.201 81.2755 74.201Z" fill="#47383A"/>
<path d="M23.4213 1.51543C23.0112 1.51543 22.6722 1.18367 22.6722 0.773799C22.6722 0.363926 22.9968 0.0319824 23.4053 0.0319824H23.4213C23.8297 0.0319824 24.1629 0.36374 24.1629 0.773799C24.1629 1.18386 23.8297 1.51543 23.4213 1.51543Z" fill="#FF1125"/>
<path d="M56.0553 4.48223C55.6455 4.48223 55.3063 4.15047 55.3063 3.74041C55.3063 3.33054 55.631 2.99878 56.0394 2.99878H56.0553C56.4637 2.99878 56.7971 3.33054 56.7971 3.74041C56.7971 4.15047 56.4639 4.48223 56.0553 4.48223Z" fill="#FF1125"/>
<path d="M1.17093 22.2823C0.761055 22.2823 0.421875 21.9505 0.421875 21.5405C0.421875 21.1306 0.746397 20.7988 1.15497 20.7988H1.17093C1.5795 20.7988 1.91256 21.1306 1.91256 21.5405C1.91256 21.9507 1.57932 22.2823 1.17093 22.2823Z" fill="#FF1125"/>
<path d="M13.0362 62.3341C12.6262 62.3341 12.2874 62.0009 12.2874 61.5925C12.2874 61.1809 12.6119 60.8508 13.0203 60.8508H13.0362C13.4446 60.8508 13.7779 61.1809 13.7779 61.5925C13.7779 62.0009 13.4446 62.3341 13.0362 62.3341Z" fill="#FF1125"/>
<path d="M50.0465 93.4847C49.6367 93.4847 49.2979 93.1514 49.2979 92.743C49.2979 92.3315 49.6222 92.0012 50.0306 92.0012H50.0465C50.4549 92.0012 50.7883 92.3315 50.7883 92.743C50.7883 93.1514 50.4549 93.4847 50.0465 93.4847Z" fill="#FF1125"/>
<path d="M85.7226 94.9681C85.3127 94.9681 84.9739 94.6378 84.9739 94.2262C84.9739 93.8179 85.2982 93.4846 85.7066 93.4846H85.7226C86.1309 93.4846 86.4644 93.8179 86.4644 94.2262C86.4644 94.6378 86.1309 94.9681 85.7226 94.9681Z" fill="#FF1125"/>
<path d="M69.4086 54.9173C68.9987 54.9173 68.6595 54.5841 68.6595 54.1757C68.6595 53.7642 68.9843 53.4341 69.3926 53.4341H69.4086C69.817 53.4341 70.15 53.7642 70.15 54.1757C70.15 54.5841 69.817 54.9173 69.4086 54.9173Z" fill="#FF1125"/>
<path d="M87.2073 48.983C86.7974 48.983 86.4586 48.6514 86.4586 48.2414C86.4586 47.8313 86.7829 47.4998 87.1913 47.4998H87.2073C87.6161 47.4998 87.9491 47.8313 87.9491 48.2414C87.9491 48.6514 87.6161 48.983 87.2073 48.983Z" fill="#FF1125"/>
<path d="M78.3072 69.7479C77.8973 69.7479 77.5581 69.4178 77.5581 69.0063C77.5581 68.5977 77.8828 68.2646 78.2912 68.2646H78.3072C78.7156 68.2646 79.049 68.5977 79.049 69.0063C79.049 69.4178 78.7156 69.7479 78.3072 69.7479Z" fill="#47383A"/>
<path d="M33.9382 22.8475C34.1901 23.0994 34.3974 23.3676 34.5757 23.6631C33.9977 24.628 33.0473 25.8446 31.8465 27.0456C30.6456 28.2465 29.4288 29.1967 28.4642 29.7747C28.1686 29.5965 27.9006 29.3893 27.6485 29.1373C25.9131 27.4017 25.9131 24.5829 27.6485 22.8475C29.3839 21.112 32.2027 21.112 33.9382 22.8475Z" fill="#FF949F"/>
<path d="M29.1315 24.3309C30.6062 22.8562 32.8558 22.6476 34.5652 23.6776C34.5682 23.6733 34.5725 23.6674 34.5755 23.6631C34.3973 23.3676 34.1901 23.0996 33.9379 22.8475C32.2025 21.112 29.3837 21.112 27.6482 22.8475C25.9128 24.5829 25.9128 27.4017 27.6482 29.1373C27.9002 29.3893 28.1683 29.5965 28.4639 29.7747C28.4682 29.7717 28.4741 29.7674 28.4784 29.7645C27.4484 28.0552 27.657 25.8055 29.1315 24.3309Z" fill="#FFD7DC"/>
<path d="M34.5755 23.6631C35.6431 25.384 35.4216 27.654 33.9379 29.1373C32.4547 30.6205 30.1847 30.8423 28.4637 29.7746C29.4284 29.1966 30.6454 28.2463 31.8461 27.0456C33.0471 25.8446 33.9975 24.6277 34.5755 23.6631Z" fill="#FF949F"/>
<path d="M25.2595 71.5906C26.1358 72.4512 26.1201 73.8593 25.2595 74.7371C24.3845 75.5975 15.6335 82.939 14.7729 82.0785C13.8981 81.2034 21.2396 72.451 22.116 71.5906C22.9765 70.7156 24.3845 70.7156 25.2595 71.5906Z" fill="#FFD7DC"/>
<path d="M25.2595 74.737C26.1201 73.8592 26.1359 72.4511 25.2595 71.5905C24.3845 70.7155 22.9766 70.7155 22.1162 71.5905C21.2397 72.4511 13.8981 81.2035 14.7732 82.0784C15.6335 82.9389 24.3845 75.5974 25.2595 74.737ZM10.5752 86.2763C7.96489 83.6661 16.3594 71.0428 18.9712 68.447C21.5671 65.8367 25.7941 65.8367 28.4044 68.447C31.0161 71.0572 31.0161 75.2699 28.4044 77.8804C25.7941 80.4908 13.1854 88.8723 10.5752 86.2763Z" fill="#FF949F"/>
<path d="M28.4044 68.4473C26.9094 66.9523 24.8856 66.341 22.9402 66.5612C24.3932 66.7236 25.8056 67.3318 26.9211 68.4473C29.5328 71.0576 29.5328 75.2702 26.9211 77.8807C24.8003 80.0015 16.084 85.9291 11.4877 86.688C15.3148 87.4386 26.0199 80.2651 28.4044 77.8807C31.0163 75.2702 31.0163 71.0576 28.4044 68.4473Z" fill="#FF5C74"/>
<path d="M12.0585 86.2764C9.44803 83.6662 17.8427 71.0428 20.4545 68.447C21.5641 67.3315 22.9737 66.7233 24.4237 66.561C22.4782 66.3407 20.4575 66.9521 18.9712 68.447C16.3593 71.0428 7.96477 83.666 10.5752 86.2764C11.0649 86.7631 11.908 86.8646 12.9712 86.6878C12.6075 86.6156 12.2847 86.4996 12.0585 86.2764Z" fill="#FFD7DC"/>
<path d="M84.1944 66.0425C85.0099 66.0425 85.6777 66.7118 85.6777 67.5257C85.6777 68.3429 85.0097 69.0092 84.1944 69.0092C83.3792 69.0092 82.7112 68.3429 82.7112 67.5257C82.7112 66.7118 83.379 66.0425 84.1944 66.0425Z" fill="#FF949F"/>
<path d="M85.6776 67.5258C85.6776 66.7118 85.0097 66.0426 84.1944 66.0426C83.3791 66.0426 82.7111 66.7118 82.7111 67.5258C82.7111 68.343 83.3791 69.0093 84.1944 69.0093C85.0097 69.0093 85.6776 68.343 85.6776 67.5258ZM81.9691 63.0757C85.663 63.0757 88.6445 66.0569 88.6445 69.7509C88.6445 73.4303 85.6632 76.4262 81.9691 76.4262C78.2897 76.4262 75.2941 73.445 75.2941 69.7509C75.2941 66.0569 78.2752 63.0757 81.9691 63.0757Z" fill="#FF949F"/>
<path d="M76.7776 71.2342C76.7776 67.5403 79.7586 64.5591 83.4526 64.5591C84.9203 64.5591 86.2629 65.0428 87.3625 65.8426C86.1499 64.1708 84.1959 63.0757 81.9694 63.0757C78.2755 63.0757 75.2943 66.0569 75.2943 69.7509C75.2943 71.976 76.3924 73.9257 78.0597 75.1398C77.2613 74.0417 76.7776 72.7002 76.7776 71.2342Z" fill="#FFD7DC"/>
<path d="M87.261 68.3372C87.2625 72.031 84.2813 75.0122 80.5875 75.0122C79.1187 75.0122 77.7757 74.5285 76.6776 73.7318C77.8887 75.4006 79.8442 76.4957 82.0707 76.4957C85.7646 76.4957 88.7458 73.5145 88.7458 69.8204C88.7458 67.5954 87.6481 65.6456 85.9807 64.4346C86.7786 65.5326 87.2625 66.874 87.261 68.3372Z" fill="#FF5C74"/>
<path d="M67.1501 16.9733C72.3868 11.7221 81.8358 10.6834 83.928 12.7753C86.0343 14.8816 86.0343 23.2631 79.7296 29.5675L78.691 28.5143L68.1886 18.0265L66.3491 17.7745C66.6911 17.434 66.9573 17.1661 67.1501 16.9733Z" fill="#FF949F"/>
<path d="M83.9279 12.7753C83.7177 12.5653 83.4162 12.3959 83.0701 12.251C84.464 15.2845 83.8352 22.4898 78.2535 28.077L78.6909 28.5143L79.7296 29.5675C86.0343 23.2632 86.0343 14.8817 83.9279 12.7753Z" fill="#FF5C74"/>
<path d="M68.6261 18.4641C68.6291 18.4612 68.6318 18.4584 68.6333 18.4569C73.3442 13.7331 81.449 12.4264 84.5534 13.7345C84.3755 13.3447 84.1668 13.0146 83.928 12.7755C81.8359 10.6838 72.3867 11.7223 67.1501 16.9735C66.9573 17.1662 66.6908 17.4342 66.3492 17.7745L68.1888 18.0264L68.6261 18.4641Z" fill="#FFD7DC"/>
<path d="M67.1501 29.5675C68.8857 31.3032 68.8857 34.122 67.1501 35.8574C65.4145 37.5928 62.5973 37.5928 60.8458 35.8574C59.1102 34.122 59.1102 31.3032 60.8458 29.5675C62.5973 27.8177 65.4147 27.8177 67.1501 29.5675Z" fill="#FF949F"/>
<path d="M62.3293 31.051C63.8198 29.5603 66.0797 29.3518 67.7907 30.399C67.6109 30.1049 67.4055 29.8225 67.1503 29.5675C65.4147 27.8177 62.5976 27.8177 60.846 29.5675C59.1104 31.3032 59.1104 34.122 60.846 35.8574C61.1023 36.1123 61.3878 36.3181 61.6832 36.4977C60.6445 34.7853 60.8518 32.5285 62.3293 31.051Z" fill="#FFD7DC"/>
<path d="M56.6639 40.0554C58.3991 41.7908 58.3991 44.6083 56.6639 46.3437C54.9125 48.0793 52.1093 48.0793 50.3596 46.3437C48.6227 44.6083 48.6227 41.7908 50.3596 40.0554C52.1093 38.3185 54.9123 38.3185 56.6639 40.0554Z" fill="#FF949F"/>
<path d="M51.7747 41.6053C53.2652 40.1146 55.5252 39.906 57.2361 40.9534C57.0563 40.6593 56.8505 40.3769 56.5958 40.122C54.8602 38.3721 52.0426 38.3721 50.2915 40.122C48.5558 41.8574 48.5558 44.6764 50.2915 46.4118C50.5477 46.6668 50.8332 46.8724 51.1286 47.0522C50.0899 45.3398 50.2972 43.0829 51.7747 41.6053Z" fill="#FFD7DC"/>
<path d="M38.3578 44.8313L38.833 45.305C35.2145 48.9106 31.9941 52.13 29.7097 54.4276L29.6952 54.4131C28.2119 51.907 21.0472 50.6003 21.0472 50.6003C31.5349 40.1132 38.3578 44.8313 38.3578 44.8313Z" fill="#FFD7DC"/>
<path d="M51.9907 58.4777C51.9907 58.4777 56.7233 65.3006 46.2352 75.7742C46.2352 75.7742 44.8707 68.3429 42.2603 67.0361C44.5432 64.7531 47.7779 61.5199 51.4127 57.8984L51.9907 58.4777Z" fill="#FFD7DC"/>
<path d="M38.8331 70.4638L36.7414 68.3722L35.6738 69.4268C35.6738 69.4268 34.6351 70.464 30.4371 66.2658C26.2391 62.0823 27.2921 61.0306 27.2921 61.0306L28.3452 59.9906L26.2389 57.8843C26.2389 57.8843 27.56 56.5662 29.7097 54.4279C31.9942 52.1303 35.2143 48.9109 38.8331 45.3053C49.0383 35.0854 63.1451 20.979 67.1503 16.9736L68.189 18.0268L78.6913 28.5146L79.73 29.5678C76.5548 32.7416 62.2266 47.0712 51.4131 57.8988C47.7783 61.5203 44.5438 64.7534 42.2607 67.0364C40.1237 69.1743 38.8331 70.4638 38.8331 70.4638ZM67.1501 35.8573C68.8857 34.1219 68.8857 31.303 67.1501 29.5674C65.4145 27.8176 62.5974 27.8176 60.8458 29.5674C59.1102 31.303 59.1102 34.1219 60.8458 35.8573C62.5974 37.5927 65.4147 37.5927 67.1501 35.8573ZM56.6639 46.3438C58.3992 44.6084 58.3992 41.7909 56.6639 40.0555C54.9126 38.3186 52.1093 38.3186 50.3596 40.0555C48.6227 41.7909 48.6227 44.6084 50.3596 46.3438C52.1093 48.0793 54.9124 48.0793 56.6639 46.3438Z" fill="white"/>
<path d="M46.2353 76.5157C46.1614 76.5157 46.0876 76.5042 46.015 76.4808C45.7513 76.3995 45.5558 76.1795 45.5051 75.9071C45.0054 73.1866 43.6001 68.5741 41.953 67.7139C41.6938 67.595 41.5112 67.3372 41.5112 67.0359C41.5112 66.5116 42.1182 66.1408 42.5919 66.3726C44.798 67.4764 46.1148 71.9178 46.6696 74.2557C55.3104 64.9789 51.5484 59.1498 51.3792 58.8978C51.1502 58.5588 51.2357 58.0981 51.5731 57.8693C51.9093 57.6376 52.37 57.7216 52.6001 58.0547C52.8073 58.356 57.5616 65.512 46.7594 76.2984C46.6179 76.4404 46.4293 76.5157 46.2353 76.5157Z" fill="#FF1125"/>
<path d="M29.6953 55.1548C29.4418 55.1548 29.1956 55.0246 29.0564 54.7926C28.1018 53.176 23.5561 51.8116 20.9139 51.3307C20.643 51.2813 20.4215 51.0843 20.3389 50.8236C20.2578 50.5599 20.3274 50.2733 20.523 50.0762C31.3251 39.2733 38.4796 44.0146 38.7797 44.2216C39.1172 44.4549 39.2012 44.9171 38.968 45.2531C38.7375 45.5906 38.274 45.6719 37.9395 45.4444C37.6816 45.2705 31.8524 41.5318 22.5669 50.1662C24.8412 50.7022 29.1015 51.9538 30.3343 54.0367C30.5429 54.3902 30.4256 54.8449 30.0736 55.0537C29.9545 55.1229 29.8242 55.1548 29.6953 55.1548Z" fill="#FF1125"/>
<path d="M14.9847 82.8894C14.6138 82.8894 14.3793 82.733 14.2488 82.6026C14.1156 82.4691 13.9577 82.2316 13.959 81.8522C13.9692 79.7459 21.2194 71.4339 21.5961 71.063C22.6897 69.9477 24.6554 69.939 25.7839 71.066C26.9384 72.1988 26.9428 74.0821 25.7882 75.2555C25.7013 75.3423 17.1285 82.8894 14.9847 82.8894ZM23.682 71.6774C23.2894 71.6774 22.9202 71.8308 22.6448 72.1119C21.5844 73.1521 16.9706 78.8276 15.7423 81.105C18.031 79.8708 23.6907 75.2382 24.7394 74.2067C25.0118 73.9284 25.1683 73.552 25.1695 73.1551C25.171 72.761 25.0176 72.393 24.7394 72.1206C24.4528 71.8336 24.0774 71.6774 23.682 71.6774Z" fill="#FF1125"/>
<path d="M12.0774 87.5107C11.2068 87.5107 10.5244 87.273 10.0521 86.8008C9.57566 86.3256 9.33519 85.6389 9.33668 84.7583C9.34391 80.1111 16.1798 70.1736 18.4483 67.9198C19.8403 66.5204 21.7004 65.7468 23.6822 65.7468C25.6639 65.7468 27.5268 66.5204 28.9289 67.9227C30.3326 69.3251 31.1049 71.185 31.1049 73.1637C31.1049 75.1396 30.3328 77.0025 28.9289 78.4048C26.659 80.6761 16.6955 87.5107 12.0774 87.5107ZM23.682 67.2303C22.0988 67.2303 20.6124 67.8472 19.497 68.9685C17.1213 71.3297 10.8257 80.844 10.8199 84.7611C10.8185 85.2304 10.9127 85.5636 11.0996 85.7519C11.2836 85.9345 11.6124 86.0271 12.0774 86.0271C15.9698 86.0271 25.5045 79.7315 27.88 77.3559C29.0028 76.2347 29.6212 74.7457 29.6212 73.1635C29.6212 71.5817 29.0028 70.0925 27.88 68.9713C26.7573 67.8472 25.2668 67.2303 23.682 67.2303Z" fill="#FF1125"/>
<path d="M38.833 71.2053C38.6432 71.2053 38.4534 71.1328 38.3087 70.9881C38.0188 70.6982 38.0188 70.2288 38.3087 69.9393L41.7361 66.5117C44.0191 64.2288 47.2537 60.9956 50.8899 57.3741C61.7019 46.5465 76.03 32.2169 79.2052 29.0431C81.8751 26.3733 83.6671 22.975 84.2508 19.4752C84.7737 16.3376 84.1783 14.0749 83.4036 13.2999C82.9063 12.803 81.6695 12.5061 80.0935 12.5061C80.0905 12.5061 80.0877 12.5061 80.0847 12.5061C76.502 12.5091 71.0918 14.0721 67.6759 17.498L66.8721 18.3005C62.868 22.3045 49.5626 35.6098 39.3572 45.8298C35.7387 49.436 32.5198 52.6519 30.2353 54.9524L26.7632 58.4084C26.4734 58.6982 26.0041 58.6982 25.7145 58.4084C25.4249 58.1185 25.4247 57.6493 25.7145 57.3596L29.1868 53.9033C31.4683 51.6056 34.6901 48.3862 38.3102 44.7792C48.5141 34.5608 61.8195 21.2554 65.8251 17.25L66.6259 16.449C70.3604 12.7043 76.0751 11.0254 80.0834 11.0225C80.0864 11.0225 80.0907 11.0225 80.0936 11.0225C81.5248 11.0225 83.4381 11.2368 84.4525 12.2508C86.7947 14.5933 86.9832 23.363 80.2541 30.0917C77.0789 33.2654 62.7508 47.5952 51.9373 58.4226C48.3024 62.0441 45.068 65.2773 42.7848 67.5603L39.3574 70.9879C39.2125 71.1328 39.0227 71.2053 38.833 71.2053Z" fill="#FF1125"/>
<path d="M32.5286 64.9152C32.3388 64.9152 32.1491 64.8429 32.0042 64.6979C31.7146 64.4081 31.7146 63.9389 32.0042 63.6492L44.5837 51.0695C44.8736 50.7799 45.3428 50.7799 45.6325 51.0695C45.9223 51.3593 45.9223 51.8288 45.6325 52.1182L33.0529 64.6979C32.9082 64.843 32.7184 64.9152 32.5286 64.9152Z" fill="#FF1125"/>
<path d="M30.4369 62.8236C30.2471 62.8236 30.0575 62.7511 29.9126 62.6063L25.7146 58.4083C25.4247 58.1185 25.4247 57.6493 25.7146 57.3596C26.0044 57.07 26.4736 57.0698 26.7633 57.3596L30.9613 61.5576C31.2509 61.8475 31.2509 62.3167 30.9613 62.6063C30.8164 62.7511 30.6267 62.8236 30.4369 62.8236Z" fill="#FF1125"/>
<path d="M38.833 71.2052C38.6432 71.2052 38.4534 71.1327 38.3087 70.9879L34.1107 66.7898C33.8209 66.4999 33.8209 66.0307 34.1107 65.741C34.4003 65.4512 34.8697 65.4512 35.1594 65.741L39.3574 69.9392C39.6472 70.2289 39.6472 70.6983 39.3574 70.9879C39.2125 71.1327 39.0227 71.2052 38.833 71.2052Z" fill="#FF1125"/>
<path d="M64.0039 37.8999C62.6176 37.8999 61.3108 37.3625 60.3245 36.3845C58.2979 34.358 58.2979 31.0667 60.3215 29.043C62.2987 27.0686 65.7176 27.0728 67.6775 29.0445C69.6983 31.0667 69.6983 34.358 67.6745 36.3815C66.6954 37.3609 65.3916 37.8999 64.0039 37.8999ZM64.0039 28.9966C63.013 28.9966 62.0773 29.3864 61.3704 30.0917C59.9263 31.5375 59.9263 33.8871 61.3704 35.3328C62.7813 36.7293 65.2266 36.7322 66.6258 35.3328C68.0699 33.8871 68.0699 31.5375 66.6258 30.0917C65.9247 29.3849 64.9947 28.9966 64.0039 28.9966Z" fill="#FF1125"/>
<path d="M53.5117 48.3874C52.1281 48.3874 50.8232 47.8486 49.8366 46.8707C48.8541 45.8886 48.3153 44.5863 48.3153 43.2001C48.3153 41.8124 48.8541 40.51 49.8351 39.5309C51.8095 37.5709 55.2091 37.5722 57.1867 39.5279C59.2102 41.553 59.2102 44.8457 57.1882 46.8679C56.199 47.8486 54.8937 48.3874 53.5117 48.3874ZM53.5117 39.4945C52.5224 39.4945 51.5878 39.8799 50.8825 40.5809C50.1841 41.2791 49.7989 42.2091 49.7989 43.1999C49.7989 44.1892 50.1841 45.1194 50.884 45.8189C52.2905 47.214 54.7239 47.2197 56.1424 45.8159C57.5837 44.3746 57.5837 42.0235 56.1394 40.5792C55.434 39.8799 54.4998 39.4945 53.5117 39.4945Z" fill="#FF1125"/>
<path d="M81.9692 77.1677C77.88 77.1677 74.5524 73.8418 74.5524 69.7509C74.5524 65.6631 77.88 62.334 81.9692 62.334C86.0589 62.334 89.3861 65.6629 89.3861 69.7509C89.3861 73.8418 86.0589 77.1677 81.9692 77.1677ZM81.9692 63.8172C78.6967 63.8172 76.0356 66.4798 76.0356 69.7509C76.0356 73.0248 78.6967 75.6845 81.9692 75.6845C85.2417 75.6845 87.9028 73.0248 87.9028 69.7509C87.9028 66.4798 85.2417 63.8172 81.9692 63.8172Z" fill="#FF1125"/>
<path d="M84.1944 69.7508C82.9674 69.7508 81.9694 68.7542 81.9694 67.5257C81.9694 66.3003 82.9674 65.3008 84.1944 65.3008C85.4215 65.3008 86.4195 66.3003 86.4195 67.5257C86.4195 68.7542 85.4215 69.7508 84.1944 69.7508ZM84.1944 66.784C83.7861 66.784 83.4526 67.1173 83.4526 67.5257C83.4526 67.9342 83.7861 68.2675 84.1944 68.2675C84.6028 68.2675 84.9363 67.9342 84.9363 67.5257C84.9363 67.1173 84.6028 66.784 84.1944 66.784Z" fill="#FF1125"/>
<path d="M63.4274 86.0677C63.0175 86.0677 62.6855 85.7375 62.6855 85.3261V79.3925C62.6855 78.9841 63.0175 78.6509 63.4274 78.6509C63.8372 78.6509 64.1692 78.9841 64.1692 79.3925V85.3261C64.1692 85.7375 63.8372 86.0677 63.4274 86.0677Z" fill="#FF1125"/>
<path d="M64.9106 83.1009H61.9441C61.5342 83.1009 61.2023 82.7707 61.2023 82.3593C61.2023 81.9507 61.5342 81.6177 61.9441 81.6177H64.9106C65.3205 81.6177 65.6524 81.9507 65.6524 82.3593C65.6524 82.7707 65.3205 83.1009 64.9106 83.1009Z" fill="#FF1125"/>
<path d="M33.7601 92.0011C33.3502 92.0011 33.0184 91.671 33.0184 91.2595V85.326C33.0184 84.9175 33.3502 84.5842 33.7601 84.5842C34.1699 84.5842 34.5017 84.9175 34.5017 85.326V91.2595C34.5017 91.671 34.1699 92.0011 33.7601 92.0011Z" fill="#FF1125"/>
<path d="M35.2433 89.0347H32.2766C31.8667 89.0347 31.5348 88.7044 31.5348 88.2929C31.5348 87.8845 31.8665 87.5513 32.2766 87.5513H35.2433C35.6534 87.5513 35.9851 87.8845 35.9851 88.2929C35.9849 88.7043 35.6534 89.0347 35.2433 89.0347Z" fill="#FF1125"/>
<path d="M15.7366 18.3971C15.3265 18.3971 14.9948 18.0654 14.9948 17.6555V11.7221C14.9948 11.3122 15.3265 10.9805 15.7366 10.9805C16.1464 10.9805 16.4782 11.3122 16.4782 11.7221V17.6557C16.4782 18.0656 16.1464 18.3971 15.7366 18.3971Z" fill="#FF1125"/>
<path d="M17.2198 15.4305H14.2531C13.8432 15.4305 13.5115 15.0988 13.5115 14.6889C13.5115 14.279 13.8432 13.9473 14.2531 13.9473H17.2198C17.6297 13.9473 17.9614 14.279 17.9614 14.6889C17.9614 15.099 17.6299 15.4305 17.2198 15.4305Z" fill="#FF1125"/>
<path d="M45.6269 13.3837C45.217 13.3837 44.8853 13.0519 44.8853 12.642V6.70843C44.8853 6.29855 45.217 5.9668 45.6269 5.9668C46.0369 5.9668 46.3687 6.29855 46.3687 6.70843V12.642C46.3685 13.0519 46.0369 13.3837 45.6269 13.3837Z" fill="#FF1125"/>
<path d="M47.1103 10.4169H44.1436C43.7337 10.4169 43.402 10.0851 43.402 9.67522C43.402 9.26535 43.7337 8.93359 44.1436 8.93359H47.1103C47.5202 8.93359 47.8519 9.26535 47.8519 9.67522C47.8519 10.0851 47.5202 10.4169 47.1103 10.4169Z" fill="#FF1125"/>
<path d="M5.57598 47.5011C5.16611 47.5011 4.83435 47.1693 4.83435 46.7593V40.8259C4.83435 40.416 5.16611 40.0842 5.57598 40.0842C5.98585 40.0842 6.31761 40.416 6.31761 40.8259V46.7593C6.31761 47.1693 5.98585 47.5011 5.57598 47.5011Z" fill="#FF1125"/>
<path d="M7.05929 44.5345H4.09277C3.6829 44.5345 3.35095 44.2027 3.35095 43.7928C3.35095 43.3828 3.68271 43.051 4.09277 43.051H7.05948C7.46954 43.051 7.80129 43.3828 7.80129 43.7928C7.80111 44.2027 7.46935 44.5345 7.05929 44.5345Z" fill="#FF1125"/>
<path d="M30.8006 31.181C29.8344 31.181 28.8913 30.9131 28.0728 30.4045C27.7266 30.196 27.4138 29.9512 27.1241 29.6614C25.1004 27.6376 25.1004 24.3464 27.1241 22.3228C29.0826 20.3644 32.5043 20.3644 34.4627 22.3228C34.7525 22.6125 34.9973 22.9255 35.2103 23.2804C36.4792 25.3229 36.1736 27.9507 34.4627 29.6616C33.4834 30.6422 32.1825 31.181 30.8006 31.181ZM30.7931 22.2881C29.8023 22.2881 28.8722 22.672 28.1727 23.3717C26.7284 24.8175 26.7284 27.1671 28.1727 28.6129C28.377 28.8172 28.597 28.9894 28.8462 29.1402C30.286 30.031 32.2258 29.802 33.4136 28.6129C34.6349 27.3916 34.8537 25.5172 33.9452 24.0542C33.7903 23.7963 33.6179 23.5762 33.4136 23.3719C32.7141 22.6719 31.784 22.2881 30.7931 22.2881Z" fill="#FF1125"/>
<path d="M26.9618 31.0608C26.63 31.0608 26.3215 30.9638 26.0725 30.7161C25.7814 30.4277 25.7814 29.957 26.0695 29.6673C26.3244 29.4094 26.7213 29.3775 27.011 29.576C27.1212 29.5631 27.4413 29.495 28.1033 29.127C29.0681 28.5476 30.2486 27.5944 31.3222 26.521C32.3955 25.4476 33.3487 24.267 33.9397 23.2819C34.2991 22.6372 34.3657 22.3201 34.3772 22.21C34.1801 21.9202 34.2119 21.5233 34.4683 21.2684C34.7581 20.9815 35.2274 20.9785 35.517 21.2713C36.2299 21.9885 35.691 23.1864 35.2231 24.0236C34.5523 25.1463 33.5428 26.3978 32.3707 27.5697C31.1988 28.7415 29.9471 29.7512 28.8449 30.4105C28.2857 30.7233 27.5817 31.0608 26.9618 31.0608Z" fill="#FF1125"/>
<path d="M78.6912 29.256C78.5017 29.256 78.3117 29.1836 78.1668 29.0387L67.6645 18.5509C67.3749 18.2612 67.3749 17.7918 67.6645 17.5021C67.9543 17.2125 68.4238 17.2125 68.7132 17.5021L79.2155 27.99C79.5054 28.2798 79.5054 28.7491 79.2155 29.0387C79.0708 29.1836 78.881 29.256 78.6912 29.256Z" fill="#FF1125"/>
<path d="M35.268 70.3041C34.325 70.3041 32.6954 69.574 29.9125 66.7899C27.6049 64.4924 26.4345 62.6991 26.433 61.4619C26.433 60.9 26.6662 60.6073 26.7675 60.5059C27.0573 60.2161 27.5266 60.2161 27.8162 60.5059C28.0669 60.7551 28.1001 61.1403 27.9177 61.4274C27.9047 61.604 27.9584 62.7483 30.9598 65.7411C33.9597 68.7398 35.1333 68.8036 35.2795 68.7978C35.5678 68.6181 35.9488 68.6529 36.1979 68.9021C36.4878 69.1918 36.4878 69.661 36.1979 69.9508C36.0096 70.1392 35.7155 70.3041 35.268 70.3041Z" fill="#FF1125"/>
</g>
<defs>
<clipPath id="clip0_24_4651">
<rect width="95" height="95" fill="white"/>
</clipPath>
</defs>
</svg>
