<svg width="95" height="95" viewBox="0 0 95 95" fill="none" xmlns="http://www.w3.org/2000/svg">
<path d="M66.9027 78.7691V78.7546C68.6526 77.0192 70.0924 75.1201 71.2629 73.0878C72.4797 70.9961 73.3996 68.7564 74.008 66.4575C74.6307 64.1426 74.9423 61.7553 74.9423 59.3666C74.9423 56.9779 74.6307 54.5906 74.008 52.2613C73.3996 49.9622 72.4797 47.7373 71.2629 45.6311C70.0924 43.5986 68.6381 41.6996 66.9027 39.9641C65.1671 38.2287 63.2535 36.7598 61.2213 35.5886C59.1294 34.3718 56.8898 33.467 54.6056 32.8588C52.2775 32.2359 49.8873 31.9244 47.5001 31.9244C45.1121 31.9244 42.7233 32.2359 40.3947 32.8588C38.1103 33.4672 35.8707 34.3718 33.779 35.6032C31.7466 36.7752 29.833 38.2289 28.0976 39.9641C26.3622 41.6996 24.9084 43.6133 23.7367 45.6456C22.5206 47.7373 21.6009 49.9768 20.9923 52.2613C20.3694 54.5747 20.0579 56.9634 20.0579 59.3521C20.0579 61.7394 20.3692 64.1281 20.9923 66.4575C22.1794 70.9672 24.5522 75.239 28.0976 78.7692C29.8332 80.5048 31.7468 81.959 33.779 83.1296C35.8707 84.3464 38.1103 85.2663 40.3947 85.8748C42.7233 86.4975 45.1121 86.809 47.5001 86.809C49.8873 86.809 52.2775 86.4975 54.6056 85.8748C56.89 85.2663 59.1294 84.3464 61.2213 83.1296C63.2535 81.959 65.1673 80.5047 66.9027 78.7691ZM63.0754 15.6074C63.0754 15.6074 82.3591 34.713 82.3591 59.3666C82.3591 78.636 66.7693 94.2257 47.5001 94.2257C28.2308 94.2257 12.641 78.6358 12.641 59.3666C12.641 21.1105 49.7251 0.773682 49.7251 0.773682C49.7251 0.773682 46.0465 11.9286 51.1939 17.0907C56.3568 22.2385 63.0754 15.6074 63.0754 15.6074Z" fill="#FF949F"/>
<path d="M63.0754 15.6074C63.0754 15.6074 62.4293 16.244 61.3862 16.969C65.6887 21.7442 79.3922 38.5835 79.3922 59.3664C79.3922 78.1389 64.5963 93.4113 46.0166 94.1878C46.509 94.2081 47.0022 94.2255 47.4999 94.2255C66.7693 94.2255 82.3589 78.6357 82.3589 59.3664C82.3591 34.713 63.0754 15.6074 63.0754 15.6074Z" fill="#FF5C74"/>
<path d="M15.6077 59.3667C15.6077 28.416 39.8754 9.19961 49.1457 2.98731C49.444 1.64451 49.7251 0.773926 49.7251 0.773926C49.7251 0.773926 12.641 21.1106 12.641 59.3667C12.641 78.6361 28.2308 94.2257 47.5001 94.2257C47.9977 94.2257 48.4909 94.2083 48.9835 94.188C30.4045 93.4115 15.6077 78.1392 15.6077 59.3667Z" fill="#FFD7DC"/>
<path d="M42.3084 17.2537C42.3084 17.2537 32.2898 21.2938 29.2218 38.9014L54.3159 32.6659C41.7687 28.0775 42.3084 17.2537 42.3084 17.2537Z" fill="#FFD7DC"/>
<path d="M49.0733 57.7947C49.9483 58.6538 49.9483 60.0632 49.0733 60.9381C48.6424 61.3683 48.0789 61.5914 47.5 61.5914C46.9365 61.5914 46.373 61.3683 45.9275 60.9381C45.0526 60.063 45.0526 58.6536 45.9275 57.7947C46.8025 56.9184 48.2121 56.9184 49.0733 57.7947Z" fill="#FF949F"/>
<path d="M49.0733 57.7949C48.2122 56.9184 46.8028 56.9184 45.9278 57.7949C45.0529 58.654 45.0529 60.0634 45.9278 60.9382C46.3733 61.3685 46.9368 61.5916 47.5003 61.5916C48.079 61.5916 48.6425 61.3685 49.0735 60.9382C49.9482 60.0634 49.9482 58.654 49.0733 57.7949ZM64.8109 42.0559C74.3628 51.6238 74.3628 67.1093 64.8109 76.6774C55.2589 86.2309 39.7567 86.2309 30.1893 76.663C20.6366 67.1095 20.6366 51.608 30.1893 42.0559C39.7567 32.5032 55.2443 32.5032 64.8109 42.0559Z" fill="white"/>
<path d="M71.2629 45.6312C72.4797 47.7375 73.3996 49.9624 74.008 52.2614C74.6307 54.5907 74.9422 56.978 74.9422 59.3667C74.9422 61.7554 74.6307 64.1427 74.008 66.4576C73.3996 68.7567 72.4797 70.9962 71.2629 73.0879C70.0924 75.1202 68.6526 77.0193 66.9027 78.7547V78.7692C65.1671 80.5048 63.2535 81.9589 61.2213 83.1295C59.1294 84.3463 56.8898 85.2663 54.6056 85.8747C52.2775 86.4974 49.8873 86.8089 47.5001 86.8089C45.1121 86.8089 42.7233 86.4974 40.3947 85.8747C38.1103 85.2663 35.8707 84.3463 33.7791 83.1295C31.7466 81.9589 29.833 80.5048 28.0976 78.7692C24.5522 75.2391 22.1794 70.9671 20.9923 66.4574C20.3694 64.128 20.0579 61.7393 20.0579 59.352C20.0579 56.9633 20.3692 54.5746 20.9923 52.2612C21.6007 49.9767 22.5204 47.7372 23.7367 45.6455C24.9086 43.613 26.3624 41.6995 28.0976 39.9641C29.8332 38.2286 31.7468 36.7749 33.7791 35.6032C35.8707 34.3719 38.1103 33.4671 40.3947 32.8587C42.7233 32.2358 45.1121 31.9243 47.5001 31.9243C49.8873 31.9243 52.2775 32.2358 54.6056 32.8587C56.89 33.4671 59.1294 34.3717 61.2213 35.5885C63.2535 36.7597 65.1673 38.2286 66.9027 39.9641C68.6381 41.6997 70.0926 43.5987 71.2629 45.6312ZM64.8108 76.6775C74.3628 67.1096 74.3628 51.624 64.8108 42.0559C55.2442 32.5032 39.7566 32.5032 30.1893 42.0559C20.6366 51.6079 20.6366 67.1094 30.1893 76.663C39.7566 86.2309 55.2587 86.2309 64.8108 76.6775Z" fill="#FF5C74"/>
<path d="M47.5001 94.9675C47.0902 94.9675 46.7584 94.6357 46.7584 94.2257C46.7584 93.8158 47.0902 93.4841 47.5001 93.4841C66.3117 93.4841 81.6175 78.1796 81.6175 59.3666C81.6175 58.9568 81.9492 58.625 82.3591 58.625C82.7692 58.625 83.1007 58.9568 83.1007 59.3666C83.1007 78.9967 67.13 94.9675 47.5001 94.9675Z" fill="#FF1125"/>
<path d="M47.5001 94.9675C27.8702 94.9675 11.8994 78.9967 11.8994 59.3666C11.8994 58.9568 12.2312 58.625 12.641 58.625C13.0511 58.625 13.3829 58.9568 13.3829 59.3666C13.3829 78.1796 28.6881 93.4841 47.5003 93.4841C47.9104 93.4841 48.2421 93.8158 48.2421 94.2257C48.2419 94.6357 47.9102 94.9675 47.5001 94.9675Z" fill="#FF1125"/>
<path d="M82.3591 60.1082C81.9492 60.1082 81.6175 59.7766 81.6175 59.3666C81.6175 37.5158 66.0351 19.8366 63.045 16.6461C60.2983 19.0421 54.8618 21.795 50.6696 17.6159C46.505 13.4389 47.6841 5.84893 48.5176 2.36436C41.511 6.7659 13.3826 26.4921 13.3826 59.3666C13.3826 59.7766 13.0509 60.1082 12.6408 60.1082C12.2309 60.1082 11.8992 59.7766 11.8992 59.3666C11.8992 21.1142 48.9935 0.328911 49.3685 0.123325C49.6351 -0.021587 49.9654 0.00884274 50.1986 0.203667C50.4334 0.397749 50.5246 0.716519 50.4289 1.00542C50.3942 1.11266 46.9558 11.7903 51.7181 16.567C56.3072 21.1432 62.3017 15.3293 62.5537 15.0793C62.8435 14.7932 63.3083 14.7947 63.5966 15.0808C63.7922 15.2734 83.1004 34.689 83.1004 59.3666C83.1007 59.7766 82.7692 60.1082 82.3591 60.1082Z" fill="#FF1125"/>
<path d="M30.4414 35.6328C30.3705 35.6328 30.298 35.6226 30.2269 35.6009C29.8345 35.4829 29.6127 35.0686 29.7315 34.6767C33.4725 22.2998 41.5499 16.7091 41.8919 16.4773C42.1004 16.3354 42.3713 16.3085 42.6031 16.4107C42.8363 16.5113 43.0012 16.725 43.0411 16.9755C43.0526 17.0494 44.2624 24.4358 48.7343 28.4028C49.0412 28.6744 49.0673 29.1439 48.7966 29.4502C48.5233 29.7558 48.0548 29.7827 47.7492 29.5124C43.9683 26.1581 42.3689 20.7991 41.8178 18.4109C39.6254 20.2397 34.0091 25.6511 31.1511 35.1053C31.0541 35.4263 30.76 35.6328 30.4414 35.6328Z" fill="#FF1125"/>
<path d="M47.5001 87.5505C45.0382 87.5505 42.5836 87.2275 40.2029 86.5916C37.8184 85.9555 35.5317 85.0068 33.4059 83.7713C31.2851 82.5485 29.3217 81.0421 27.5731 79.2935C24.0545 75.7909 21.5311 71.4161 20.2749 66.6459C19.6391 64.2686 19.316 61.8133 19.316 59.352C19.316 56.885 19.6391 54.4341 20.2757 52.0686C20.9101 49.6856 21.8591 47.3989 23.0954 45.2724C24.3195 43.1495 25.8269 41.1859 27.5731 39.4395C29.3194 37.6933 31.2829 36.1859 33.408 34.9604C35.4831 33.7391 37.7713 32.7897 40.2034 32.1414C44.9634 30.8695 50.035 30.8687 54.798 32.1421C57.2142 32.7852 59.5001 33.7299 61.5948 34.9474C63.6925 36.157 65.6567 37.6686 67.427 39.4395C69.1857 41.1989 70.6934 43.1573 71.906 45.2599C73.1519 47.4169 74.0991 49.7088 74.725 52.0713C75.361 54.4499 75.6839 56.9052 75.6839 59.3663C75.6839 61.8319 75.361 64.2829 74.725 66.65C74.0934 69.0372 73.1432 71.3289 71.9045 73.4597C70.6921 75.5616 69.2131 77.4926 67.5066 79.2005C67.482 79.2323 67.456 79.2642 67.427 79.2931C65.6785 81.0417 63.7157 82.5482 61.592 83.7724C59.4684 85.0065 57.1824 85.9554 54.7967 86.5912C52.4167 87.2273 49.9626 87.5505 47.5001 87.5505ZM47.5001 32.6659C45.1679 32.6659 42.8415 32.9715 40.5866 33.5749C38.2834 34.1885 36.1199 35.0858 34.1548 36.2418C32.1362 37.4065 30.2761 38.8341 28.6218 40.4884C26.9674 42.1427 25.54 44.0027 24.3789 46.0162C23.2077 48.0305 22.3097 50.1955 21.709 52.4523C21.1051 54.6933 20.7995 57.0139 20.7995 59.352C20.7995 61.6842 21.1051 64.0094 21.7083 66.2662C22.8977 70.7845 25.2879 74.9246 28.621 78.2433C30.2791 79.9019 32.1383 81.3289 34.1488 82.4862C36.1631 83.6581 38.3274 84.5561 40.5856 85.1573C45.0967 86.3656 49.9046 86.3656 54.4126 85.1573C56.6726 84.5561 58.8368 83.6581 60.8474 82.4875C62.8292 81.3473 64.663 79.9468 66.2985 78.3229C66.3232 78.2895 66.3492 78.2576 66.3809 78.2271C68.028 76.593 69.4549 74.7405 70.6212 72.7168C71.7944 70.699 72.6927 68.529 73.2911 66.2675C73.895 64.0237 74.2006 61.7029 74.2006 59.3665C74.2006 57.0344 73.895 54.7093 73.2911 52.4523C72.6999 50.2142 71.8019 48.045 70.6212 46.0017C69.4725 44.0106 68.0455 42.1565 66.3782 40.4884C64.6993 38.8096 62.8394 37.3768 60.8503 36.231C58.8687 35.078 56.7045 34.185 54.4141 33.5757C52.1588 32.9717 49.8324 32.6659 47.5001 32.6659Z" fill="#FF1125"/>
<path d="M47.5123 84.5824C40.772 84.5824 34.4329 81.9562 29.6649 77.1874C24.9049 72.4274 22.283 66.0956 22.283 59.3595C22.283 52.622 24.9049 46.2917 29.6649 41.5316C34.4324 36.7716 40.7664 34.1497 47.5001 34.1497C54.2332 34.1497 60.568 36.7716 65.3352 41.5309C75.1538 51.3662 75.1538 67.3674 65.3352 77.2019C60.5767 81.9617 54.2477 84.5824 47.5123 84.5824ZM47.5001 35.6329C41.1625 35.6329 35.2007 38.1005 30.7138 42.5811C26.234 47.0602 23.7664 53.019 23.7664 59.3595C23.7664 65.6987 26.234 71.6581 30.7138 76.1387C35.2022 80.6278 41.1683 83.0993 47.5125 83.0993C53.8508 83.0993 59.8076 80.6323 64.2865 76.1532C73.5286 66.8966 73.5286 51.8371 64.2865 42.5805C59.7987 38.1005 53.8376 35.6329 47.5001 35.6329Z" fill="#FF1125"/>
<path d="M47.5001 62.3334C46.7287 62.3334 45.9878 62.0278 45.4126 61.4714C44.8362 60.8964 44.5261 60.1445 44.5298 59.3463C44.5335 58.5568 44.8456 57.8181 45.4084 57.2661C46.5246 56.1464 48.4894 56.1434 49.6021 57.2748C50.1541 57.8181 50.4669 58.5568 50.4699 59.3463C50.4742 60.1445 50.1643 60.8964 49.5978 61.4626C49.0355 62.0248 48.291 62.3334 47.5001 62.3334ZM47.5051 57.8792C47.1097 57.8792 46.7352 58.0356 46.4526 58.3195C46.1688 58.5976 46.0153 58.9628 46.0131 59.3537C46.0109 59.7521 46.1673 60.1287 46.4519 60.4141C47.0351 60.9761 47.9925 60.9674 48.548 60.4141C48.8327 60.1287 48.9893 59.7523 48.9863 59.3537C48.9848 58.9628 48.8312 58.5976 48.553 58.3237C48.268 58.0339 47.8992 57.8792 47.5051 57.8792Z" fill="#FF1125"/>
<path d="M49.0733 58.5364C48.8829 58.5364 48.6931 58.4638 48.5482 58.3191C48.2585 58.0293 48.2585 57.56 48.5482 57.2704L59.0355 46.7826C59.3253 46.4927 59.7945 46.4927 60.0842 46.7826C60.3738 47.0724 60.374 47.5416 60.0842 47.8313L49.5976 58.3191C49.4527 58.464 49.2616 58.5364 49.0733 58.5364Z" fill="#FF1125"/>
<path d="M47.5001 71.6493C47.0902 71.6493 46.7584 71.3175 46.7584 70.9077V61.5917C46.7584 61.1817 47.0902 60.8501 47.5001 60.8501C47.9101 60.8501 48.2419 61.1817 48.2419 61.5917V70.9077C48.2419 71.3175 47.9101 71.6493 47.5001 71.6493Z" fill="#FF1125"/>
<path d="M66.3839 41.2251C66.1928 41.2251 66.0045 41.1527 65.8596 41.0078C65.5698 40.718 65.5698 40.2488 65.8596 39.9591L66.3782 39.4398C66.668 39.15 67.1373 39.15 67.4271 39.4398C67.7167 39.7296 67.7167 40.1989 67.4271 40.4885L66.9085 41.0078C66.7636 41.1527 66.5724 41.2251 66.3839 41.2251Z" fill="#FF1125"/>
<path d="M28.0977 79.5109C27.908 79.5109 27.7175 79.4384 27.5726 79.2935C27.2835 79.0038 27.2835 78.5344 27.5733 78.2448L28.0926 77.7262C28.3825 77.4363 28.8525 77.4363 29.1421 77.7262C29.4312 78.016 29.4312 78.4852 29.1414 78.7749L28.622 79.2935C28.4773 79.4386 28.2875 79.5109 28.0977 79.5109Z" fill="#FF1125"/>
<path d="M60.8503 36.9827C60.7256 36.9827 60.5996 36.9517 60.4838 36.8858C60.1274 36.6838 60.0027 36.231 60.2055 35.8746L60.5764 35.222C60.7777 34.8663 61.2297 34.7404 61.5875 34.9439C61.9439 35.146 62.0686 35.5987 61.8656 35.9549L61.4949 36.6077C61.3587 36.8482 61.1082 36.9827 60.8503 36.9827Z" fill="#FF1125"/>
<path d="M33.7783 83.8711C33.6513 83.8711 33.5233 83.8392 33.4059 83.7713C33.0517 83.564 32.9322 83.1106 33.1379 82.7571L33.5088 82.1197C33.7144 81.7633 34.1687 81.6446 34.5229 81.8503C34.8771 82.0574 34.9966 82.5109 34.7908 82.8643L34.4199 83.5017C34.2824 83.7394 34.0339 83.8711 33.7783 83.8711Z" fill="#FF1125"/>
<path d="M54.4128 34.3123C54.349 34.3123 54.2841 34.3045 54.2188 34.2864C53.8247 34.1799 53.5901 33.7722 53.6972 33.3774L53.8898 32.6654C53.9955 32.2693 54.4039 32.031 54.7982 32.1433C55.1953 32.2498 55.4283 32.6574 55.3211 33.0523L55.1285 33.7642C55.0387 34.0951 54.7403 34.3123 54.4128 34.3123Z" fill="#FF1125"/>
<path d="M40.3955 86.6161C40.3309 86.6161 40.2658 86.6074 40.2014 86.59C39.8058 86.4827 39.5718 86.0758 39.6785 85.6802L39.8711 84.9676C39.9783 84.572 40.386 84.3402 40.7808 84.446C41.1762 84.553 41.4102 84.9601 41.3037 85.3557L41.1109 86.0684C41.0213 86.399 40.7222 86.6161 40.3955 86.6161Z" fill="#FF1125"/>
<path d="M47.5001 33.4079C47.0902 33.4079 46.7584 33.0761 46.7584 32.6661V31.9242C46.7584 31.5144 47.0902 31.1826 47.5001 31.1826C47.9101 31.1826 48.2419 31.5144 48.2419 31.9242V32.6661C48.2419 33.0761 47.9101 33.4079 47.5001 33.4079Z" fill="#FF1125"/>
<path d="M47.5001 87.5506C47.0902 87.5506 46.7584 87.2188 46.7584 86.8089V86.0673C46.7584 85.6573 47.0902 85.3257 47.5001 85.3257C47.9101 85.3257 48.2419 85.6573 48.2419 86.0673V86.8089C48.2419 87.2186 47.9101 87.5506 47.5001 87.5506Z" fill="#FF1125"/>
<path d="M40.5866 34.3125C40.2601 34.3125 39.9609 34.0952 39.8717 33.7642L39.6791 33.0522C39.5719 32.6576 39.8058 32.2497 40.2012 32.1432C40.5916 32.0339 41.0037 32.2692 41.11 32.6654L41.3028 33.3773C41.4101 33.772 41.1761 34.1798 40.7807 34.2863C40.7163 34.3045 40.6512 34.3125 40.5866 34.3125Z" fill="#FF1125"/>
<path d="M54.6041 86.6162C54.2781 86.6162 53.9782 86.3989 53.8884 86.0687L53.6973 85.356C53.5902 84.9604 53.8248 84.5533 54.2189 84.4462C54.61 84.3433 55.0214 84.5722 55.1286 84.9678L55.3227 85.6805C55.4283 86.0761 55.1952 86.483 54.7983 86.5902C54.7343 86.6077 54.6692 86.6162 54.6041 86.6162Z" fill="#FF1125"/>
<path d="M34.1505 36.9828C33.8948 36.9828 33.6464 36.8511 33.5089 36.6143L33.138 35.9762C32.9317 35.622 33.0526 35.168 33.4059 34.9622C33.7594 34.7559 34.2142 34.8752 34.4199 35.2301L34.7908 35.8682C34.9972 36.2224 34.8764 36.6765 34.5229 36.8822C34.4055 36.9503 34.2772 36.9828 34.1505 36.9828Z" fill="#FF1125"/>
<path d="M61.2213 83.8712C60.9663 83.8712 60.7171 83.7395 60.5809 83.5018L60.21 82.8644C60.0045 82.511 60.1232 82.0575 60.4769 81.8504C60.8301 81.6433 61.2849 81.7634 61.4909 82.1198L61.8616 82.7572C62.0674 83.1107 61.9486 83.5641 61.595 83.7714C61.4762 83.8393 61.3487 83.8712 61.2213 83.8712Z" fill="#FF1125"/>
<path d="M28.6168 41.225C28.4272 41.225 28.2373 41.1527 28.0924 41.0078L27.5731 40.4884C27.2833 40.1986 27.2833 39.7293 27.5731 39.4397C27.8629 39.1501 28.3322 39.1499 28.6218 39.4397L29.1411 39.9591C29.431 40.2489 29.431 40.7181 29.1411 41.0078C28.9964 41.1527 28.8066 41.225 28.6168 41.225Z" fill="#FF1125"/>
<path d="M66.9169 79.5109H66.9026C66.6562 79.5109 66.4389 79.392 66.3042 79.2081L65.8667 78.7821C65.5726 78.4967 65.5654 78.0275 65.8508 77.7334C66.1376 77.4408 66.6054 77.4321 66.8997 77.7189L67.4183 78.2231C67.4919 78.2926 67.5485 78.3767 67.5862 78.4695C67.6283 78.5606 67.6513 78.6621 67.6513 78.7691C67.6513 79.1792 67.327 79.5109 66.9169 79.5109Z" fill="#FF1125"/>
<path d="M24.3739 46.758C24.2471 46.758 24.1189 46.7255 24.0016 46.6575L23.3636 46.2865C23.0101 46.081 22.8891 45.6267 23.0956 45.2725C23.3012 44.9183 23.7562 44.7981 24.1096 45.0046L24.7477 45.3755C25.1012 45.5811 25.2222 46.0353 25.0157 46.3895C24.878 46.6263 24.6295 46.758 24.3739 46.758Z" fill="#FF1125"/>
<path d="M71.2774 73.8293H71.2629C71.1326 73.8293 71.005 73.7945 70.8905 73.7293L70.2518 73.3586C69.8984 73.153 69.7779 72.6979 69.9852 72.3444C70.1908 71.9897 70.6428 71.8692 70.9992 72.0752L71.6048 72.4285C71.8453 72.5517 72.0132 72.8009 72.0132 73.0877C72.0132 73.4976 71.6889 73.8293 71.2774 73.8293Z" fill="#FF1125"/>
<path d="M21.7202 53.1955C21.6573 53.1955 21.5934 53.1883 21.5298 53.1709L20.8026 52.9783C20.4063 52.874 20.1703 52.4669 20.2753 52.0715C20.3803 51.6744 20.7897 51.4384 21.1821 51.544L21.9093 51.7368C22.3054 51.841 22.5416 52.2481 22.4366 52.6435C22.3481 52.977 22.0482 53.1955 21.7202 53.1955Z" fill="#FF1125"/>
<path d="M74.0095 67.1993C73.9442 67.1993 73.8791 67.1906 73.8154 67.1731L73.1026 66.9804C72.7072 66.8733 72.4738 66.4662 72.581 66.0708C72.6853 65.6754 73.0951 65.4435 73.4894 65.5492L74.2006 65.7418C74.5975 65.8491 74.8308 66.256 74.7235 66.6516C74.6352 66.9818 74.3355 67.1993 74.0095 67.1993Z" fill="#FF1125"/>
<path d="M20.7996 60.1083C20.7954 60.1083 20.7902 60.1083 20.7852 60.1083L20.0433 60.0939C19.634 60.0851 19.3082 59.7478 19.3162 59.3378C19.3242 58.9294 19.5878 58.6163 20.0725 58.6106L20.8141 58.6251C21.2234 58.6338 21.5492 58.9713 21.5413 59.3812C21.5333 59.7855 21.2028 60.1083 20.7996 60.1083Z" fill="#FF1125"/>
<path d="M74.9423 60.1083H74.2151C73.8053 60.1083 73.4735 59.7767 73.4735 59.3666C73.4735 58.9568 73.8053 58.625 74.2151 58.625H74.9423C75.3524 58.625 75.6839 58.9568 75.6839 59.3666C75.6839 59.7767 75.3524 60.1083 74.9423 60.1083Z" fill="#FF1125"/>
<path d="M20.9915 67.1993C20.6575 67.1993 20.3547 66.9733 20.2716 66.6344C20.1745 66.2362 20.4178 65.8346 20.8154 65.7376L21.5426 65.5595C21.9408 65.4595 22.3415 65.7044 22.4399 66.1028C22.5369 66.5009 22.2935 66.9025 21.8959 66.9993L21.1687 67.1776C21.1095 67.1921 21.0501 67.1993 20.9915 67.1993Z" fill="#FF1125"/>
<path d="M73.2954 53.181C72.9636 53.181 72.6608 52.9565 72.5767 52.619C72.4767 52.2221 72.7189 51.8194 73.1156 51.7194L73.827 51.5411C74.2266 51.4485 74.6278 51.6833 74.7278 52.0814C74.8263 52.4785 74.5857 52.8813 74.189 52.9812L73.4763 53.1593C73.4156 53.1738 73.3547 53.181 73.2954 53.181Z" fill="#FF1125"/>
<path d="M23.7373 73.8149C23.4773 73.8149 23.2244 73.6789 23.089 73.4353C22.8891 73.0775 23.0172 72.6257 23.3751 72.4257L24.0132 72.0695C24.3694 71.8694 24.8229 71.9969 25.0222 72.3546C25.222 72.7126 25.0938 73.1644 24.7361 73.3642L24.098 73.7206C23.9837 73.7845 23.8597 73.8149 23.7373 73.8149Z" fill="#FF1125"/>
<path d="M70.6257 46.7436C70.3706 46.7436 70.1214 46.6117 69.9854 46.3749C69.7781 46.0207 69.8983 45.5667 70.252 45.3609L70.8906 44.99C71.3616 44.7176 72.0134 45.0908 72.0134 45.6311C72.0134 45.9411 71.8265 46.2063 71.5586 46.3168L70.9994 46.6429C70.8804 46.711 70.753 46.7436 70.6257 46.7436Z" fill="#FF1125"/>
<path d="M62.7539 44.8965C62.3438 44.8965 62.0035 44.5648 62.0035 44.1549C62.0035 43.745 62.3279 43.4131 62.7394 43.4131H62.7539C63.1625 43.4131 63.4955 43.7448 63.4955 44.1549C63.4955 44.565 63.1625 44.8965 62.7539 44.8965Z" fill="#FF1125"/>
<path d="M32.3341 75.3158C31.9249 75.3158 31.5852 74.984 31.5852 74.5742C31.5852 74.1643 31.9097 73.8325 32.3196 73.8325H32.3341C32.7441 73.8325 33.0759 74.1643 33.0759 74.5742C33.0759 74.984 32.7441 75.3158 32.3341 75.3158Z" fill="#FF1125"/>
<path d="M53.109 39.3311C52.7006 39.3311 52.3616 38.9993 52.3616 38.5893C52.3616 38.1794 52.6861 37.8477 53.0945 37.8477H53.109C53.5205 37.8477 53.8506 38.1794 53.8506 38.5893C53.8508 38.9995 53.5205 39.3311 53.109 39.3311Z" fill="#FF1125"/>
<path d="M41.9759 80.8827C41.5666 80.8827 41.2271 80.5511 41.2271 80.141C41.2271 79.7312 41.5516 79.3994 41.9614 79.3994H41.9759C42.3858 79.3994 42.7175 79.7312 42.7175 80.141C42.7175 80.5511 42.3858 80.8827 41.9759 80.8827Z" fill="#FF1125"/>
<path d="M41.9759 39.3296C41.5666 39.3296 41.2271 38.9979 41.2271 38.5878C41.2271 38.1779 41.5516 37.8462 41.9614 37.8462H41.9759C42.3858 37.8462 42.7175 38.1779 42.7175 38.5878C42.7175 38.9981 42.3858 39.3296 41.9759 39.3296Z" fill="#FF1125"/>
<path d="M53.109 80.8812C52.7006 80.8812 52.3616 80.5496 52.3616 80.1396C52.3616 79.7297 52.6861 79.3979 53.0945 79.3979H53.109C53.5205 79.3979 53.8506 79.7297 53.8506 80.1396C53.8508 80.5496 53.5205 80.8812 53.109 80.8812Z" fill="#FF1125"/>
<path d="M32.3341 44.898C31.9249 44.898 31.5852 44.5662 31.5852 44.1564C31.5852 43.7465 31.9097 43.4146 32.3196 43.4146H32.3341C32.7441 43.4146 33.0759 43.7463 33.0759 44.1564C33.0759 44.5664 32.7441 44.898 32.3341 44.898Z" fill="#FF1125"/>
<path d="M62.7509 75.3143C62.3424 75.3143 62.0035 74.9826 62.0035 74.5727C62.0035 74.1628 62.3279 73.8311 62.7365 73.8311H62.7509C63.1625 73.8311 63.4926 74.1628 63.4926 74.5727C63.4926 74.9826 63.1625 75.3143 62.7509 75.3143Z" fill="#FF1125"/>
<path d="M26.7671 54.5384C26.3579 54.5384 26.0182 54.2067 26.0182 53.7968C26.0182 53.3869 26.3427 53.0552 26.7526 53.0552H26.7671C27.1771 53.0552 27.5089 53.3869 27.5089 53.7968C27.5089 54.2067 27.1771 54.5384 26.7671 54.5384Z" fill="#FF1125"/>
<path d="M68.3193 65.6724C67.9094 65.6724 67.569 65.3407 67.569 64.9306C67.569 64.5207 67.8935 64.189 68.3048 64.189H68.3193C68.7277 64.189 69.0609 64.5207 69.0609 64.9306C69.0609 65.3407 68.7277 65.6724 68.3193 65.6724Z" fill="#FF1125"/>
<path d="M26.7671 65.6739C26.3579 65.6739 26.0182 65.3421 26.0182 64.9321C26.0182 64.5222 26.3427 64.1904 26.7526 64.1904H26.7671C27.1771 64.1904 27.5089 64.5222 27.5089 64.9321C27.5087 65.3421 27.1771 65.6739 26.7671 65.6739Z" fill="#FF1125"/>
<path d="M68.3163 54.5384C67.908 54.5384 67.569 54.2067 67.569 53.7968C67.569 53.3869 67.8935 53.0552 68.3019 53.0552H68.3163C68.7277 53.0552 69.058 53.3869 69.058 53.7968C69.058 54.2067 68.7277 54.5384 68.3163 54.5384Z" fill="#FF1125"/>
</svg>
