<svg width="95" height="95" viewBox="0 0 95 95" fill="none" xmlns="http://www.w3.org/2000/svg">
<path d="M53.3755 6.70881H41.5665V2.25884L44.9403 3.7421L47.471 0.775391L50.0017 3.7421L53.3755 2.25884V6.70881Z" fill="#FF5C74"/>
<path d="M47.5159 40.8292L44.5492 42.2979L40.099 37.8478L41.4188 36.043L47.5159 40.8292Z" fill="white"/>
<path d="M47.5753 40.8292L50.5422 42.2979L54.9922 37.8478L53.6726 36.043L47.5753 40.8292Z" fill="white"/>
<path d="M53.3755 15.6422C53.3755 15.6422 59.383 14.7978 57.8706 24.4975L54.9039 20.0475C54.9039 20.0475 51.3883 21.5309 47.5306 21.5309C43.689 21.5309 40.0703 20.0475 40.0703 20.0475L37.1181 24.483L37.1036 24.4975C35.5753 8.18048 54.9183 11.4296 54.9183 11.4296C52.0399 12.6017 53.3755 15.6422 53.3755 15.6422Z" fill="#FF949F"/>
<path d="M53.3755 15.6423C53.3755 15.6423 57.0579 14.9282 56.5929 22.5811L57.8705 24.4976C59.3829 14.7979 53.3755 15.6423 53.3755 15.6423Z" fill="#FF5C74"/>
<path d="M51.8964 11.1762C46.5206 11.0315 35.9589 12.2773 37.1033 24.4976L37.1178 24.4831L38.5187 22.3797C38.7156 13.077 46.6597 11.3154 51.8964 11.1762Z" fill="#FFD7DC"/>
<path d="M57.914 25.9955C57.914 33.0415 51.4924 39.5401 47.5304 39.5401C43.5859 39.5401 37.1469 33.0416 37.1469 25.9955V24.4976L37.1179 24.4831L40.0702 20.0476C40.0702 20.0476 43.6889 21.5311 47.5304 21.5311C51.3881 21.5311 54.9037 20.0476 54.9037 20.0476L57.8704 24.4976H57.9138V25.9955H57.914Z" fill="#FFD7DC"/>
<path d="M57.8705 24.4976L54.9038 20.0476C54.9038 20.0476 53.9319 20.4532 52.4646 20.8386L54.9038 24.4978H54.9472V25.9957C54.9472 32.2145 49.9482 37.9987 46.05 39.2736C46.5672 39.443 47.0668 39.5402 47.5305 39.5402C51.4925 39.5402 57.9141 33.0418 57.9141 25.9957V24.4978L57.8705 24.4976Z" fill="#FF949F"/>
<path d="M40.1135 25.9955V24.4976L40.0846 24.4831L42.5167 20.8299C41.0464 20.4475 40.0699 20.0476 40.0699 20.0476L37.1177 24.4831L37.1466 24.4976V25.9955C37.1466 33.0415 43.5857 39.5401 47.5302 39.5401C47.9952 39.5401 48.4963 39.443 49.0164 39.2734C45.1272 37.9985 40.1135 32.2143 40.1135 25.9955Z" fill="white"/>
<path d="M65.2874 51.1984H29.6865V49.7151C29.6865 49.7151 29.6865 48.7213 29.6865 46.2587C29.6865 43.7817 30.9323 42.8487 33.3949 41.9275C34.6104 41.4683 36.7919 40.6526 38.5867 39.7922L40.3221 38.0713L44.5492 42.2982L47.5159 40.8294L50.4826 42.2982L54.6951 38.0858L56.3871 39.7778C58.1964 40.6526 60.3621 41.4683 61.5789 41.9275C64.0559 42.8487 65.2872 43.7817 65.2872 46.2587C65.2872 48.7213 65.2872 49.7151 65.2872 49.7151L65.2874 51.1984Z" fill="#EC5D6E"/>
<path d="M32.6532 46.2584C32.6532 43.7814 33.8989 42.8484 36.3615 41.9272C37.5768 41.468 39.7585 40.6523 41.5533 39.7919L41.7995 39.5485L40.3218 38.0708L38.5864 39.7917C36.7916 40.6521 34.6099 41.4678 33.3946 41.927C30.932 42.8483 29.6863 43.7812 29.6863 46.2582C29.6863 48.7208 29.6863 49.7146 29.6863 49.7146V51.1979H32.653V49.7146C32.6532 49.715 32.6532 48.721 32.6532 46.2584Z" fill="#FF949F"/>
<path d="M62.351 46.2584C62.351 43.7814 61.1052 42.8484 58.6427 41.9272C57.4273 41.468 55.2457 40.6523 53.4511 39.7919L53.2048 39.5485L54.6823 38.0708L56.4179 39.7917C58.2127 40.6521 60.3944 41.4678 61.6096 41.927C64.0721 42.8483 65.3179 43.7812 65.3179 46.2582C65.3179 48.7208 65.3179 49.7146 65.3179 49.7146V51.1979H62.3512V49.7146C62.351 49.715 62.351 48.721 62.351 46.2584Z" fill="#FF223C"/>
<path d="M49.0586 51.1982H46.092L46.8337 43.0396H48.3169L49.0586 51.1982Z" fill="#FFD7DC"/>
<path d="M48.8457 41.0232H46.2035V43.0397H48.8457V41.0232Z" fill="#FFD7DC"/>
<path d="M41.5665 2.25879V6.70876H43.05V3.00042L41.5665 2.25879Z" fill="#FF949F"/>
<path d="M53.3797 2.25879V6.70876H51.8965V3.00042L53.3797 2.25879Z" fill="#FF223C"/>
<path d="M47.5 76.4182C50.3626 76.4182 52.6917 78.5984 52.6917 81.9213C52.6917 83.3758 52.0689 84.784 51.2083 85.8965C50.0957 87.3204 48.6125 88.285 47.5 88.285C46.3874 88.285 44.9042 87.3204 43.7916 85.8965C42.9312 84.784 42.3083 83.3758 42.3083 81.9213C42.3083 78.5984 44.6368 76.4182 47.5 76.4182Z" fill="#FFD7DC"/>
<path d="M43.7916 85.8967C44.9041 87.3206 46.3876 88.2853 47.4999 88.2853C48.6125 88.2853 50.0957 87.3206 51.2083 85.8967V87.4845C51.2083 88.0927 53.4189 89.1907 54.5604 89.6212C55.7916 90.0804 56.4001 90.5395 56.4001 91.771C56.4001 92.9878 56.4001 94.2189 56.4001 94.2189H38.5996C38.5996 94.2189 38.5996 92.9876 38.5996 91.771C38.5996 90.5395 39.208 90.0804 40.4393 89.6212C41.5808 89.1909 43.7912 88.0929 43.7912 87.4845V85.8967H43.7916Z" fill="#FF949F"/>
<path d="M21.5411 87.4842C21.5411 88.0924 23.7518 89.1905 24.8931 89.621C26.1245 90.0802 26.7327 90.5392 26.7327 91.7707C26.7327 92.9875 26.7327 94.2186 26.7327 94.2186H8.9325C8.9325 94.2186 8.9325 92.9873 8.9325 91.7707C8.9325 90.5392 9.5409 90.0802 10.7722 89.621C11.9137 89.1907 14.1243 88.0926 14.1243 87.4842V85.8965C15.2368 87.3204 16.7201 88.285 17.8326 88.285C18.9452 88.285 20.4284 87.3204 21.541 85.8965L21.5411 87.4842Z" fill="#FF949F"/>
<path d="M14.1243 87.4842C14.1243 88.0924 11.9137 89.1905 10.7722 89.621C9.5409 90.0802 8.9325 90.5392 8.9325 91.7707C8.9325 92.9875 8.9325 94.2186 8.9325 94.2186H10.4159C10.4159 93.9117 10.4159 93.5842 10.4159 93.254C10.4159 92.0225 11.0244 91.5635 12.2556 91.1042C13.3971 90.6741 15.6075 89.5761 15.6075 88.9675V87.6087C15.2281 87.2189 14.6407 86.557 14.1243 85.8965V87.4842Z" fill="#FFD7DC"/>
<path d="M15.6075 87.3799V87.6087C16.0451 88.0594 16.2037 88.1432 15.6075 87.3799Z" fill="#FFD7DC"/>
<path d="M21.5412 87.4842C21.5412 88.0924 23.7518 89.1905 24.8931 89.621C26.1246 90.0802 26.7328 90.5392 26.7328 91.7707C26.7328 92.9875 26.7328 94.2186 26.7328 94.2186H25.2495C25.2495 93.9117 25.2495 93.5842 25.2495 93.254C25.2495 92.0225 24.6411 91.5635 23.4098 91.1042C22.2683 90.6741 20.0577 89.5761 20.0577 88.9675V87.6087C20.4372 87.2189 21.0246 86.557 21.5412 85.8965V87.4842Z" fill="#EC5D6E"/>
<path d="M20.0578 87.3799V87.6087C19.6203 88.0594 19.4618 88.1432 20.0578 87.3799Z" fill="#EC5D6E"/>
<path d="M43.7916 87.4842C43.7916 88.0924 41.581 89.1905 40.4397 89.621C39.2084 90.0802 38.6 90.5392 38.6 91.7707C38.6 92.9875 38.6 94.2186 38.6 94.2186H40.0832C40.0832 93.9117 40.0832 93.5842 40.0832 93.254C40.0832 92.0225 40.6916 91.5635 41.9229 91.1042C43.0644 90.6741 45.275 89.5761 45.275 88.9675V87.6087C44.8954 87.2189 44.308 86.557 43.7916 85.8965V87.4842Z" fill="#FFD7DC"/>
<path d="M45.275 87.3799V87.6087C45.7124 88.0594 45.871 88.1432 45.275 87.3799Z" fill="#FFD7DC"/>
<path d="M51.2084 87.4842C51.2084 88.0924 53.419 89.1905 54.5604 89.621C55.7917 90.0802 56.4001 90.5392 56.4001 91.7707C56.4001 92.9875 56.4001 94.2186 56.4001 94.2186H54.9167C54.9167 93.9117 54.9167 93.5842 54.9167 93.254C54.9167 92.0225 54.3085 91.5635 53.077 91.1042C51.9357 90.6741 49.7251 89.5761 49.7251 88.9675V87.6087C50.1045 87.2189 50.6927 86.557 51.2084 85.8965V87.4842Z" fill="#EC5D6E"/>
<path d="M49.7251 87.3799V87.6087C49.2877 88.0594 49.1282 88.1432 49.7251 87.3799Z" fill="#EC5D6E"/>
<path d="M17.8327 76.4182C20.6958 76.4182 23.0243 78.5984 23.0243 81.9213C23.0243 83.3758 22.4016 84.784 21.541 85.8965C20.4285 87.3204 18.945 88.285 17.8327 88.285C16.7201 88.285 15.2367 87.3204 14.1243 85.8965C13.2638 84.784 12.6409 83.3758 12.6409 81.9213C12.6409 78.5984 14.9695 76.4182 17.8327 76.4182Z" fill="#FFD7DC"/>
<path d="M15.6076 85.8967C14.7472 84.7842 14.1243 83.3761 14.1243 81.9216C14.1243 78.8927 16.0648 76.8343 18.5743 76.4895C18.3303 76.4561 18.0869 76.4185 17.8327 76.4185C14.9695 76.4185 12.6409 78.5986 12.6409 81.9216C12.6409 83.3761 13.2638 84.7842 14.1243 85.8967C15.2369 87.3206 16.7201 88.2853 17.8327 88.2853C18.0651 88.2853 18.3164 88.2348 18.5743 88.155C17.5974 87.8535 16.4876 87.0236 15.6076 85.8967Z" fill="white"/>
<path d="M20.0578 85.8967C20.9182 84.7842 21.5412 83.3761 21.5412 81.9216C21.5412 78.8927 19.6008 76.8343 17.0911 76.4895C17.3352 76.4561 17.5785 76.4185 17.8329 76.4185C20.6961 76.4185 23.0245 78.5986 23.0245 81.9216C23.0245 83.3761 22.4018 84.7842 21.5412 85.8967C20.4287 87.3206 18.9452 88.2853 17.8329 88.2853C17.6004 88.2853 17.349 88.2348 17.0911 88.155C18.0682 87.8535 19.1777 87.0236 20.0578 85.8967Z" fill="#FF949F"/>
<path d="M45.2751 85.8967C44.4145 84.7842 43.7916 83.3761 43.7916 81.9216C43.7916 78.8927 45.7321 76.8343 48.2418 76.4895C47.9976 76.4561 47.7541 76.4185 47.5 76.4185C44.6368 76.4185 42.3083 78.5986 42.3083 81.9216C42.3083 83.3761 42.9312 84.7842 43.7916 85.8967C44.9042 87.3206 46.3876 88.2853 47.5 88.2853C47.7326 88.2853 47.9837 88.2348 48.2418 88.155C47.2645 87.8535 46.1549 87.0236 45.2751 85.8967Z" fill="white"/>
<path d="M49.725 85.8967C50.5856 84.7842 51.2083 83.3761 51.2083 81.9216C51.2083 78.8927 49.2673 76.8343 46.7583 76.4895C47.0023 76.4561 47.2457 76.4185 47.4999 76.4185C50.3625 76.4185 52.6917 78.5986 52.6917 81.9216C52.6917 83.3761 52.0688 84.7842 51.2083 85.8967C50.0957 87.3206 48.6125 88.2853 47.4999 88.2853C47.2674 88.2853 47.0162 88.2348 46.7583 88.155C47.7356 87.8535 48.845 87.0236 49.725 85.8967Z" fill="#FF949F"/>
<path d="M77.1674 76.4182C80.0298 76.4182 82.359 78.5984 82.359 81.9213C82.359 83.3758 81.7363 84.784 80.8757 85.8965C79.7632 87.3204 78.2799 88.285 77.1674 88.285C76.0548 88.285 74.5714 87.3204 73.459 85.8965C72.5985 84.784 71.9756 83.3758 71.9756 81.9213C71.9754 78.5984 74.3049 76.4182 77.1674 76.4182Z" fill="#FFD7DC"/>
<path d="M80.8758 87.4842C80.8758 88.0924 83.0862 89.1905 84.2277 89.621C85.4592 90.0802 86.0676 90.5392 86.0676 91.7707C86.0676 92.9875 86.0676 94.2186 86.0676 94.2186H68.267C68.267 94.2186 68.267 92.9873 68.267 91.7707C68.267 90.5392 68.8754 90.0802 70.1067 89.621C71.2482 89.1907 73.4588 88.0926 73.4588 87.4842V85.8965C74.5711 87.3204 76.0546 88.285 77.1671 88.285C78.2796 88.285 79.7629 87.3204 80.8754 85.8965V87.4842H80.8758Z" fill="#FF949F"/>
<path d="M73.4589 87.4842C73.4589 88.0924 71.2483 89.1905 70.1068 89.621C68.8755 90.0802 68.2671 90.5392 68.2671 91.7707C68.2671 92.9875 68.2671 94.2186 68.2671 94.2186H69.7505C69.7505 93.9117 69.7505 93.5842 69.7505 93.254C69.7505 92.0225 70.3588 91.5635 71.5902 91.1042C72.7317 90.6741 74.9421 89.5761 74.9421 88.9675V87.6087C74.5625 87.2189 73.9745 86.557 73.4589 85.8965V87.4842Z" fill="#FFD7DC"/>
<path d="M74.9421 87.3799V87.6087C75.3798 88.0594 75.539 88.1432 74.9421 87.3799Z" fill="#FFD7DC"/>
<path d="M80.8758 87.4842C80.8758 88.0924 83.0862 89.1905 84.2277 89.621C85.4592 90.0802 86.0676 90.5392 86.0676 91.7707C86.0676 92.9875 86.0676 94.2186 86.0676 94.2186H84.5841C84.5841 93.9117 84.5841 93.5842 84.5841 93.254C84.5841 92.0225 83.9757 91.5635 82.7444 91.1042C81.6029 90.6741 79.3923 89.5761 79.3923 88.9675V87.6087C79.772 87.2189 80.3601 86.557 80.8758 85.8965V87.4842Z" fill="#EC5D6E"/>
<path d="M79.3923 87.3799V87.6087C78.9548 88.0594 78.7956 88.1432 79.3923 87.3799Z" fill="#EC5D6E"/>
<path d="M74.9422 85.8967C74.0816 84.7842 73.4589 83.3761 73.4589 81.9216C73.4589 78.8927 75.4001 76.8343 77.9089 76.4895C77.6654 76.4561 77.4222 76.4185 77.1672 76.4185C74.3048 76.4185 71.9755 78.5986 71.9755 81.9216C71.9755 83.3761 72.5983 84.7842 73.4589 85.8967C74.5713 87.3206 76.0547 88.2853 77.1672 88.2853C77.399 88.2853 77.651 88.2348 77.9089 88.155C76.9327 87.8535 75.823 87.0236 74.9422 85.8967Z" fill="white"/>
<path d="M79.3923 85.8967C80.2529 84.7842 80.8758 83.3761 80.8758 81.9216C80.8758 78.8927 78.9346 76.8343 76.4258 76.4895C76.6692 76.4561 76.9125 76.4185 77.1674 76.4185C80.0298 76.4185 82.359 78.5986 82.359 81.9216C82.359 83.3761 81.7363 84.7842 80.8758 85.8967C79.7632 87.3206 78.28 88.2853 77.1674 88.2853C76.9357 88.2853 76.6837 88.2348 76.4258 88.155C77.4019 87.8535 78.5117 87.0236 79.3923 85.8967Z" fill="#FF949F"/>
<path d="M86.0675 94.9605H68.2669C67.857 94.9605 67.5253 94.6287 67.5253 94.2187V91.7708C67.5253 89.9453 68.7246 89.3457 69.8474 88.9256C71.1093 88.4504 72.4649 87.6668 72.7317 87.3378C72.7981 86.999 73.0995 86.7424 73.4589 86.7424C73.8687 86.7424 74.2005 87.0742 74.2005 87.4842C74.2005 88.7706 71.267 89.9758 70.3675 90.3148C69.1957 90.7521 69.0089 91.0477 69.0089 91.7708V93.477H85.3257V91.7708C85.3257 91.0479 85.1389 90.7523 83.9684 90.3162C83.0676 89.9758 80.1341 88.7706 80.1341 87.4842C80.1341 87.0742 80.4657 86.7424 80.8757 86.7424C81.2351 86.7424 81.5363 86.999 81.6029 87.3378C81.8695 87.6666 83.2253 88.4504 84.4885 88.9269C85.6098 89.3455 86.8092 89.9452 86.8092 91.7706V94.2185C86.809 94.6287 86.4774 94.9605 86.0675 94.9605Z" fill="#FF1125"/>
<path d="M77.1674 89.027C75.8288 89.027 74.1426 87.9768 72.8736 86.3529C71.8162 84.984 71.2338 83.4122 71.2338 81.9215C71.2338 78.303 73.7283 75.6768 77.1674 75.6768C80.6065 75.6768 83.1008 78.303 83.1008 81.9215C83.1008 83.4122 82.5185 84.984 81.4626 86.35C80.192 87.9767 78.5057 89.027 77.1674 89.027ZM77.1674 77.16C74.5888 77.16 72.7174 79.1621 72.7174 81.9215C72.7174 83.0849 73.1896 84.3351 74.0455 85.443C75.0119 86.6786 76.2953 87.5434 77.1674 87.5434C78.0394 87.5434 79.3229 86.6786 80.2905 85.44C81.1451 84.3349 81.6173 83.0847 81.6173 81.9213C81.6173 79.1621 79.7457 77.16 77.1674 77.16Z" fill="#FF1125"/>
<path d="M80.8758 88.226C80.4657 88.226 80.1342 87.8942 80.1342 87.4843V85.8966C80.1342 85.4865 80.4657 85.1548 80.8758 85.1548C81.2857 85.1548 81.6174 85.4865 81.6174 85.8966V87.4843C81.6174 87.8942 81.2857 88.226 80.8758 88.226Z" fill="#FF1125"/>
<path d="M73.4589 88.226C73.0489 88.226 72.7173 87.8942 72.7173 87.4843V85.8966C72.7173 85.4865 73.0489 85.1548 73.4589 85.1548C73.8688 85.1548 74.2006 85.4865 74.2006 85.8966V87.4843C74.2006 87.8942 73.8688 88.226 73.4589 88.226Z" fill="#FF1125"/>
<path d="M56.4003 94.9605H38.5998C38.1898 94.9605 37.858 94.6287 37.858 94.2187V91.7708C37.858 89.9453 39.0567 89.3457 40.1802 88.9256C41.4426 88.4504 42.7971 87.6668 43.0643 87.3378C43.1316 86.999 43.4315 86.7424 43.7914 86.7424C44.2015 86.7424 44.5333 87.0742 44.5333 87.4842C44.5333 88.7706 41.5998 89.9758 40.701 90.3148C39.5283 90.7521 39.3415 91.0477 39.3415 91.7708V93.477H55.6585V91.7708C55.6585 91.0479 55.4714 90.7523 54.3012 90.3162C53.4002 89.9758 50.4667 88.7706 50.4667 87.4842C50.4667 87.0742 50.7984 86.7424 51.2083 86.7424C51.5677 86.7424 51.869 86.999 51.9357 87.3378C52.2023 87.6666 53.5581 88.4504 54.8213 88.9269C55.9424 89.3455 57.1419 89.9452 57.1419 91.7706V94.2185C57.1419 94.6287 56.8102 94.9605 56.4003 94.9605Z" fill="#FF1125"/>
<path d="M47.4999 89.027C46.1614 89.027 44.4761 87.9768 43.2071 86.3529C42.1482 84.984 41.5665 83.4122 41.5665 81.9215C41.5665 78.303 44.0618 75.6768 47.4999 75.6768C50.9391 75.6768 53.4335 78.303 53.4335 81.9215C53.4335 83.4122 52.8511 84.984 51.7952 86.35C50.5247 87.9767 48.8385 89.027 47.4999 89.027ZM47.4999 77.16C44.9216 77.16 43.05 79.1621 43.05 81.9215C43.05 83.0849 43.5214 84.3351 44.3783 85.443C45.3439 86.6786 46.6286 87.5434 47.4999 87.5434C48.3713 87.5434 49.6554 86.6786 50.6231 85.44C51.4777 84.3349 51.9501 83.0847 51.9501 81.9213C51.9501 79.1621 50.0783 77.16 47.4999 77.16Z" fill="#FF1125"/>
<path d="M51.2083 88.226C50.7984 88.226 50.4667 87.8942 50.4667 87.4843V85.8966C50.4667 85.4865 50.7984 85.1548 51.2083 85.1548C51.6184 85.1548 51.9501 85.4865 51.9501 85.8966V87.4843C51.9501 87.8942 51.6184 88.226 51.2083 88.226Z" fill="#FF1125"/>
<path d="M43.7916 88.226C43.3817 88.226 43.0499 87.8942 43.0499 87.4843V85.8966C43.0499 85.4865 43.3817 85.1548 43.7916 85.1548C44.2016 85.1548 44.5334 85.4865 44.5334 85.8966V87.4843C44.5332 87.8942 44.2016 88.226 43.7916 88.226Z" fill="#FF1125"/>
<path d="M26.7328 94.9605H8.93255C8.52268 94.9605 8.19092 94.6287 8.19092 94.2187V91.7708C8.19092 89.9453 9.38955 89.3457 10.513 88.9256C11.7755 88.4504 13.13 87.6668 13.3972 87.3378C13.4645 86.999 13.7644 86.7424 14.1243 86.7424C14.5342 86.7424 14.866 87.0742 14.866 87.4842C14.866 88.7706 11.9325 89.9758 11.0337 90.3148C9.86121 90.7521 9.67418 91.0477 9.67418 91.7708V93.477H25.9912V91.7708C25.9912 91.0479 25.8043 90.7523 24.6339 90.3162C23.7331 89.9758 20.7996 88.7706 20.7996 87.4842C20.7996 87.0742 21.1313 86.7424 21.5412 86.7424C21.9012 86.7424 22.201 86.999 22.2684 87.3378C22.5355 87.6666 23.89 88.4504 25.1547 88.9269C26.276 89.3455 27.4746 89.9452 27.4746 91.7706V94.2185C27.4746 94.6287 27.1429 94.9605 26.7328 94.9605Z" fill="#FF1125"/>
<path d="M17.8327 89.027C16.4941 89.027 14.8086 87.9768 13.5397 86.3529C12.4807 84.984 11.899 83.4122 11.899 81.9215C11.899 78.303 14.3943 75.6768 17.8327 75.6768C21.271 75.6768 23.7661 78.303 23.7661 81.9215C23.7661 83.4122 23.1846 84.984 22.1277 86.35C20.8567 87.9767 19.1712 89.027 17.8327 89.027ZM17.8327 77.16C15.2541 77.16 13.3825 79.1621 13.3825 81.9215C13.3825 83.0849 13.8542 84.3351 14.7108 85.443C15.6764 86.6786 16.9611 87.5434 17.8327 87.5434C18.704 87.5434 19.9889 86.6786 20.9565 85.44C21.8111 84.3349 22.2826 83.0847 22.2826 81.9213C22.2828 79.1621 20.4112 77.16 17.8327 77.16Z" fill="#FF1125"/>
<path d="M21.5412 88.226C21.1313 88.226 20.7996 87.8942 20.7996 87.4843V85.8966C20.7996 85.4865 21.1313 85.1548 21.5412 85.1548C21.9511 85.1548 22.2828 85.4865 22.2828 85.8966V87.4843C22.2828 87.8942 21.9511 88.226 21.5412 88.226Z" fill="#FF1125"/>
<path d="M14.1244 88.226C13.7143 88.226 13.3826 87.8942 13.3826 87.4843V85.8966C13.3826 85.4865 13.7143 85.1548 14.1244 85.1548C14.5343 85.1548 14.866 85.4865 14.866 85.8966V87.4843C14.866 87.8942 14.5343 88.226 14.1244 88.226Z" fill="#FF1125"/>
<path d="M29.6995 51.9426C29.2896 51.9426 28.9579 51.6109 28.9579 51.201V46.2612C28.9579 43.3596 30.4948 42.2211 33.1501 41.2346C34.2983 40.8145 36.4857 39.9845 38.279 39.124C38.6499 38.9473 39.0902 39.1022 39.2684 39.4732C39.4459 39.8426 39.2901 40.2844 38.9206 40.4625C37.0707 41.349 34.8327 42.1994 33.663 42.6267C31.165 43.5539 30.4413 44.3694 30.4413 46.2612V51.201C30.4413 51.6109 30.1096 51.9426 29.6995 51.9426Z" fill="#FF1125"/>
<path d="M65.3006 51.9426C64.8905 51.9426 64.5588 51.6108 64.5588 51.201V46.2612C64.5588 44.3693 63.8346 43.5538 61.3341 42.6252C60.1594 42.1951 57.9097 41.3388 56.0757 40.445C55.708 40.2654 55.5542 39.8223 55.7338 39.4542C55.9136 39.0863 56.3539 38.9326 56.7248 39.1122C58.5007 39.9771 60.6953 40.813 61.8468 41.233C64.5049 42.2211 66.042 43.3596 66.042 46.2612V51.201C66.0422 51.6108 65.7104 51.9426 65.3006 51.9426Z" fill="#FF1125"/>
<path d="M47.4703 40.0758C43.2788 40.0758 36.3451 33.4065 36.3451 25.8056C36.3451 25.3957 36.6769 25.064 37.0869 25.064C37.497 25.064 37.8287 25.3957 37.8287 25.8056C37.8287 32.3997 43.844 38.5924 47.4705 38.5924C51.097 38.5924 57.113 32.3997 57.113 25.8056C57.113 25.3957 57.4433 25.064 57.8548 25.064C58.2632 25.064 58.5962 25.3957 58.5962 25.8056C58.5962 33.4065 51.662 40.0758 47.4703 40.0758Z" fill="#FF1125"/>
<path d="M57.8096 25.0352C57.5647 25.0352 57.3315 24.9136 57.1925 24.7049L54.5546 20.7487C53.3724 21.1762 50.5362 22.0684 47.4702 22.0684C44.3833 22.0684 41.4941 21.1704 40.2996 20.7459L37.6741 24.6889C37.477 24.9049 37.1265 25.0352 36.8491 24.9454C36.5704 24.8513 36.3313 24.6557 36.3038 24.3631C35.9149 20.207 36.8094 16.9013 38.962 14.5373C42.0611 11.1329 47.09 10.4187 50.7622 10.4187C53.206 10.4187 54.9746 10.733 55.0487 10.7462C55.3717 10.8041 55.6194 11.0707 55.6543 11.398C55.6892 11.7253 55.5049 12.0369 55.1995 12.1614C54.5375 12.4352 54.1029 12.8262 53.9057 13.3231C53.7131 13.8127 53.7667 14.3358 53.8478 14.695C54.7112 14.7239 56.1584 14.9948 57.2927 16.3204C58.7021 17.966 59.1237 20.688 58.5427 24.4078C58.4948 24.7092 58.2675 24.9526 57.969 25.0177C57.9154 25.0294 57.8632 25.0352 57.8096 25.0352ZM54.8414 19.1017C55.0849 19.1017 55.3194 19.2205 55.4598 19.432L57.2895 22.1772C57.4038 19.9579 57.0227 18.2863 56.1653 17.2852C55.3396 16.3191 54.2518 16.1757 53.6766 16.1757C53.5289 16.1757 53.4346 16.1859 53.4159 16.1872C53.0856 16.2291 52.7755 16.0567 52.6394 15.7613C52.6119 15.699 51.9543 14.2302 52.5265 12.7802C52.6381 12.4948 52.787 12.2326 52.9726 11.9921C49.819 11.7357 43.4683 11.7908 40.0582 15.5355C38.5931 17.145 37.8064 19.3019 37.7093 21.9658L39.3919 19.4322C39.5867 19.1383 39.9641 19.0208 40.2907 19.157C40.3253 19.1715 43.8129 20.5854 47.4698 20.5854C51.108 20.5854 54.5223 19.1745 54.5557 19.1598C54.6488 19.1205 54.7459 19.1017 54.8414 19.1017Z" fill="#FF1125"/>
<path d="M57.8547 26.5474C57.4432 26.5474 57.1129 26.2157 57.1129 25.8056V24.2934C57.1129 23.8835 57.4432 23.5518 57.8547 23.5518C58.2631 23.5518 58.5962 23.8835 58.5962 24.2934V25.8056C58.5962 26.2157 58.2631 26.5474 57.8547 26.5474Z" fill="#FF1125"/>
<path d="M37.0867 26.5474C36.6768 26.5474 36.3448 26.2157 36.3448 25.8056V24.2934C36.3448 23.8835 36.6766 23.5518 37.0867 23.5518C37.4967 23.5518 37.8285 23.8835 37.8285 24.2934V25.8056C37.8285 26.2157 37.4967 26.5474 37.0867 26.5474Z" fill="#FF1125"/>
<path d="M44.5629 43.0426C44.3711 43.0426 44.1812 42.9672 44.0386 42.8253L39.5886 38.3751C39.2988 38.0853 39.2988 37.6161 39.5886 37.3264C39.8784 37.0368 40.3477 37.0366 40.6373 37.3264L44.7108 41.3999L47.1776 40.1787C47.4587 40.0267 47.8237 40.0614 48.0612 40.3004C48.351 40.5902 48.3583 41.0522 48.0684 41.3419C48.0111 41.3984 47.931 41.4606 47.8584 41.4968L44.8917 42.9658C44.7874 43.0181 44.6744 43.0426 44.5629 43.0426Z" fill="#FF1125"/>
<path d="M50.4811 43.0426C50.3683 43.0426 50.2551 43.0167 50.1508 42.9645L47.1993 41.4956C46.8336 41.3145 46.6692 40.8639 46.8496 40.4975C47.0292 40.1296 47.4602 39.9702 47.8252 40.1513L50.3336 41.4L54.4069 37.3265C54.6967 37.0367 55.1662 37.0367 55.4556 37.3265C55.7454 37.6163 55.7454 38.0856 55.4556 38.3752L51.0056 42.8254C50.8637 42.9673 50.6724 43.0426 50.4811 43.0426Z" fill="#FF1125"/>
<path d="M47.5738 44.5259C47.3842 44.5259 47.1943 44.4534 47.0494 44.3087L45.566 42.8252C45.2763 42.5354 45.2763 42.0661 45.566 41.7763C45.8558 41.4867 46.3251 41.4867 46.6149 41.7763L48.0981 43.2598C48.388 43.5496 48.388 44.0188 48.0981 44.3085C47.9532 44.4534 47.7636 44.5259 47.5738 44.5259Z" fill="#FF1125"/>
<path d="M47.5738 44.526C47.3841 44.526 47.1943 44.4534 47.0494 44.3087C46.7596 44.0189 46.7596 43.5496 47.0494 43.26L48.5327 41.7766C48.8225 41.4869 49.2919 41.4869 49.5814 41.7766C49.8712 42.0664 49.8712 42.5356 49.5814 42.8255L48.0981 44.3089C47.9532 44.4534 47.7636 44.526 47.5738 44.526Z" fill="#FF1125"/>
<path d="M46.0913 50.4595C46.0638 50.4595 46.0364 50.4581 46.0087 50.4553C45.6016 50.4104 45.3083 50.0437 45.3532 49.6353L46.0948 42.9601C46.1397 42.5545 46.5221 42.2662 46.914 42.3053C47.3211 42.3502 47.6144 42.7169 47.5695 43.1252L46.8279 49.8005C46.7858 50.1786 46.4642 50.4595 46.0913 50.4595Z" fill="#FF1125"/>
<path d="M49.0558 50.4595C48.6836 50.4595 48.362 50.1784 48.3199 49.8002L47.5783 43.125C47.5334 42.7166 47.8267 42.3499 48.2338 42.305C48.6466 42.2631 49.0081 42.5542 49.0528 42.9598L49.7946 49.6351C49.8395 50.0435 49.5454 50.4101 49.1398 50.455C49.1109 50.458 49.0832 50.4595 49.0558 50.4595Z" fill="#FF1125"/>
<path d="M65.3005 51.9427H29.6996C29.2898 51.9427 28.958 51.611 28.958 51.2011C28.958 50.7912 29.2898 50.4595 29.6996 50.4595H65.3005C65.7104 50.4595 66.0422 50.7912 66.0422 51.2011C66.0422 51.611 65.7104 51.9427 65.3005 51.9427Z" fill="#FF1125"/>
<path d="M47.4999 72.71C47.0901 72.71 46.7583 72.3782 46.7583 71.9683V54.1679C46.7583 53.7578 47.0901 53.4263 47.4999 53.4263C47.91 53.4263 48.2417 53.7578 48.2417 54.1679V71.9683C48.2417 72.3782 47.91 72.71 47.4999 72.71Z" fill="#FF1125"/>
<path d="M17.8326 72.7097C17.4226 72.7097 17.0908 72.378 17.0908 71.9681V63.0678C17.0908 62.6579 17.4226 62.3262 17.8326 62.3262C18.2425 62.3262 18.5743 62.6579 18.5743 63.0678V71.9681C18.5743 72.378 18.2425 72.7097 17.8326 72.7097Z" fill="#FF1125"/>
<path d="M77.1674 72.7097C76.7574 72.7097 76.4258 72.378 76.4258 71.9681V63.0678C76.4258 62.6579 76.7574 62.3262 77.1674 62.3262C77.5773 62.3262 77.909 62.6579 77.909 63.0678V71.9681C77.909 72.378 77.5773 72.7097 77.1674 72.7097Z" fill="#FF1125"/>
<path d="M44.5332 63.8094H17.8326C17.4226 63.8094 17.0908 63.4779 17.0908 63.0678C17.0908 62.6579 17.4226 62.3262 17.8326 62.3262H44.5332C44.9431 62.3262 45.275 62.6579 45.275 63.0678C45.275 63.4779 44.9433 63.8094 44.5332 63.8094Z" fill="#FF1125"/>
<path d="M77.1674 63.8094H50.4666C50.0567 63.8094 49.725 63.4779 49.725 63.0678C49.725 62.6579 50.0567 62.3262 50.4666 62.3262H77.1672C77.577 62.3262 77.9088 62.6579 77.9088 63.0678C77.909 63.4779 77.5772 63.8094 77.1674 63.8094Z" fill="#FF1125"/>
<path d="M53.4336 7.45637H41.5666C41.1567 7.45637 40.825 7.12461 40.825 6.71474V2.26458C40.825 2.00816 40.9582 1.76917 41.1769 1.63298C41.3957 1.49976 41.6686 1.48677 41.8983 1.60107L44.3871 2.84553L46.9756 0.25678C47.2655 -0.0328589 47.7349 -0.0328589 48.0244 0.25678L50.6129 2.84553L53.1017 1.60107C53.3304 1.48677 53.6043 1.49976 53.8231 1.63298C54.042 1.76917 54.1751 2.00816 54.1751 2.26458V6.71455C54.1752 7.12461 53.8435 7.45637 53.4336 7.45637ZM42.3084 5.97292H52.692V3.46396L50.7987 4.41136C50.5163 4.5533 50.1698 4.4982 49.9425 4.2722L47.5 1.83003L45.0576 4.27239C44.8302 4.49838 44.4869 4.55052 44.2015 4.41155L42.3082 3.46414V5.97292H42.3084Z" fill="#FF1125"/>
</svg>
