<svg width="95" height="95" viewBox="0 0 95 95" fill="none" xmlns="http://www.w3.org/2000/svg">
<path d="M74.9421 28.4717V31.9165L77.909 34.8833L80.1341 33.4V31.9165L74.9421 28.4717Z" fill="white"/>
<path d="M85.3258 28.7109V32.1556L82.359 35.1223L80.1342 33.6391V32.1556L85.3258 28.7109Z" fill="white"/>
<path d="M61.7079 34.8833L46.8744 36.3667L51.3243 37.85L2.37335 60.0997L6.82332 61.5831L5.34006 66.0333L52.8076 40.8167L52.6918 43.7836L61.7079 34.8833Z" fill="#FFD7DC"/>
<path d="M51.3243 39.3334L49.4412 38.7061L2.37335 60.0996L4.25591 60.7269L51.3243 39.3334Z" fill="white"/>
<path d="M52.8076 39.3335L5.9412 64.2313L5.34003 66.0333L52.7482 40.8487L52.8076 39.3335Z" fill="#FF949F"/>
<path d="M33.4081 76.4167H8.19098V94.2172H33.4081V76.4167Z" fill="#FF5C74"/>
<path d="M63.0753 58.6179H37.858V94.2171H63.0753V58.6179Z" fill="#FF5C74"/>
<path d="M92.7426 42.3H67.5255V94.2172H92.7426V42.3Z" fill="#FF5C74"/>
<path d="M82.3591 34.8834L85.3258 31.9167L86.809 31.427C88.0101 31.976 89.3456 32.4802 90.1162 32.7626C91.8676 33.4146 92.7424 34.0822 92.7424 35.8323C92.7424 37.5834 92.7424 39.3335 92.7424 39.3335V42.3002H86.8088H67.5255V39.3335C67.5255 39.3335 67.5255 37.5836 67.5255 35.8323C67.5255 34.0822 68.4006 33.4146 70.1503 32.7626C70.7297 32.554 71.6337 32.2135 72.5535 31.8283L74.9422 31.9167L77.9089 34.8834L80.134 33.4001L82.3591 34.8834Z" fill="#FFD7DC"/>
<path d="M70.4922 35.8323C70.4922 34.0822 71.3671 33.4146 73.117 32.7626C73.5949 32.5902 74.2991 32.3253 75.048 32.0225L74.9422 31.9167L72.5535 31.8284C71.6337 32.2136 70.7297 32.554 70.1503 32.7626C68.4004 33.4146 67.5255 34.0822 67.5255 35.8323C67.5255 37.5835 67.5255 39.3336 67.5255 39.3336V42.3003H70.4922V39.3336C70.4922 39.3336 70.4922 37.5837 70.4922 35.8323Z" fill="white"/>
<path d="M89.7761 35.8323C89.7761 34.0822 88.9011 33.4146 87.1497 32.7626C86.6718 32.5902 85.9693 32.3253 85.2202 32.0225L85.326 31.9167L87.7132 31.8284C88.6332 32.2136 89.5384 32.554 90.1164 32.7626C91.8678 33.4146 92.7427 34.0822 92.7427 35.8323C92.7427 37.5835 92.7427 39.3336 92.7427 39.3336V42.3003H89.7761V39.3336C89.7761 39.3336 89.7761 37.5837 89.7761 35.8323Z" fill="#FF949F"/>
<path d="M73.8297 12.0099C73.8297 12.0099 88.5736 6.38783 87.5509 20.0496L85.3114 17.2611C80.6977 16.9944 75.5058 19.0848 72.7174 20.4204C71.441 21.0288 70.6704 21.4735 70.6704 21.4735C70.6704 14.9026 74.9569 13.0629 74.9569 13.0629L73.8297 12.0099Z" fill="#FF5C74"/>
<path d="M79.2634 10.8887C82.5966 11.0755 85.9082 12.6835 86.0993 18.2417L87.5509 20.0495C88.1493 12.0548 83.3501 10.667 79.2634 10.8887Z" fill="#FF223C"/>
<path d="M76.4491 13.5598L75.3133 12.0098C75.3133 12.0098 77.8513 11.0451 80.7471 10.8887C77.2935 10.6946 73.8299 12.0098 73.8299 12.0098L74.9569 13.0629C74.9569 13.0629 70.6704 14.9026 70.6704 21.4736C70.6704 21.4736 71.2456 21.1478 72.1858 20.6811C72.5173 14.7636 76.4491 13.5598 76.4491 13.5598Z" fill="#FF949F"/>
<path d="M87.551 20.0497V22.3631C87.551 27.3333 82.9517 31.9165 80.1342 31.9165C77.3151 31.9165 72.7173 27.3331 72.7173 22.3631V20.4206C75.5057 19.085 80.6977 16.9946 85.3113 17.2613L87.551 20.0497Z" fill="#FFD7DC"/>
<path d="M85.3113 17.2611C84.8232 17.2336 84.3278 17.2436 83.8309 17.2653L86.0676 20.0495V22.3629C86.0676 26.9188 82.207 31.1385 79.3922 31.8122C79.6488 31.8731 79.8991 31.9165 80.134 31.9165C82.9516 31.9165 87.5509 27.3331 87.5509 22.3631V20.0497L85.3113 17.2611Z" fill="#FF949F"/>
<path d="M74.2006 22.3631V20.4206C76.6936 19.2255 81.1076 17.4409 85.3141 17.2655L85.3112 17.2613C80.6975 16.9946 75.5056 19.085 72.7172 20.4206V22.3631C72.7172 27.3333 77.3148 31.9165 80.134 31.9165C80.3687 31.9165 80.6192 31.8731 80.8757 31.8122C78.0613 31.1387 74.2006 26.919 74.2006 22.3631Z" fill="white"/>
<path d="M85.3257 6.69929H74.9421V2.24932L77.909 3.73258L80.1341 0.765869L82.359 3.73258L85.3257 2.24932V6.69929Z" fill="#FF949F"/>
<path d="M74.9421 2.24927V6.69924H76.4258V2.9909L74.9421 2.24927Z" fill="#FFD7DC"/>
<g opacity="0.2">
<path d="M85.3143 2.24927V6.69924H83.8311V2.9909L85.3143 2.24927Z" fill="black"/>
</g>
<path d="M11.1577 76.4167H8.19098V94.2172H11.1577V76.4167Z" fill="#FF949F"/>
<path d="M40.8247 58.6165H37.858V94.2172H40.8247V58.6165Z" fill="#FF949F"/>
<path d="M70.4922 42.3H67.5255V94.2172H70.4922V42.3Z" fill="#FF949F"/>
<path d="M92.7426 42.3H89.7761V94.2172H92.7426V42.3Z" fill="#FF223C"/>
<path d="M63.1912 58.6165H60.2245V94.2172H63.1912V58.6165Z" fill="#FF223C"/>
<path d="M33.5241 76.4167H30.5574V94.2172H33.5241V76.4167Z" fill="#FF223C"/>
<path d="M80.1775 37.1084C79.7689 37.1084 79.4285 36.7767 79.4285 36.3668C79.4285 35.9568 79.753 35.625 80.163 35.625H80.1775C80.5874 35.625 80.9191 35.9568 80.9191 36.3668C80.9191 36.7767 80.5874 37.1084 80.1775 37.1084Z" fill="#FF1125"/>
<path d="M67.5256 41.5586C67.1155 41.5586 66.7839 41.2268 66.7839 40.817V35.8324C66.7839 33.661 67.9733 32.7817 69.8926 32.0675C70.4691 31.8588 71.3616 31.5242 72.2668 31.1446L73.1549 30.7507C73.5286 30.5783 73.9676 30.7492 74.1355 31.1229C74.3036 31.4968 74.1355 31.9356 73.7618 32.1037L72.8608 32.5034C71.9074 32.9032 70.9892 33.2494 70.4025 33.461C68.7075 34.0911 68.2672 34.5793 68.2672 35.8324V40.817C68.2672 41.2268 67.9356 41.5586 67.5256 41.5586Z" fill="#FF1125"/>
<path d="M92.7426 41.5584C92.3327 41.5584 92.001 41.2267 92.001 40.8168V35.8323C92.001 34.5791 91.5607 34.0909 89.8585 33.458C88.5576 32.9813 87.4276 32.5251 86.5006 32.1022C86.1282 31.9311 85.9646 31.4908 86.134 31.1185C86.3049 30.7477 86.7439 30.5841 87.1177 30.752C87.9954 31.1546 89.1211 31.6081 90.3711 32.0659C92.2949 32.7813 93.4842 33.6608 93.4842 35.8323V40.8168C93.4844 41.2267 93.1527 41.5584 92.7426 41.5584Z" fill="#FF1125"/>
<path d="M70.6703 22.2151C70.5416 22.2151 70.4139 22.1817 70.2996 22.1151C70.0694 21.9834 69.9287 21.7385 69.9287 21.4735C69.9287 16.3788 72.3494 13.9205 73.7313 12.9341L73.3227 12.5515C73.1359 12.3763 73.0518 12.1184 73.1012 11.8665C73.1505 11.6158 73.3257 11.4087 73.5647 11.3174C73.6936 11.2681 76.7357 10.1223 80.0371 10.1223C82.7693 10.1223 84.8754 10.9001 86.2993 12.4342C87.8739 14.132 88.5448 16.712 88.2899 20.1046C88.2682 20.4087 88.0611 20.6681 87.7713 20.7579C87.4787 20.8521 87.1629 20.7521 86.973 20.5144L84.9421 17.9867C80.5323 17.8665 75.5478 19.8873 73.0374 21.0896C71.8033 21.6778 71.0529 22.1094 71.0398 22.1166C70.9253 22.1819 70.7978 22.2151 70.6703 22.2151ZM75.2595 12.3314L75.4623 12.5211C75.6462 12.692 75.7302 12.9441 75.6868 13.1903C75.6434 13.4366 75.4797 13.6451 75.2495 13.7436C75.1073 13.8073 71.9423 15.2675 71.4701 20.2072C71.7395 20.0697 72.051 19.916 72.3972 19.7509C75.0943 18.4587 80.5296 16.2366 85.3534 16.5205C85.5634 16.532 85.7575 16.6322 85.8895 16.7957L86.8396 17.9793C86.7296 16.0119 86.185 14.4925 85.2128 13.4438C84.0802 12.224 82.339 11.6056 80.0369 11.6056C78.1887 11.6058 76.3852 12.0127 75.2595 12.3314Z" fill="#FF1125"/>
<path d="M80.1341 32.6582C76.721 32.6582 71.9755 27.4707 71.9755 22.363C71.9755 21.9531 72.3072 21.6213 72.7173 21.6213C73.1272 21.6213 73.4589 21.9531 73.4589 22.363C73.4589 26.8204 77.6816 31.1748 80.1341 31.1748C82.585 31.1748 86.8092 26.8204 86.8092 22.363C86.8092 21.9531 87.141 21.6213 87.551 21.6213C87.9609 21.6213 88.2926 21.9531 88.2926 22.363C88.2926 27.4709 83.5456 32.6582 80.1341 32.6582Z" fill="#FF1125"/>
<path d="M67.5256 94.959C67.1155 94.959 66.7839 94.6272 66.7839 94.2172V42.3002C66.7839 41.8904 67.1155 41.5586 67.5256 41.5586C67.9356 41.5586 68.2672 41.8904 68.2672 42.3002V94.2174C68.2672 94.6272 67.9356 94.959 67.5256 94.959Z" fill="#FF1125"/>
<path d="M92.7426 94.959C92.3327 94.959 92.001 94.6272 92.001 94.2172V42.3002C92.001 41.8904 92.3327 41.5586 92.7426 41.5586C93.1527 41.5586 93.4844 41.8904 93.4844 42.3002V94.2174C93.4844 94.6272 93.1527 94.959 92.7426 94.959Z" fill="#FF1125"/>
<path d="M72.7173 23.1048C72.3072 23.1048 71.9755 22.7731 71.9755 22.363V20.4205C71.9755 20.0107 72.3072 19.6787 72.7173 19.6787C73.1272 19.6787 73.4589 20.0105 73.4589 20.4205V22.363C73.4589 22.7731 73.1272 23.1048 72.7173 23.1048Z" fill="#FF1125"/>
<path d="M87.551 23.1047C87.141 23.1047 86.8092 22.7729 86.8092 22.3629V20.0495C86.8092 19.6396 87.141 19.3079 87.551 19.3079C87.9609 19.3079 88.2927 19.6396 88.2927 20.0495V22.3629C88.2927 22.7729 87.9607 23.1047 87.551 23.1047Z" fill="#FF1125"/>
<path d="M77.9091 35.6249C77.7195 35.6249 77.5297 35.5526 77.3848 35.4076L74.4181 32.4409C74.1282 32.1511 74.1282 31.6819 74.4181 31.392C74.7079 31.1024 75.1771 31.1024 75.4668 31.392L78.4335 34.3587C78.7233 34.6486 78.7233 35.1178 78.4335 35.4075C78.2886 35.5526 78.0987 35.6249 77.9091 35.6249Z" fill="#FF1125"/>
<path d="M77.9091 35.6248C77.6701 35.6248 77.4339 35.5089 77.292 35.2946C77.0645 34.9541 77.156 34.4935 77.4978 34.2661L79.7226 32.7826C80.0631 32.5551 80.5237 32.6479 80.7511 32.9882C80.9786 33.3287 80.886 33.7892 80.5455 34.0167L78.3205 35.5001C78.193 35.5844 78.0511 35.6248 77.9091 35.6248Z" fill="#FF1125"/>
<path d="M82.359 35.625C82.1694 35.625 81.9796 35.5526 81.8347 35.4077C81.5449 35.1179 81.5449 34.6486 81.8347 34.359L84.8014 31.3923C85.0912 31.1026 85.5605 31.1026 85.8501 31.3923C86.1399 31.6821 86.1399 32.1514 85.8501 32.4412L82.8834 35.4079C82.7387 35.5526 82.5489 35.625 82.359 35.625Z" fill="#FF1125"/>
<path d="M82.3576 35.6249C82.2171 35.6249 82.0737 35.5842 81.9477 35.5004L79.7226 34.0169C79.3807 33.7895 79.2896 33.3289 79.5171 32.9884C79.7431 32.6482 80.2023 32.5554 80.5455 32.7829L82.7706 34.2663C83.1109 34.4938 83.2037 34.9543 82.9762 35.2948C82.833 35.5091 82.5981 35.6249 82.3576 35.6249Z" fill="#FF1125"/>
<path d="M92.7427 43.0418H67.5256C67.1155 43.0418 66.7839 42.71 66.7839 42.3C66.7839 41.8901 67.1155 41.5583 67.5256 41.5583H92.7427C93.1527 41.5583 93.4845 41.8901 93.4845 42.3C93.4845 42.7102 93.1527 43.0418 92.7427 43.0418Z" fill="#FF1125"/>
<path d="M37.8581 94.9589C37.4482 94.9589 37.1165 94.6271 37.1165 94.2171V58.6164C37.1165 58.2065 37.4482 57.8748 37.8581 57.8748C38.2681 57.8748 38.5999 58.2065 38.5999 58.6164V94.2171C38.5999 94.6271 38.2681 94.9589 37.8581 94.9589Z" fill="#FF1125"/>
<path d="M63.0753 94.9589C62.6653 94.9589 62.3335 94.6271 62.3335 94.2171V58.6164C62.3335 58.2065 62.6653 57.8748 63.0753 57.8748C63.4852 57.8748 63.8169 58.2065 63.8169 58.6164V94.2171C63.8169 94.6271 63.4852 94.9589 63.0753 94.9589Z" fill="#FF1125"/>
<path d="M63.0754 59.358H37.8581C37.4482 59.358 37.1165 59.0263 37.1165 58.6164C37.1165 58.2065 37.4482 57.8748 37.8581 57.8748H63.0754C63.4853 57.8748 63.817 58.2065 63.817 58.6164C63.817 59.0263 63.4853 59.358 63.0754 59.358Z" fill="#FF1125"/>
<path d="M8.19097 94.9589C7.78091 94.9589 7.44934 94.6272 7.44934 94.2171V76.4167C7.44934 76.0068 7.78091 75.675 8.19097 75.675C8.60085 75.675 8.9326 76.0068 8.9326 76.4167V94.2171C8.9326 94.6272 8.60085 94.9589 8.19097 94.9589Z" fill="#FF1125"/>
<path d="M33.4081 94.9589C32.9983 94.9589 32.6665 94.6272 32.6665 94.2171V76.4167C32.6665 76.0068 32.9983 75.675 33.4081 75.675C33.8182 75.675 34.1498 76.0068 34.1498 76.4167V94.2171C34.1498 94.6272 33.8182 94.9589 33.4081 94.9589Z" fill="#FF1125"/>
<path d="M33.4081 77.1586H8.19097C7.78091 77.1586 7.44934 76.827 7.44934 76.4169C7.44934 76.007 7.78091 75.6753 8.19097 75.6753H33.4081C33.8182 75.6753 34.1497 76.007 34.1497 76.4169C34.1497 76.827 33.8182 77.1586 33.4081 77.1586Z" fill="#FF1125"/>
<path d="M85.3258 7.44109H74.9422C74.5323 7.44109 74.2006 7.10933 74.2006 6.69946V2.2493C74.2006 1.99288 74.334 1.75389 74.5525 1.6177C74.7698 1.48299 75.0435 1.47149 75.274 1.58579L77.6874 2.79258L79.54 0.321284C79.8197 -0.0524072 80.4468 -0.0524072 80.7266 0.321284L82.5806 2.79258L84.9942 1.58579C85.2228 1.47 85.4954 1.48299 85.7156 1.6177C85.9344 1.75389 86.0676 1.99288 86.0676 2.2493V6.69927C86.0676 7.10933 85.7358 7.44109 85.3258 7.44109ZM75.6838 5.95764H84.5841V3.44868L82.6908 4.39608C82.3693 4.55398 81.9811 4.46566 81.7653 4.17732L80.1342 2.0016L78.5015 4.17732C78.287 4.46566 77.8989 4.55398 77.5773 4.39608L75.684 3.44868V5.95764H75.6838Z" fill="#FF1125"/>
<path d="M51.2084 46.0085C51.0188 46.0085 50.8289 45.9362 50.684 45.7913C50.3944 45.5014 50.3944 45.0322 50.684 44.7425L61.0676 34.359C61.3574 34.0691 61.8267 34.0691 62.1165 34.359C62.4061 34.6488 62.4061 35.118 62.1165 35.4077L51.7327 45.7913C51.588 45.9362 51.3984 46.0085 51.2084 46.0085Z" fill="#FF1125"/>
<path d="M46.7576 37.1084C46.3817 37.1084 46.0594 36.8231 46.0202 36.4405C45.9788 36.0336 46.2759 35.6699 46.6835 35.6293L61.518 34.1458C61.9249 34.1067 62.2886 34.4022 62.329 34.8093C62.3697 35.2179 62.0728 35.5799 61.6642 35.6205L46.8327 37.104C46.8077 37.107 46.7822 37.1084 46.7576 37.1084Z" fill="#FF1125"/>
<path d="M5.22478 66.7751C4.95889 66.7751 4.70265 66.6317 4.56943 66.381C4.37664 66.0188 4.51432 65.5713 4.87632 65.3787L52.344 40.1621C52.7034 39.9665 53.1538 40.1085 53.3464 40.4692C53.5391 40.8314 53.4015 41.2789 53.0395 41.4717L5.57175 66.6881C5.46098 66.7474 5.34223 66.7751 5.22478 66.7751Z" fill="#FF1125"/>
<path d="M2.2581 60.8416C1.97569 60.8416 1.7061 60.6807 1.58234 60.4069C1.41275 60.0332 1.57733 59.5942 1.95009 59.4248L50.9013 37.1749C51.2762 37.0068 51.7152 37.1706 51.8834 37.5428C52.0528 37.9167 51.8876 38.3555 51.5154 38.5249L2.56444 60.775C2.46443 60.8199 2.36033 60.8416 2.2581 60.8416Z" fill="#FF1125"/>
<path d="M5.22408 66.775C5.14652 66.775 5.06766 66.7635 4.98936 66.7373C4.60101 66.6069 4.39097 66.1868 4.52085 65.7985L6.00412 61.3485C6.13381 60.9616 6.55092 60.7488 6.94224 60.8792C7.3304 61.0095 7.54044 61.4298 7.41075 61.8179L5.9273 66.2679C5.82395 66.5778 5.53487 66.775 5.22408 66.775Z" fill="#FF1125"/>
<path d="M6.70735 62.3248C6.62998 62.3248 6.55094 62.3133 6.47264 62.2871L2.02267 60.8039C1.6345 60.6734 1.42428 60.2533 1.55416 59.865C1.68293 59.4768 2.09893 59.264 2.4921 59.3957L6.94226 60.8792C7.33042 61.0094 7.54046 61.4297 7.41076 61.8179C7.30723 62.1279 7.01815 62.3248 6.70735 62.3248Z" fill="#FF1125"/>
<path d="M14.1244 94.9588C13.7143 94.9588 13.3826 94.627 13.3826 94.217V88.2834C13.3826 87.8735 13.7143 87.5417 14.1244 87.5417C14.5343 87.5417 14.866 87.8735 14.866 88.2834V94.217C14.866 94.627 14.5343 94.9588 14.1244 94.9588Z" fill="#FF1125"/>
<path d="M27.4744 86.0589C27.0645 86.0589 26.7328 85.7271 26.7328 85.3172V76.4169C26.7328 76.007 27.0645 75.6753 27.4744 75.6753C27.8845 75.6753 28.2162 76.007 28.2162 76.4169V85.3172C28.2162 85.7269 27.8845 86.0589 27.4744 86.0589Z" fill="#FF1125"/>
<path d="M45.2751 72.7083C44.8651 72.7083 44.5333 72.3765 44.5333 71.9667V58.6164C44.5333 58.2065 44.8651 57.8748 45.2751 57.8748C45.685 57.8748 46.0168 58.2065 46.0168 58.6164V71.9667C46.0168 72.3765 45.685 72.7083 45.2751 72.7083Z" fill="#FF1125"/>
<path d="M57.1419 94.9589C56.732 94.9589 56.4003 94.6271 56.4003 94.2171V77.9003C56.4003 77.4902 56.732 77.1584 57.1419 77.1584C57.5518 77.1584 57.8835 77.4902 57.8835 77.9003V94.2171C57.8835 94.6271 57.5518 94.9589 57.1419 94.9589Z" fill="#FF1125"/>
<path d="M74.9422 94.959C74.5323 94.959 74.2006 94.6272 74.2006 94.2172V67.5166C74.2006 67.1067 74.5323 66.7751 74.9422 66.7751C75.3522 66.7751 75.6838 67.1067 75.6838 67.5166V94.2172C75.6838 94.6272 75.3522 94.959 74.9422 94.959Z" fill="#FF1125"/>
<path d="M86.8091 62.3248C86.3992 62.3248 86.0676 61.9931 86.0676 61.5832V42.3002C86.0676 41.8904 86.3992 41.5586 86.8091 41.5586C87.2191 41.5586 87.5509 41.8904 87.5509 42.3002V61.5834C87.5511 61.9931 87.2191 62.3248 86.8091 62.3248Z" fill="#FF1125"/>
</svg>
