<svg width="95" height="95" viewBox="0 0 95 95" fill="none" xmlns="http://www.w3.org/2000/svg">
<path d="M76.3952 15.5706C69.0219 15.5706 63.0449 21.5474 63.0449 28.9201V48.9454H89.7455V28.9201C89.7457 21.5474 83.7687 15.5706 76.3952 15.5706Z" fill="#FF5C74"/>
<path d="M90.4712 46.0235C89.8932 45.8019 87.6538 44.052 86.7788 43.7537H76.3952H76.3793H65.9955C65.1206 44.052 62.8811 45.8019 62.3031 46.0235C59.7956 46.9579 58.5497 47.8921 58.5497 50.3998C58.5497 52.8915 58.5497 54.1372 58.5497 54.1372H94.2244C94.2244 54.1372 94.2244 52.8915 94.2244 50.3998C94.2244 47.8921 92.9788 46.9579 90.4712 46.0235Z" fill="#FF949F"/>
<path d="M65.27 46.0235C65.8476 45.8019 68.0873 44.052 68.9624 43.7537H65.9955C65.1206 44.052 62.8811 45.8019 62.3031 46.0235C59.7956 46.9579 58.5497 47.8921 58.5497 50.3998C58.5497 52.8915 58.5497 54.1372 58.5497 54.1372H61.5166C61.5166 54.1372 61.5166 52.8915 61.5166 50.3998C61.5168 47.8921 62.7623 46.9579 65.27 46.0235Z" fill="#FFD7DC"/>
<path d="M90.4712 46.0235C89.8932 45.8019 87.6538 44.052 86.7788 43.7537H83.8123C84.6871 44.052 86.9267 45.8019 87.5046 46.0235C90.0121 46.9579 91.2581 47.8921 91.2581 50.3998C91.2581 52.8915 91.2581 54.1372 91.2581 54.1372H94.2246C94.2246 54.1372 94.2246 52.8915 94.2246 50.3998C94.2244 47.8921 92.9788 46.9579 90.4712 46.0235Z" fill="#FF5C74"/>
<path d="M82.3432 40.6565H70.4762V45.9787H82.3432V40.6565Z" fill="#FFD7DC"/>
<path d="M86.7786 43.7536L82.3056 40.6565L77.9076 54.137L83.8121 48.2036L82.3288 46.7204L86.7786 43.7536Z" fill="white"/>
<path d="M66.0029 43.7536L70.4763 40.6565L74.8743 54.137L68.9698 48.2036L70.4531 46.7204L66.0029 43.7536Z" fill="white"/>
<path d="M76.3951 46.7204V54.1371H77.9075L80.8451 45.2515L76.3951 46.7204Z" fill="#FF949F"/>
<path d="M74.8742 54.1371H76.3866V46.7204L71.9363 45.2515L74.8742 54.1371Z" fill="#FF949F"/>
<path d="M83.0847 23.2516C82.9919 23.2102 79.0069 23.1052 76.3951 23.04C73.7834 23.1052 69.798 23.2102 69.7053 23.2516C69.5665 23.3132 66.0273 29.4544 66.0273 29.4544V31.0262C66.0273 37.6491 72.4476 43.7361 76.3951 43.7521C80.3423 43.7361 86.7626 37.6491 86.7626 31.0262V29.4544C86.7626 29.4544 83.2238 23.3132 83.0847 23.2516Z" fill="#FFD7DC"/>
<path d="M83.0848 23.2516C82.992 23.2102 79.007 23.1052 76.3953 23.04C75.9347 23.0515 75.4287 23.0647 74.9116 23.0777C77.3267 23.1406 80.0413 23.2174 80.1183 23.2516C80.257 23.3132 83.7962 29.4544 83.7962 29.4544V31.0262C83.7962 36.8698 78.7998 42.2898 74.9116 43.4964C75.4302 43.6578 75.9303 43.7499 76.3953 43.7521C80.3424 43.7361 86.7627 37.6491 86.7627 31.0262V29.4544C86.7627 29.4544 83.2239 23.3132 83.0848 23.2516Z" fill="#FF949F"/>
<path d="M68.9945 31.0264V29.4546C68.9945 29.4546 72.5332 23.3134 72.6724 23.2518C72.7492 23.2177 75.4636 23.1408 77.8787 23.0779C77.3615 23.065 76.8559 23.052 76.3954 23.0403C73.7836 23.1054 69.7983 23.2104 69.7055 23.2518C69.5667 23.3134 66.0276 29.4546 66.0276 29.4546V31.0264C66.0276 37.6493 72.4479 43.7364 76.3954 43.7523C76.8604 43.7501 77.36 43.6581 77.8787 43.4966C73.9905 42.2898 68.9945 36.87 68.9945 31.0264Z" fill="white"/>
<path d="M63.236 31.087C67.2763 29.9558 76.5456 26.4573 79.3619 24.8406C83.6643 22.396 86.2674 20.0921 86.3354 20.0312C83.8918 17.2991 80.3497 15.5703 76.3953 15.5703C69.0221 15.5703 63.045 21.5471 63.045 28.9199C63.0449 29.6604 63.1204 30.3801 63.236 31.087Z" fill="#FF949F"/>
<path d="M64.5282 28.9201C64.5282 21.8073 70.0968 16.0101 77.1092 15.6097C76.8704 15.5967 76.637 15.5706 76.3952 15.5706C69.0219 15.5706 63.0449 21.5474 63.0449 28.9201C63.0449 29.6602 63.1203 30.3802 63.2359 31.0871C63.6563 30.9698 64.143 30.8212 64.6629 30.6568C64.5848 30.0876 64.5282 29.5118 64.5282 28.9201Z" fill="#FFD7DC"/>
<path d="M89.7457 28.92C89.7457 25.3404 88.3287 22.0963 86.0329 19.7009L79.3619 24.855C79.3619 24.855 82.6749 28.517 89.6631 30.3799C89.7153 29.8993 89.7457 29.4139 89.7457 28.92Z" fill="#FF949F"/>
<path d="M86.3268 20.0387C86.3283 20.038 86.3355 20.0322 86.3355 20.0322C86.2978 19.9888 86.2542 19.9517 86.2153 19.9098C86.1529 19.8417 86.0963 19.7678 86.0331 19.701C86.0273 19.6945 86.0114 19.6995 86.0026 19.6953C83.5746 17.1646 80.1807 15.5706 76.3956 15.5706C76.1404 15.5706 75.8914 15.5945 75.6393 15.609C79.1292 15.7993 82.2494 17.3292 84.519 19.6953C84.5277 19.6995 84.5437 19.6945 84.5494 19.701C84.6133 19.7676 84.6697 19.8417 84.732 19.9098C84.7712 19.9517 84.8146 19.9886 84.8522 20.0315C84.8522 20.0315 84.845 20.038 84.8435 20.0387C86.9599 22.3978 88.262 25.5014 88.262 28.9201C88.262 29.2669 88.2316 29.6059 88.2041 29.9456C88.6738 30.0976 89.1562 30.2447 89.6631 30.3802C89.7152 29.8992 89.7457 29.414 89.7457 28.9201C89.7457 25.5014 88.4431 22.3978 86.3268 20.0387Z" fill="#FF5C74"/>
<path d="M77.8871 73.4513C77.8871 77.5002 77.8871 80.8378 77.8871 80.8378H17.0693C17.0693 80.8378 17.0693 77.5004 17.0693 73.4513C17.0693 69.4012 19.1001 67.8729 23.1504 66.3605C25.2117 65.5899 30.4194 63.5721 33.3861 62.0886L35.2693 60.575L40.803 67.4877L46.7364 64.521H48.2201L54.1533 67.4877L59.6856 60.575L61.5703 62.0886C64.5513 63.5721 69.7576 65.5899 71.8188 66.3605C75.8693 67.8729 77.8871 69.4012 77.8871 73.4513Z" fill="#FF949F"/>
<path d="M26.1172 66.3605C28.1784 65.5899 33.3861 63.5721 36.3529 62.0886L36.4312 62.0263L35.2693 60.575L33.3861 62.0886C30.4194 63.5721 25.2117 65.5899 23.1504 66.3605C19.1001 67.8727 17.0693 69.4012 17.0693 73.4513C17.0693 77.5002 17.0693 80.8378 17.0693 80.8378H20.036C20.036 80.8378 20.036 77.5004 20.036 73.4513C20.0359 69.4012 22.0669 67.8729 26.1172 66.3605Z" fill="#FFD7DC"/>
<path d="M68.8307 66.3605C66.7694 65.5899 61.5617 63.5721 58.5948 62.0886L58.5165 62.0263L59.6784 60.575L61.5617 62.0886C64.5282 63.5721 69.7359 65.5899 71.7972 66.3605C75.8477 67.8727 77.8785 69.4012 77.8785 73.4513C77.8785 77.5002 77.8785 80.8378 77.8785 80.8378H74.9116C74.9116 80.8378 74.9116 77.5004 74.9116 73.4513C74.9116 69.4012 72.8808 67.8729 68.8307 66.3605Z" fill="#FF5C74"/>
<path d="M36.4007 54.1446H0.800049V52.6612C0.800049 52.6612 0.800049 51.6676 0.800049 49.205C0.800049 46.7272 2.04581 45.7926 4.50839 44.8728C5.72224 44.4129 7.9039 43.5972 9.69999 42.7368L11.4356 41.0159L15.6625 45.2436L18.6292 43.7748L21.596 45.2436L25.8084 41.0311L27.5004 42.7216C29.3084 43.5972 31.4754 44.4129 32.6922 44.8728C35.1695 45.7926 36.4006 46.727 36.4006 49.205C36.4006 51.6674 36.4006 52.6612 36.4006 52.6612V54.1446H36.4007Z" fill="#FFD7DC"/>
<path d="M3.76682 49.2047C3.76682 46.7269 5.01258 45.7923 7.47516 44.8725C8.68901 44.4126 10.8707 43.5969 12.6668 42.7365L12.913 42.4931L11.4355 41.0154L9.69987 42.7363C7.90359 43.5967 5.72211 44.4124 4.50827 44.8723C2.04569 45.7921 0.799927 46.7265 0.799927 49.2045C0.799927 51.6669 0.799927 52.6607 0.799927 52.6607V54.1441H3.76664V52.6607C3.76664 52.6607 3.76682 51.6673 3.76682 49.2047Z" fill="white"/>
<path d="M33.463 49.2047C33.463 46.7269 32.2172 45.7923 29.7547 44.8725C28.5408 44.4126 26.3591 43.5969 24.5629 42.7365L24.3167 42.4931L25.7942 41.0154L27.5296 42.7363C29.3259 43.5967 31.5075 44.4124 32.7214 44.8723C35.1839 45.7921 36.4297 46.7265 36.4297 49.2045C36.4297 51.6669 36.4297 52.6607 36.4297 52.6607V54.1441H33.463V52.6607C33.463 52.6607 33.463 51.6673 33.463 49.2047Z" fill="#FF949F"/>
<path d="M20.1446 54.1445H17.1779L17.9195 46.0901H19.4029L20.1446 54.1445Z" fill="#FF5C74"/>
<path d="M19.9316 44.0737H17.2894V46.0901H19.9316V44.0737Z" fill="#FF5C74"/>
<path d="M15.6945 45.3545L11.2445 40.9043L12.7278 39.4209L18.6844 42.5904V43.8711L15.6945 45.3545Z" fill="white"/>
<path d="M21.6279 45.3545L26.0781 40.9043L24.5948 39.4209L18.6382 42.5904V43.8711L21.6279 45.3545Z" fill="white"/>
<path d="M9.71462 15.687C9.71462 15.687 30.4818 8.2701 29.0434 27.554L25.9129 23.1038C19.4449 22.7184 12.2061 25.6106 8.24583 27.4946C6.39166 28.3849 5.26465 29.0372 5.26465 29.0372C5.26465 19.7662 11.3168 17.1704 11.3168 17.1704L9.71462 15.687Z" fill="#FF5C74"/>
<path d="M17.1403 14.3021C22.2044 14.4767 27.5483 16.7495 27.6224 25.5331L29.0435 27.5541C29.8966 16.1201 22.9432 14.0731 17.1403 14.3021Z" fill="#FF223C"/>
<path d="M12.9131 17.518L11.1981 15.6869C11.1981 15.6869 14.64 14.4585 18.6237 14.3021C14.0518 14.1442 9.71462 15.6869 9.71462 15.6869L11.3168 17.1703C11.3168 17.1703 5.26465 19.7661 5.26465 29.0371C5.26465 29.0371 5.8224 28.7156 6.78131 28.2222C7.13032 19.6286 12.9131 17.518 12.9131 17.518Z" fill="#FF949F"/>
<path d="M29.0434 27.5539V29.0516C29.0434 36.0978 22.6204 42.5952 18.6599 42.5952C14.7138 42.5952 8.27628 36.0976 8.27628 29.0516V27.5539L8.24585 27.4945C12.2063 25.6107 19.4449 22.7185 25.9129 23.1037L29.0434 27.5539Z" fill="#FFD7DC"/>
<path d="M25.9129 23.1038C24.9481 23.0467 23.9675 23.0799 22.9809 23.1545L26.0766 27.554V29.0517C26.0766 35.27 21.0759 41.0542 17.1777 42.3289C17.6963 42.4985 18.1962 42.5955 18.6597 42.5955C22.6202 42.5955 29.0433 36.0979 29.0433 29.0519V27.5542L25.9129 23.1038Z" fill="#FF949F"/>
<path d="M11.243 29.0517V27.5539L11.2126 27.4945C14.5819 25.8916 20.3257 23.5769 25.9476 23.1544L25.9129 23.1038C19.4449 22.7184 12.2062 25.6105 8.24585 27.4945L8.27628 27.5539V29.0517C8.27628 36.0978 14.7138 42.5953 18.6599 42.5953C19.1248 42.5953 19.626 42.4982 20.1446 42.3286C16.2552 41.0541 11.243 35.2699 11.243 29.0517Z" fill="white"/>
<path d="M57.1202 24.4698C57.1202 24.4698 67.8443 22.9424 65.2789 39.3036L60.0869 31.8867C60.0869 31.8867 53.9449 34.8534 47.448 34.8534C40.9511 34.8534 34.8698 31.8867 34.8698 31.8867L29.678 39.3036C29.1434 33.5635 30.1517 29.2323 32.0957 26.0127C39.4372 13.7452 60.0869 17.053 60.0869 17.053C55.2352 19.0558 57.1202 24.4698 57.1202 24.4698Z" fill="#FF949F"/>
<path d="M57.1202 24.4697C57.1202 24.4697 63.1611 23.1965 62.6827 35.5949L65.2789 39.3033C67.8443 22.9421 57.1202 24.4697 57.1202 24.4697Z" fill="#FF5C74"/>
<path d="M35.0622 26.0126C39.4964 18.603 48.7821 16.8785 55.4425 16.6722C48.9135 16.4694 37.2409 17.4153 32.0953 26.0126C30.1513 29.2322 29.1431 33.5635 29.6776 39.3035L32.5256 35.236C32.6765 31.4556 33.6064 28.4223 35.0622 26.0126Z" fill="#FFD7DC"/>
<path d="M65.2787 39.3035V40.7578C65.2787 52.3569 54.2561 63.0374 47.4781 63.0374C43.0424 63.0374 36.7527 58.4395 32.9703 52.0018C30.9829 48.6339 29.6776 44.7478 29.6776 40.7577V39.3033L34.8694 31.8865C34.8694 31.8865 40.9505 34.8532 47.4476 34.8532C53.9447 34.8532 60.0865 31.8865 60.0865 31.8865L65.2787 39.3035Z" fill="#FFD7DC"/>
<path d="M35.9372 52.0021C33.9496 48.6342 32.6445 44.7481 32.6445 40.758V39.3036L37.17 32.8379C35.7402 32.3106 34.8698 31.887 34.8698 31.887L29.678 39.3038V40.7581C29.678 44.7483 30.9833 48.6342 32.9707 52.0023C36.7531 58.4398 43.0427 63.0379 47.4784 63.0379C47.9521 63.0379 48.4488 62.974 48.9589 62.8725C44.6882 62.022 39.3153 57.75 35.9372 52.0021Z" fill="white"/>
<path d="M58.8237 52.0021C60.8111 48.6342 62.1165 44.7481 62.1165 40.758V39.3036L57.5908 32.8379C59.0204 32.3106 59.8912 31.887 59.8912 31.887L65.0828 39.3038V40.7581C65.0828 44.7483 63.7775 48.6342 61.7901 52.0023C58.0077 58.4398 51.718 63.0379 47.2824 63.0379C46.8087 63.0379 46.3119 62.974 45.8019 62.8725C50.0726 62.022 55.4455 57.75 58.8237 52.0021Z" fill="#FF949F"/>
<path d="M40.803 67.4875L34.8696 60.0704V58.5872H38.3522L42.3401 61.4741L47.4783 63.0373L47.484 64.5206L40.803 67.4875Z" fill="white"/>
<path d="M54.1591 67.4875L60.0925 60.0704V58.5872H56.6103L52.622 61.4741L47.484 63.0373L47.4783 64.5206L54.1591 67.4875Z" fill="white"/>
<path d="M47.5289 69.7196C47.119 69.7196 46.78 69.388 46.78 68.978C46.78 68.5681 47.1046 68.2363 47.5129 68.2363H47.5289C47.9375 68.2363 48.2709 68.5681 48.2709 68.978C48.2707 69.388 47.9373 69.7196 47.5289 69.7196Z" fill="#FF1125"/>
<path d="M47.5289 74.17C47.119 74.17 46.78 73.8382 46.78 73.4282C46.78 73.0183 47.1046 72.6865 47.5129 72.6865H47.5289C47.9375 72.6865 48.2709 73.0183 48.2709 73.4282C48.2707 73.8382 47.9373 74.17 47.5289 74.17Z" fill="#FF1125"/>
<path d="M47.5289 78.6199C47.119 78.6199 46.78 78.2882 46.78 77.8783C46.78 77.4682 47.1046 77.1365 47.5129 77.1365H47.5289C47.9375 77.1365 48.2709 77.4682 48.2709 77.8783C48.2707 78.2882 47.9373 78.6199 47.5289 78.6199Z" fill="#FF1125"/>
<path d="M76.4315 50.4375C76.0213 50.4375 75.6825 50.1058 75.6825 49.6959C75.6825 49.2859 76.0068 48.9541 76.4156 48.9541H76.4315C76.8399 48.9541 77.173 49.2859 77.173 49.6959C77.173 50.1058 76.8399 50.4375 76.4315 50.4375Z" fill="#FF1125"/>
<path d="M77.8871 81.5794H17.0693C16.6593 81.5794 16.3275 81.2476 16.3275 80.8376V73.4511C16.3275 68.9663 18.6337 67.2556 22.8912 65.665C25.3683 64.7393 30.2964 62.8039 33.0546 61.4249C33.421 61.2409 33.8658 61.39 34.0498 61.7565C34.2322 62.1231 34.0847 62.5677 33.7181 62.7516C30.253 64.4842 24.1008 66.7961 23.4098 67.0553C19.616 68.4707 17.811 69.7903 17.811 73.451V80.0958H77.1455V73.451C77.1455 69.786 75.3452 68.4679 71.5598 67.0553C69.0607 66.1211 64.0763 64.164 61.2399 62.7516C60.8734 62.5692 60.7242 62.1244 60.9068 61.758C61.0877 61.3902 61.5356 61.2394 61.9004 61.4249C64.6833 62.8082 69.6067 64.7421 72.0784 65.665C76.3271 67.2513 78.6288 68.962 78.6288 73.4511V80.8376C78.6288 81.2476 78.297 81.5794 77.8871 81.5794Z" fill="#FF1125"/>
<path d="M47.4782 63.7792C42.6616 63.7792 36.1502 58.877 32.3317 52.3773C30.111 48.6146 28.9362 44.596 28.9362 40.758C28.9362 40.3481 29.2679 40.0164 29.6778 40.0164C30.0878 40.0164 30.4196 40.3481 30.4196 40.758C30.4196 44.3311 31.5219 48.0888 33.6093 51.6253C37.1251 57.6095 43.2164 62.2957 47.4782 62.2957C53.8955 62.2957 64.537 51.8645 64.537 40.758C64.537 40.3481 64.8686 40.0164 65.2789 40.0164C65.6887 40.0164 66.0203 40.3481 66.0203 40.758C66.0201 53.0189 54.4633 63.7792 47.4782 63.7792Z" fill="#FF1125"/>
<path d="M29.6778 40.0452C29.6142 40.0452 29.5503 40.0373 29.4882 40.0206C29.1868 39.9408 28.9681 39.6823 28.9391 39.3723C28.4278 33.8719 29.2753 29.2481 31.4611 25.6295C36.2705 17.5928 46.3412 15.905 53.9434 15.905C57.5692 15.905 60.0984 16.3034 60.2042 16.3208C60.5315 16.373 60.7851 16.6374 60.8243 16.9669C60.8619 17.2964 60.6764 17.6122 60.3695 17.7392C57.0202 19.1211 57.3809 22.3956 57.6751 23.6921C59.0642 23.6537 61.8819 23.9592 63.9808 26.4148C66.2624 29.0831 66.9458 33.4578 66.0116 39.4188C65.9637 39.7172 65.7409 39.9577 65.4466 40.0265C65.1455 40.0953 64.8454 39.9771 64.6718 39.7289L59.832 32.8169C58.1312 33.5585 52.9554 35.5953 47.4478 35.5953C41.946 35.5953 36.8165 33.5628 35.1232 32.8184L30.2849 39.7289C30.1443 39.93 29.9155 40.0452 29.6778 40.0452ZM60.0867 31.1449C60.3216 31.1449 60.5517 31.2572 60.6936 31.4615L64.7901 37.3131C65.257 32.7666 64.6079 29.4299 62.8534 27.3792C61.212 25.46 58.9972 25.1738 57.8227 25.1738C57.469 25.1738 57.2462 25.2013 57.223 25.2043C56.8678 25.2571 56.5363 25.0471 56.4188 24.7139C55.8191 22.9872 55.5527 19.6755 57.8906 17.5527C56.8591 17.4666 55.4991 17.3883 53.9434 17.3883C48.0345 17.3883 37.4207 18.5587 32.7315 26.3934C30.9917 29.2754 30.1732 32.8818 30.2892 37.1377L34.2627 31.4613C34.4712 31.16 34.8653 31.0607 35.1941 31.2193C35.2535 31.2483 41.2073 34.1114 47.4478 34.1114C53.7028 34.1114 59.7045 31.2475 59.7639 31.2186C59.8681 31.1689 59.9783 31.1449 60.0867 31.1449Z" fill="#FF1125"/>
<path d="M76.3879 44.4953C73.9454 44.4953 70.7367 42.4725 68.4003 39.4622C68.1494 39.1384 68.209 38.6727 68.5319 38.4214C68.8551 38.1702 69.3215 38.2281 69.5733 38.5526C71.609 41.1781 74.4117 43.0122 76.3879 43.0122C80.0152 43.0122 86.0299 37.2069 86.0299 31.0272C86.0299 30.6172 86.3614 30.2854 86.7713 30.2854C87.1812 30.2854 87.5131 30.6172 87.5131 31.0272C87.5131 38.2005 80.5787 44.4953 76.3879 44.4953Z" fill="#FF1125"/>
<path d="M94.2331 54.879H64.5369C64.127 54.879 63.795 54.5473 63.795 54.1374C63.795 53.7273 64.127 53.3958 64.5369 53.3958H93.4916V50.3999C93.4916 48.4667 92.789 47.675 90.2206 46.719C89.8263 46.5669 89.3367 46.4047 88.7906 46.2234L87.9868 45.955C87.6002 45.823 87.3914 45.4017 87.5233 45.014C87.6567 44.6251 88.0766 44.4209 88.4648 44.5498L89.2588 44.8157C89.8291 45.0053 90.3405 45.1755 90.7465 45.3313C93.4221 46.3286 94.9749 47.4789 94.9749 50.3999V54.1374C94.9749 54.5471 94.643 54.879 94.2331 54.879Z" fill="#FF1125"/>
<path d="M18.5671 54.8789H0.766655C0.356782 54.8789 0.0250244 54.5472 0.0250244 54.1373V49.1976C0.0250244 46.317 1.56042 45.1733 4.21282 44.1723C5.36877 43.7494 7.56342 42.9163 9.34671 42.0617C9.71169 41.8865 10.1594 42.0392 10.3361 42.4094C10.5127 42.7788 10.3563 43.2221 9.98685 43.3988C8.14864 44.2803 5.90482 45.1329 4.72994 45.563C2.20205 46.5171 1.50829 47.2989 1.50829 49.1976V53.3956H18.5671C18.977 53.3956 19.3087 53.7272 19.3087 54.1373C19.3087 54.547 18.977 54.8789 18.5671 54.8789Z" fill="#FF1125"/>
<path d="M30.4194 54.879H18.5671C18.1572 54.879 17.8254 54.5473 17.8254 54.1374C17.8254 53.7273 18.1572 53.3958 18.5671 53.3958H30.4194C30.8293 53.3958 31.1612 53.7273 31.1612 54.1374C31.1612 54.5471 30.8295 54.879 30.4194 54.879Z" fill="#FF1125"/>
<path d="M18.6106 43.2198C14.4198 43.2198 7.48535 36.5505 7.48535 28.9496C7.48535 28.5397 7.81711 28.2078 8.22698 28.2078C8.63686 28.2078 8.96861 28.5395 8.96861 28.9496C8.96861 35.543 14.9833 41.7364 18.6106 41.7364C20.5647 41.7364 23.3446 39.8054 25.3711 37.0407C25.6146 36.7112 26.0766 36.6388 26.4083 36.8808C26.7386 37.1227 26.8097 37.587 26.5677 37.9172C24.2428 41.0888 21.0457 43.2198 18.6106 43.2198Z" fill="#FF1125"/>
<path d="M15.6293 45.9789C15.4367 45.9789 15.2469 45.9043 15.105 45.7614L10.655 41.3114C10.3652 41.0216 10.3652 40.5523 10.655 40.2627C10.9448 39.9731 11.4141 39.9729 11.7037 40.2627L15.7785 44.3369L18.2411 43.1172C18.5222 42.9645 18.8742 42.9964 19.1146 43.2244C19.4117 43.5068 19.4304 43.969 19.148 44.2651C19.0887 44.3282 19.0031 44.3948 18.925 44.4331L15.9568 45.902C15.8523 45.9534 15.7408 45.9789 15.6293 45.9789Z" fill="#FF1125"/>
<path d="M21.5627 45.9787C21.451 45.9787 21.3382 45.9533 21.2339 45.9019L18.2672 44.4336L18.912 43.0966L21.415 44.336L25.4885 40.2625C25.7783 39.9727 26.2476 39.9727 26.5372 40.2625C26.8269 40.5524 26.827 41.0216 26.5372 41.3112L22.0873 45.7612C21.9451 45.9039 21.7553 45.9787 21.5627 45.9787Z" fill="#FF1125"/>
<path d="M5.21679 29.6616C5.08932 29.6616 4.96185 29.6282 4.84588 29.5623C4.6171 29.4306 4.47498 29.1851 4.47498 28.92C4.47498 21.4547 8.20799 18.0974 10.0202 16.9082L9.16263 16.1137C8.97282 15.9376 8.88747 15.6747 8.93942 15.4213C8.99156 15.1671 9.17265 14.9585 9.41757 14.8717C9.82021 14.7275 19.3607 11.3951 25.3015 15.3433C28.0437 17.1671 29.5502 20.2236 29.7791 24.4296C29.8023 24.8389 29.488 25.1886 29.0794 25.2103C28.6304 25.2762 28.3218 24.9192 28.2986 24.5106C28.0958 20.7971 26.8124 18.1288 24.4801 16.5789C20.3038 13.8027 13.7894 15.1665 11.1168 15.9024L11.7731 16.5093C11.9572 16.6796 12.0425 16.9316 12.0006 17.1793C11.9572 17.427 11.7918 17.6356 11.5616 17.7348C11.3473 17.8289 6.49447 20.0475 5.99906 27.6475C9.1309 26.0026 18.0093 21.7777 25.9086 22.2464C26.1665 22.2609 26.3983 22.4093 26.5198 22.6381L28.1031 25.5968C28.3001 25.9562 28.1684 26.4066 27.809 26.6036C27.4557 26.7999 26.9993 26.6702 26.8022 26.3097L25.4086 23.708C16.3795 23.3792 5.69754 29.4987 5.589 29.5618C5.47452 29.6284 5.34575 29.6616 5.21679 29.6616Z" fill="#FF1125"/>
<path d="M18.5671 47.4622C18.3774 47.4622 18.1876 47.3896 18.0427 47.2449L16.5593 45.7614C16.2696 45.4718 16.2696 45.0024 16.5593 44.7127C16.8491 44.4229 17.3183 44.4229 17.6082 44.7127L19.0914 46.1962C19.3813 46.486 19.3813 46.9552 19.0914 47.2449C18.9465 47.3896 18.7567 47.4622 18.5671 47.4622Z" fill="#FF1125"/>
<path d="M18.567 47.4622C18.3774 47.4622 18.1876 47.3896 18.0427 47.2449C17.7529 46.9551 17.7529 46.4858 18.0427 46.1962L19.5261 44.7127C19.8158 44.4229 20.2852 44.4229 20.5748 44.7127C20.8645 45.0026 20.8647 45.472 20.5748 45.7614L19.0914 47.2449C18.9465 47.3896 18.7567 47.4622 18.567 47.4622Z" fill="#FF1125"/>
<path d="M17.0852 53.3954C17.0577 53.3954 17.0303 53.3939 17.0011 53.3912C16.5941 53.3463 16.3014 52.9796 16.3463 52.5712L17.088 45.8967C17.1329 45.4889 17.4834 45.1918 17.9079 45.2412C18.315 45.2868 18.6076 45.6535 18.5627 46.0604L17.8211 52.7362C17.7791 53.1145 17.4574 53.3954 17.0852 53.3954Z" fill="#FF1125"/>
<path d="M20.0491 53.3954C19.6769 53.3954 19.3551 53.1143 19.3132 52.7362L18.5716 46.0604C18.5267 45.6535 18.8193 45.2868 19.2264 45.2412C19.6422 45.1933 20.0014 45.4889 20.0463 45.8967L20.7881 52.5712C20.833 52.9796 20.5404 53.3462 20.1333 53.3911C20.104 53.3941 20.0765 53.3954 20.0491 53.3954Z" fill="#FF1125"/>
<path d="M89.7544 43.5465C89.3441 43.5465 89.0126 43.2147 89.0126 42.8046V28.9198C89.0126 28.5097 89.3441 28.178 89.7544 28.178C90.1643 28.178 90.4958 28.5097 90.4958 28.9198V42.8046C90.4958 43.2147 90.1643 43.5465 89.7544 43.5465Z" fill="#FF1125"/>
<path d="M64.4471 23.7283C64.3354 23.7283 64.2228 23.7036 64.117 23.6509C63.7502 23.469 63.6014 23.0237 63.7821 22.6571C66.1813 17.8282 71.0166 14.8281 76.404 14.8281C76.8138 14.8281 77.1454 15.1599 77.1454 15.5699C77.1454 15.9798 76.8138 16.3116 76.404 16.3116C71.5844 16.3116 67.2574 18.9959 65.1121 23.3163C64.9817 23.5776 64.7197 23.7283 64.4471 23.7283Z" fill="#FF1125"/>
<path d="M89.7543 29.6616C89.3441 29.6616 89.0125 29.3299 89.0125 28.92C89.0125 25.8004 87.8738 22.8162 85.8053 20.5158C83.4092 17.8432 79.982 16.3113 76.4041 16.3113C75.9938 16.3113 75.6622 15.9796 75.6622 15.5697C75.6622 15.1596 75.9938 14.8279 76.4041 14.8279C80.4035 14.8279 84.2321 16.5394 86.9092 19.5243C89.2227 22.0969 90.4958 25.4339 90.4958 28.92C90.4958 29.3299 90.1642 29.6616 89.7543 29.6616Z" fill="#FF1125"/>
<path d="M68.9873 29.9883C68.6626 29.9883 68.3644 29.774 68.2729 29.4467C68.1627 29.0518 68.3931 28.6427 68.7871 28.5325C72.2262 27.5721 75.6621 26.1133 79.0012 24.1976C83.2354 21.7921 85.8371 19.4889 85.8631 19.4663C86.1685 19.1932 86.638 19.2193 86.9105 19.5264C87.1827 19.832 87.1566 20.3007 86.8512 20.5731C86.7409 20.6709 84.1162 22.998 79.7369 25.4853C76.2937 27.4612 72.7435 28.9678 69.1869 29.9608C69.1201 29.9796 69.052 29.9883 68.9873 29.9883Z" fill="#FF1125"/>
<path d="M89.7544 31.1449C89.6921 31.1449 89.6282 31.137 89.5659 31.1203C82.3878 29.2321 78.9623 25.5106 78.8201 25.3535C78.5464 25.0499 78.5696 24.5821 78.8723 24.3068C79.1749 24.0352 79.6445 24.0548 79.9197 24.3575C79.9516 24.3929 83.2226 27.9174 89.9425 29.6862C90.3394 29.7904 90.5756 30.1961 90.4713 30.5922C90.3841 30.9249 90.083 31.1449 89.7544 31.1449Z" fill="#FF1125"/>
<path d="M86.7714 31.7687C86.3615 31.7687 86.0299 31.4369 86.0299 31.027V29.4545C86.0299 29.0446 86.3615 28.7129 86.7714 28.7129C87.1812 28.7129 87.5132 29.0446 87.5132 29.4545V31.027C87.5132 31.4369 87.1812 31.7687 86.7714 31.7687Z" fill="#FF1125"/>
<path d="M79.3996 53.3954C79.2111 53.3954 79.0216 53.3228 78.8767 53.1794C78.5871 52.8913 78.5843 52.4218 78.8738 52.1307L82.7736 48.2051L81.8128 47.2447C81.6551 47.0874 81.577 46.868 81.5987 46.6471C81.6219 46.4263 81.7408 46.226 81.926 46.103L85.4724 43.7382L83.3952 42.2847C83.0603 42.0499 82.9777 41.5872 83.2139 41.2517C83.4484 40.915 83.9108 40.8354 84.2466 41.0693L87.2132 43.1458C87.4132 43.2864 87.5321 43.5167 87.5291 43.7622C87.5262 44.0069 87.403 44.2344 87.1987 44.3706L83.5019 46.8354L84.3452 47.6792C84.6348 47.9683 84.6348 48.4361 84.3467 48.7267L79.9254 53.1766C79.7805 53.323 79.5909 53.3954 79.3996 53.3954Z" fill="#FF1125"/>
<path d="M73.4065 53.3955C73.2156 53.3955 73.0256 53.323 72.8807 53.1766L68.4613 48.7266C68.1728 48.4362 68.1728 47.9683 68.4628 47.6792L69.3028 46.8391L68.5784 46.3611C68.2366 46.1351 68.1424 45.6753 68.3686 45.3333C68.5929 44.9899 69.0534 44.898 69.3956 45.1226L70.8788 46.101C71.0644 46.224 71.1857 46.424 71.2074 46.6457C71.2306 46.8673 71.1527 47.0875 70.9948 47.2448L70.0344 48.2052L73.9324 52.1309C74.2222 52.422 74.2194 52.8916 73.9294 53.1796C73.7849 53.3232 73.595 53.3955 73.4065 53.3955Z" fill="#FF1125"/>
<path d="M76.404 47.462C73.1678 47.462 71.4988 45.8309 71.4293 45.7613C71.1396 45.4717 71.1396 45.0022 71.4293 44.7126C71.7189 44.4258 72.187 44.4235 72.4737 44.7083C72.5273 44.7605 73.8152 45.979 76.404 45.979C78.9955 45.979 80.283 44.7729 80.3366 44.7215C80.6309 44.4404 81.0987 44.4471 81.3826 44.7367C81.6666 45.0286 81.6651 45.4928 81.3753 45.7797C81.3057 45.8483 79.6388 47.462 76.404 47.462Z" fill="#FF1125"/>
<path d="M34.8696 60.8124C34.4596 60.8124 34.1278 60.4807 34.1278 60.0706V58.5873C34.1278 58.1775 34.4596 57.8457 34.8696 57.8457C35.2795 57.8457 35.6113 58.1775 35.6113 58.5873V60.0706C35.6113 60.4807 35.2795 60.8124 34.8696 60.8124Z" fill="#FF1125"/>
<path d="M40.803 68.2293C40.5857 68.2293 40.3699 68.1336 40.2236 67.9512L34.2887 60.5315C34.0337 60.2113 34.0873 59.745 34.4089 59.4901C34.729 59.2351 35.1969 59.2873 35.4504 59.6101L41.3823 67.024C41.6372 67.3443 41.5866 67.8107 41.2665 68.067C41.1303 68.1757 40.9669 68.2293 40.803 68.2293Z" fill="#FF1125"/>
<path d="M40.8031 68.2293C40.5322 68.2293 40.27 68.0786 40.1396 67.8194C39.9572 67.4528 40.1047 67.008 40.4713 66.8242L46.4047 63.8574C46.7712 63.6751 47.2159 63.8226 47.4 64.1892C47.5824 64.5558 47.4347 65.0004 47.0682 65.1843L41.1346 68.151C41.0278 68.2046 40.9146 68.2293 40.8031 68.2293Z" fill="#FF1125"/>
<path d="M60.0868 60.8124C59.6769 60.8124 59.3453 60.4807 59.3453 60.0706V58.5873C59.3453 58.1775 59.6769 57.8457 60.0868 57.8457C60.497 57.8457 60.8286 58.1775 60.8286 58.5873V60.0706C60.8286 60.4807 60.497 60.8124 60.0868 60.8124Z" fill="#FF1125"/>
<path d="M54.1531 68.2292C53.9896 68.2292 53.8273 68.1755 53.6896 68.0668C53.3695 67.8106 53.3189 67.3439 53.574 67.0239L59.5058 59.6085C59.7624 59.2871 60.2301 59.2363 60.5487 59.4897C60.8692 59.7461 60.9228 60.2126 60.6677 60.5327L54.7328 67.9508C54.5865 68.1334 54.3706 68.2292 54.1531 68.2292Z" fill="#FF1125"/>
<path d="M54.1531 68.2292C54.0417 68.2292 53.9288 68.2045 53.8215 68.1509L47.8879 65.1842C47.5214 65.0003 47.3738 64.5556 47.5561 64.1891C47.7404 63.8239 48.185 63.6762 48.5514 63.8573L54.485 66.8241C54.8515 67.0079 54.9992 67.4529 54.8166 67.8193C54.6862 68.0783 54.4242 68.2292 54.1531 68.2292Z" fill="#FF1125"/>
</svg>
