<svg width="131" height="125" viewBox="0 0 131 125" fill="none" xmlns="http://www.w3.org/2000/svg">
<path d="M22.3053 100.751C22.3053 91.4613 26.0139 84.435 30.4887 76.4797C31.1549 75.2953 32.7453 74.803 33.3715 73.5969C33.6783 73.0061 41.0849 62.7382 41.5084 64.8555C41.7451 66.0389 39.3899 69.8407 41.1364 68.4823C44.2649 66.049 46.7838 62.8146 49.9243 60.3919C54.637 56.7564 51.1689 64.0346 50.1103 65.7855C49.3276 67.0799 47.6794 69.6076 50.2963 67.7383C53.8197 65.2216 56.7078 60.8773 59.0376 57.2766C59.7754 56.1364 65.7331 47.9503 65.7331 48.5352C65.7331 52.7428 61.6414 56.4706 61.6414 60.5779C61.6414 61.1645 63.7394 58.5766 64.1522 58.253C66.5828 56.348 69.0628 54.4868 71.4987 52.5804C73.7785 50.7962 78.9318 48.5184 77.1713 53.0454C75.4899 57.3689 73.1976 62.2384 78.8917 58.0205C85.7587 52.9338 92.6876 47.7421 99.3037 42.3512C110.888 32.9125 92.1482 60.0437 93.5381 53.7894C95.1529 46.5228 102.056 40.0162 107.301 35.3767C111.767 31.4262 103.151 36.1408 102 36.9576C98.1708 39.6754 93.4357 44.5328 88.4235 44.676C85.3338 44.7643 85.9127 43.4099 85.9127 40.8168C85.9127 37.7355 86.5329 33.9597 85.8662 30.9595C85.3929 28.8297 79.8878 31.3902 79.2171 32.3079C78.1493 33.7692 74.2812 37.9132 78.5662 35.2837C81.1612 33.6913 83.0433 31.5202 84.8897 29.1462C85.7014 28.1025 87.8288 27.5133 88.3305 26.6353C88.7389 25.9206 88.4235 31.7808 88.4235 33.3309C88.4235 37.5665 90.8741 36.3908 94.468 35.6557C96.9478 35.1485 101.855 32.2655 104.139 32.4939C106.776 32.7576 95.6465 49.5051 95.212 50.1161C92.6583 53.7073 90.7473 57.2312 87.726 60.4849C85.8896 62.4625 85.6892 63.7297 88.4235 62.2517C93.434 59.5433 97.2689 52.2085 103.442 52.2085C106.747 52.2085 94.8106 66.5342 93.3986 68.0638C89.8054 71.9564 86.0057 76.0002 81.821 79.2695C79.8034 80.8457 78.3591 82.8988 80.891 80.2924C83.3555 77.7555 84.2534 72.296 87.7725 70.8071C88.2511 70.6046 90.8749 68.7465 91.2133 69.1332C91.6209 69.5992 85.4256 75.2929 85.0292 75.6893C82.7085 78.0099 72.8008 90.5682 68.8484 88.9873C67.8989 88.6075 77.1291 82.0672 77.1713 81.6873C77.2436 81.0362 66.6649 87.4519 66.0121 87.8249C62.0871 90.0677 57.0241 93.1097 52.5281 94.0089C50.4863 94.4173 56.909 93.9644 58.6656 92.8465C62.3867 90.4785 56.6661 94.8951 55.7829 95.7293C55.0834 96.3899 49.1876 99.1626 51.4122 99.0771C57.2248 98.8535 64.0525 94.6799 68.7554 91.5446C71.5424 89.6866 73.825 87.6563 76.2879 85.686C78.3008 84.0757 71.3014 83.8537 70.8478 83.6402C63.0742 79.982 51.2584 73.048 47.46 65.1345C45.5729 61.2032 46.5342 59.4965 48.6224 56.8116C49.3232 55.9106 52.8263 48.6138 52.0631 48.2098C49.837 47.0312 42.1553 54.1362 40.067 55.5562C38.5713 56.5733 40.2387 56.0379 40.9039 55.5562C44.4128 53.0154 45.4374 49.5063 46.995 45.6989C47.8926 43.5047 49.4832 41.3283 46.1581 41.3283C43.3081 41.3283 42.837 44.135 40.718 45.327C37.8663 46.931 46.1236 41.4515 48.0644 38.8175C48.9986 37.5497 50.8542 35.0047 50.8542 35.0047C50.8542 35.0047 48.0152 38.0881 46.623 39.6544C44.9707 41.5133 43.6702 43.0021 41.1364 43.0021C38.3041 43.0021 40.1145 49.139 41.3689 50.3486C45.6165 54.4445 54.8755 52.9803 60.1535 53.0454C64.4389 53.0983 72.4037 52.9535 75.4044 56.8116C76.4767 58.1902 77.6568 61.0425 78.3802 62.6702C79.8222 65.9147 82.2544 68.8818 84.2388 71.83C85.9126 74.3169 89.3384 79.5282 91.7712 75.2708C92.3143 74.3203 94.6482 78.729 94.282 79.8275" stroke="#E7D7FF" stroke-width="43.9535" stroke-linecap="round"/>
<path d="M121.385 11.4775H7.61523C4.92301 11.4775 2.73242 13.6681 2.73242 16.3604V108.64C2.73242 111.332 4.92301 113.523 7.61523 113.523H121.385C124.077 113.523 126.268 111.332 126.268 108.64V16.3604C126.268 13.6681 124.077 11.4775 121.385 11.4775ZM124.314 108.64C124.314 110.255 123 111.569 121.385 111.569H7.61523C5.99971 111.569 4.68555 110.255 4.68555 108.64V16.3604C4.68555 14.7448 5.99971 13.4307 7.61523 13.4307H121.385C123 13.4307 124.314 14.7448 124.314 16.3604V108.64ZM121.385 24.4141C121.385 24.9534 120.948 25.3907 120.408 25.3907H74.67L65.1905 34.8702C65.0074 35.0533 64.7589 35.1563 64.5 35.1563H8.5918C8.05249 35.1563 7.61523 34.7191 7.61523 34.1798C7.61523 33.6404 8.05249 33.2032 8.5918 33.2032H64.0956L73.5752 23.7237C73.7583 23.5406 74.0067 23.4376 74.2656 23.4376H120.408C120.948 23.4376 121.385 23.8748 121.385 24.4141ZM10.5449 27.3467H20.9858C22.6013 27.3467 23.9154 26.0325 23.9154 24.417V22.2197C23.9154 20.6042 22.6013 19.29 20.9858 19.29H10.5449C8.92939 19.29 7.61523 20.6042 7.61523 22.2197V24.417C7.61523 26.0325 8.92939 27.3467 10.5449 27.3467ZM9.56836 22.2197C9.56836 21.6814 10.0066 21.2432 10.5449 21.2432H20.9858C21.5241 21.2432 21.9623 21.6814 21.9623 22.2197V24.417C21.9623 24.9553 21.5241 25.3936 20.9858 25.3936H10.5449C10.0066 25.3936 9.56836 24.9553 9.56836 24.417V22.2197ZM30.2574 27.3467H40.6982C42.3137 27.3467 43.6279 26.0325 43.6279 24.417V22.2197C43.6279 20.6042 42.3137 19.29 40.6982 19.29H30.2574C28.6418 19.29 27.3277 20.6042 27.3277 22.2197V24.417C27.3277 26.0325 28.6418 27.3467 30.2574 27.3467ZM29.2808 22.2197C29.2808 21.6814 29.719 21.2432 30.2574 21.2432H40.6982C41.2366 21.2432 41.6748 21.6814 41.6748 22.2197V24.417C41.6748 24.9553 41.2366 25.3936 40.6982 25.3936H30.2574C29.719 25.3936 29.2808 24.9553 29.2808 24.417V22.2197ZM49.9698 27.3467H60.4107C62.0262 27.3467 63.3403 26.0325 63.3403 24.417V22.2197C63.3403 20.6042 62.0262 19.29 60.4107 19.29H49.9698C48.3543 19.29 47.0401 20.6042 47.0401 22.2197V24.417C47.0401 26.0325 48.3543 27.3467 49.9698 27.3467ZM48.9933 22.2197C48.9933 21.6814 49.4315 21.2432 49.9698 21.2432H60.4107C60.949 21.2432 61.3872 21.6814 61.3872 22.2197V24.417C61.3872 24.9553 60.949 25.3936 60.4107 25.3936H49.9698C49.4315 25.3936 48.9933 24.9553 48.9933 24.417V22.2197ZM108.602 57.2363V43.9454C108.602 42.8682 107.726 41.9923 106.649 41.9923H22.3514C21.2742 41.9923 20.3983 42.8682 20.3983 43.9454V57.2363C20.3983 57.7756 19.961 58.2128 19.4217 58.2128C18.8824 58.2128 18.4452 57.7756 18.4452 57.2363V43.9454C18.4452 41.7915 20.1975 40.0391 22.3514 40.0391H106.649C108.802 40.0391 110.555 41.7915 110.555 43.9454V57.2363C110.555 57.7756 110.118 58.2128 109.578 58.2128C109.039 58.2128 108.602 57.7756 108.602 57.2363ZM110.555 89.4924V102.783C110.555 104.937 108.802 106.69 106.649 106.69H22.3514C20.1975 106.69 18.4452 104.937 18.4452 102.783V89.4924C18.4452 88.9531 18.8824 88.5158 19.4217 88.5158C19.961 88.5158 20.3983 88.9531 20.3983 89.4924V102.783C20.3983 103.86 21.2742 104.736 22.3514 104.736H106.649C107.726 104.736 108.602 103.86 108.602 102.783V89.4924C108.602 88.9531 109.039 88.5158 109.578 88.5158C110.118 88.5158 110.555 88.9531 110.555 89.4924ZM29.2808 81.6804V65.0483C29.2808 62.8944 27.5284 61.142 25.3746 61.142H13.4746C11.3207 61.142 9.56836 62.8944 9.56836 65.0483V81.6804C9.56836 83.8342 11.3207 85.5866 13.4746 85.5866H25.3746C27.5284 85.5866 29.2808 83.8342 29.2808 81.6804ZM11.5215 81.6804V65.0483C11.5215 63.9711 12.3974 63.0952 13.4746 63.0952H25.3746C26.4517 63.0952 27.3277 63.9711 27.3277 65.0483V81.6804C27.3277 82.7575 26.4517 83.6335 25.3746 83.6335H13.4746C12.3974 83.6335 11.5215 82.7575 11.5215 81.6804ZM23.0199 67.8993L17.8811 73.3643L23.0199 78.8294C23.3895 79.2223 23.3704 79.8402 22.9775 80.2098C22.7891 80.3872 22.5483 80.4749 22.3085 80.4749C22.0486 80.4749 21.7892 80.3719 21.597 80.1674L15.8292 74.0333C15.4759 73.6576 15.4759 73.0711 15.8292 72.6953L21.597 66.5613C21.9671 66.1684 22.5855 66.1498 22.9775 66.5188C23.3704 66.8884 23.3895 67.5064 23.0199 67.8993ZM115.525 61.142H103.625C101.472 61.142 99.7192 62.8944 99.7192 65.0483V81.6804C99.7192 83.8342 101.472 85.5866 103.625 85.5866H115.525C117.679 85.5866 119.432 83.8342 119.432 81.6804V65.0483C119.432 62.8944 117.679 61.142 115.525 61.142ZM117.479 81.6804C117.479 82.7575 116.603 83.6335 115.525 83.6335H103.625C102.548 83.6335 101.672 82.7575 101.672 81.6804V65.0483C101.672 63.9711 102.548 63.0952 103.625 63.0952H115.525C116.603 63.0952 117.479 63.9711 117.479 65.0483V81.6804ZM113.171 72.6953C113.524 73.0711 113.524 73.6576 113.171 74.0333L107.403 80.1674C107.211 80.3719 106.951 80.4749 106.692 80.4749C106.452 80.4749 106.211 80.3872 106.023 80.2098C105.63 79.8403 105.611 79.2223 105.98 78.8294L111.119 73.3643L105.98 67.8993C105.611 67.5064 105.63 66.8884 106.023 66.5189C106.415 66.1493 107.034 66.1684 107.403 66.5613L113.171 72.6953ZM80.4292 73.4878C80.8212 73.8578 80.8393 74.4758 80.4688 74.8683L65.21 91.0364C65.026 91.2319 64.7689 91.3425 64.5 91.3425C64.2311 91.3425 63.9741 91.2319 63.79 91.0364L52.4503 79.0206C52.0798 78.6281 52.0979 78.0101 52.4899 77.6401C52.8819 77.2701 53.5008 77.2868 53.8703 77.6797L64.5 88.9431L79.0488 73.5274C79.4188 73.134 80.0368 73.1168 80.4292 73.4878ZM84.5458 63.4342L65.21 83.9225C65.026 84.118 64.7689 84.2286 64.5 84.2286C64.2311 84.2286 63.9741 84.118 63.79 83.9225L44.4543 63.4342C44.0847 63.0427 43.5859 62.8238 43.049 62.8186C43.0423 62.8186 43.0357 62.8181 43.0285 62.8181C42.5026 62.8181 42.0105 63.0241 41.6414 63.3999L33.888 71.2896C33.5094 71.6735 32.8905 71.6797 32.5071 71.302C32.1223 70.9239 32.1166 70.3054 32.4947 69.9211L40.2486 62.0309C40.9981 61.2679 42.0057 60.8502 43.069 60.8655C44.141 60.8764 45.1376 61.3127 45.8743 62.0933L64.5 81.8291L83.1257 62.0933C83.8624 61.3127 84.859 60.8764 85.931 60.8655C86.9862 60.8597 88.0024 61.2684 88.751 62.0304L96.5053 69.9211C96.8835 70.3054 96.8777 70.9239 96.4929 71.302C96.1086 71.6797 95.4897 71.6735 95.112 71.2896L87.3582 63.3994C86.9848 63.0189 86.4574 62.8119 85.951 62.8186C85.4141 62.8238 84.9153 63.0427 84.5458 63.4342ZM78.7822 57.8614C78.7822 54.2503 77.4256 50.8009 74.9623 48.1492C74.5951 47.7539 74.6175 47.1359 75.0128 46.7692C75.4062 46.4011 76.0256 46.4245 76.3928 46.8198C79.1933 49.8343 80.7354 53.7554 80.7354 57.8614C80.7354 58.4007 80.2981 58.838 79.7588 58.838C79.2195 58.838 78.7822 58.4007 78.7822 57.8614ZM53.2004 47.5717C53.621 47.9088 53.6887 48.5235 53.3516 48.9445C51.3016 51.5018 50.2178 54.5855 50.2178 57.8614C50.2178 58.4007 49.7805 58.838 49.2412 58.838C48.7019 58.838 48.2647 58.4007 48.2647 57.8614C48.2647 54.1897 49.5302 50.5891 51.8276 47.7229C52.1657 47.3023 52.7803 47.2351 53.2004 47.5717ZM64.5 46.5089C58.2401 46.5089 53.1475 51.6015 53.1475 57.8614C53.1475 64.1213 58.2401 69.2139 64.5 69.2139C70.7599 69.2139 75.8525 64.1213 75.8525 57.8614C75.8525 51.6015 70.7599 46.5089 64.5 46.5089ZM64.5 67.2608C59.3173 67.2608 55.1006 63.0441 55.1006 57.8614C55.1006 52.6787 59.3173 48.462 64.5 48.462C69.6827 48.462 73.8994 52.6787 73.8994 57.8614C73.8994 63.0441 69.6827 67.2608 64.5 67.2608Z" fill="#6D06B0"/>
</svg>
