<svg width="131" height="126" viewBox="0 0 131 126" fill="none" xmlns="http://www.w3.org/2000/svg">
<path d="M22.3053 101.751C22.3053 92.4613 26.0139 85.435 30.4887 77.4797C31.1549 76.2953 32.7453 75.803 33.3715 74.5969C33.6783 74.0061 41.0849 63.7382 41.5084 65.8555C41.7451 67.0389 39.3899 70.8407 41.1364 69.4823C44.2649 67.049 46.7838 63.8146 49.9243 61.3919C54.637 57.7564 51.1689 65.0346 50.1103 66.7855C49.3276 68.0799 47.6794 70.6076 50.2963 68.7383C53.8197 66.2216 56.7078 61.8773 59.0376 58.2766C59.7754 57.1364 65.7331 48.9503 65.7331 49.5352C65.7331 53.7428 61.6414 57.4706 61.6414 61.5779C61.6414 62.1645 63.7394 59.5766 64.1522 59.253C66.5828 57.348 69.0628 55.4868 71.4987 53.5804C73.7785 51.7962 78.9318 49.5184 77.1713 54.0454C75.4899 58.3689 73.1976 63.2384 78.8917 59.0205C85.7587 53.9338 92.6876 48.7421 99.3037 43.3512C110.888 33.9125 92.1482 61.0437 93.5381 54.7894C95.1529 47.5228 102.056 41.0162 107.301 36.3767C111.767 32.4262 103.151 37.1408 102 37.9576C98.1708 40.6754 93.4357 45.5328 88.4235 45.676C85.3338 45.7643 85.9127 44.4099 85.9127 41.8168C85.9127 38.7355 86.5329 34.9597 85.8662 31.9595C85.3929 29.8297 79.8878 32.3902 79.2171 33.3079C78.1493 34.7692 74.2812 38.9132 78.5662 36.2837C81.1612 34.6913 83.0433 32.5202 84.8897 30.1462C85.7014 29.1025 87.8288 28.5133 88.3305 27.6353C88.7389 26.9206 88.4235 32.7808 88.4235 34.3309C88.4235 38.5665 90.8741 37.3908 94.468 36.6557C96.9478 36.1485 101.855 33.2655 104.139 33.4939C106.776 33.7576 95.6465 50.5051 95.212 51.1161C92.6583 54.7073 90.7473 58.2312 87.726 61.4849C85.8896 63.4625 85.6892 64.7297 88.4235 63.2517C93.434 60.5433 97.2689 53.2085 103.442 53.2085C106.747 53.2085 94.8106 67.5342 93.3986 69.0638C89.8054 72.9564 86.0057 77.0002 81.821 80.2695C79.8034 81.8457 78.3591 83.8988 80.891 81.2924C83.3555 78.7555 84.2534 73.296 87.7725 71.8071C88.2511 71.6046 90.8749 69.7465 91.2133 70.1332C91.6209 70.5992 85.4256 76.2929 85.0292 76.6893C82.7085 79.0099 72.8008 91.5682 68.8484 89.9873C67.8989 89.6075 77.1291 83.0672 77.1713 82.6873C77.2436 82.0362 66.6649 88.4519 66.0121 88.8249C62.0871 91.0677 57.0241 94.1097 52.5281 95.0089C50.4863 95.4173 56.909 94.9644 58.6656 93.8465C62.3867 91.4785 56.6661 95.8951 55.7829 96.7293C55.0834 97.3899 49.1876 100.163 51.4122 100.077C57.2248 99.8535 64.0525 95.6799 68.7554 92.5446C71.5424 90.6866 73.825 88.6563 76.2879 86.686C78.3008 85.0757 71.3014 84.8537 70.8478 84.6402C63.0742 80.982 51.2584 74.048 47.46 66.1345C45.5729 62.2032 46.5342 60.4965 48.6224 57.8116C49.3232 56.9106 52.8263 49.6138 52.0631 49.2098C49.837 48.0312 42.1553 55.1362 40.067 56.5562C38.5713 57.5733 40.2387 57.0379 40.9039 56.5562C44.4128 54.0154 45.4374 50.5063 46.995 46.6989C47.8926 44.5047 49.4832 42.3283 46.1581 42.3283C43.3081 42.3283 42.837 45.135 40.718 46.327C37.8663 47.931 46.1236 42.4515 48.0644 39.8175C48.9986 38.5497 50.8542 36.0047 50.8542 36.0047C50.8542 36.0047 48.0152 39.0881 46.623 40.6544C44.9707 42.5133 43.6702 44.0021 41.1364 44.0021C38.3041 44.0021 40.1145 50.139 41.3689 51.3486C45.6165 55.4445 54.8755 53.9803 60.1535 54.0454C64.4389 54.0983 72.4037 53.9535 75.4044 57.8116C76.4767 59.1902 77.6568 62.0425 78.3802 63.6702C79.8222 66.9147 82.2544 69.8818 84.2388 72.83C85.9126 75.3169 89.3384 80.5282 91.7712 76.2708C92.3143 75.3203 94.6482 79.729 94.282 80.8275" stroke="#E7D7FF" stroke-width="43.9535" stroke-linecap="round"/>
<path d="M122.34 11.5693H7.66016C4.94639 11.5693 2.73828 13.7774 2.73828 16.4912V109.509C2.73828 112.223 4.94639 114.431 7.66016 114.431H122.34C125.054 114.431 127.262 112.223 127.262 109.509V16.4912C127.262 13.7774 125.054 11.5693 122.34 11.5693ZM125.293 109.509C125.293 111.137 123.968 112.462 122.34 112.462H7.66016C6.0317 112.462 4.70703 111.137 4.70703 109.509V16.4912C4.70703 14.8628 6.0317 13.5381 7.66016 13.5381H122.34C123.968 13.5381 125.293 14.8628 125.293 16.4912V109.509ZM122.34 24.6094C122.34 25.153 121.9 25.5938 121.355 25.5938H75.2513L65.696 35.1492C65.5114 35.3337 65.261 35.4375 65 35.4375H8.64453C8.10091 35.4375 7.66016 34.9968 7.66016 34.4532C7.66016 33.9095 8.10091 33.4688 8.64453 33.4688H64.5924L74.1478 23.9134C74.3323 23.7289 74.5823 23.625 74.8438 23.625H121.355C121.9 23.625 122.34 24.0658 122.34 24.6094ZM10.6133 27.5654H21.1376C22.7661 27.5654 24.0908 26.2408 24.0908 24.6123V22.3975C24.0908 20.769 22.7661 19.4443 21.1376 19.4443H10.6133C8.98483 19.4443 7.66016 20.769 7.66016 22.3975V24.6123C7.66016 26.2408 8.98483 27.5654 10.6133 27.5654ZM9.62891 22.3975C9.62891 21.8548 10.0706 21.4131 10.6133 21.4131H21.1376C21.6803 21.4131 22.122 21.8548 22.122 22.3975V24.6123C22.122 25.155 21.6803 25.5967 21.1376 25.5967H10.6133C10.0706 25.5967 9.62891 25.155 9.62891 24.6123V22.3975ZM30.4834 27.5654H41.0078C42.6362 27.5654 43.9609 26.2408 43.9609 24.6123V22.3975C43.9609 20.769 42.6362 19.4443 41.0078 19.4443H30.4834C28.855 19.4443 27.5303 20.769 27.5303 22.3975V24.6123C27.5303 26.2408 28.855 27.5654 30.4834 27.5654ZM29.4991 22.3975C29.4991 21.8548 29.9408 21.4131 30.4834 21.4131H41.0078C41.5504 21.4131 41.9922 21.8548 41.9922 22.3975V24.6123C41.9922 25.155 41.5504 25.5967 41.0078 25.5967H30.4834C29.9408 25.5967 29.4991 25.155 29.4991 24.6123V22.3975ZM50.3536 27.5654H60.8779C62.5064 27.5654 63.8311 26.2408 63.8311 24.6123V22.3975C63.8311 20.769 62.5064 19.4443 60.8779 19.4443H50.3536C48.7251 19.4443 47.4005 20.769 47.4005 22.3975V24.6123C47.4005 26.2408 48.7251 27.5654 50.3536 27.5654ZM49.3692 22.3975C49.3692 21.8548 49.8109 21.4131 50.3536 21.4131H60.8779C61.4206 21.4131 61.8623 21.8548 61.8623 22.3975V24.6123C61.8623 25.155 61.4206 25.5967 60.8779 25.5967H50.3536C49.8109 25.5967 49.3692 25.155 49.3692 24.6123V22.3975ZM117.418 68.9063H73.8594C72.2309 68.9063 70.9063 70.231 70.9063 71.8594V104.587C70.9063 106.215 72.2309 107.54 73.8594 107.54H117.418C119.046 107.54 120.371 106.215 120.371 104.587V71.8594C120.371 70.231 119.046 68.9063 117.418 68.9063ZM118.402 104.587C118.402 105.13 117.961 105.571 117.418 105.571H73.8594C73.3162 105.571 72.875 105.13 72.875 104.587V71.8594C72.875 71.3168 73.3162 70.875 73.8594 70.875H117.418C117.961 70.875 118.402 71.3168 118.402 71.8594V104.587ZM117.418 40.3623H73.8594C72.2309 40.3623 70.9063 41.687 70.9063 43.3154V61.0313C70.9063 62.6597 72.2309 63.9844 73.8594 63.9844H117.418C119.046 63.9844 120.371 62.6597 120.371 61.0313V43.3154C120.371 41.687 119.046 40.3623 117.418 40.3623ZM118.402 61.0313C118.402 61.574 117.961 62.0157 117.418 62.0157H73.8594C73.3162 62.0157 72.875 61.574 72.875 61.0313V43.3154C72.875 42.7728 73.3162 42.3311 73.8594 42.3311H117.418C117.961 42.3311 118.402 42.7728 118.402 43.3154V61.0313ZM63.0313 40.3623H12.582C10.9536 40.3623 9.62891 41.687 9.62891 43.3154V104.587C9.62891 106.215 10.9536 107.54 12.582 107.54H63.0312C64.6597 107.54 65.9844 106.215 65.9844 104.587V43.3154C65.9844 41.687 64.6597 40.3623 63.0313 40.3623ZM12.582 42.3311H63.0313C63.5739 42.3311 64.0156 42.7728 64.0156 43.3154V76.9957L56.6049 70.1608C55.1024 68.7746 52.7506 68.7794 51.2519 70.1742L37.8067 82.6957L24.3614 70.1742C22.8646 68.7799 20.5128 68.7741 19.0084 70.1608L11.5977 76.9957V43.3154C11.5977 42.7728 12.0394 42.3311 12.582 42.3311ZM63.0313 105.571H12.582C12.0394 105.571 11.5977 105.13 11.5977 104.587V79.6731L20.3426 71.6085C21.0958 70.9154 22.272 70.9183 23.0194 71.6152L37.1357 84.7616C37.3245 84.9375 37.5658 85.0254 37.8066 85.0254C38.0474 85.0254 38.2887 84.9375 38.4776 84.7616L52.5939 71.6152C53.3423 70.9178 54.5184 70.9149 55.2706 71.6085L64.0156 79.6731V104.587C64.0156 105.13 63.5739 105.571 63.0313 105.571ZM50.3598 79.0759C50.7304 79.4739 50.7078 80.0968 50.3103 80.4674L38.4776 91.4873C38.2887 91.6632 38.0475 91.7512 37.8067 91.7512C37.5658 91.7512 37.3246 91.6632 37.1357 91.4873L29.9139 84.7615C29.5164 84.391 29.4938 83.768 29.8644 83.3701C30.2359 82.9726 30.8584 82.9519 31.2558 83.3206L37.8067 89.4215L48.9683 79.0264C49.3663 78.6568 49.9883 78.6779 50.3598 79.0759ZM45.934 51.0861C45.5048 50.7521 45.4279 50.1339 45.7619 49.7047C46.0955 49.2745 46.7141 49.1981 47.1433 49.5327C50.8866 52.4464 53.0337 56.828 53.0337 61.5542C53.0337 62.0979 52.593 62.5386 52.0493 62.5386C51.5057 62.5386 51.065 62.0979 51.065 61.5542C51.065 57.4399 49.1947 53.6245 45.934 51.0861ZM22.5796 61.5542C22.5796 58.8405 23.3059 56.1738 24.68 53.8436C24.9564 53.3755 25.5611 53.2197 26.0278 53.4956C26.496 53.7715 26.6522 54.3752 26.3758 54.8434C25.1804 56.8712 24.5483 59.1918 24.5483 61.5542C24.5483 62.0979 24.1076 62.5386 23.564 62.5386C23.0204 62.5386 22.5796 62.0979 22.5796 61.5542ZM37.8067 71.8594C43.4889 71.8594 48.1118 67.2365 48.1118 61.5542C48.1118 55.872 43.4889 51.2491 37.8067 51.2491C32.1244 51.2491 27.5015 55.872 27.5015 61.5542C27.5015 67.2365 32.1244 71.8594 37.8067 71.8594ZM37.8067 53.2178C42.4036 53.2178 46.1431 56.9573 46.1431 61.5542C46.1431 66.1512 42.4036 69.8907 37.8067 69.8907C33.2097 69.8907 29.4702 66.1512 29.4702 61.5542C29.4702 56.9573 33.2097 53.2178 37.8067 53.2178ZM81.8892 45.2842H76.8125C76.2684 45.2842 75.8281 45.7249 75.8281 46.2686V58.0782C75.8281 58.6218 76.2684 59.0625 76.8125 59.0625H81.8892C83.5176 59.0625 84.8423 57.7379 84.8423 56.1094V54.1421C84.8423 53.383 84.5464 52.697 84.0742 52.1734C84.5464 51.6497 84.8423 50.9637 84.8423 50.2046V48.2373C84.8423 46.6088 83.5176 45.2842 81.8892 45.2842ZM77.7969 47.2529H81.8892C82.4323 47.2529 82.8735 47.6946 82.8735 48.2373V50.2046C82.8735 50.7473 82.4323 51.189 81.8892 51.189H77.7969V47.2529ZM82.8735 56.1094C82.8735 56.6521 82.4323 57.0938 81.8892 57.0938H77.7969V53.1577H81.8892C82.4323 53.1577 82.8735 53.5995 82.8735 54.1421V56.1094ZM95.0446 58.0782C95.0446 58.6218 94.6043 59.0625 94.0602 59.0625H88.9836C87.3551 59.0625 86.0305 57.7379 86.0305 56.1094V46.2686C86.0305 45.7249 86.4707 45.2842 87.0148 45.2842C87.5589 45.2842 87.9992 45.7249 87.9992 46.2686V56.1094C87.9992 56.6521 88.4404 57.0938 88.9836 57.0938H94.0602C94.6043 57.0938 95.0446 57.5345 95.0446 58.0782ZM102.294 45.2842H99.1859C97.5574 45.2842 96.2328 46.6089 96.2328 48.2373V56.1094C96.2328 57.7379 97.5574 59.0625 99.1859 59.0625H102.294C103.922 59.0625 105.247 57.7379 105.247 56.1094V48.2373C105.247 46.6089 103.922 45.2842 102.294 45.2842ZM103.278 56.1094C103.278 56.6521 102.837 57.0938 102.294 57.0938H99.1859C98.6428 57.0938 98.2015 56.6521 98.2015 56.1094V48.2373C98.2015 47.6946 98.6428 47.2529 99.1859 47.2529H102.294C102.837 47.2529 103.278 47.6946 103.278 48.2373V56.1094ZM108.404 48.2373V56.1094C108.404 56.6521 108.845 57.0938 109.388 57.0938H112.496C113.039 57.0938 113.48 56.6521 113.48 56.1094V53.1577H110.942C110.398 53.1577 109.957 52.717 109.957 52.1734C109.957 51.6297 110.398 51.189 110.942 51.189H114.465C115.009 51.189 115.449 51.6297 115.449 52.1734V56.1094C115.449 57.7379 114.125 59.0625 112.496 59.0625H109.388C107.76 59.0625 106.435 57.7379 106.435 56.1094V48.2373C106.435 46.6089 107.76 45.2842 109.388 45.2842H114.465C115.009 45.2842 115.449 45.7249 115.449 46.2686C115.449 46.8122 115.009 47.2529 114.465 47.2529H109.388C108.845 47.2529 108.404 47.6946 108.404 48.2373ZM114.465 74.6895H76.8125C76.2684 74.6895 75.8281 75.1303 75.8281 75.6739V81.9483C75.8281 82.4919 76.2684 82.9327 76.8125 82.9327H114.465C115.009 82.9327 115.449 82.4919 115.449 81.9483V75.6739C115.449 75.1303 115.009 74.6895 114.465 74.6895ZM113.48 80.9639H77.7969V76.6582H113.48V80.9639ZM115.449 88.2232C115.449 88.7668 115.009 89.2076 114.465 89.2076H76.8125C76.2684 89.2076 75.8281 88.7668 75.8281 88.2232C75.8281 87.6796 76.2684 87.2388 76.8125 87.2388H114.465C115.009 87.2388 115.449 87.6796 115.449 88.2232ZM115.449 94.4981C115.449 95.0417 115.009 95.4825 114.465 95.4825H76.8125C76.2684 95.4825 75.8281 95.0417 75.8281 94.4981C75.8281 93.9545 76.2684 93.5137 76.8125 93.5137H114.465C115.009 93.5137 115.449 93.9545 115.449 94.4981ZM115.449 100.773C115.449 101.316 115.009 101.757 114.465 101.757H76.8125C76.2684 101.757 75.8281 101.316 75.8281 100.773C75.8281 100.229 76.2684 99.7882 76.8125 99.7882H114.465C115.009 99.7882 115.449 100.229 115.449 100.773Z" fill="#6D06B0"/>
</svg>
