<svg width="131" height="126" viewBox="0 0 131 126" fill="none" xmlns="http://www.w3.org/2000/svg">
<path d="M22.3053 101.751C22.3053 92.4613 26.0139 85.435 30.4887 77.4797C31.1549 76.2953 32.7453 75.803 33.3715 74.5969C33.6783 74.0061 41.0849 63.7382 41.5084 65.8555C41.7451 67.0389 39.3899 70.8407 41.1364 69.4823C44.2649 67.049 46.7838 63.8146 49.9243 61.3919C54.637 57.7564 51.1689 65.0346 50.1103 66.7855C49.3276 68.0799 47.6794 70.6076 50.2963 68.7383C53.8197 66.2216 56.7078 61.8773 59.0376 58.2766C59.7754 57.1364 65.7331 48.9503 65.7331 49.5352C65.7331 53.7428 61.6414 57.4706 61.6414 61.5779C61.6414 62.1645 63.7394 59.5766 64.1522 59.253C66.5828 57.348 69.0628 55.4868 71.4987 53.5804C73.7785 51.7962 78.9318 49.5184 77.1713 54.0454C75.4899 58.3689 73.1976 63.2384 78.8917 59.0205C85.7587 53.9338 92.6876 48.7421 99.3037 43.3512C110.888 33.9125 92.1482 61.0437 93.5381 54.7894C95.1529 47.5228 102.056 41.0162 107.301 36.3767C111.767 32.4262 103.151 37.1408 102 37.9576C98.1708 40.6754 93.4357 45.5328 88.4235 45.676C85.3338 45.7643 85.9127 44.4099 85.9127 41.8168C85.9127 38.7355 86.5329 34.9597 85.8662 31.9595C85.3929 29.8297 79.8878 32.3902 79.2171 33.3079C78.1493 34.7692 74.2812 38.9132 78.5662 36.2837C81.1612 34.6913 83.0433 32.5202 84.8897 30.1462C85.7014 29.1025 87.8288 28.5133 88.3305 27.6353C88.7389 26.9206 88.4235 32.7808 88.4235 34.3309C88.4235 38.5665 90.8741 37.3908 94.468 36.6557C96.9478 36.1485 101.855 33.2655 104.139 33.4939C106.776 33.7576 95.6465 50.5051 95.212 51.1161C92.6583 54.7073 90.7473 58.2312 87.726 61.4849C85.8896 63.4625 85.6892 64.7297 88.4235 63.2517C93.434 60.5433 97.2689 53.2085 103.442 53.2085C106.747 53.2085 94.8106 67.5342 93.3986 69.0638C89.8054 72.9564 86.0057 77.0002 81.821 80.2695C79.8034 81.8457 78.3591 83.8988 80.891 81.2924C83.3555 78.7555 84.2534 73.296 87.7725 71.8071C88.2511 71.6046 90.8749 69.7465 91.2133 70.1332C91.6209 70.5992 85.4256 76.2929 85.0292 76.6893C82.7085 79.0099 72.8008 91.5682 68.8484 89.9873C67.8989 89.6075 77.1291 83.0672 77.1713 82.6873C77.2436 82.0362 66.6649 88.4519 66.0121 88.8249C62.0871 91.0677 57.0241 94.1097 52.5281 95.0089C50.4863 95.4173 56.909 94.9644 58.6656 93.8465C62.3867 91.4785 56.6661 95.8951 55.7829 96.7293C55.0834 97.3899 49.1876 100.163 51.4122 100.077C57.2248 99.8535 64.0525 95.6799 68.7554 92.5446C71.5424 90.6866 73.825 88.6563 76.2879 86.686C78.3008 85.0757 71.3014 84.8537 70.8478 84.6402C63.0742 80.982 51.2584 74.048 47.46 66.1345C45.5729 62.2032 46.5342 60.4965 48.6224 57.8116C49.3232 56.9106 52.8263 49.6138 52.0631 49.2098C49.837 48.0312 42.1553 55.1362 40.067 56.5562C38.5713 57.5733 40.2387 57.0379 40.9039 56.5562C44.4128 54.0154 45.4374 50.5063 46.995 46.6989C47.8926 44.5047 49.4832 42.3283 46.1581 42.3283C43.3081 42.3283 42.837 45.135 40.718 46.327C37.8663 47.931 46.1236 42.4515 48.0644 39.8175C48.9986 38.5497 50.8542 36.0047 50.8542 36.0047C50.8542 36.0047 48.0152 39.0881 46.623 40.6544C44.9707 42.5133 43.6702 44.0021 41.1364 44.0021C38.3041 44.0021 40.1145 50.139 41.3689 51.3486C45.6165 55.4445 54.8755 53.9803 60.1535 54.0454C64.4389 54.0983 72.4037 53.9535 75.4044 57.8116C76.4767 59.1902 77.6568 62.0425 78.3802 63.6702C79.8222 66.9147 82.2544 69.8818 84.2388 72.83C85.9126 75.3169 89.3384 80.5282 91.7712 76.2708C92.3143 75.3203 94.6482 79.729 94.282 80.8275" stroke="#E7D7FF" stroke-width="43.9535" stroke-linecap="round"/>
<path d="M122.34 11.5693H7.66016C4.94639 11.5693 2.73828 13.7774 2.73828 16.4912V109.509C2.73828 112.223 4.94639 114.431 7.66016 114.431H122.34C125.054 114.431 127.262 112.223 127.262 109.509V16.4912C127.262 13.7774 125.054 11.5693 122.34 11.5693ZM125.293 109.509C125.293 111.137 123.968 112.462 122.34 112.462H7.66016C6.0317 112.462 4.70703 111.137 4.70703 109.509V16.4912C4.70703 14.8628 6.0317 13.5381 7.66016 13.5381H122.34C123.968 13.5381 125.293 14.8628 125.293 16.4912V109.509ZM10.6133 27.5654H21.1376C22.7661 27.5654 24.0908 26.2408 24.0908 24.6123V22.3975C24.0908 20.769 22.7661 19.4443 21.1376 19.4443H10.6133C8.98483 19.4443 7.66016 20.769 7.66016 22.3975V24.6123C7.66016 26.2408 8.98483 27.5654 10.6133 27.5654ZM9.62891 22.3975C9.62891 21.8548 10.0706 21.4131 10.6133 21.4131H21.1376C21.6803 21.4131 22.122 21.8548 22.122 22.3975V24.6123C22.122 25.155 21.6803 25.5967 21.1376 25.5967H10.6133C10.0706 25.5967 9.62891 25.155 9.62891 24.6123V22.3975ZM30.4834 27.5654H41.0078C42.6362 27.5654 43.9609 26.2408 43.9609 24.6123V22.3975C43.9609 20.769 42.6362 19.4443 41.0078 19.4443H30.4834C28.855 19.4443 27.5303 20.769 27.5303 22.3975V24.6123C27.5303 26.2408 28.855 27.5654 30.4834 27.5654ZM29.4991 22.3975C29.4991 21.8548 29.9408 21.4131 30.4834 21.4131H41.0078C41.5504 21.4131 41.9922 21.8548 41.9922 22.3975V24.6123C41.9922 25.155 41.5504 25.5967 41.0078 25.5967H30.4834C29.9408 25.5967 29.4991 25.155 29.4991 24.6123V22.3975ZM50.3536 27.5654H60.8779C62.5064 27.5654 63.8311 26.2408 63.8311 24.6123V22.3975C63.8311 20.769 62.5064 19.4443 60.8779 19.4443H50.3536C48.7251 19.4443 47.4005 20.769 47.4005 22.3975V24.6123C47.4005 26.2408 48.7251 27.5654 50.3536 27.5654ZM49.3692 22.3975C49.3692 21.8548 49.8109 21.4131 50.3536 21.4131H60.8779C61.4206 21.4131 61.8623 21.8548 61.8623 22.3975V24.6123C61.8623 25.155 61.4206 25.5967 60.8779 25.5967H50.3536C49.8109 25.5967 49.3692 25.155 49.3692 24.6123V22.3975ZM59.0938 40.3623H12.582C10.9536 40.3623 9.62891 41.687 9.62891 43.3154V80.8255C9.62891 82.4539 10.9536 83.7786 12.582 83.7786H59.0938C60.7222 83.7786 62.0469 82.4539 62.0469 80.8255V43.3154C62.0469 41.687 60.7222 40.3623 59.0938 40.3623ZM60.0781 80.8255C60.0781 81.3682 59.6364 81.8099 59.0938 81.8099H12.582C12.0394 81.8099 11.5977 81.3682 11.5977 80.8255V43.3154C11.5977 42.7728 12.0394 42.3311 12.582 42.3311H59.0938C59.6364 42.3311 60.0781 42.7728 60.0781 43.3154L60.0781 80.8255ZM27.1328 52.256C26.5637 51.71 25.8211 51.4226 25.0276 51.4346C24.2388 51.4505 23.5034 51.773 22.9574 52.3421L14.2759 61.3889C13.9106 61.7696 13.9106 62.3714 14.2759 62.752L22.9574 71.7984C23.5034 72.3675 24.2383 72.69 25.0276 72.7063C25.0482 72.7068 25.0689 72.7073 25.0901 72.7073C25.8552 72.7073 26.5786 72.4165 27.1328 71.8849C28.3075 70.7573 28.346 68.8842 27.2189 67.7095L21.8077 62.0705L27.2189 56.4315C28.346 55.2563 28.3075 53.3836 27.1328 52.256ZM25.798 55.0683L19.7332 61.3889C19.3679 61.7696 19.3679 62.3714 19.7332 62.752L25.798 69.0726C26.1739 69.4643 26.1609 70.0887 25.7697 70.4646C25.5793 70.6458 25.3212 70.7265 25.0679 70.7381C24.805 70.7328 24.5604 70.6251 24.3782 70.4352L16.3508 62.0705L24.3782 53.7052C24.7541 53.3139 25.3784 53.3005 25.7697 53.6768C25.9595 53.8585 26.0667 54.1036 26.072 54.3666C26.0773 54.6295 25.9802 54.8785 25.798 55.0683ZM48.7184 52.3421C48.1724 51.773 47.437 51.4505 46.6482 51.4346C45.8609 51.4202 45.1121 51.71 44.543 52.256C43.3683 53.3836 43.3298 55.2563 44.457 56.4314L49.8681 62.0705L44.457 67.7095C43.3298 68.8842 43.3683 70.7568 44.543 71.8844C45.0972 72.416 45.8206 72.7073 46.5858 72.7073C46.6069 72.7073 46.6276 72.7068 46.6482 72.7063C47.4375 72.69 48.1724 72.3675 48.7184 71.7984L57.4 62.752C57.7652 62.3714 57.7652 61.7696 57.4 61.3889L48.7184 52.3421ZM47.2976 70.4352C47.1154 70.6251 46.8708 70.7328 46.6079 70.7381C46.3325 70.7256 46.096 70.6458 45.9061 70.4646C45.5149 70.0887 45.5019 69.4643 45.8778 69.0726L51.9426 62.752C52.3079 62.3714 52.3079 61.7696 51.9426 61.3889L45.8778 55.0683C45.6956 54.8785 45.5985 54.6295 45.6038 54.3666C45.6091 54.1037 45.7163 53.8585 45.9061 53.6768C46.2969 53.301 46.9217 53.3135 47.2976 53.7052L55.325 62.0705L47.2976 70.4352ZM40.0883 49.3861C39.3399 49.1356 38.5396 49.1904 37.8336 49.5428C37.127 49.8941 36.6002 50.5002 36.3498 51.2476L29.7259 71.0159C29.2088 72.5602 30.0436 74.2372 31.5875 74.7549C31.8956 74.8582 32.2128 74.9091 32.5281 74.9091C32.979 74.9091 33.4274 74.8048 33.8427 74.5977C34.5488 74.2459 35.0756 73.6402 35.326 72.8928L41.9499 53.1246C42.2003 52.3767 42.145 51.5759 41.7932 50.8698C41.4418 50.1633 40.8357 49.6365 40.0883 49.3861ZM40.083 52.4988L33.4591 72.2675C33.3755 72.5165 33.2001 72.7183 32.965 72.8356C32.7281 72.9519 32.4613 72.9716 32.2133 72.888C31.6985 72.7155 31.4202 72.1565 31.5928 71.6417L38.2166 51.873C38.3003 51.624 38.4757 51.4221 38.7108 51.3048C38.9458 51.1875 39.213 51.1683 39.463 51.2529C39.7119 51.3366 39.9138 51.512 40.0311 51.747C40.1484 51.9825 40.1666 52.2493 40.083 52.4988ZM117.418 40.3623H90.8398C89.2114 40.3623 87.8867 41.687 87.8867 43.3154V45.1871C87.8867 46.8155 89.2114 48.1402 90.8398 48.1402H117.418C119.046 48.1402 120.371 46.8155 120.371 45.1871V43.3154C120.371 41.687 119.046 40.3623 117.418 40.3623ZM118.402 45.1871C118.402 45.7297 117.961 46.1715 117.418 46.1715H90.8398C90.2972 46.1715 89.8555 45.7297 89.8555 45.1871V43.3154C89.8555 42.7728 90.2972 42.3311 90.8398 42.3311H117.418C117.961 42.3311 118.402 42.7728 118.402 43.3154V45.1871ZM69.9219 48.1402H80.0117C81.6402 48.1402 82.9648 46.8155 82.9648 45.1871V43.3154C82.9648 41.687 81.6402 40.3623 80.0117 40.3623H69.9219C68.2934 40.3623 66.9688 41.687 66.9688 43.3154V45.1871C66.9688 46.8155 68.2934 48.1402 69.9219 48.1402ZM68.9375 43.3154C68.9375 42.7728 69.3792 42.3311 69.9219 42.3311H80.0117C80.5544 42.3311 80.9961 42.7728 80.9961 43.3154V45.1871C80.9961 45.7297 80.5544 46.1715 80.0117 46.1715H69.9219C69.3792 46.1715 68.9375 45.7297 68.9375 45.1871V43.3154ZM66.9688 57.0664C66.9688 58.6949 68.2934 60.0195 69.9219 60.0195H96.5C98.1284 60.0195 99.4531 58.6949 99.4531 57.0664V55.1947C99.4531 53.5663 98.1284 52.2416 96.5 52.2416H69.9219C68.2934 52.2416 66.9688 53.5663 66.9688 55.1947V57.0664ZM68.9375 55.1947C68.9375 54.6521 69.3792 54.2104 69.9219 54.2104H96.5C97.0427 54.2104 97.4844 54.6521 97.4844 55.1947V57.0664C97.4844 57.6091 97.0427 58.0508 96.5 58.0508H69.9219C69.3792 58.0508 68.9375 57.6091 68.9375 57.0664V55.1947ZM117.418 52.2416H107.328C105.7 52.2416 104.375 53.5663 104.375 55.1947V57.0664C104.375 58.6949 105.7 60.0195 107.328 60.0195H117.418C119.046 60.0195 120.371 58.6949 120.371 57.0664V55.1947C120.371 53.5663 119.046 52.2416 117.418 52.2416ZM118.402 57.0664C118.402 57.6091 117.961 58.0508 117.418 58.0508H107.328C106.785 58.0508 106.344 57.6091 106.344 57.0664V55.1947C106.344 54.6521 106.785 54.2104 107.328 54.2104H117.418C117.961 54.2104 118.402 54.6521 118.402 55.1947V57.0664ZM66.9688 80.8255C66.9688 82.4539 68.2934 83.7786 69.9219 83.7786H96.5C98.1284 83.7786 99.4531 82.4539 99.4531 80.8255V78.9538C99.4531 77.3254 98.1284 76.0007 96.5 76.0007H69.9219C68.2934 76.0007 66.9688 77.3254 66.9688 78.9538V80.8255ZM68.9375 78.9538C68.9375 78.4112 69.3792 77.9695 69.9219 77.9695H96.5C97.0427 77.9695 97.4844 78.4112 97.4844 78.9538V80.8255C97.4844 81.3682 97.0427 81.8099 96.5 81.8099H69.9219C69.3792 81.8099 68.9375 81.3682 68.9375 80.8255V78.9538ZM117.418 76.0007H107.328C105.7 76.0007 104.375 77.3254 104.375 78.9538V80.8255C104.375 82.4539 105.7 83.7786 107.328 83.7786H117.418C119.046 83.7786 120.371 82.4539 120.371 80.8255V78.9538C120.371 77.3254 119.046 76.0007 117.418 76.0007ZM118.402 80.8255C118.402 81.3682 117.961 81.8099 117.418 81.8099H107.328C106.785 81.8099 106.344 81.3682 106.344 80.8255V78.9538C106.344 78.4112 106.785 77.9695 107.328 77.9695H117.418C117.961 77.9695 118.402 78.4112 118.402 78.9538V80.8255ZM117.418 64.1209H90.8398C89.2114 64.1209 87.8867 65.4456 87.8867 67.0741V68.9457C87.8867 70.5742 89.2114 71.8988 90.8398 71.8988H117.418C119.046 71.8988 120.371 70.5742 120.371 68.9457V67.0741C120.371 65.4456 119.046 64.1209 117.418 64.1209ZM118.402 68.9457C118.402 69.4884 117.961 69.9301 117.418 69.9301H90.8398C90.2972 69.9301 89.8555 69.4884 89.8555 68.9457V67.0741C89.8555 66.5314 90.2972 66.0897 90.8398 66.0897H117.418C117.961 66.0897 118.402 66.5314 118.402 67.0741V68.9457ZM66.9688 68.9457C66.9688 70.5742 68.2934 71.8988 69.9219 71.8988H80.0117C81.6402 71.8988 82.9648 70.5742 82.9648 68.9457V67.0741C82.9648 65.4456 81.6402 64.1209 80.0117 64.1209H69.9219C68.2934 64.1209 66.9688 65.4456 66.9688 67.0741V68.9457ZM68.9375 67.0741C68.9375 66.5314 69.3792 66.0897 69.9219 66.0897H80.0117C80.5544 66.0897 80.9961 66.5314 80.9961 67.0741V68.9457C80.9961 69.4884 80.5544 69.9301 80.0117 69.9301H69.9219C69.3792 69.9301 68.9375 69.4884 68.9375 68.9457V67.0741ZM9.62891 92.7048C9.62891 94.3333 10.9536 95.6579 12.582 95.6579H35.5918C37.2202 95.6579 38.5449 94.3333 38.5449 92.7048V90.8332C38.5449 89.2047 37.2202 87.88 35.5918 87.88H12.582C10.9536 87.88 9.62891 89.2047 9.62891 90.8332V92.7048ZM11.5977 90.8332C11.5977 90.2905 12.0394 89.8488 12.582 89.8488H35.5918C36.1345 89.8488 36.5762 90.2905 36.5762 90.8332V92.7048C36.5762 93.2475 36.1345 93.6892 35.5918 93.6892H12.582C12.0394 93.6892 11.5977 93.2475 11.5977 92.7048V90.8332ZM43.4668 90.8332V92.7048C43.4668 94.3333 44.7915 95.6579 46.4199 95.6579H83.5801C85.2085 95.6579 86.5332 94.3333 86.5332 92.7048V90.8332C86.5332 89.2047 85.2085 87.88 83.5801 87.88H46.4199C44.7915 87.88 43.4668 89.2047 43.4668 90.8332ZM84.5645 90.8332V92.7048C84.5645 93.2475 84.1227 93.6892 83.5801 93.6892H46.4199C45.8773 93.6892 45.4355 93.2475 45.4355 92.7048V90.8332C45.4355 90.2905 45.8773 89.8488 46.4199 89.8488H83.5801C84.1227 89.8488 84.5645 90.2905 84.5645 90.8332ZM117.418 87.88H94.4082C92.7798 87.88 91.4551 89.2047 91.4551 90.8332V92.7048C91.4551 94.3333 92.7798 95.6579 94.4082 95.6579H117.418C119.046 95.6579 120.371 94.3333 120.371 92.7048V90.8332C120.371 89.2047 119.046 87.88 117.418 87.88ZM118.402 92.7048C118.402 93.2475 117.961 93.6892 117.418 93.6892H94.4082C93.8655 93.6892 93.4238 93.2475 93.4238 92.7048V90.8332C93.4238 90.2905 93.8655 89.8488 94.4082 89.8488H117.418C117.961 89.8488 118.402 90.2905 118.402 90.8332V92.7048ZM59.5859 99.7593H29.8807C28.2522 99.7593 26.9276 101.084 26.9276 102.712V104.584C26.9276 106.213 28.2522 107.537 29.8807 107.537H59.5859C61.2144 107.537 62.5391 106.213 62.5391 104.584V102.712C62.5391 101.084 61.2144 99.7593 59.5859 99.7593ZM60.5703 104.584C60.5703 105.127 60.1286 105.568 59.5859 105.568H29.8807C29.338 105.568 28.8963 105.127 28.8963 104.584V102.712C28.8963 102.17 29.338 101.728 29.8807 101.728H59.5859C60.1286 101.728 60.5703 102.17 60.5703 102.712V104.584ZM100.119 99.7593H70.4141C68.7856 99.7593 67.4609 101.084 67.4609 102.712V104.584C67.4609 106.213 68.7856 107.537 70.4141 107.537H100.119C101.748 107.537 103.072 106.213 103.072 104.584V102.712C103.072 101.084 101.748 99.7593 100.119 99.7593ZM101.104 104.584C101.104 105.127 100.662 105.568 100.119 105.568H70.4141C69.8714 105.568 69.4297 105.127 69.4297 104.584V102.712C69.4297 102.17 69.8714 101.728 70.4141 101.728H100.119C100.662 101.728 101.104 102.17 101.104 102.712V104.584ZM19.0526 99.7593H12.582C10.9536 99.7593 9.62891 101.084 9.62891 102.712V104.584C9.62891 106.213 10.9536 107.537 12.582 107.537H19.0526C20.681 107.537 22.0057 106.213 22.0057 104.584V102.712C22.0057 101.084 20.681 99.7593 19.0526 99.7593ZM20.0369 104.584C20.0369 105.127 19.5952 105.568 19.0526 105.568H12.582C12.0394 105.568 11.5977 105.127 11.5977 104.584V102.712C11.5977 102.17 12.0394 101.728 12.582 101.728H19.0526C19.5952 101.728 20.0369 102.17 20.0369 102.712V104.584ZM117.418 99.7593H110.947C109.319 99.7593 107.994 101.084 107.994 102.712V104.584C107.994 106.213 109.319 107.537 110.947 107.537H117.418C119.046 107.537 120.371 106.213 120.371 104.584V102.712C120.371 101.084 119.046 99.7593 117.418 99.7593ZM118.402 104.584C118.402 105.127 117.961 105.568 117.418 105.568H110.947C110.405 105.568 109.963 105.127 109.963 104.584V102.712C109.963 102.17 110.405 101.728 110.947 101.728H117.418C117.961 101.728 118.402 102.17 118.402 102.712V104.584ZM122.34 24.6094C122.34 25.153 121.899 25.5938 121.355 25.5938H75.2513L65.696 35.1492C65.5114 35.3337 65.261 35.4375 65 35.4375H8.64453C8.10091 35.4375 7.66016 34.9968 7.66016 34.4532C7.66016 33.9095 8.10091 33.4688 8.64453 33.4688H64.5924L74.1478 23.9134C74.3323 23.7289 74.5828 23.625 74.8438 23.625H121.355C121.899 23.625 122.34 24.0658 122.34 24.6094Z" fill="#6D06B0"/>
</svg>
