<svg width="520" height="746" viewBox="0 0 520 746" fill="none" xmlns="http://www.w3.org/2000/svg">
<mask id="mask0_59_4" style="mask-type:alpha" maskUnits="userSpaceOnUse" x="0" y="0" width="556" height="746">
<g clip-path="url(#clip0_59_4)">
<path fill-rule="evenodd" clip-rule="evenodd" d="M277.839 567.73L0 745.07H555.678L277.839 567.73Z" fill="#644790"/>
<path fill-rule="evenodd" clip-rule="evenodd" d="M277.839 462.116L0 639.455L277.839 0.0695801L555.678 639.455L277.839 462.116Z" fill="#644790"/>
</g>
</mask>
<g mask="url(#mask0_59_4)">
<line x1="177.755" y1="-162.284" x2="862.941" y2="522.902" stroke="#291237" stroke-opacity="0.4"/>
<line x1="163.613" y1="-148.142" x2="848.799" y2="537.045" stroke="#291237" stroke-opacity="0.4"/>
<line x1="149.47" y1="-134" x2="834.657" y2="551.187" stroke="#291237" stroke-opacity="0.4"/>
<line x1="135.328" y1="-119.857" x2="820.515" y2="565.329" stroke="#291237" stroke-opacity="0.4"/>
<line x1="121.186" y1="-105.715" x2="806.373" y2="579.471" stroke="#291237" stroke-opacity="0.4"/>
<line x1="107.044" y1="-91.5733" x2="792.231" y2="593.613" stroke="#291237" stroke-opacity="0.4"/>
<line x1="92.902" y1="-77.4312" x2="778.089" y2="607.755" stroke="#291237" stroke-opacity="0.4"/>
<line x1="78.7598" y1="-63.2891" x2="763.946" y2="621.897" stroke="#291237" stroke-opacity="0.4"/>
<line x1="64.6177" y1="-49.1468" x2="749.804" y2="636.04" stroke="#291237" stroke-opacity="0.4"/>
<line x1="50.4756" y1="-35.0047" x2="735.662" y2="650.182" stroke="#291237" stroke-opacity="0.4"/>
<line x1="36.3334" y1="-20.8626" x2="721.52" y2="664.324" stroke="#291237" stroke-opacity="0.4"/>
<line x1="22.1912" y1="-6.7205" x2="707.378" y2="678.466" stroke="#291237" stroke-opacity="0.4"/>
<line x1="8.04911" y1="7.42184" x2="693.236" y2="692.608" stroke="#291237" stroke-opacity="0.4"/>
<line x1="-6.09298" y1="21.5639" x2="679.094" y2="706.75" stroke="#291237" stroke-opacity="0.4"/>
<line x1="-20.2352" y1="35.706" x2="664.951" y2="720.892" stroke="#291237" stroke-opacity="0.4"/>
<line x1="-34.3773" y1="49.8481" x2="650.809" y2="735.035" stroke="#291237" stroke-opacity="0.4"/>
<line x1="-48.5195" y1="63.9902" x2="636.667" y2="749.177" stroke="#291237" stroke-opacity="0.4"/>
<line x1="-62.6616" y1="78.1325" x2="622.525" y2="763.319" stroke="#291237" stroke-opacity="0.4"/>
<line x1="-76.8037" y1="92.2746" x2="608.383" y2="777.461" stroke="#291237" stroke-opacity="0.4"/>
<line x1="-90.9459" y1="106.417" x2="594.241" y2="791.603" stroke="#291237" stroke-opacity="0.4"/>
<line x1="-105.088" y1="120.559" x2="580.099" y2="805.745" stroke="#291237" stroke-opacity="0.4"/>
<line x1="-119.23" y1="134.701" x2="565.956" y2="819.887" stroke="#291237" stroke-opacity="0.4"/>
<line x1="-133.372" y1="148.843" x2="551.814" y2="834.03" stroke="#291237" stroke-opacity="0.4"/>
<line x1="-147.514" y1="162.985" x2="537.672" y2="848.172" stroke="#291237" stroke-opacity="0.4"/>
<line x1="-161.657" y1="177.127" x2="523.53" y2="862.314" stroke="#291237" stroke-opacity="0.4"/>
<line x1="-175.799" y1="191.269" x2="509.388" y2="876.456" stroke="#291237" stroke-opacity="0.4"/>
<line x1="-189.941" y1="205.412" x2="495.246" y2="890.598" stroke="#291237" stroke-opacity="0.4"/>
<line x1="-204.083" y1="219.554" x2="481.103" y2="904.74" stroke="#291237" stroke-opacity="0.4"/>
<line x1="-218.225" y1="233.696" x2="466.961" y2="918.882" stroke="#291237" stroke-opacity="0.4"/>
<line x1="-232.367" y1="247.838" x2="452.819" y2="933.025" stroke="#291237" stroke-opacity="0.4"/>
<line x1="-246.509" y1="261.98" x2="438.677" y2="947.167" stroke="#291237" stroke-opacity="0.4"/>
<line x1="-260.651" y1="276.122" x2="424.535" y2="961.309" stroke="#291237" stroke-opacity="0.4"/>
<line x1="-274.794" y1="290.264" x2="410.393" y2="975.451" stroke="#291237" stroke-opacity="0.4"/>
<line x1="-288.936" y1="304.407" x2="396.251" y2="989.593" stroke="#291237" stroke-opacity="0.4"/>
<line x1="-303.078" y1="318.549" x2="382.109" y2="1003.74" stroke="#291237" stroke-opacity="0.4"/>
<line x1="-317.22" y1="332.691" x2="367.966" y2="1017.88" stroke="#291237" stroke-opacity="0.4"/>
<line x1="-331.362" y1="346.833" x2="353.824" y2="1032.02" stroke="#291237" stroke-opacity="0.4"/>
<line x1="-345.504" y1="360.975" x2="339.682" y2="1046.16" stroke="#291237" stroke-opacity="0.4"/>
<line x1="-359.646" y1="375.117" x2="325.54" y2="1060.3" stroke="#291237" stroke-opacity="0.4"/>
</g>
<defs>
<clipPath id="clip0_59_4">
<rect width="556" height="745" fill="white" transform="translate(0 0.0695801)"/>
</clipPath>
</defs>
</svg>
