<svg width="131" height="128" viewBox="0 0 131 128" fill="none" xmlns="http://www.w3.org/2000/svg">
<path d="M22.3053 103.751C22.3053 94.4613 26.0139 87.435 30.4887 79.4797C31.155 78.2953 32.7453 77.803 33.3715 76.5969C33.6783 76.0061 41.085 65.7382 41.5084 67.8555C41.7451 69.0389 39.3899 72.8407 41.1365 71.4823C44.265 69.049 46.7838 65.8146 49.9243 63.3919C54.637 59.7564 51.169 67.0346 50.1103 68.7855C49.3276 70.0799 47.6794 72.6076 50.2963 70.7383C53.8197 68.2216 56.7078 63.8773 59.0376 60.2766C59.7754 59.1364 65.7332 50.9503 65.7332 51.5352C65.7332 55.7428 61.6415 59.4706 61.6415 63.5779C61.6415 64.1645 63.7395 61.5766 64.1523 61.253C66.5828 59.348 69.0628 57.4868 71.4987 55.5804C73.7786 53.7962 78.9318 51.5184 77.1713 56.0454C75.49 60.3689 73.1976 65.2384 78.8917 61.0205C85.7588 55.9338 92.6876 50.7421 99.3037 45.3512C110.888 35.9125 92.1483 63.0437 93.5381 56.7894C95.1529 49.5228 102.056 43.0162 107.301 38.3767C111.767 34.4262 103.151 39.1408 102.001 39.9576C98.1708 42.6754 93.4357 47.5328 88.4235 47.676C85.3338 47.7643 85.9127 46.4099 85.9127 43.8168C85.9127 40.7355 86.5329 36.9597 85.8662 33.9595C85.3929 31.8297 79.8878 34.3902 79.2172 35.3079C78.1493 36.7692 74.2812 40.9132 78.5662 38.2837C81.1612 36.6913 83.0433 34.5202 84.8898 32.1462C85.7015 31.1025 87.8288 30.5133 88.3305 29.6353C88.7389 28.9206 88.4235 34.7808 88.4235 36.3309C88.4235 40.5665 90.8741 39.3908 94.4681 38.6557C96.9479 38.1485 101.855 35.2655 104.139 35.4939C106.776 35.7576 95.6465 52.5051 95.212 53.1161C92.6583 56.7073 90.7474 60.2312 87.7261 63.4849C85.8897 65.4625 85.6892 66.7297 88.4235 65.2517C93.434 62.5433 97.2689 55.2085 103.442 55.2085C106.747 55.2085 94.8106 69.5342 93.3986 71.0638C89.8055 74.9564 86.0057 79.0002 81.821 82.2695C79.8034 83.8457 78.3591 85.8988 80.8911 83.2924C83.3555 80.7555 84.2534 75.296 87.7726 73.8071C88.2511 73.6046 90.8749 71.7465 91.2133 72.1332C91.621 72.5992 85.4257 78.2929 85.0292 78.6893C82.7086 81.0099 72.8008 93.5682 68.8484 91.9873C67.8989 91.6075 77.1291 85.0672 77.1713 84.6873C77.2437 84.0362 66.6649 90.4519 66.0121 90.8249C62.0872 93.0677 57.0241 96.1097 52.5281 97.0089C50.4863 97.4173 56.909 96.9644 58.6657 95.8465C62.3868 93.4785 56.6661 97.8951 55.7829 98.7293C55.0834 99.3899 49.1876 102.163 51.4122 102.077C57.2249 101.853 64.0525 97.6799 68.7554 94.5446C71.5424 92.6866 73.825 90.6563 76.2879 88.686C78.3008 87.0757 71.3014 86.8537 70.8478 86.6402C63.0742 82.982 51.2584 76.048 47.46 68.1345C45.5729 64.2032 46.5342 62.4965 48.6224 59.8116C49.3232 58.9106 52.8263 51.6138 52.0632 51.2098C49.8371 50.0312 42.1554 57.1362 40.067 58.5562C38.5713 59.5733 40.2388 59.0379 40.904 58.5562C44.4128 56.0154 45.4375 52.5063 46.995 48.6989C47.8927 46.5047 49.4832 44.3283 46.1581 44.3283C43.3081 44.3283 42.8371 47.135 40.718 48.327C37.8663 49.931 46.1236 44.4515 48.0644 41.8175C48.9986 40.5497 50.8542 38.0047 50.8542 38.0047C50.8542 38.0047 48.0153 41.0881 46.6231 42.6544C44.9707 44.5133 43.6703 46.0021 41.1365 46.0021C38.3041 46.0021 40.1145 52.139 41.3689 53.3486C45.6165 57.4445 54.8756 55.9803 60.1536 56.0454C64.4389 56.0983 72.4037 55.9535 75.4045 59.8116C76.4767 61.1902 77.6568 64.0425 78.3802 65.6702C79.8222 68.9147 82.2544 71.8818 84.2388 74.83C85.9126 77.3169 89.3385 82.5282 91.7713 78.2708C92.3144 77.3203 94.6482 81.729 94.2821 82.8275" stroke="#E7D7FF" stroke-width="43.9535" stroke-linecap="round"/>
<path d="M103.962 14H26.0376C23.8114 14 22 15.8087 22 18.0316V111.968C22 114.191 23.8114 116 26.0376 116H103.962C106.189 116 108 114.191 108 111.968V18.0316C108 15.8087 106.189 14 103.962 14ZM106.385 111.968C106.385 113.302 105.298 114.387 103.962 114.387H26.0376C24.7017 114.387 23.615 113.302 23.615 111.968V18.0316C23.615 16.6977 24.7017 15.6126 26.0376 15.6126H103.962C105.298 15.6126 106.385 16.6977 106.385 18.0316V111.968ZM103.962 24.6862C103.962 25.1314 103.601 25.4925 103.155 25.4925H81.4846L73.6461 33.3195C73.4946 33.4707 73.2892 33.5557 73.0751 33.5557H26.8451C26.3991 33.5557 26.0376 33.1947 26.0376 32.7494C26.0376 32.3041 26.3991 31.9431 26.8451 31.9431H72.7408L80.5793 24.1161C80.7307 23.9649 80.9361 23.8798 81.1502 23.8798H103.155C103.601 23.8798 103.962 24.2409 103.962 24.6862ZM28.4601 27.1028H37.0935C38.4294 27.1028 39.5161 26.0177 39.5161 24.6838V22.8696C39.5161 21.5357 38.4294 20.4506 37.0935 20.4506H28.4601C27.1242 20.4506 26.0376 21.5357 26.0376 22.8696V24.6838C26.0376 26.0177 27.1242 27.1028 28.4601 27.1028ZM27.6526 22.8696C27.6526 22.4251 28.0149 22.0632 28.4601 22.0632H37.0935C37.5387 22.0632 37.901 22.4251 37.901 22.8696V24.6838C37.901 25.1283 37.5387 25.4901 37.0935 25.4901H28.4601C28.0149 25.4901 27.6526 25.1283 27.6526 24.6838V22.8696ZM44.7602 27.1028H53.3936C54.7295 27.1028 55.8161 26.0177 55.8161 24.6838V22.8696C55.8161 21.5357 54.7295 20.4506 53.3936 20.4506H44.7602C43.4243 20.4506 42.3376 21.5357 42.3376 22.8696V24.6838C42.3376 26.0177 43.4243 27.1028 44.7602 27.1028ZM43.9527 22.8696C43.9527 22.4251 44.315 22.0632 44.7602 22.0632H53.3936C53.8388 22.0632 54.2011 22.4251 54.2011 22.8696V24.6838C54.2011 25.1283 53.8388 25.4901 53.3936 25.4901H44.7602C44.315 25.4901 43.9527 25.1283 43.9527 24.6838V22.8696ZM61.0602 27.1028H69.6937C71.0295 27.1028 72.1162 26.0177 72.1162 24.6838V22.8696C72.1162 21.5357 71.0295 20.4506 69.6937 20.4506H61.0602C59.7244 20.4506 58.6377 21.5357 58.6377 22.8696V24.6838C58.6377 26.0177 59.7244 27.1028 61.0602 27.1028ZM60.2527 22.8696C60.2527 22.4251 60.6151 22.0632 61.0602 22.0632H69.6937C70.1388 22.0632 70.5012 22.4251 70.5012 22.8696V24.6838C70.5012 25.1283 70.1388 25.4901 69.6937 25.4901H61.0602C60.6151 25.4901 60.2527 25.1283 60.2527 24.6838V22.8696ZM99.0701 37.585H30.9299C29.1229 37.585 27.6526 39.0531 27.6526 40.8575V59.3108C27.6526 61.1152 29.1229 62.5834 30.9299 62.5834H99.0701C100.877 62.5834 102.347 61.1152 102.347 59.3108V40.8575C102.347 39.0531 100.877 37.585 99.0701 37.585ZM30.9299 39.1976H99.0701C99.9868 39.1976 100.732 39.9421 100.732 40.8575V54.1855L86.4551 46.5986C85.1042 45.8817 83.4754 45.8463 82.095 46.5022L65 54.6347L47.905 46.5022C46.5246 45.8455 44.8942 45.8817 43.545 46.5986L29.2676 54.1855V40.8575C29.2676 39.9421 30.0132 39.1976 30.9299 39.1976ZM99.0701 60.9707H30.9299C30.0132 60.9707 29.2676 60.2262 29.2676 59.3109V56.0123L44.3036 48.0223C45.2037 47.5447 46.2912 47.5207 47.2103 47.9581L64.6526 56.256C64.8727 56.3608 65.1274 56.3608 65.3474 56.256L82.7897 47.9581C83.71 47.5207 84.7971 47.5447 85.6964 48.0223L100.732 56.0123V59.3109C100.732 60.2262 99.9868 60.9707 99.0701 60.9707ZM46.7837 66.615H30.9299C29.1229 66.615 27.6526 68.0832 27.6526 69.8876V87.129C27.6526 88.9334 29.1229 90.4016 30.9299 90.4016H46.7837C48.5907 90.4016 50.061 88.9334 50.061 87.129V69.8876C50.061 68.0832 48.5907 66.615 46.7837 66.615ZM48.446 87.129C48.446 88.0444 47.7004 88.7889 46.7837 88.7889H30.9299C30.0132 88.7889 29.2676 88.0444 29.2676 87.129V69.8876C29.2676 68.9722 30.0132 68.2277 30.9299 68.2277H46.7837C47.7004 68.2277 48.446 68.9722 48.446 69.8876V87.129ZM72.9269 66.615H57.0731C55.2661 66.615 53.7958 68.0832 53.7958 69.8876V87.129C53.7958 88.9334 55.2661 90.4016 57.0731 90.4016H72.9269C74.7339 90.4016 76.2042 88.9334 76.2042 87.129V69.8876C76.2042 68.0832 74.7339 66.615 72.9269 66.615ZM74.5892 87.129C74.5892 88.0444 73.8436 88.7889 72.9269 88.7889H57.0731C56.1564 88.7889 55.4108 88.0444 55.4108 87.129V69.8876C55.4108 68.9722 56.1564 68.2277 57.0731 68.2277H72.9269C73.8436 68.2277 74.5892 68.9722 74.5892 69.8876V87.129ZM99.0701 66.615H83.2163C81.4093 66.615 79.939 68.0832 79.939 69.8876V87.129C79.939 88.9334 81.4093 90.4016 83.2163 90.4016H99.0701C100.877 90.4016 102.347 88.9334 102.347 87.129V69.8876C102.347 68.0832 100.877 66.615 99.0701 66.615ZM100.732 87.129C100.732 88.0444 99.9868 88.7889 99.0701 88.7889H83.2163C82.2996 88.7889 81.554 88.0444 81.554 87.129V69.8876C81.554 68.9722 82.2996 68.2277 83.2163 68.2277H99.0701C99.9868 68.2277 100.732 68.9722 100.732 69.8876V87.129ZM46.7837 93.8285H30.9299C29.1229 93.8285 27.6526 95.2966 27.6526 97.101C27.6526 98.9054 29.1229 100.374 30.9299 100.374H46.7837C48.5907 100.374 50.061 98.9054 50.061 97.101C50.061 95.2966 48.5907 93.8285 46.7837 93.8285ZM46.7837 98.7609H30.9299C30.0132 98.7609 29.2676 98.0164 29.2676 97.101C29.2676 96.1856 30.0132 95.4411 30.9299 95.4411H46.7837C47.7004 95.4411 48.446 96.1856 48.446 97.101C48.446 98.0164 47.7004 98.7609 46.7837 98.7609ZM46.7837 103.811H30.9299C29.1229 103.811 27.6526 105.279 27.6526 107.083C27.6526 108.888 29.1229 110.356 30.9299 110.356H46.7837C48.5907 110.356 50.061 108.888 50.061 107.083C50.061 105.279 48.5907 103.811 46.7837 103.811ZM46.7837 108.743H30.9299C30.0132 108.743 29.2676 107.999 29.2676 107.083C29.2676 106.168 30.0132 105.423 30.9299 105.423H46.7837C47.7004 105.423 48.446 106.168 48.446 107.083C48.446 107.999 47.7004 108.743 46.7837 108.743ZM72.9269 93.8285H57.0731C55.2661 93.8285 53.7958 95.2966 53.7958 97.101C53.7958 98.9054 55.2661 100.374 57.0731 100.374H72.9269C74.7339 100.374 76.2042 98.9054 76.2042 97.101C76.2042 95.2966 74.7339 93.8285 72.9269 93.8285ZM72.9269 98.7609H57.0731C56.1564 98.7609 55.4108 98.0164 55.4108 97.101C55.4108 96.1856 56.1564 95.4411 57.0731 95.4411H72.9269C73.8436 95.4411 74.5892 96.1856 74.5892 97.101C74.5892 98.0164 73.8436 98.7609 72.9269 98.7609ZM72.9269 103.811H57.0731C55.2661 103.811 53.7958 105.279 53.7958 107.083C53.7958 108.888 55.2661 110.356 57.0731 110.356H72.9269C74.7339 110.356 76.2042 108.888 76.2042 107.083C76.2042 105.279 74.7339 103.811 72.9269 103.811ZM72.9269 108.743H57.0731C56.1564 108.743 55.4108 107.999 55.4108 107.083C55.4108 106.168 56.1564 105.423 57.0731 105.423H72.9269C73.8436 105.423 74.5892 106.168 74.5892 107.083C74.5892 107.999 73.8436 108.743 72.9269 108.743ZM99.0701 93.8285H83.2163C81.4093 93.8285 79.939 95.2966 79.939 97.101C79.939 98.9054 81.4093 100.374 83.2163 100.374H99.0701C100.877 100.374 102.347 98.9054 102.347 97.101C102.347 95.2966 100.877 93.8285 99.0701 93.8285ZM99.0701 98.7609H83.2163C82.2996 98.7609 81.554 98.0164 81.554 97.101C81.554 96.1856 82.2996 95.4411 83.2163 95.4411H99.0701C99.9868 95.4411 100.732 96.1856 100.732 97.101C100.732 98.0164 99.9868 98.7609 99.0701 98.7609ZM99.0701 103.811H83.2163C81.4093 103.811 79.939 105.279 79.939 107.083C79.939 108.888 81.4093 110.356 83.2163 110.356H99.0701C100.877 110.356 102.347 108.888 102.347 107.083C102.347 105.279 100.877 103.811 99.0701 103.811ZM99.0701 108.743H83.2163C82.2996 108.743 81.554 107.999 81.554 107.083C81.554 106.168 82.2996 105.423 83.2163 105.423H99.0701C99.9868 105.423 100.732 106.168 100.732 107.083C100.732 107.999 99.9868 108.743 99.0701 108.743ZM56.8314 56.1076C56.693 56.3978 56.4036 56.5671 56.102 56.5671C55.9853 56.5671 55.867 56.5419 55.755 56.4887L45.4738 51.5976C45.0713 51.4059 44.9005 50.9248 45.0922 50.5228C45.2838 50.12 45.7668 49.9507 46.1686 50.1417L56.4498 55.0328C56.8523 55.2245 57.0231 55.7056 56.8314 56.1076ZM91.0174 54.5036C90.808 54.8965 90.3191 55.0457 89.9252 54.8367L84.1587 51.7724L76.6719 55.3344C76.5599 55.3875 76.4416 55.4127 76.3249 55.4127C76.0232 55.4131 75.7338 55.2434 75.5954 54.9532C75.4038 54.5513 75.5745 54.0701 75.9771 53.8784L83.8314 50.1417C84.0629 50.0318 84.3326 50.0381 84.5581 50.1578L90.6838 53.413C91.0777 53.6221 91.2268 54.1107 91.0174 54.5036ZM79.9768 43.9375C79.7852 43.5356 79.9559 43.0544 80.3585 42.8627C82.8879 41.6587 85.875 41.7241 88.3508 43.0391C88.7443 43.2481 88.8938 43.7364 88.6844 44.1297C88.5393 44.4021 88.2597 44.5572 87.9707 44.5572C87.843 44.5572 87.7132 44.5269 87.5922 44.4627C85.5675 43.3875 83.1229 43.3336 81.0532 44.3186C80.6519 44.5088 80.1689 44.3399 79.9768 43.9375ZM41.3144 44.1301C41.1051 43.7371 41.2541 43.2485 41.648 43.0395C44.1238 41.7241 47.1121 41.6587 49.6419 42.8627L51.3094 43.656C51.7119 43.8474 51.8827 44.3289 51.691 44.7309C51.5526 45.021 51.2632 45.1903 50.9616 45.1903C50.8449 45.1907 50.727 45.1651 50.6146 45.112L48.9468 44.3186C46.8767 43.332 44.4313 43.3863 42.4066 44.4631C42.0127 44.6726 41.5238 44.5234 41.3144 44.1301ZM65 50.8905C67.6433 50.8905 69.7938 48.7428 69.7938 46.1034C69.7938 43.4639 67.6433 41.3166 65 41.3166C62.3567 41.3166 60.2062 43.4639 60.2062 46.1034C60.2062 48.7428 62.3567 50.8905 65 50.8905ZM65 42.9292C66.7526 42.9292 68.1788 44.3533 68.1788 46.1034C68.1788 47.8538 66.7526 49.2779 65 49.2779C63.2474 49.2779 61.8212 47.8538 61.8212 46.1034C61.8212 44.3533 63.2474 42.9292 65 42.9292Z" fill="#6D06B0"/>
</svg>
