<svg width="131" height="126" viewBox="0 0 131 126" fill="none" xmlns="http://www.w3.org/2000/svg">
<path d="M22.3053 101.751C22.3053 92.4613 26.0139 85.435 30.4887 77.4797C31.1549 76.2953 32.7453 75.803 33.3715 74.5969C33.6783 74.0061 41.0849 63.7382 41.5084 65.8555C41.7451 67.0389 39.3899 70.8407 41.1364 69.4823C44.2649 67.049 46.7838 63.8146 49.9243 61.3919C54.637 57.7564 51.1689 65.0346 50.1103 66.7855C49.3276 68.0799 47.6794 70.6076 50.2963 68.7383C53.8197 66.2216 56.7078 61.8773 59.0376 58.2766C59.7754 57.1364 65.7331 48.9503 65.7331 49.5352C65.7331 53.7428 61.6414 57.4706 61.6414 61.5779C61.6414 62.1645 63.7394 59.5766 64.1522 59.253C66.5828 57.348 69.0628 55.4868 71.4987 53.5804C73.7785 51.7962 78.9318 49.5184 77.1713 54.0454C75.4899 58.3689 73.1976 63.2384 78.8917 59.0205C85.7587 53.9338 92.6876 48.7421 99.3037 43.3512C110.888 33.9125 92.1482 61.0437 93.5381 54.7894C95.1529 47.5228 102.056 41.0162 107.301 36.3767C111.767 32.4262 103.151 37.1408 102 37.9576C98.1708 40.6754 93.4357 45.5328 88.4235 45.676C85.3338 45.7643 85.9127 44.4099 85.9127 41.8168C85.9127 38.7355 86.5329 34.9597 85.8662 31.9595C85.3929 29.8297 79.8878 32.3902 79.2171 33.3079C78.1493 34.7692 74.2812 38.9132 78.5662 36.2837C81.1612 34.6913 83.0433 32.5202 84.8897 30.1462C85.7014 29.1025 87.8288 28.5133 88.3305 27.6353C88.7389 26.9206 88.4235 32.7808 88.4235 34.3309C88.4235 38.5665 90.8741 37.3908 94.468 36.6557C96.9478 36.1485 101.855 33.2655 104.139 33.4939C106.776 33.7576 95.6465 50.5051 95.212 51.1161C92.6583 54.7073 90.7473 58.2312 87.726 61.4849C85.8896 63.4625 85.6892 64.7297 88.4235 63.2517C93.434 60.5433 97.2689 53.2085 103.442 53.2085C106.747 53.2085 94.8106 67.5342 93.3986 69.0638C89.8054 72.9564 86.0057 77.0002 81.821 80.2695C79.8034 81.8457 78.3591 83.8988 80.891 81.2924C83.3555 78.7555 84.2534 73.296 87.7725 71.8071C88.2511 71.6046 90.8749 69.7465 91.2133 70.1332C91.6209 70.5992 85.4256 76.2929 85.0292 76.6893C82.7085 79.0099 72.8008 91.5682 68.8484 89.9873C67.8989 89.6075 77.1291 83.0672 77.1713 82.6873C77.2436 82.0362 66.6649 88.4519 66.0121 88.8249C62.0871 91.0677 57.0241 94.1097 52.5281 95.0089C50.4863 95.4173 56.909 94.9644 58.6656 93.8465C62.3867 91.4785 56.6661 95.8951 55.7829 96.7293C55.0834 97.3899 49.1876 100.163 51.4122 100.077C57.2248 99.8535 64.0525 95.6799 68.7554 92.5446C71.5424 90.6866 73.825 88.6563 76.2879 86.686C78.3008 85.0757 71.3014 84.8537 70.8478 84.6402C63.0742 80.982 51.2584 74.048 47.46 66.1345C45.5729 62.2032 46.5342 60.4965 48.6224 57.8116C49.3232 56.9106 52.8263 49.6138 52.0631 49.2098C49.837 48.0312 42.1553 55.1362 40.067 56.5562C38.5713 57.5733 40.2387 57.0379 40.9039 56.5562C44.4128 54.0154 45.4374 50.5063 46.995 46.6989C47.8926 44.5047 49.4832 42.3283 46.1581 42.3283C43.3081 42.3283 42.837 45.135 40.718 46.327C37.8663 47.931 46.1236 42.4515 48.0644 39.8175C48.9986 38.5497 50.8542 36.0047 50.8542 36.0047C50.8542 36.0047 48.0152 39.0881 46.623 40.6544C44.9707 42.5133 43.6702 44.0021 41.1364 44.0021C38.3041 44.0021 40.1145 50.139 41.3689 51.3486C45.6165 55.4445 54.8755 53.9803 60.1535 54.0454C64.4389 54.0983 72.4037 53.9535 75.4044 57.8116C76.4767 59.1902 77.6568 62.0425 78.3802 63.6702C79.8222 66.9147 82.2544 69.8818 84.2388 72.83C85.9126 75.3169 89.3384 80.5282 91.7712 76.2708C92.3143 75.3203 94.6482 79.729 94.282 80.8275" stroke="#E7D7FF" stroke-width="43.9535" stroke-linecap="round"/>
<path d="M122.34 11.5693H7.66016C4.94639 11.5693 2.73828 13.7774 2.73828 16.4912V109.509C2.73828 112.223 4.94639 114.431 7.66016 114.431H122.34C125.054 114.431 127.262 112.223 127.262 109.509V16.4912C127.262 13.7774 125.054 11.5693 122.34 11.5693ZM125.293 109.509C125.293 111.137 123.968 112.462 122.34 112.462H7.66016C6.0317 112.462 4.70703 111.137 4.70703 109.509V16.4912C4.70703 14.8628 6.0317 13.5381 7.66016 13.5381H122.34C123.968 13.5381 125.293 14.8628 125.293 16.4912V109.509ZM10.6133 27.5654H21.1376C22.7661 27.5654 24.0908 26.2408 24.0908 24.6123V22.3975C24.0908 20.769 22.7661 19.4443 21.1376 19.4443H10.6133C8.98483 19.4443 7.66016 20.769 7.66016 22.3975V24.6123C7.66016 26.2408 8.98483 27.5654 10.6133 27.5654ZM9.62891 22.3975C9.62891 21.8548 10.0706 21.4131 10.6133 21.4131H21.1376C21.6803 21.4131 22.122 21.8548 22.122 22.3975V24.6123C22.122 25.155 21.6803 25.5967 21.1376 25.5967H10.6133C10.0706 25.5967 9.62891 25.155 9.62891 24.6123V22.3975ZM30.4834 27.5654H41.0078C42.6362 27.5654 43.9609 26.2408 43.9609 24.6123V22.3975C43.9609 20.769 42.6362 19.4443 41.0078 19.4443H30.4834C28.855 19.4443 27.5303 20.769 27.5303 22.3975V24.6123C27.5303 26.2408 28.855 27.5654 30.4834 27.5654ZM29.4991 22.3975C29.4991 21.8548 29.9408 21.4131 30.4834 21.4131H41.0078C41.5504 21.4131 41.9922 21.8548 41.9922 22.3975V24.6123C41.9922 25.155 41.5504 25.5967 41.0078 25.5967H30.4834C29.9408 25.5967 29.4991 25.155 29.4991 24.6123V22.3975ZM50.3536 27.5654H60.8779C62.5064 27.5654 63.8311 26.2408 63.8311 24.6123V22.3975C63.8311 20.769 62.5064 19.4443 60.8779 19.4443H50.3536C48.7251 19.4443 47.4005 20.769 47.4005 22.3975V24.6123C47.4005 26.2408 48.7251 27.5654 50.3536 27.5654ZM49.3692 22.3975C49.3692 21.8548 49.8109 21.4131 50.3536 21.4131H60.8779C61.4206 21.4131 61.8623 21.8548 61.8623 22.3975V24.6123C61.8623 25.155 61.4206 25.5967 60.8779 25.5967H50.3536C49.8109 25.5967 49.3692 25.155 49.3692 24.6123V22.3975ZM117.418 40.3623H76.5664C74.938 40.3623 73.6133 41.687 73.6133 43.3154V51.2572C73.6133 52.8857 74.938 54.2104 76.5664 54.2104H117.418C119.046 54.2104 120.371 52.8857 120.371 51.2572V43.3154C120.371 41.687 119.046 40.3623 117.418 40.3623ZM118.402 51.2572C118.402 51.7999 117.961 52.2416 117.418 52.2416H76.5664C76.0233 52.2416 75.582 51.7999 75.582 51.2572V43.3154C75.582 42.7728 76.0233 42.3311 76.5664 42.3311H117.418C117.961 42.3311 118.402 42.7728 118.402 43.3154V51.2572ZM65.7383 83.8272H12.582C10.9536 83.8272 9.62891 85.1518 9.62891 86.7803V104.584C9.62891 106.213 10.9536 107.537 12.582 107.537H65.7383C67.3667 107.537 68.6914 106.213 68.6914 104.584V86.7803C68.6914 85.1518 67.3667 83.8272 65.7383 83.8272ZM66.7227 104.584C66.7227 105.127 66.2814 105.568 65.7383 105.568H12.582C12.0394 105.568 11.5977 105.127 11.5977 104.584V86.7803C11.5977 86.2376 12.0394 85.7959 12.582 85.7959H65.7383C66.2814 85.7959 66.7227 86.2376 66.7227 86.7803L66.7227 104.584ZM65.7383 40.3623H12.582C10.9536 40.3623 9.62891 41.687 9.62891 43.3154V77.9209C9.62891 79.5494 10.9536 80.8741 12.582 80.8741H65.7383C67.3667 80.8741 68.6914 79.5494 68.6914 77.9209V43.3154C68.6914 41.687 67.3667 40.3623 65.7383 40.3623ZM66.7227 77.9209C66.7227 78.4636 66.2814 78.9053 65.7383 78.9053H12.582C12.0394 78.9053 11.5977 78.4636 11.5977 77.9209V43.3154C11.5977 42.7728 12.0394 42.3311 12.582 42.3311H65.7383C66.2814 42.3311 66.7227 42.7728 66.7227 43.3154L66.7227 77.9209ZM76.5664 75.4009H88.898C90.5265 75.4009 91.8511 74.0762 91.8511 72.4477V60.1166C91.8511 58.4882 90.5265 57.1635 88.898 57.1635H76.5664C74.938 57.1635 73.6133 58.4882 73.6133 60.1166V72.4477C73.6133 74.0762 74.938 75.4009 76.5664 75.4009ZM75.582 60.1166C75.582 59.574 76.0233 59.1322 76.5664 59.1322H88.898C89.4412 59.1322 89.8824 59.574 89.8824 60.1166V72.4477C89.8824 72.9904 89.4412 73.4321 88.898 73.4321H76.5664C76.0233 73.4321 75.582 72.9904 75.582 72.4477V60.1166ZM117.418 57.1635H97.8535C96.2251 57.1635 94.9004 58.4882 94.9004 60.1166V64.3137C94.9004 65.9421 96.2251 67.2668 97.8535 67.2668H117.418C119.046 67.2668 120.371 65.9421 120.371 64.3137V60.1166C120.371 58.4882 119.046 57.1635 117.418 57.1635ZM118.402 64.3137C118.402 64.8563 117.961 65.298 117.418 65.298H97.8535C97.3104 65.298 96.8691 64.8563 96.8691 64.3137V60.1166C96.8691 59.574 97.3104 59.1322 97.8535 59.1322H117.418C117.961 59.1322 118.402 59.574 118.402 60.1166V64.3137ZM117.418 69.3653H97.8535C96.2251 69.3653 94.9004 70.69 94.9004 72.3184V72.4477C94.9004 74.0762 96.2251 75.4009 97.8535 75.4009H117.418C119.046 75.4009 120.371 74.0762 120.371 72.4477V72.3184C120.371 70.69 119.046 69.3653 117.418 69.3653ZM118.402 72.4477C118.402 72.9904 117.961 73.4321 117.418 73.4321H97.8535C97.3104 73.4321 96.8691 72.9904 96.8691 72.4477V72.3184C96.8691 71.7758 97.3104 71.3341 97.8535 71.3341H117.418C117.961 71.3341 118.402 71.7758 118.402 72.3184V72.4477ZM73.6133 93.6382C73.6133 95.2667 74.938 96.5914 76.5664 96.5914H88.898C90.5265 96.5914 91.8511 95.2667 91.8511 93.6382V81.3071C91.8511 79.6787 90.5265 78.354 88.898 78.354H76.5664C74.938 78.354 73.6133 79.6787 73.6133 81.3071V93.6382ZM75.582 81.3071C75.582 80.7645 76.0233 80.3227 76.5664 80.3227H88.898C89.4412 80.3227 89.8824 80.7645 89.8824 81.3071V93.6382C89.8824 94.1809 89.4412 94.6226 88.898 94.6226H76.5664C76.0233 94.6226 75.582 94.1809 75.582 93.6382V81.3071ZM117.418 78.354H97.8535C96.2251 78.354 94.9004 79.6787 94.9004 81.3071V85.5037C94.9004 87.1321 96.2251 88.4568 97.8535 88.4568H117.418C119.046 88.4568 120.371 87.1321 120.371 85.5037V81.3071C120.371 79.6787 119.046 78.354 117.418 78.354ZM118.402 85.5037C118.402 86.0463 117.961 86.4881 117.418 86.4881H97.8535C97.3104 86.4881 96.8691 86.0463 96.8691 85.5037V81.3071C96.8691 80.7645 97.3104 80.3227 97.8535 80.3227H117.418C117.961 80.3227 118.402 80.7645 118.402 81.3071V85.5037ZM117.418 90.5553H97.8535C96.2251 90.5553 94.9004 91.88 94.9004 93.5085V93.6382C94.9004 95.2667 96.2251 96.5914 97.8535 96.5914H117.418C119.046 96.5914 120.371 95.2667 120.371 93.6382V93.5085C120.371 91.88 119.046 90.5553 117.418 90.5553ZM118.402 93.6382C118.402 94.1809 117.961 94.6226 117.418 94.6226H97.8535C97.3104 94.6226 96.8691 94.1809 96.8691 93.6382V93.5085C96.8691 92.9658 97.3104 92.5241 97.8535 92.5241H117.418C117.961 92.5241 118.402 92.9658 118.402 93.5085V93.6382ZM117.418 99.5445H76.5664C74.938 99.5445 73.6133 100.869 73.6133 102.498V104.584C73.6133 106.213 74.938 107.537 76.5664 107.537H117.418C119.046 107.537 120.371 106.213 120.371 104.584V102.498C120.371 100.869 119.046 99.5445 117.418 99.5445ZM118.402 104.584C118.402 105.127 117.961 105.569 117.418 105.569H76.5664C76.0233 105.569 75.582 105.127 75.582 104.584V102.498C75.582 101.955 76.0233 101.513 76.5664 101.513H117.418C117.961 101.513 118.402 101.955 118.402 102.498V104.584ZM122.34 24.6094C122.34 25.153 121.9 25.5938 121.355 25.5938H75.2513L65.696 35.1492C65.5114 35.3337 65.261 35.4375 65 35.4375H8.64453C8.10091 35.4375 7.66016 34.9968 7.66016 34.4532C7.66016 33.9095 8.10091 33.4688 8.64453 33.4688H64.5924L74.1478 23.9134C74.3323 23.7289 74.5823 23.625 74.8438 23.625H121.355C121.9 23.625 122.34 24.0658 122.34 24.6094Z" fill="#6D06B0"/>
</svg>
