<svg width="131" height="119" viewBox="0 0 131 119" fill="none" xmlns="http://www.w3.org/2000/svg">
<path d="M22.3053 96.7509C22.3053 87.4613 26.0139 80.435 30.4887 72.4797C31.155 71.2953 32.7453 70.803 33.3715 69.5969C33.6783 69.0061 41.085 58.7382 41.5084 60.8555C41.7451 62.0389 39.3899 65.8407 41.1365 64.4823C44.265 62.049 46.7838 58.8146 49.9243 56.3919C54.637 52.7564 51.169 60.0346 50.1103 61.7855C49.3276 63.0799 47.6794 65.6076 50.2963 63.7383C53.8197 61.2216 56.7078 56.8773 59.0376 53.2766C59.7754 52.1364 65.7332 43.9503 65.7332 44.5352C65.7332 48.7428 61.6415 52.4706 61.6415 56.5779C61.6415 57.1645 63.7395 54.5766 64.1523 54.253C66.5828 52.348 69.0628 50.4868 71.4987 48.5804C73.7786 46.7962 78.9318 44.5184 77.1713 49.0454C75.49 53.3689 73.1976 58.2384 78.8917 54.0205C85.7588 48.9338 92.6876 43.7421 99.3037 38.3512C110.888 28.9125 92.1483 56.0437 93.5381 49.7894C95.1529 42.5228 102.056 36.0162 107.301 31.3767C111.767 27.4262 103.151 32.1408 102.001 32.9576C98.1708 35.6754 93.4357 40.5328 88.4235 40.676C85.3338 40.7643 85.9127 39.4099 85.9127 36.8168C85.9127 33.7355 86.5329 29.9597 85.8662 26.9595C85.3929 24.8297 79.8878 27.3902 79.2172 28.3079C78.1493 29.7692 74.2812 33.9132 78.5662 31.2837C81.1612 29.6913 83.0433 27.5202 84.8898 25.1462C85.7015 24.1025 87.8288 23.5133 88.3305 22.6353C88.7389 21.9206 88.4235 27.7808 88.4235 29.3309C88.4235 33.5665 90.8741 32.3908 94.4681 31.6557C96.9479 31.1485 101.855 28.2655 104.139 28.4939C106.776 28.7576 95.6465 45.5051 95.212 46.1161C92.6583 49.7073 90.7474 53.2312 87.7261 56.4849C85.8897 58.4625 85.6892 59.7297 88.4235 58.2517C93.434 55.5433 97.2689 48.2085 103.442 48.2085C106.747 48.2085 94.8106 62.5342 93.3986 64.0638C89.8055 67.9564 86.0057 72.0002 81.821 75.2695C79.8034 76.8457 78.3591 78.8988 80.8911 76.2924C83.3555 73.7555 84.2534 68.296 87.7726 66.8071C88.2511 66.6046 90.8749 64.7465 91.2133 65.1332C91.621 65.5992 85.4257 71.2929 85.0292 71.6893C82.7086 74.0099 72.8008 86.5682 68.8484 84.9873C67.8989 84.6075 77.1291 78.0672 77.1713 77.6873C77.2437 77.0362 66.6649 83.4519 66.0121 83.8249C62.0872 86.0677 57.0241 89.1097 52.5281 90.0089C50.4863 90.4173 56.909 89.9644 58.6657 88.8465C62.3868 86.4785 56.6661 90.8951 55.7829 91.7293C55.0834 92.3899 49.1876 95.1626 51.4122 95.0771C57.2249 94.8535 64.0525 90.6799 68.7554 87.5446C71.5424 85.6866 73.825 83.6563 76.2879 81.686C78.3008 80.0757 71.3014 79.8537 70.8478 79.6402C63.0742 75.982 51.2584 69.048 47.46 61.1345C45.5729 57.2032 46.5342 55.4965 48.6224 52.8116C49.3232 51.9106 52.8263 44.6138 52.0632 44.2098C49.8371 43.0312 42.1554 50.1362 40.067 51.5562C38.5713 52.5733 40.2388 52.0379 40.904 51.5562C44.4128 49.0154 45.4375 45.5063 46.995 41.6989C47.8927 39.5047 49.4832 37.3283 46.1581 37.3283C43.3081 37.3283 42.8371 40.135 40.718 41.327C37.8663 42.931 46.1236 37.4515 48.0644 34.8175C48.9986 33.5497 50.8542 31.0047 50.8542 31.0047C50.8542 31.0047 48.0153 34.0881 46.6231 35.6544C44.9707 37.5133 43.6703 39.0021 41.1365 39.0021C38.3041 39.0021 40.1145 45.139 41.3689 46.3486C45.6165 50.4445 54.8756 48.9803 60.1536 49.0454C64.4389 49.0983 72.4037 48.9535 75.4045 52.8116C76.4767 54.1902 77.6568 57.0425 78.3802 58.6702C79.8222 61.9147 82.2544 64.8818 84.2388 67.83C85.9126 70.3169 89.3385 75.5282 91.7713 71.2708C92.3144 70.3203 94.6482 74.729 94.2821 75.8275" stroke="#E7D7FF" stroke-width="43.9535" stroke-linecap="round"/>
<path d="M116.391 10.6719V87.4452C116.391 89.6851 114.568 91.5077 112.328 91.5077H93.3566C92.9075 91.5077 92.5441 91.1439 92.5441 90.6952C92.5441 90.2465 92.9075 89.8827 93.3566 89.8827H112.328C113.672 89.8827 114.766 88.7893 114.766 87.4452V10.6719C114.766 9.32776 113.672 8.23438 112.328 8.23438H17.6719C16.3278 8.23438 15.2344 9.32776 15.2344 10.6719V87.4452C15.2344 88.7893 16.3278 89.8827 17.6719 89.8827H36.6438C37.0925 89.8827 37.4563 90.2465 37.4563 90.6952C37.4563 91.1439 37.0925 91.5077 36.6438 91.5077H17.6719C15.4319 91.5077 13.6094 89.6851 13.6094 87.4452V10.6719C13.6094 8.43194 15.4319 6.60938 17.6719 6.60938H112.328C114.568 6.60938 116.391 8.43194 116.391 10.6719ZM17.6719 17.3726V15.5445C17.6719 14.2004 18.7653 13.107 20.1094 13.107H28.7961C30.1403 13.107 31.2336 14.2004 31.2336 15.5445V17.3726C31.2336 18.7167 30.1403 19.8101 28.7961 19.8101H20.1094C18.7653 19.8101 17.6719 18.7167 17.6719 17.3726ZM19.2969 17.3726C19.2969 17.8205 19.6615 18.1851 20.1094 18.1851H28.7961C29.2441 18.1851 29.6086 17.8205 29.6086 17.3726V15.5445C29.6086 15.0966 29.2441 14.732 28.7961 14.732H20.1094C19.6615 14.732 19.2969 15.0966 19.2969 15.5445V17.3726ZM36.5101 19.8101C35.166 19.8101 34.0726 18.7167 34.0726 17.3726V15.5445C34.0726 14.2004 35.166 13.107 36.5101 13.107H45.1969C46.541 13.107 47.6344 14.2004 47.6344 15.5445V17.3726C47.6344 18.7167 46.541 19.8101 45.1969 19.8101H36.5101ZM36.5101 18.1851H45.1969C45.6448 18.1851 46.0094 17.8205 46.0094 17.3726V15.5445C46.0094 15.0966 45.6448 14.732 45.1969 14.732H36.5101C36.0622 14.732 35.6976 15.0966 35.6976 15.5445V17.3726C35.6976 17.8205 36.0622 18.1851 36.5101 18.1851ZM52.9109 19.8101C51.5668 19.8101 50.4734 18.7167 50.4734 17.3726V15.5445C50.4734 14.2004 51.5668 13.107 52.9109 13.107H61.5977C62.9418 13.107 64.0352 14.2004 64.0352 15.5445V17.3726C64.0352 18.7167 62.9418 19.8101 61.5977 19.8101H52.9109ZM52.9109 18.1851H61.5977C62.0456 18.1851 62.4102 17.8205 62.4102 17.3726V15.5445C62.4102 15.0966 62.0456 14.732 61.5977 14.732H52.9109C52.463 14.732 52.0984 15.0966 52.0984 15.5445V17.3726C52.0984 17.8205 52.463 18.1851 52.9109 18.1851ZM18.4844 26.3125H65C65.2154 26.3125 65.4221 26.2268 65.5745 26.0745L73.4614 18.1875H111.516C111.965 18.1875 112.328 17.8237 112.328 17.375C112.328 16.9263 111.965 16.5625 111.516 16.5625H73.125C72.9092 16.5625 72.7029 16.6482 72.5505 16.8005L64.6636 24.6875H18.4844C18.0357 24.6875 17.6719 25.0513 17.6719 25.5C17.6719 25.9487 18.0357 26.3125 18.4844 26.3125ZM20.1094 78.3125H36.278C36.7267 78.3125 37.0905 77.9487 37.0905 77.5C37.0905 77.0513 36.7267 76.6875 36.278 76.6875H20.9219V32H109.078V76.6875H93.7216C93.2725 76.6875 92.9091 77.0513 92.9091 77.5C92.9091 77.9487 93.2725 78.3125 93.7216 78.3125H109.891C110.34 78.3125 110.703 77.9487 110.703 77.5V31.1875C110.703 30.7388 110.34 30.375 109.891 30.375H20.1094C19.6607 30.375 19.2969 30.7388 19.2969 31.1875V77.5C19.2969 77.9487 19.6607 78.3125 20.1094 78.3125ZM32.2969 38.9729C31.4019 40.9169 29.8387 42.48 27.8948 43.375C27.6064 43.5075 27.4219 43.7955 27.4219 44.1129V48.0612C27.4219 48.5099 27.7857 48.8737 28.2344 48.8737C28.6831 48.8737 29.0469 48.5099 29.0469 48.0612V44.6191C31.123 43.5353 32.7896 41.7881 33.7727 39.6521C33.9604 39.2447 33.7822 38.7618 33.3744 38.5746C32.9674 38.3857 32.4841 38.5651 32.2969 38.9729ZM92.5766 70.1875H96.9652C97.2826 70.1875 97.5706 70.003 97.7031 69.7146C98.5974 67.771 100.161 66.2075 102.105 65.3125C102.513 65.1252 102.692 64.6424 102.504 64.235C102.317 63.8275 101.835 63.6482 101.426 63.8367C99.2892 64.8198 97.5428 66.4864 96.459 68.5625H92.5766C92.1275 68.5625 91.7641 68.9263 91.7641 69.375C91.7641 69.8237 92.1275 70.1875 92.5766 70.1875ZM100.141 74.25C100.59 74.25 100.953 73.8862 100.953 73.4375C100.953 70.7493 103.14 68.5625 105.828 68.5625C106.277 68.5625 106.641 68.1987 106.641 67.75V40.9375C106.641 40.4888 106.277 40.125 105.828 40.125C103.14 40.125 100.953 37.9382 100.953 35.25C100.953 34.8013 100.59 34.4375 100.141 34.4375H29.8594C29.4107 34.4375 29.0469 34.8013 29.0469 35.25C29.0469 37.9382 26.8601 40.125 24.1719 40.125C23.7232 40.125 23.3594 40.4888 23.3594 40.9375V67.75C23.3594 68.1987 23.7232 68.5625 24.1719 68.5625C26.8601 68.5625 29.0469 70.7493 29.0469 73.4375C29.0469 73.8862 29.4107 74.25 29.8594 74.25H37.4238C37.8725 74.25 38.2363 73.8862 38.2363 73.4375C38.2363 72.9888 37.8725 72.625 37.4238 72.625H30.6215C30.2537 69.6892 27.9202 67.3557 24.9844 66.9879V41.6996C27.9202 41.3318 30.2537 38.9983 30.6215 36.0625H99.3789C99.7463 38.9983 102.08 41.3318 105.016 41.6996V66.9879C102.08 67.3557 99.7463 69.6892 99.3789 72.625H92.5766C92.1275 72.625 91.7641 72.9888 91.7641 73.4375C91.7641 73.8862 92.1275 74.25 92.5766 74.25H100.141ZM86.9899 83.3363C86.9899 95.4615 77.1256 105.326 65 105.326C52.8744 105.326 43.0105 95.4615 43.0105 83.3363C43.0105 71.2111 52.8748 61.3468 65 61.3468C77.1252 61.3468 86.9899 71.2111 86.9899 83.3363ZM85.3649 83.3363C85.3649 72.1073 76.229 62.9718 65 62.9718C53.771 62.9718 44.6355 72.1073 44.6355 83.3363C44.6355 94.5653 53.771 103.701 65 103.701C76.229 103.701 85.3649 94.5653 85.3649 83.3363ZM78.6403 93.6945C78.7808 93.7917 78.9418 93.8381 79.1005 93.8381C79.3584 93.8381 79.6123 93.7155 79.7702 93.4866C81.8356 90.4905 82.9274 86.9806 82.9274 83.3363C82.9274 82.8876 82.564 82.5238 82.1149 82.5238C81.6658 82.5238 81.3024 82.8876 81.3024 83.3363C81.3024 86.6494 80.3098 89.8406 78.4324 92.5646C78.1777 92.9339 78.2706 93.4398 78.6403 93.6945ZM51.0399 72.1009C48.4818 75.2736 47.073 79.2635 47.073 83.3363C47.073 83.785 47.4368 84.1488 47.8855 84.1488C48.3342 84.1488 48.698 83.785 48.698 83.3363C48.698 79.6332 49.9791 76.0055 52.3047 73.1205C52.5864 72.7714 52.5316 72.26 52.1821 71.9783C51.8338 71.6963 51.3212 71.7514 51.0399 72.1009ZM84.0937 55.1563C84.5428 55.1563 84.9062 54.7925 84.9062 54.3438C84.9062 49.5255 83.1559 44.8731 79.9765 41.2434C79.6805 40.905 79.1672 40.8728 78.8299 41.1672C78.4927 41.4632 78.4586 41.9761 78.7546 42.3138C81.6737 45.6471 83.2812 49.9194 83.2812 54.3438C83.2812 54.7925 83.6447 55.1563 84.0937 55.1563ZM48.5592 44.6088C48.1624 44.3942 47.6705 44.5438 47.4586 44.9389C45.9114 47.8136 45.0938 51.066 45.0938 54.3438C45.0938 55.9144 45.2834 57.5045 45.6579 59.0696C45.7472 59.4425 46.08 59.6932 46.4474 59.6932C46.5101 59.6932 46.5736 59.6861 46.637 59.671C47.0734 59.5667 47.3428 59.1283 47.2385 58.6919C46.8937 57.2502 46.7188 55.7871 46.7188 54.3438C46.7188 51.3338 47.4694 48.348 48.8893 45.7094C49.1019 45.3142 48.9543 44.8215 48.5592 44.6088ZM65 38.5C56.2636 38.5 49.1562 45.6074 49.1562 54.3438C49.1562 55.597 49.3086 56.8689 49.6089 58.1242C49.7136 58.561 50.156 58.8304 50.5884 58.7252C51.0248 58.6205 51.2938 58.1821 51.1895 57.7457C50.9185 56.6142 50.7812 55.4697 50.7812 54.3438C50.7812 46.5036 57.1599 40.125 65 40.125C72.8401 40.125 79.2188 46.5036 79.2188 54.3438C79.2188 55.4685 79.0815 56.613 78.8101 57.7457C78.7054 58.1821 78.9752 58.6205 79.4116 58.7252C79.475 58.7403 79.5385 58.7474 79.6012 58.7474C79.9686 58.7474 80.301 58.4967 80.3907 58.1242C80.6914 56.8677 80.8438 55.5958 80.8438 54.3438C80.8438 45.6074 73.736 38.5 65 38.5ZM91.0524 83.3363C91.0524 97.7014 79.3655 109.388 65 109.388C50.6345 109.388 38.948 97.7014 38.948 83.3363C38.948 68.9711 50.6349 57.2843 65 57.2843C79.3651 57.2843 91.0524 68.9711 91.0524 83.3363ZM89.4274 83.3363C89.4274 69.8674 78.4689 58.9093 65 58.9093C51.5311 58.9093 40.573 69.8674 40.573 83.3363C40.573 96.8052 51.5311 107.763 65 107.763C78.4689 107.763 89.4274 96.8052 89.4274 83.3363ZM67.4375 78.3125V80.8988H76.4512C76.9003 80.8988 77.2637 81.2626 77.2637 81.7113V86.7351C77.2637 90.3191 74.3477 93.2351 70.7637 93.2351H67.4375V96.5866C67.4375 97.9307 66.3441 99.0241 65 99.0241C63.6559 99.0241 62.5625 97.9307 62.5625 96.5866V93.2351H55.1738C53.8297 93.2351 52.7363 92.1417 52.7363 90.7976C52.7363 89.4534 53.8297 88.3601 55.1738 88.3601H62.5625V85.7738H53.5488C53.1001 85.7738 52.7363 85.41 52.7363 84.9613V79.9375C52.7363 76.3535 55.6523 73.4375 59.2363 73.4375H62.5625V70.0859C62.5625 68.7418 63.6559 67.6484 65 67.6484C66.3441 67.6484 67.4375 68.7418 67.4375 70.0859V73.4375H74.8262C76.1703 73.4375 77.2637 74.5309 77.2637 75.875C77.2637 77.2191 76.1703 78.3125 74.8262 78.3125H67.4375ZM65.8125 81.7113V77.5C65.8125 77.0513 66.1759 76.6875 66.625 76.6875H74.8262C75.2745 76.6875 75.6387 76.3229 75.6387 75.875C75.6387 75.4271 75.2745 75.0625 74.8262 75.0625H66.625C66.1759 75.0625 65.8125 74.6987 65.8125 74.25V70.0859C65.8125 69.638 65.4479 69.2734 65 69.2734C64.5521 69.2734 64.1875 69.638 64.1875 70.0859V74.25C64.1875 74.6987 63.8237 75.0625 63.375 75.0625H59.2363C56.5481 75.0625 54.3613 77.2493 54.3613 79.9375V84.1488H63.375C63.8237 84.1488 64.1875 84.5126 64.1875 84.9613V89.1726C64.1875 89.6213 63.8237 89.9851 63.375 89.9851H55.1738C54.7259 89.9851 54.3613 90.3497 54.3613 90.7976C54.3613 91.2455 54.7259 91.6101 55.1738 91.6101H63.375C63.8237 91.6101 64.1875 91.9739 64.1875 92.4226V96.5866C64.1875 97.0345 64.5521 97.3991 65 97.3991C65.4479 97.3991 65.8125 97.0345 65.8125 96.5866V92.4226C65.8125 91.9739 66.1759 91.6101 66.625 91.6101H70.7637C73.4519 91.6101 75.6387 89.4233 75.6387 86.7351V82.5238H66.625C66.1759 82.5238 65.8125 82.16 65.8125 81.7113ZM65.8125 84.9613C65.8125 84.5126 66.1759 84.1488 66.625 84.1488H73.2012C73.6503 84.1488 74.0137 84.5126 74.0137 84.9613V86.7351C74.0137 88.5271 72.5561 89.9851 70.7637 89.9851H66.625C66.1759 89.9851 65.8125 89.6213 65.8125 89.1726V84.9613ZM67.4375 88.3601H70.7637C71.6595 88.3601 72.3887 87.6313 72.3887 86.7351V85.7738H67.4375V88.3601ZM64.1875 77.5V81.7113C64.1875 82.16 63.8237 82.5238 63.375 82.5238H56.7988C56.3501 82.5238 55.9863 82.16 55.9863 81.7113V79.9375C55.9863 78.1455 57.4443 76.6875 59.2363 76.6875H63.375C63.8237 76.6875 64.1875 77.0513 64.1875 77.5ZM62.5625 78.3125H59.2363C58.3401 78.3125 57.6113 79.0413 57.6113 79.9375V80.8988H62.5625V78.3125Z" fill="#6D06B0"/>
</svg>
