<?xml version="1.0" encoding="UTF-8"?>
<svg id="Réteg_1" data-name="Réteg 1" xmlns="http://www.w3.org/2000/svg" viewBox="0 0 46.63 46.9">
  <defs>
    <style>
      .cls-1 {
        fill: #fff;
      }

      .cls-2 {
        fill: #312783;
      }
    </style>
  </defs>
  <path class="cls-2" d="m46.26,23.45c0,12.67-10.27,22.94-22.94,22.94S.38,36.12.38,23.45,10.65.51,23.32.51s22.94,10.27,22.94,22.94"/>
  <path class="cls-1" d="m20.03,19.96l-1.15-1.51c-.22-.29-.63-.34-.92-.13l-.18.14-.33-.44c-.1-.13-.08-.32.06-.42l.94-.71c.1-.08.15-.21.12-.34l-.18-.82c-.04-.2-.22-.35-.42-.37l-2.76-.22c-.12,0-.24.03-.33.1l-3.59,2.73c-.21.16-.26.47-.09.68l.74.97c.15.2.43.25.64.12.92-.55,1.58-.71,2.01-.74.35-.02.69.14.9.42l.38.5-.11.08c-.29.22-.34.63-.13.92l1.15,1.51c.22.29.63.34.92.13l2.21-1.67c.29-.22.34-.63.13-.92"/>
  <path class="cls-1" d="m11.46,20.52l.07-.06c.21-.16.25-.45.09-.65l-.73-.96c-.16-.21-.45-.25-.66-.09l-.08.06c-.21.16-.25.45-.09.66l.73.96c.16.21.45.25.65.09"/>
  <path class="cls-1" d="m12.96,20.13c-.04-.07-.02-.15.05-.19.22-.14.71-.4,1.07-.42.48-.02.23,1.55.23,1.55,0,0-.19,1.4-.49,1.68-.3.28-.5.09-.49-.19,0,0,.08-1.12-.03-1.59-.08-.33-.25-.66-.34-.83"/>
  <path class="cls-1" d="m30.77,30.11c-.92-1.39-3.25-4.76-4.8-6.37-.27.13-.55.26-.8.43,0,0,0,0-.01,0,0,0,0,0,0-.01.21-.2.46-.37.71-.52-.15-.15-.29-.28-.42-.39-1.12-.96-2.74-1.8-3.68-2.24-.44-.21-.96-.16-1.36.14l-2.53,1.92c-.14.11-.17.31-.06.44l.14.18c.08.1.19.16.31.19.28.06.83.23,1.24.76.44.59.25,1.33.07,1.76.21-.19.42-.38.62-.58.21-.2.41-.42.6-.64,0,0,.01,0,.02,0,0,0,0,.01,0,.02-.31.51-.7.96-1.1,1.39-.14.15-.28.31-.43.45-.33.81-.27,1.61.53,2.68l1.84,2.42,2.35,3.1c.25.33.72.39,1.04.14l5.55-4.25c.31-.24.38-.67.17-1"/>
  <path class="cls-1" d="m26.64,18.5c-.05.25-.08.52-.08.79,0,2.13,1.73,3.85,3.85,3.85.27,0,.53-.03.79-.08l-4.56-4.56Z"/>
  <path class="cls-1" d="m31.49,22.74s2.58-2.34,8.7-4.54c0,0-.14-.61-.35-1.03,0,0-2.14.24-2.73.35l2.02-1.08s-.44-.9-.69-1.2l-2.07.56s.8-.83,1.52-1.23c0,0-1.79-1.95-2.89-2.84,0,0-.88,1.12-1.34,1.36,0,0,.36-.69.5-2,0,0-.73-.79-1.01-.96,0,0-.18,1.5-.86,2.32,0,0,.39-1.81.25-2.63,0,0-.36-.31-1.2-.77,0,0,.13,3.54-4.38,9.15l4.52,4.55Z"/>
  <rect class="cls-1" x="14.52" y="26.92" width="15.83" height=".74" transform="translate(-12.72 23.86) rotate(-45)"/>
  <path class="cls-1" d="m16.19,33.01l.52.52-1.53,1.53c-.13.13-.34.13-.47,0l-.05-.05c-.13-.13-.13-.35,0-.48l1.53-1.53Z"/>
</svg>