<svg width="91" height="98" viewBox="0 0 91 98" fill="none" xmlns="http://www.w3.org/2000/svg">
<path d="M16.5811 71.0264C17.013 71.5024 17.527 71.8799 18.0932 72.137C18.6594 72.3941 19.2666 72.5257 19.8797 72.5242H26.6528C27.891 72.5242 29.0785 71.9861 29.954 71.0283C30.8295 70.0704 31.3214 68.7713 31.3214 67.4167C31.3214 66.0621 30.8295 64.763 29.954 63.8051C29.0785 62.8473 27.891 62.3092 26.6528 62.3092H21.8148L16.9421 56.9793C16.5078 56.5049 15.9925 56.1287 15.4253 55.8722C14.8582 55.6157 14.2504 55.4839 13.6367 55.4844C13.0231 55.4849 12.4155 55.6176 11.8487 55.875C11.2819 56.1324 10.767 56.5095 10.3334 56.9846L1.36096 66.8355C0.926458 67.3128 0.582525 67.8793 0.348964 68.5025C0.115403 69.1257 -0.00317303 69.7934 6.45528e-05 70.4669C0.00330213 71.1405 0.12829 71.8067 0.367829 72.4272C0.607368 73.0477 0.956729 73.6102 1.3958 74.0824L6.92654 80.0315L4.40016 85.8853C3.8714 87.1102 3.80906 88.5147 4.22687 89.7899C4.64468 91.0651 5.5084 92.1065 6.62804 92.685C7.74767 93.2634 9.0315 93.3316 10.1971 92.8745C11.3627 92.4175 12.3146 91.4725 12.8433 90.2476L16.7853 81.1134C17.1984 80.1551 17.329 79.0801 17.1591 78.037C16.9892 76.994 16.5272 76.0345 15.8371 75.2913L11.2894 70.4039L13.6426 67.82L16.5811 71.0264ZM12.4457 63.8885L7.69287 69.1083C7.53527 69.2813 7.41053 69.4868 7.32581 69.7129C7.2411 69.9389 7.19809 70.181 7.19926 70.4253C7.20042 70.6696 7.24575 70.9113 7.33262 71.1363C7.4195 71.3614 7.54621 71.5654 7.70545 71.7367L13.4655 77.9313C13.6549 78.1357 13.7816 78.3993 13.8282 78.6858C13.8749 78.9723 13.8391 79.2675 13.7258 79.5308L9.78383 88.664C9.63396 88.9963 9.37201 89.2518 9.05322 89.3768C8.73443 89.5018 8.38373 89.4865 8.07507 89.3341C7.76782 89.175 7.53085 88.889 7.4162 88.5389C7.30154 88.1888 7.31858 87.8032 7.46355 87.4668L10.5037 80.4232C10.6552 80.075 10.7034 79.6838 10.6417 79.3042C10.5799 78.9246 10.4112 78.5756 10.1593 78.3061L3.77316 71.4339C3.65281 71.3041 3.55707 71.1496 3.49143 70.9792C3.42578 70.8088 3.39153 70.626 3.39063 70.4411C3.38973 70.2562 3.4222 70.0729 3.48619 69.9018C3.55017 69.7307 3.64441 69.575 3.76349 69.4438L12.7369 59.5929C12.856 59.4625 12.9974 59.359 13.153 59.2884C13.3087 59.2178 13.4755 59.1815 13.644 59.1815C13.8125 59.1815 13.9794 59.2178 14.135 59.2884C14.2907 59.359 14.4321 59.4625 14.5511 59.5929L19.9203 65.4679C20.2383 65.8149 20.669 66.0098 21.1182 66.0099H26.6605C27.0005 66.0099 27.3266 66.1576 27.5671 66.4207C27.8075 66.6837 27.9426 67.0405 27.9426 67.4125C27.9426 67.7845 27.8075 68.1412 27.5671 68.4042C27.3266 68.6673 27.0005 68.815 26.6605 68.815H19.8874C19.719 68.8155 19.5523 68.7793 19.3968 68.7086C19.2413 68.6379 19.1002 68.5341 18.9817 68.4033L14.8395 63.8854C14.682 63.7132 14.4951 63.5767 14.2893 63.4837C14.0836 63.3907 13.8631 63.3429 13.6405 63.3432C13.4179 63.3435 13.1975 63.3919 12.992 63.4854C12.7865 63.579 12.5998 63.716 12.4428 63.8885H12.4457Z" fill="url(#paint0_linear_332_1234)"/>
<path d="M39.8565 86.8421C39.8567 84.6385 39.2596 82.4843 38.1407 80.652C37.0218 78.8197 35.4314 77.3915 33.5705 76.5481C31.7097 75.7047 29.662 75.4839 27.6865 75.9137C25.7109 76.3434 23.8962 77.4045 22.4719 78.9625C21.0476 80.5206 20.0776 82.5058 19.6845 84.6671C19.2915 86.8283 19.4931 89.0685 20.2639 91.1044C21.0346 93.1402 22.3399 94.8803 24.0147 96.1046C25.6894 97.3289 27.6584 97.9823 29.6727 97.9823C32.3725 97.979 34.9609 96.8042 36.87 94.7158C38.7792 92.6273 39.8532 89.7957 39.8565 86.8421ZM22.8763 86.8421C22.8761 85.3712 23.2746 83.9333 24.0215 82.7103C24.7683 81.4872 25.8299 80.5339 27.072 79.9709C28.314 79.4079 29.6808 79.2606 30.9995 79.5475C32.3181 79.8344 33.5294 80.5427 34.48 81.5827C35.4307 82.6228 36.0781 83.9479 36.3404 85.3905C36.6026 86.8331 36.4679 88.3284 35.9533 89.6873C35.4387 91.0461 34.5674 92.2075 33.4494 93.0246C32.3314 93.8416 31.0171 94.2776 29.6727 94.2774C27.8708 94.2751 26.1433 93.491 24.8692 92.0971C23.5951 90.7032 22.8784 88.8133 22.8763 86.8421Z" fill="url(#paint1_linear_332_1234)"/>
<path d="M30.5454 52.8002C30.5454 51.5139 30.1967 50.2565 29.5436 49.187C28.8904 48.1175 27.962 47.2838 26.8757 46.7916C25.7895 46.2993 24.5942 46.1704 23.4411 46.4213C22.2879 46.6721 21.2286 47.2915 20.3972 48.2009C19.5658 49.1104 18.9995 50.2691 18.77 51.5307C18.5405 52.7922 18.6581 54.0999 19.1079 55.2883C19.5577 56.4767 20.3195 57.4926 21.297 58.2073C22.2745 58.9221 23.4238 59.3037 24.5995 59.3039C26.1758 59.302 27.6869 58.6162 28.8016 57.3969C29.9162 56.1777 30.5433 54.5246 30.5454 52.8002ZM22.0422 52.8002C22.0422 52.2466 22.1923 51.7054 22.4734 51.2451C22.7546 50.7848 23.1542 50.4261 23.6217 50.2143C24.0892 50.0025 24.6037 49.9471 25.1 50.0552C25.5963 50.1633 26.0521 50.4299 26.4099 50.8215C26.7676 51.213 27.0112 51.7118 27.1098 52.2548C27.2084 52.7978 27.1576 53.3606 26.9638 53.872C26.77 54.3834 26.442 54.8204 26.0211 55.1278C25.6003 55.4352 25.1056 55.5992 24.5995 55.599C23.9214 55.5981 23.2712 55.303 22.7917 54.7782C22.3123 54.2535 22.0427 53.5421 22.0422 52.8002Z" fill="url(#paint2_linear_332_1234)"/>
<path d="M86.9385 13.462C88.0437 12.6555 88.9055 11.5086 89.415 10.1663C89.9244 8.82395 90.0585 7.34652 89.8004 5.9208C89.5423 4.49508 88.9035 3.18511 87.9649 2.15656C87.0263 1.128 85.8299 0.427057 84.5271 0.14236C83.2243 -0.142336 81.8737 0.00200654 80.6459 0.557131C79.4181 1.11226 78.3683 2.05323 77.6294 3.26106C76.8904 4.46889 76.4954 5.88932 76.4944 7.34274C76.4933 8.79615 76.8863 10.2173 77.6235 11.4264C78.1126 12.2297 78.7416 12.9196 79.4745 13.4568C80.2075 13.9939 81.0301 14.3677 81.8953 14.5568C82.7604 14.7459 83.6511 14.7465 84.5165 14.5586C85.3819 14.3707 86.2049 13.9981 86.9385 13.462ZM81.3632 4.31921C81.911 3.91941 82.5549 3.70631 83.2134 3.70685C83.8719 3.7074 84.5155 3.92156 85.0628 4.32225C85.61 4.72295 86.0364 5.29219 86.2879 5.95798C86.5395 6.62377 86.6049 7.35622 86.4759 8.06269C86.347 8.76916 86.0294 9.41793 85.5634 9.92695C85.0974 10.436 84.5039 10.7824 83.858 10.9224C83.212 11.0624 82.5426 10.9897 81.9344 10.7135C81.3262 10.4373 80.8065 9.96996 80.4411 9.37064C79.9524 8.56658 79.775 7.58333 79.9479 6.63643C80.1207 5.68953 80.6297 4.85623 81.3632 4.31921Z" fill="url(#paint3_linear_332_1234)"/>
<path d="M40.3433 53.194C41.1926 54.1214 42.3436 54.6422 43.5436 54.6422C44.7435 54.6422 45.8945 54.1214 46.7439 53.194L59.7154 39.0093L61.8044 41.2937L55.6941 47.9774C54.8558 48.9084 54.3879 50.1641 54.3923 51.4709C54.3968 52.7777 54.8732 54.0296 55.7178 54.9538C56.5624 55.8779 57.7066 56.3993 58.9011 56.4044C60.0956 56.4094 61.2436 55.8977 62.0947 54.9808L71.5645 44.6207C72.3703 43.7377 72.823 42.5409 72.823 41.2931C72.823 40.0454 72.3703 38.8486 71.5645 37.9656L71.2974 37.6724C72.058 38.34 73.0043 38.7034 73.9796 38.7023H86.1238C87.3242 38.7023 88.4756 38.1806 89.3244 37.2519C90.1733 36.3233 90.6502 35.0637 90.6502 33.7504C90.6502 32.4371 90.1733 31.1775 89.3244 30.2489C88.4756 29.3202 87.3242 28.7985 86.1238 28.7985H78.7314V17.51C78.7167 17.0035 78.5269 16.5218 78.2002 16.1625L67.547 4.50779C66.7397 3.62666 65.6458 3.13184 64.5054 3.13184C63.365 3.13184 62.2712 3.62666 61.4638 4.50779L51.4009 15.5168C50.9752 15.9752 50.6367 16.5213 50.4049 17.1235C50.173 17.7257 50.0524 18.3722 50.05 19.0257C50.0476 19.6791 50.1635 20.3266 50.3909 20.9309C50.6183 21.5351 50.9527 22.0842 51.375 22.5463C51.7973 23.0085 52.299 23.3747 52.8512 23.6237C53.4034 23.8728 53.9952 23.9998 54.5925 23.9975C55.1898 23.9952 55.7808 23.8635 56.3314 23.6101C56.882 23.3568 57.3813 22.9867 57.8005 22.5212L64.504 15.1865L66.594 17.4719L40.3433 46.1916C39.9226 46.6511 39.5888 47.1969 39.3611 47.7977C39.1334 48.3984 39.0162 49.0424 39.0162 49.6928C39.0162 50.3432 39.1334 50.9871 39.3611 51.5879C39.5888 52.1887 39.9226 52.7344 40.3433 53.194ZM70.6191 36.925L66.116 31.9995L69.6777 28.1041V33.9928C69.6768 35.059 70.0089 36.0936 70.6191 36.925ZM42.7371 48.8126L70.1856 18.7814C70.5029 18.434 70.6812 17.963 70.6812 17.4719C70.6812 16.9808 70.5029 16.5099 70.1856 16.1625L65.7018 11.2571C65.3842 10.91 64.9535 10.7149 64.5044 10.7149C64.0554 10.7149 63.6247 10.91 63.307 11.2571L55.4057 19.9013C55.1919 20.1352 54.902 20.2666 54.5997 20.2666C54.2974 20.2666 54.0075 20.1352 53.7937 19.9013C53.5799 19.6674 53.4599 19.3503 53.4599 19.0195C53.4599 18.6888 53.5799 18.3716 53.7937 18.1378L63.8566 7.12878C64.0287 6.9417 64.2614 6.8367 64.504 6.8367C64.7465 6.8367 64.9792 6.9417 65.1513 7.12878L75.3448 18.2775V30.6457C75.3448 31.137 75.5232 31.6081 75.8408 31.9556C76.1583 32.303 76.589 32.4981 77.0381 32.4981H86.1238C86.4261 32.4981 86.716 32.6295 86.9297 32.8634C87.1435 33.0972 87.2636 33.4144 87.2636 33.7451C87.2636 34.0758 87.1435 34.393 86.9297 34.6269C86.716 34.8607 86.4261 34.9921 86.1238 34.9921H73.9796C73.7369 34.9918 73.5042 34.8862 73.3326 34.6985C73.161 34.5107 73.0645 34.2562 73.0642 33.9907V23.6317C73.0641 23.2654 72.9647 22.9074 72.7786 22.603C72.5925 22.2985 72.3281 22.0612 72.0188 21.9211C71.7095 21.7809 71.3692 21.7443 71.0408 21.8157C70.7125 21.8871 70.4108 22.0633 70.174 22.3222L62.5301 30.6901C62.3727 30.8621 62.2479 31.0663 62.1627 31.291C62.0775 31.5158 62.0337 31.7568 62.0337 32.0001C62.0337 32.2434 62.0775 32.4843 62.1627 32.7091C62.2479 32.9339 62.3727 33.1381 62.5301 33.31L69.1755 40.5802C69.3469 40.7681 69.4433 41.0228 69.4433 41.2884C69.4433 41.5539 69.3469 41.8086 69.1755 41.9966L59.7047 52.3566C59.4877 52.5832 59.1992 52.7096 58.8992 52.7096C58.5992 52.7096 58.3107 52.5832 58.0937 52.3566C57.9878 52.2409 57.9039 52.1034 57.8466 51.9521C57.7893 51.8008 57.7598 51.6386 57.7598 51.4749C57.7598 51.3111 57.7893 51.1489 57.8466 50.9976C57.9039 50.8464 57.9878 50.7089 58.0937 50.5931L65.3999 42.5989C65.5573 42.427 65.6821 42.2229 65.7673 41.9982C65.8524 41.7735 65.8963 41.5327 65.8963 41.2894C65.8963 41.0462 65.8524 40.8053 65.7673 40.5807C65.6821 40.356 65.5573 40.1519 65.3999 39.98L60.9181 35.0747C60.6003 34.7277 60.1696 34.5329 59.7207 34.5329C59.2717 34.5329 58.8411 34.7277 58.5233 35.0747L44.351 50.574C44.2453 50.69 44.1197 50.782 43.9815 50.8448C43.8433 50.9077 43.6951 50.9401 43.5454 50.9403C43.3957 50.9405 43.2475 50.9085 43.1091 50.846C42.9707 50.7835 42.845 50.6918 42.739 50.5762C42.633 50.4605 42.5489 50.3231 42.4915 50.1719C42.434 50.0207 42.4044 49.8586 42.4042 49.6948C42.404 49.5311 42.4333 49.3689 42.4904 49.2175C42.5475 49.0661 42.6313 48.9285 42.7371 48.8126Z" fill="url(#paint4_linear_332_1234)"/>
<path d="M87.6593 70.352C88.7643 69.5457 89.626 68.3989 90.1353 67.0568C90.6446 65.7147 90.7787 64.2375 90.5207 62.812C90.2626 61.3865 89.6239 60.0768 88.6855 59.0484C87.747 58.02 86.5508 57.3191 85.2483 57.0345C83.9457 56.7498 82.5952 56.8941 81.3676 57.4491C80.14 58.004 79.0904 58.9448 78.3515 60.1524C77.6126 61.36 77.2177 62.7802 77.2166 64.2334C77.2154 65.6866 77.6082 67.1075 78.3453 68.3164C78.8343 69.1196 79.4633 69.8094 80.1962 70.3465C80.9291 70.8835 81.7516 71.2573 82.6166 71.4463C83.4816 71.6354 84.3722 71.636 85.2375 71.4483C86.1028 71.2605 86.9257 70.888 87.6593 70.352ZM82.0869 61.2093C82.6348 60.8095 83.2786 60.5964 83.9371 60.5969C84.5956 60.5975 85.2392 60.8116 85.7865 61.2123C86.3337 61.613 86.7601 62.1822 87.0116 62.848C87.2632 63.5138 87.3286 64.2463 87.1996 64.9527C87.0707 65.6592 86.7531 66.308 86.2871 66.817C85.8211 67.326 85.2276 67.6724 84.5817 67.8125C83.9357 67.9525 83.2663 67.8797 82.6581 67.6035C82.0499 67.3273 81.5303 66.86 81.1648 66.2607C80.9221 65.8628 80.7534 65.4165 80.6683 64.9473C80.5833 64.478 80.5836 63.9951 80.6692 63.526C80.7549 63.0569 80.9242 62.6108 81.1674 62.2133C81.4107 61.8158 81.7231 61.4746 82.0869 61.2093Z" fill="url(#paint5_linear_332_1234)"/>
<path d="M58.1953 96.373C58.7101 95.8883 59.3667 95.6218 60.0458 95.6218C60.7249 95.6218 61.3816 95.8883 61.8963 96.373C62.9771 97.2825 64.3025 97.7756 65.6661 97.7756C67.0296 97.7756 68.355 97.2825 69.4358 96.373C69.9493 95.8885 70.6048 95.6219 71.2829 95.6219C71.961 95.6219 72.6165 95.8885 73.13 96.373C74.2102 97.2823 75.5349 97.7754 76.8978 97.7754C78.2608 97.7754 79.5855 97.2823 80.6656 96.373C81.1788 95.8886 81.834 95.6222 82.5118 95.6222C83.1895 95.6222 83.8448 95.8886 84.3579 96.373C85.4344 97.2887 86.7632 97.7772 88.1267 97.7586C88.5758 97.7586 89.0065 97.5634 89.324 97.216C89.6416 96.8686 89.82 96.3974 89.82 95.9061C89.82 95.4148 89.6416 94.9436 89.324 94.5962C89.0065 94.2488 88.5758 94.0537 88.1267 94.0537C87.449 94.0712 86.79 93.8102 86.2796 93.3222C85.1993 92.4127 83.8744 91.9196 82.5113 91.9196C81.1482 91.9196 79.8233 92.4127 78.743 93.3222C78.23 93.8065 77.5749 94.0729 76.8973 94.0729C76.2197 94.0729 75.5647 93.8065 75.0517 93.3222C73.9714 92.4123 72.6463 91.9189 71.2829 91.9189C69.9195 91.9189 68.5945 92.4123 67.5141 93.3222C67.0001 93.8067 66.3441 94.0732 65.6656 94.0732C64.987 94.0732 64.331 93.8067 63.817 93.3222C62.7358 92.4127 61.4102 91.9195 60.0463 91.9195C58.6824 91.9195 57.3568 92.4127 56.2756 93.3222C55.7633 93.8103 55.1028 94.0712 54.4236 94.0537C53.9745 94.0537 53.5439 94.2488 53.2263 94.5962C52.9087 94.9436 52.7303 95.4148 52.7303 95.9061C52.7303 96.3974 52.9087 96.8686 53.2263 97.216C53.5439 97.5634 53.9745 97.7586 54.4236 97.7586C55.7881 97.778 57.1181 97.2894 58.1953 96.373Z" fill="url(#paint6_linear_332_1234)"/>
<path d="M78.922 73.0535L68.2679 61.3999C67.4615 60.5179 66.368 60.0225 65.2277 60.0225C64.0875 60.0225 62.9939 60.5179 62.1876 61.3999L52.1246 72.4036C51.6989 72.8619 51.3602 73.4078 51.1282 74.01C50.8962 74.6121 50.7754 75.2586 50.7729 75.912C50.7703 76.5655 50.8859 77.213 51.1132 77.8173C51.3404 78.4216 51.6747 78.9708 52.0969 79.4331C52.519 79.8954 53.0206 80.2617 53.5728 80.511C54.1249 80.7602 54.7167 80.8874 55.314 80.8853C55.9113 80.8832 56.5023 80.7517 57.0529 80.4986C57.6036 80.2454 58.103 79.8755 58.5223 79.4102L65.221 72.0733L67.3148 74.364L59.0071 83.4528C58.0122 83.6352 57.0729 84.0803 56.2708 84.7495C55.7587 85.2363 55.0989 85.4964 54.4207 85.4789C53.9716 85.4789 53.5409 85.674 53.2234 86.0214C52.9058 86.3689 52.7274 86.84 52.7274 87.3313C52.7274 87.8227 52.9058 88.2938 53.2234 88.6412C53.5409 88.9886 53.9716 89.1838 54.4207 89.1838C55.7825 89.2046 57.1104 88.7195 58.1875 87.8077C58.6968 87.311 59.3604 87.0459 60.0424 87.0667C60.7194 87.0497 61.3777 87.3106 61.8876 87.7982C62.9724 88.6986 64.2966 89.1861 65.6583 89.1861C67.02 89.1861 68.3443 88.6986 69.429 87.7982C69.939 87.307 70.5952 87.0361 71.2747 87.0361C71.9542 87.0361 72.6103 87.307 73.1204 87.7982C74.2033 88.707 75.5303 89.199 76.8951 89.1976C78.2599 89.1963 79.5861 88.7017 80.6676 87.7908C81.1807 87.3077 81.8353 87.042 82.5123 87.042C83.1893 87.042 83.8438 87.3077 84.357 87.7908C85.4327 88.7071 86.7615 89.1958 88.1248 89.1764C88.5738 89.1764 89.0045 88.9812 89.3221 88.6338C89.6396 88.2864 89.818 87.8152 89.818 87.3239C89.818 86.8326 89.6396 86.3614 89.3221 86.014C89.0045 85.6666 88.5738 85.4715 88.1248 85.4715C87.4475 85.4891 86.7889 85.2285 86.2786 84.7411C85.3119 83.934 84.1495 83.4559 82.9363 83.3661C81.723 83.2763 80.5124 83.5789 79.4552 84.2361V74.3916C79.4399 73.8875 79.2492 73.4088 78.922 73.0535ZM76.0705 85.3529C75.7007 85.2127 75.3538 85.0086 75.043 84.7485C74.6456 84.4397 74.2248 84.1688 73.7851 83.9387V80.5248C73.7849 80.1587 73.6856 79.8008 73.4996 79.4964C73.3137 79.192 73.0495 78.9547 72.7403 78.8145C72.4312 78.6743 72.091 78.6374 71.7627 78.7086C71.4344 78.7798 71.1328 78.9557 70.8959 79.2143L65.1977 85.4386C64.6884 85.3441 64.2106 85.105 63.8121 84.7453C63.5973 84.5833 63.3574 84.4055 63.0865 84.2319L70.9104 75.6735C71.2277 75.3259 71.406 74.8548 71.406 74.3635C71.406 73.8722 71.2277 73.4011 70.9104 73.0535L66.4208 68.1418C66.103 67.7943 65.6722 67.5991 65.2229 67.5991C64.7736 67.5991 64.3427 67.7943 64.025 68.1418L56.1305 76.7902C55.9138 77.0201 55.6239 77.1487 55.322 77.1487C55.0202 77.1487 54.7303 77.0201 54.5136 76.7902C54.4072 76.6754 54.3228 76.5386 54.2651 76.3878C54.2075 76.237 54.1778 76.0751 54.1778 75.9116C54.1778 75.7482 54.2075 75.5863 54.2651 75.4355C54.3228 75.2847 54.4072 75.1479 54.5136 75.033L64.5765 64.0241C64.751 63.8434 64.9821 63.7427 65.2224 63.7427C65.4627 63.7427 65.6938 63.8434 65.8683 64.0241L76.0705 75.1706V85.3529Z" fill="url(#paint7_linear_332_1234)"/>
<defs>
<linearGradient id="paint0_linear_332_1234" x1="46.5" y1="0.547044" x2="46.5" y2="98.4613" gradientUnits="userSpaceOnUse">
<stop stop-color="#D78D1F"/>
<stop offset="1" stop-color="#B75C1B"/>
</linearGradient>
<linearGradient id="paint1_linear_332_1234" x1="49" y1="0.547169" x2="49" y2="98.4614" gradientUnits="userSpaceOnUse">
<stop stop-color="#D78D1F"/>
<stop offset="1" stop-color="#B75C1B"/>
</linearGradient>
<linearGradient id="paint2_linear_332_1234" x1="48.5" y1="-2.18798" x2="48.5" y2="99.0083" gradientUnits="userSpaceOnUse">
<stop stop-color="#D78D1F"/>
<stop offset="1" stop-color="#B75C1B"/>
</linearGradient>
<linearGradient id="paint3_linear_332_1234" x1="41.5" y1="-7.77845e-07" x2="41.5" y2="97.9142" gradientUnits="userSpaceOnUse">
<stop stop-color="#D78D1F"/>
<stop offset="1" stop-color="#B75C1B"/>
</linearGradient>
<linearGradient id="paint4_linear_332_1234" x1="48.5" y1="1.64092" x2="48.5" y2="97.9141" gradientUnits="userSpaceOnUse">
<stop stop-color="#D78D1F"/>
<stop offset="1" stop-color="#B75C1B"/>
</linearGradient>
<linearGradient id="paint5_linear_332_1234" x1="41.5" y1="4.37568" x2="41.5" y2="97.3669" gradientUnits="userSpaceOnUse">
<stop stop-color="#D78D1F"/>
<stop offset="1" stop-color="#B75C1B"/>
</linearGradient>
<linearGradient id="paint6_linear_332_1234" x1="40" y1="0.546889" x2="40" y2="97.3671" gradientUnits="userSpaceOnUse">
<stop stop-color="#D78D1F"/>
<stop offset="1" stop-color="#B75C1B"/>
</linearGradient>
<linearGradient id="paint7_linear_332_1234" x1="38.5" y1="0.547214" x2="80.6769" y2="74.3621" gradientUnits="userSpaceOnUse">
<stop stop-color="#D78D1F"/>
<stop offset="1" stop-color="#B75C1B"/>
</linearGradient>
</defs>
</svg>
