<svg width="86" height="86" viewBox="0 0 86 86" fill="none" xmlns="http://www.w3.org/2000/svg">
<path d="M64.672 12.8236C63.9531 12.6435 63.2221 13.0829 63.0434 13.8032L60.8033 22.8211C60.6246 23.5413 61.0627 24.271 61.7829 24.4497C61.8918 24.4766 62.0006 24.4887 62.1081 24.4887C62.7101 24.4887 63.2584 24.0802 63.4116 23.4688L65.6516 14.4508C65.8303 13.7306 65.3923 13.0009 64.672 12.8222V12.8236Z" fill="url(#paint0_linear_331_1224)"/>
<path d="M76.0992 23.9361C75.7162 23.2991 74.8885 23.0935 74.2556 23.4778L66.2939 28.271C65.6569 28.654 65.4527 29.479 65.8356 30.116C66.0883 30.5352 66.533 30.7663 66.9872 30.7663C67.2237 30.7663 67.4629 30.7045 67.6793 30.5742L75.641 25.781C76.2779 25.3981 76.4822 24.573 76.0992 23.9361Z" fill="url(#paint1_linear_331_1224)"/>
<path d="M79.5916 37.6076L70.5737 35.3676C69.8535 35.1902 69.1251 35.627 68.9451 36.3472C68.7664 37.0675 69.2044 37.7971 69.9247 37.9758L78.9426 40.2159C79.0514 40.2427 79.1603 40.2548 79.2678 40.2548C79.8698 40.2548 80.418 39.8463 80.5712 39.2349C80.7499 38.5147 80.3119 37.7864 79.5916 37.6076Z" fill="url(#paint2_linear_331_1224)"/>
<path d="M7.25086 34.5853C6.56689 34.2991 5.77811 34.6216 5.49189 35.3083C5.20567 35.9936 5.52952 36.7797 6.21349 37.0659C17.767 41.8886 34.5223 50.2669 35.6067 53.7902C37.2931 59.27 38.0308 76.4109 38.0389 76.5829C38.0684 77.3058 38.6637 77.8702 39.3799 77.8702C39.4001 77.8702 39.4175 77.8702 39.4377 77.8702C40.1795 77.8393 40.7546 77.2131 40.7237 76.4714C40.6941 75.7524 39.9645 58.8091 38.1759 53.0014C36.3269 46.9935 12.0897 36.6077 7.24952 34.5867L7.25086 34.5853Z" fill="url(#paint3_linear_331_1224)"/>
<path d="M29.0506 8.29777C28.4029 7.93899 27.5845 8.17414 27.2244 8.82317C26.8643 9.4722 27.0995 10.2905 27.7498 10.6493C39.9121 17.3775 59.383 29.7628 59.8587 34.3558C61.4417 49.5845 59.8708 76.18 59.8547 76.4474C59.8104 77.1878 60.3747 77.8247 61.1151 77.8691C61.142 77.8704 61.1689 77.8718 61.1971 77.8718C61.9012 77.8718 62.4938 77.3222 62.5368 76.6086C62.553 76.3399 64.1359 49.528 62.5328 34.079C61.7736 26.7488 34.5102 11.3185 29.0519 8.29911L29.0506 8.29777Z" fill="url(#paint4_linear_331_1224)"/>
<path d="M13.799 26.0071C13.8944 26.0649 23.4122 31.8014 26.2529 34.2107C26.9086 34.767 27.7095 35.9079 28.556 37.1159C30.4884 39.872 33.1705 43.6963 36.7811 43.6963C37.93 43.6963 39.1757 43.3079 40.5194 42.374C45.2253 39.1033 46.9802 34.1153 46.2438 31.0798C45.8367 29.4095 44.6824 28.2929 43.1532 28.0913C39.8395 27.6546 36.5514 26.3135 33.6421 24.2132C30.4185 21.8845 21.195 15.1698 21.195 15.1685L19.612 17.3413C19.612 17.3413 28.8423 24.0614 32.0686 26.3915C35.338 28.7524 39.048 30.2601 42.8025 30.756C42.9705 30.7775 43.4179 30.8366 43.6316 31.7141C44.0817 33.5698 42.9382 37.4196 38.9862 40.1662C36.0999 42.1684 34.1165 40.3665 30.7558 35.572C29.7668 34.161 28.9108 32.9409 27.9903 32.1602C24.987 29.6111 15.5835 23.9431 15.1844 23.7026C14.5488 23.3196 13.7237 23.5239 13.3408 24.1608C12.9578 24.7964 13.162 25.6228 13.799 26.0071Z" fill="url(#paint5_linear_331_1224)"/>
<path d="M53.5579 47.2129C48.5175 45.505 43.809 46.9602 41.9411 49.1976C40.8984 50.4486 40.6982 51.9617 41.409 53.2436C42.8939 55.9204 43.6988 59.0741 43.7377 62.3623C43.7807 66.0267 43.8641 76.5375 43.8641 76.5375L46.5516 76.516C46.5516 76.516 46.4682 65.9958 46.4252 62.33C46.3809 58.5971 45.4591 55.0039 43.7606 51.9402C43.6934 51.8206 43.5174 51.5021 44.0051 50.9189C45.1124 49.5913 48.5416 48.3537 52.6965 49.7593C55.6729 50.7671 55.423 53.1885 53.7393 58.237C53.234 59.7514 52.7973 61.0602 52.7221 62.1822C52.4802 65.813 53.4383 75.8939 53.4799 76.3198C53.5458 77.0159 54.1303 77.5359 54.8156 77.5359C54.8573 77.5359 54.9003 77.5346 54.946 77.5305C55.685 77.4593 56.2252 76.8036 56.154 76.0645C56.1446 75.9624 55.1744 65.7754 55.4028 62.3596C55.4539 61.5816 55.8584 60.3709 56.2857 59.0862C57.5139 55.407 59.5685 49.2473 53.5552 47.2129H53.5579Z" fill="url(#paint6_linear_331_1224)"/>
<path d="M54.5428 34.3084C53.7728 33.6083 52.7314 33.2818 51.6981 33.4041C50.6472 33.5304 49.7039 34.1042 49.1113 34.979C48.1573 36.3899 46.702 38.3424 45.193 39.6364C44.0911 40.5811 44.2927 41.6157 44.4324 42.0175C45.4133 44.8622 52.5634 45.2089 52.6346 45.2116C52.8859 45.2224 53.1265 45.2291 53.3576 45.2291C55.6769 45.2291 57.0542 44.6755 57.5582 43.5481C58.6009 41.2167 57.1067 36.6398 54.5428 34.3084ZM55.1515 42.3185C53.9475 42.9474 48.9353 42.2675 47.3174 41.343C48.9098 39.8783 50.3677 37.9204 51.3366 36.4853C51.4911 36.2569 51.7397 36.105 52.0165 36.0728C52.1737 36.0526 52.4721 36.058 52.7368 36.2972C54.6449 38.032 55.4646 41.2086 55.1515 42.3185Z" fill="url(#paint7_linear_331_1224)"/>
<defs>
<linearGradient id="paint0_linear_331_1224" x1="46" y1="7.5" x2="46" y2="78.5" gradientUnits="userSpaceOnUse">
<stop stop-color="#D78D1F"/>
<stop offset="1" stop-color="#B75C1B"/>
</linearGradient>
<linearGradient id="paint1_linear_331_1224" x1="50" y1="6.5" x2="50" y2="79" gradientUnits="userSpaceOnUse">
<stop stop-color="#D78D1F"/>
<stop offset="1" stop-color="#B75C1B"/>
</linearGradient>
<linearGradient id="paint2_linear_331_1224" x1="45" y1="6" x2="45" y2="78.5" gradientUnits="userSpaceOnUse">
<stop stop-color="#D78D1F"/>
<stop offset="1" stop-color="#B75C1B"/>
</linearGradient>
<linearGradient id="paint3_linear_331_1224" x1="41" y1="5.5" x2="40.7249" y2="77.8702" gradientUnits="userSpaceOnUse">
<stop stop-color="#D78D1F"/>
<stop offset="1" stop-color="#B75C1B"/>
</linearGradient>
<linearGradient id="paint4_linear_331_1224" x1="45" y1="6" x2="45" y2="78" gradientUnits="userSpaceOnUse">
<stop stop-color="#D78D1F"/>
<stop offset="1" stop-color="#B75C1B"/>
</linearGradient>
<linearGradient id="paint5_linear_331_1224" x1="46" y1="3.5" x2="46" y2="79" gradientUnits="userSpaceOnUse">
<stop stop-color="#D78D1F"/>
<stop offset="1" stop-color="#B75C1B"/>
</linearGradient>
<linearGradient id="paint6_linear_331_1224" x1="45.5" y1="6" x2="45.5" y2="78" gradientUnits="userSpaceOnUse">
<stop stop-color="#D78D1F"/>
<stop offset="1" stop-color="#B75C1B"/>
</linearGradient>
<linearGradient id="paint7_linear_331_1224" x1="44" y1="3" x2="44" y2="79" gradientUnits="userSpaceOnUse">
<stop stop-color="#D78D1F"/>
<stop offset="1" stop-color="#B75C1B"/>
</linearGradient>
</defs>
</svg>
