<svg width="80" height="89" viewBox="0 0 80 89" fill="none" xmlns="http://www.w3.org/2000/svg">
<path d="M19.1927 0C18.6872 0 18.2232 0.284669 17.9815 0.744172L1.94763 31.1883C1.7156 31.6307 1.72192 32.1662 1.9719 32.5986C2.22189 33.031 2.67396 33.2954 3.1615 33.2954H10.8925L0.191562 52.0753C-0.146812 52.6689 -0.0279926 53.4304 0.477495 53.8814C0.735764 54.1111 1.05797 54.227 1.38115 54.227C1.68776 54.227 1.9943 54.1218 2.24705 53.912L9.73258 47.6995C9.78368 49.0009 9.98582 50.372 10.3449 51.752C11.5244 56.3056 14.0023 59.649 16.6085 60.381C20.9231 74.4244 31.8548 88.353 44.8539 88.353C57.8543 88.353 68.7847 74.4244 73.0993 60.381C75.7055 59.649 78.1847 56.3056 79.3656 51.752C80.8793 45.9097 79.604 40.8332 76.3956 39.9456C75.8736 39.8 75.126 39.7476 74.2269 40.0487C74.155 36.6823 73.6956 33.8126 72.8242 31.3667C72.4803 30.4035 72.583 30.0651 72.5733 30.0651C72.9683 29.7454 74.9882 30.0263 76.9163 30.8511C77.39 31.0537 77.9374 30.9677 78.3324 30.6281C78.7274 30.287 78.9069 29.747 78.7964 29.2289C75.3036 12.7125 63.4456 2.85405 47.0766 2.85405H44.8539C42.6814 2.85405 40.2298 3.19083 37.8404 3.74594L38.8628 2.24924C39.1597 1.814 39.1974 1.24303 38.9599 0.769256C38.7237 0.295484 38.2504 0 37.7352 0H19.1927ZM20.0154 2.85405H35.0701L22.3002 21.5336C22.0032 21.9688 21.9655 22.5398 22.2031 23.0136C22.4406 23.4874 22.9126 23.7856 23.4277 23.7856H34.1287L6.40118 46.802L14.4963 32.5958C14.7477 32.1549 14.7517 31.607 14.5044 31.1632C14.2586 30.718 13.8026 30.4441 13.3068 30.4441H5.48404L20.0154 2.85405ZM44.8539 5.7081H47.0766C61.4471 5.7081 71.6854 13.5688 75.5028 27.3838C73.8372 26.98 71.8319 26.8453 70.6635 28.0026C69.6912 28.9658 69.5482 30.4297 70.2346 32.3534C71.3118 35.3744 71.6862 39.1965 71.3837 44.0427C71.334 44.829 71.9107 45.509 72.6731 45.5589C72.7035 45.5603 72.7358 45.5617 72.7648 45.5617C73.4871 45.5617 74.0936 44.983 74.1405 44.2267C74.1626 43.8727 74.1712 43.5352 74.1864 43.1898C74.2651 43.157 74.3492 43.1422 74.4238 43.0923C74.7787 42.854 75.2844 42.5922 75.6808 42.7021C76.8851 43.0389 77.8828 46.4398 76.6978 51.0134C75.5694 55.3615 73.2684 57.6775 72.0392 57.6775H72.0365C71.426 57.6775 70.8847 58.0925 70.712 58.6976C66.8822 72.016 56.7715 85.4989 44.8566 85.4989C32.9417 85.4989 22.8297 72.016 18.9985 58.6976C18.8244 58.0925 18.2844 57.6775 17.674 57.6775H17.6713H17.6686C16.4394 57.6775 14.1384 55.3615 13.01 51.0134C12.4783 48.9613 12.3628 46.9155 12.6432 45.283L38.9167 23.4707C39.3739 23.0911 39.5511 22.457 39.3564 21.8848C39.1617 21.314 38.6391 20.9316 38.0535 20.9316H26.0956L35.3372 7.41106C38.3908 6.34935 41.9094 5.7081 44.8539 5.7081ZM44.5815 8.56773C43.8205 8.63052 43.2529 9.3158 43.3136 10.1007L43.5294 12.86C43.5861 13.6077 44.1898 14.1755 44.9025 14.1755C44.9397 14.1755 44.9758 14.1728 45.0131 14.1699C45.774 14.1071 46.3416 13.4191 46.2809 12.6342L46.0678 9.87491C46.007 9.08862 45.3203 8.49923 44.5815 8.56773ZM52.334 8.94957C51.5744 8.82685 50.8694 9.35224 50.7479 10.1285L50.3163 12.8544C50.192 13.6321 50.7019 14.3662 51.4547 14.4932C51.5306 14.5061 51.6067 14.5127 51.6812 14.5127C52.3456 14.5127 52.9303 14.0135 53.0408 13.3143L53.4724 10.5884C53.5953 9.81069 53.0867 9.07515 52.334 8.94957ZM59.2018 11.4357C58.6641 11.4311 58.1501 11.7571 57.9232 12.2997L56.8766 14.8082C56.5741 15.5303 56.8966 16.3701 57.5968 16.6812C57.775 16.7611 57.9607 16.801 58.1444 16.801C58.6789 16.801 59.1871 16.4778 59.4122 15.9398L60.4589 13.4313C60.7613 12.7078 60.4389 11.8681 59.7386 11.5556C59.5639 11.4764 59.3811 11.4373 59.2018 11.4357ZM65.2793 15.9203C64.9285 15.9659 64.5962 16.1492 64.3621 16.461L62.7706 18.582C62.3038 19.2042 62.4112 20.0994 63.0134 20.5832C63.2648 20.7858 63.5648 20.8842 63.8604 20.8842C64.272 20.8842 64.6808 20.692 64.9529 20.3295L66.5417 18.2113C67.0085 17.5891 66.9011 16.6939 66.2989 16.2101C65.9985 15.9682 65.6301 15.8746 65.2793 15.9203ZM39.9337 26.4697C39.3967 26.5072 38.9063 26.8687 38.7198 27.4284C38.4712 28.1733 38.854 28.9846 39.5749 29.2429C44.2638 30.9168 49.1573 31.768 54.1252 31.768C54.8875 31.7666 55.5036 31.1287 55.5036 30.341C55.5036 29.5533 54.8848 28.914 54.1225 28.914C49.464 28.914 44.872 28.1161 40.4759 26.5449C40.296 26.4811 40.1127 26.4571 39.9337 26.4697ZM60.0569 28.914C59.2946 28.914 58.6758 29.5533 58.6758 30.341C58.6758 31.1287 59.2946 31.768 60.0569 31.768H64.5078C65.2702 31.768 65.8889 31.1287 65.8889 30.341C65.8889 29.5533 65.2702 28.914 64.5078 28.914H60.0569ZM28.5152 42.8136C27.978 42.857 27.4924 43.2265 27.3121 43.7863C27.0704 44.534 27.4624 45.3398 28.1861 45.5896L30.8189 46.4954C30.3175 47.0134 30.0042 47.7297 30.0042 48.5189C30.0042 50.0929 31.2431 51.3729 32.7664 51.3729C34.2898 51.3729 35.5287 50.0929 35.5287 48.5189C35.5287 48.3776 35.5075 48.2419 35.4882 48.1064L36.4728 48.4464C36.6178 48.4964 36.7662 48.5189 36.9098 48.5189C37.4885 48.5189 38.0274 48.1413 38.2208 47.5434C38.4625 46.7956 38.0705 45.987 37.3468 45.7373L29.0601 42.8832C28.8785 42.8204 28.6943 42.7991 28.5152 42.8136ZM63.2589 42.8136C63.08 42.799 62.8952 42.8204 62.714 42.8832L54.4273 45.7373C53.7036 45.987 53.3143 46.7956 53.556 47.5434C53.748 48.1413 54.2856 48.5189 54.8643 48.5189C55.0079 48.5189 55.1563 48.4936 55.3013 48.4436L56.2859 48.1064C56.2665 48.2434 56.2454 48.3776 56.2454 48.5189C56.2454 50.0929 57.4843 51.3729 59.0076 51.3729C60.531 51.3729 61.7699 50.0929 61.7699 48.5189C61.7699 47.7297 61.4566 47.0148 60.9552 46.4982L63.588 45.5924C64.3117 45.3426 64.7036 44.534 64.4619 43.7863C64.2807 43.2265 63.7956 42.8574 63.2589 42.8136Z" fill="url(#paint0_linear_331_1222)"/>
<defs>
<linearGradient id="paint0_linear_331_1222" x1="42.5" y1="-1.63625e-07" x2="42.5" y2="88.353" gradientUnits="userSpaceOnUse">
<stop stop-color="#D78D1F"/>
<stop offset="1" stop-color="#B75C1B"/>
</linearGradient>
</defs>
</svg>
