<svg width="86" height="62" viewBox="0 0 86 62" fill="none" xmlns="http://www.w3.org/2000/svg">
<path d="M42.6 62L42.2 60.2C49.6667 55.4 53.4 48.5333 53.4 39.6C53.4 36.5333 53 33.1333 52.2 29.4C51.9333 27.9333 51.6667 26.4667 51.4 25C51.2667 23.5333 51.2 22.0667 51.2 20.6C51.2 13.8 53 8.66666 56.6 5.19999C60.3333 1.73333 64.4667 -2.86102e-06 69 -2.86102e-06C74.3333 -2.86102e-06 78.4667 2 81.4 5.99999C84.3333 9.86666 85.8 14.6667 85.8 20.4C85.8 24.8 84.8 29.4667 82.8 34.4C80.9333 39.2 78.0667 43.7333 74.2 48C69.4 53.0667 64.1333 56.6667 58.4 58.8C52.8 60.9333 47.5333 62 42.6 62ZM0.400001 62L4.76837e-07 60.2C7.46667 55.4 11.2 48.5333 11.2 39.6C11.2 36.5333 10.8 33.1333 10 29.4C9.73333 27.9333 9.46667 26.4667 9.2 25C9.06667 23.5333 9 22.0667 9 20.6C9 13.8 10.8 8.66666 14.4 5.19999C18.1333 1.73333 22.2667 -2.86102e-06 26.8 -2.86102e-06C32.1333 -2.86102e-06 36.2667 2 39.2 5.99999C42.1333 9.86666 43.6 14.6667 43.6 20.4C43.6 24.8 42.6 29.4667 40.6 34.4C38.7333 39.2 35.8667 43.7333 32 48C27.2 53.0667 21.9333 56.6667 16.2 58.8C10.6 60.9333 5.33333 62 0.400001 62Z" fill="#F08B52"/>
</svg>
