<svg width="113" height="23" viewBox="0 0 113 23" fill="none" xmlns="http://www.w3.org/2000/svg">
<path d="M10.6586 1.30992C11.0522 0.697151 11.9478 0.69715 12.3414 1.30992L15.21 5.77599C15.3454 5.98682 15.555 6.13912 15.7974 6.20276L20.9313 7.55085C21.6357 7.73582 21.9125 8.58759 21.4513 9.15127L18.0903 13.2596C17.9316 13.4535 17.8515 13.7 17.8659 13.9501L18.1703 19.2494C18.212 19.9764 17.4874 20.5029 16.8089 20.2385L11.863 18.3115C11.6296 18.2205 11.3704 18.2205 11.137 18.3115L6.19116 20.2385C5.51258 20.5029 4.788 19.9764 4.82976 19.2494L5.13413 13.9501C5.1485 13.7 5.06843 13.4535 4.90976 13.2596L1.54871 9.15127C1.08756 8.58759 1.36432 7.73582 2.06872 7.55085L7.20264 6.20276C7.445 6.13912 7.65464 5.98682 7.79006 5.77599L10.6586 1.30992Z" fill="url(#paint0_radial_27_13)"/>
<path d="M33.148 1.38687C33.5383 0.751497 34.4617 0.751497 34.852 1.38687L37.5434 5.76754C37.6762 5.98366 37.8861 6.14124 38.1307 6.20839L43.0131 7.54869C43.7018 7.73774 43.976 8.56689 43.5359 9.12929L40.2993 13.2652C40.15 13.456 40.0751 13.6945 40.0884 13.9363L40.379 19.2271C40.4193 19.9598 39.6829 20.4849 39.0033 20.208L34.3772 18.3237C34.1354 18.2252 33.8646 18.2252 33.6228 18.3237L28.9967 20.208C28.3171 20.4849 27.5807 19.9598 27.621 19.2271L27.9116 13.9363C27.9249 13.6945 27.85 13.456 27.7007 13.2652L24.4641 9.12929C24.024 8.56689 24.2982 7.73774 24.9869 7.54869L29.8693 6.20839C30.1139 6.14124 30.3238 5.98366 30.4566 5.76754L33.148 1.38687Z" fill="url(#paint1_radial_27_13)"/>
<path d="M55.6586 1.30998C56.0522 0.697212 56.9478 0.697211 57.3414 1.30998L60.21 5.77605C60.3454 5.98688 60.555 6.13919 60.7974 6.20283L65.9313 7.55091C66.6357 7.73588 66.9125 8.58766 66.4513 9.15133L63.0903 13.2596C62.9316 13.4535 62.8515 13.7 62.8659 13.9501L63.1703 19.2494C63.212 19.9764 62.4874 20.5029 61.8089 20.2385L56.863 18.3115C56.6296 18.2205 56.3704 18.2205 56.137 18.3115L51.1911 20.2385C50.5126 20.5029 49.788 19.9764 49.8297 19.2494L50.1341 13.9501C50.1485 13.7 50.0684 13.4535 49.9097 13.2596L46.5487 9.15133C46.0875 8.58766 46.3643 7.73588 47.0687 7.55091L52.2026 6.20283C52.445 6.13919 52.6546 5.98688 52.79 5.77605L55.6586 1.30998Z" fill="url(#paint2_radial_27_13)"/>
<path d="M78.148 1.38687C78.5383 0.751497 79.4617 0.751497 79.852 1.38687L82.5434 5.76754C82.6762 5.98366 82.8861 6.14124 83.1307 6.20839L88.0131 7.54869C88.7018 7.73774 88.976 8.56689 88.5359 9.12929L85.2993 13.2652C85.15 13.456 85.0751 13.6945 85.0884 13.9363L85.379 19.2271C85.4193 19.9598 84.6829 20.4849 84.0033 20.208L79.3772 18.3237C79.1354 18.2252 78.8646 18.2252 78.6228 18.3237L73.9967 20.208C73.3171 20.4849 72.5807 19.9598 72.621 19.2271L72.9116 13.9363C72.9249 13.6945 72.85 13.456 72.7007 13.2652L69.4641 9.12929C69.024 8.56689 69.2982 7.73774 69.9869 7.54869L74.8693 6.20839C75.1139 6.14124 75.3238 5.98366 75.4566 5.76754L78.148 1.38687Z" fill="url(#paint3_radial_27_13)"/>
<path d="M100.659 1.30998C101.052 0.697212 101.948 0.697211 102.341 1.30998L105.21 5.77605C105.345 5.98688 105.555 6.13919 105.797 6.20283L110.931 7.55091C111.636 7.73588 111.912 8.58766 111.451 9.15133L108.09 13.2596C107.932 13.4535 107.852 13.7 107.866 13.9501L108.17 19.2494C108.212 19.9764 107.487 20.5029 106.809 20.2385L101.863 18.3115C101.63 18.2205 101.37 18.2205 101.137 18.3115L96.1911 20.2385C95.5126 20.5029 94.788 19.9764 94.8297 19.2494L95.1341 13.9501C95.1485 13.7 95.0684 13.4535 94.9097 13.2596L91.5487 9.15133C91.0875 8.58766 91.3643 7.73588 92.0687 7.55091L97.2026 6.20283C97.445 6.13919 97.6546 5.98688 97.79 5.77605L100.659 1.30998Z" fill="url(#paint4_radial_27_13)"/>
<defs>
<radialGradient id="paint0_radial_27_13" cx="0" cy="0" r="1" gradientUnits="userSpaceOnUse" gradientTransform="translate(23.8299 27.268) rotate(-134.346) scale(44.0986)">
<stop offset="0.5" stop-color="#F2C331"/>
</radialGradient>
<radialGradient id="paint1_radial_27_13" cx="0" cy="0" r="1" gradientUnits="userSpaceOnUse" gradientTransform="translate(45.7938 27.268) rotate(-133.074) scale(43.1725 43.0862)">
<stop offset="0.5" stop-color="#F2C331"/>
</radialGradient>
<radialGradient id="paint2_radial_27_13" cx="0" cy="0" r="1" gradientUnits="userSpaceOnUse" gradientTransform="translate(68.8299 27.268) rotate(-134.346) scale(44.0986 44.0986)">
<stop offset="0.5" stop-color="#F2C331"/>
</radialGradient>
<radialGradient id="paint3_radial_27_13" cx="0" cy="0" r="1" gradientUnits="userSpaceOnUse" gradientTransform="translate(90.7938 27.268) rotate(-133.074) scale(43.1725 43.0862)">
<stop offset="0.5" stop-color="#F2C331"/>
</radialGradient>
<radialGradient id="paint4_radial_27_13" cx="0" cy="0" r="1" gradientUnits="userSpaceOnUse" gradientTransform="translate(113.83 27.268) rotate(-134.346) scale(44.0986)">
<stop offset="0.5" stop-color="#F2C331"/>
</radialGradient>
</defs>
</svg>
