<svg width="21" height="21" viewBox="0 0 21 21" fill="none" xmlns="http://www.w3.org/2000/svg">
<path d="M9.3366 0.473588C9.7302 -0.157862 10.6258 -0.157863 11.0194 0.473588L13.888 5.07585C14.0234 5.29311 14.233 5.45006 14.4754 5.51564L19.6093 6.90483C20.3137 7.09544 20.5905 7.97319 20.1293 8.55405L16.7683 12.7876C16.6096 12.9874 16.5295 13.2415 16.5439 13.4992L16.8483 18.9601C16.89 19.7092 16.1654 20.2518 15.4869 19.9793L10.541 17.9936C10.3076 17.8998 10.0484 17.8998 9.815 17.9936L4.86914 19.9793C4.19056 20.2518 3.46598 19.7092 3.50774 18.9601L3.81211 13.4992C3.82648 13.2415 3.74641 12.9874 3.58774 12.7876L0.226688 8.55405C-0.234462 7.97319 0.0422976 7.09544 0.746698 6.90483L5.88062 5.51564C6.12298 5.45006 6.33262 5.29311 6.46804 5.07585L9.3366 0.473588Z" fill="url(#paint0_radial_27_40)"/>
<defs>
<radialGradient id="paint0_radial_27_40" cx="0" cy="0" r="1" gradientUnits="userSpaceOnUse" gradientTransform="translate(22.5079 27.2232) rotate(-133.486) scale(44.7914 44.7405)">
<stop offset="0.5" stop-color="#F2C331"/>
</radialGradient>
</defs>
</svg>
