<?xml version="1.0" encoding="utf-8"?>
<!-- Generator: Adobe Illustrator 25.2.1, SVG Export Plug-In . SVG Version: 6.00 Build 0)  -->
<svg version="1.1" id="Réteg_1" xmlns="http://www.w3.org/2000/svg" xmlns:xlink="http://www.w3.org/1999/xlink" x="0px" y="0px"
	 viewBox="0 0 524.68 95.36" style="enable-background:new 0 0 524.68 95.36;" xml:space="preserve">
<style type="text/css">
	.st0{fill:#333B41;}
	.st1{fill:#FFC107;}
	.st2{fill:#FFFFFF;}
	.st3{fill:#214F4B;}
	.st4{fill:none;stroke:#333B41;stroke-width:0.5;stroke-miterlimit:10;}
</style>
<g>
	<rect x="2.3" y="1.87" class="st0" width="84.94" height="84.94"/>
</g>
<g>
	<path class="st1" d="M110.25,15.97h23.39v7.8h-14.81v14.42h11.77v7.8h-11.77v16.76h14.81v7.8h-23.39V15.97z"/>
	<path class="st1" d="M141.2,67.77c-2.18-2.36-3.27-5.75-3.27-10.17V28.91c0-4.42,1.09-7.81,3.27-10.17
		c2.18-2.36,5.35-3.55,9.51-3.55c4.16,0,7.33,1.18,9.51,3.55c2.18,2.37,3.27,5.76,3.27,10.17v4.68h-8.11v-5.22
		c0-3.59-1.48-5.38-4.44-5.38s-4.44,1.79-4.44,5.38v29.86c0,3.53,1.48,5.3,4.44,5.3s4.44-1.77,4.44-5.3V47.54h-4.29v-7.8h12.39V57.6
		c0,4.42-1.09,7.81-3.27,10.17c-2.18,2.37-5.35,3.55-9.51,3.55C146.55,71.32,143.38,70.14,141.2,67.77z"/>
	<path class="st1" d="M169.02,15.97h23.39v7.8H177.6v14.42h11.77v7.8H177.6v16.76h14.81v7.8h-23.39V15.97z M181.5,3.34h9.35
		l-8.34,8.96h-6.47L181.5,3.34z"/>
	<path class="st1" d="M199.19,67.77c-2.13-2.36-3.2-5.75-3.2-10.17v-3.12h8.11v3.74c0,3.53,1.48,5.3,4.44,5.3
		c1.45,0,2.56-0.43,3.31-1.29c0.75-0.86,1.13-2.25,1.13-4.17c0-2.29-0.52-4.3-1.56-6.04c-1.04-1.74-2.96-3.83-5.77-6.28
		c-3.53-3.12-6-5.94-7.41-8.46c-1.4-2.52-2.1-5.37-2.1-8.54c0-4.31,1.09-7.65,3.27-10.02c2.18-2.36,5.35-3.55,9.51-3.55
		c4.1,0,7.21,1.18,9.32,3.55c2.1,2.37,3.16,5.76,3.16,10.17v2.26h-8.11v-2.81c0-1.87-0.36-3.23-1.09-4.09
		c-0.73-0.86-1.79-1.29-3.2-1.29c-2.86,0-4.29,1.74-4.29,5.22c0,1.98,0.53,3.82,1.6,5.53c1.06,1.71,3,3.79,5.81,6.24
		c3.59,3.12,6.05,5.95,7.41,8.5c1.35,2.55,2.03,5.53,2.03,8.96c0,4.47-1.11,7.9-3.31,10.29c-2.21,2.39-5.42,3.59-9.63,3.59
		C204.47,71.32,201.32,70.14,199.19,67.77z"/>
	<path class="st1" d="M224.76,62.9l15.9-39.13h-15.12v-7.8h24.32v7.64l-15.9,39.13h15.9v7.8h-25.1V62.9z"/>
	<path class="st1" d="M256.41,67.77c-2.13-2.36-3.2-5.75-3.2-10.17v-3.12h8.11v3.74c0,3.53,1.48,5.3,4.44,5.3
		c1.45,0,2.56-0.43,3.31-1.29c0.75-0.86,1.13-2.25,1.13-4.17c0-2.29-0.52-4.3-1.56-6.04c-1.04-1.74-2.96-3.83-5.77-6.28
		c-3.53-3.12-6-5.94-7.41-8.46c-1.4-2.52-2.1-5.37-2.1-8.54c0-4.31,1.09-7.65,3.27-10.02c2.18-2.36,5.35-3.55,9.51-3.55
		c4.1,0,7.21,1.18,9.32,3.55c2.1,2.37,3.16,5.76,3.16,10.17v2.26h-8.11v-2.81c0-1.87-0.36-3.23-1.09-4.09
		c-0.73-0.86-1.79-1.29-3.2-1.29c-2.86,0-4.29,1.74-4.29,5.22c0,1.98,0.53,3.82,1.6,5.53c1.06,1.71,3,3.79,5.81,6.24
		c3.59,3.12,6.05,5.95,7.41,8.5c1.35,2.55,2.03,5.53,2.03,8.96c0,4.47-1.11,7.9-3.31,10.29c-2.21,2.39-5.42,3.59-9.63,3.59
		C261.68,71.32,258.54,70.14,256.41,67.77z"/>
	<path class="st1" d="M283.69,15.97h23.39v7.8h-14.81v14.42h11.77v7.8h-11.77v16.76h14.81v7.8h-23.39V15.97z M296.17,3.34h9.35
		l-8.34,8.96h-6.47L296.17,3.34z"/>
	<path class="st1" d="M314.64,67.77c-2.18-2.36-3.27-5.75-3.27-10.17V28.91c0-4.42,1.09-7.81,3.27-10.17
		c2.18-2.36,5.35-3.55,9.51-3.55c4.16,0,7.33,1.18,9.51,3.55c2.18,2.37,3.27,5.76,3.27,10.17v4.68h-8.11v-5.22
		c0-3.59-1.48-5.38-4.44-5.38s-4.44,1.79-4.44,5.38v29.86c0,3.53,1.48,5.3,4.44,5.3s4.44-1.77,4.44-5.3V47.54h-4.29v-7.8h12.39V57.6
		c0,4.42-1.09,7.81-3.27,10.17c-2.18,2.37-5.35,3.55-9.51,3.55C319.99,71.32,316.82,70.14,314.64,67.77z"/>
	<path class="st0" d="M342.47,15.97h8.58v23l10.91-23h8.58L360.32,36l10.37,34.53h-8.96l-7.25-24.32l-3.43,6.94v17.38h-8.58V15.97z"
		/>
	<path class="st0" d="M381.37,15.97h11.62l8.89,54.57h-8.58l-1.56-10.84v0.16h-9.74l-1.56,10.68h-7.95L381.37,15.97z M390.72,52.45
		l-3.82-26.97h-0.16L383,52.45H390.72z"/>
	<path class="st0" d="M406,15.97h8.58v46.77h14.11v7.8H406V15.97z"/>
	<path class="st0" d="M439.75,15.97h11.62l8.89,54.57h-8.58l-1.56-10.84v0.16h-9.74l-1.56,10.68h-7.95L439.75,15.97z M449.11,52.45
		l-3.82-26.97h-0.16l-3.74,26.97H449.11z"/>
	<path class="st0" d="M467.19,67.77c-2.18-2.36-3.27-5.75-3.27-10.17V15.97h8.57v42.25c0,1.87,0.38,3.22,1.13,4.05
		c0.75,0.83,1.83,1.25,3.23,1.25c1.4,0,2.48-0.42,3.24-1.25c0.75-0.83,1.13-2.18,1.13-4.05V15.97h8.26V57.6
		c0,4.42-1.09,7.81-3.27,10.17c-2.18,2.37-5.35,3.55-9.51,3.55C472.54,71.32,469.37,70.14,467.19,67.77z"/>
	<path class="st0" d="M493.85,62.9l15.9-39.13h-15.12v-7.8h24.32v7.64l-15.9,39.13h15.9v7.8h-25.1V62.9z"/>
</g>
<g>
	<path class="st1" d="M342.07,82.55h0.86v8.76h-0.86V82.55z"/>
	<path class="st1" d="M349.21,82.55h2.59c0.9,0,1.3,0.09,1.65,0.24c0.82,0.36,1.32,1.2,1.32,2.26c0,1.18-0.67,2.09-1.66,2.37v0.02
		c0,0,0.09,0.11,0.22,0.35l1.91,3.53h-0.99l-1.98-3.69h-2.21v3.69h-0.86V82.55z M352.16,86.85c1.06,0,1.73-0.69,1.73-1.78
		c0-0.72-0.29-1.26-0.8-1.53c-0.26-0.14-0.57-0.21-1.25-0.21h-1.77v3.53H352.16z"/>
	<path class="st1" d="M365.11,88.53h-3.53l-1,2.79h-0.91l3.22-8.76h0.92l3.22,8.76h-0.91L365.11,88.53z M363.34,83.46
		c0,0-0.19,0.72-0.34,1.13l-1.17,3.18h3.02l-1.15-3.18c-0.15-0.41-0.34-1.13-0.34-1.13H363.34z M363.82,80.46h0.99l-1.07,1.48h-0.77
		L363.82,80.46z"/>
	<path class="st1" d="M372.21,82.55h0.83l4.48,6.31c0.3,0.44,0.72,1.18,0.72,1.18h0.02c0,0-0.07-0.72-0.07-1.18v-6.31h0.86v8.76
		h-0.83l-4.48-6.31c-0.3-0.44-0.72-1.18-0.72-1.18H373c0,0,0.08,0.72,0.08,1.18v6.31h-0.86V82.55z"/>
	<path class="st1" d="M387.21,87.55l-2.96-5h0.99l1.86,3.18c0.26,0.45,0.54,1.05,0.54,1.05h0.02c0,0,0.26-0.59,0.54-1.05l1.86-3.18
		h0.97l-2.94,5v3.76h-0.87V87.55z"/>
	<path class="st1" d="M407.67,88.53h-3.53l-1,2.79h-0.91l3.22-8.76h0.92l3.22,8.76h-0.91L407.67,88.53z M405.89,83.46
		c0,0-0.19,0.72-0.34,1.13l-1.17,3.18h3.02l-1.15-3.18c-0.15-0.41-0.34-1.13-0.34-1.13H405.89z"/>
	<path class="st1" d="M414.03,90.71l4.53-6.58c0.32-0.46,0.61-0.8,0.61-0.8V83.3c0,0-0.21,0.02-0.64,0.02h-4.26v-0.77h5.97v0.61
		l-4.53,6.58c-0.32,0.47-0.62,0.8-0.62,0.8v0.02c0,0,0.22-0.02,0.65-0.02h4.54v0.77h-6.25V90.71z"/>
	<path class="st1" d="M433.02,82.55h4.94v0.77h-4.08v3.19h3.33v0.77h-3.33v3.25h4.3v0.77h-5.16V82.55z"/>
	<path class="st1" d="M447.63,82.4c2.03,0,3.12,1.02,3.12,1.02l-0.46,0.65c0,0-1.02-0.87-2.62-0.87c-2.12,0-3.55,1.63-3.55,3.71
		c0,2.16,1.48,3.75,3.48,3.75c1.71,0,2.75-1.28,2.75-1.28V87.9h-1.5v-0.77h2.32v4.19h-0.8v-0.66c0-0.19,0.01-0.37,0.01-0.37h-0.02
		c0,0-1.01,1.18-2.86,1.18c-2.39,0-4.29-1.93-4.29-4.54C443.22,84.4,445.12,82.4,447.63,82.4z"/>
	<path class="st1" d="M457,82.55h4.94v0.77h-4.08v3.19h3.33v0.77h-3.33v3.25h4.3v0.77H457V82.55z M460.07,80.46h0.99l-1.07,1.48
		h-0.77L460.07,80.46z"/>
	<path class="st1" d="M467.73,89.68c0,0,0.91,0.96,2.29,0.96c0.96,0,1.75-0.57,1.75-1.52c0-2.21-4.38-1.65-4.38-4.36
		c0-1.26,1.11-2.36,2.73-2.36c1.52,0,2.34,0.85,2.34,0.85l-0.42,0.72c0,0-0.77-0.75-1.92-0.75c-1.12,0-1.85,0.74-1.85,1.51
		c0,2.08,4.38,1.48,4.38,4.36c0,1.31-1.01,2.37-2.66,2.37c-1.79,0-2.78-1.12-2.78-1.12L467.73,89.68z"/>
	<path class="st1" d="M477.58,90.71l4.53-6.58c0.32-0.46,0.61-0.8,0.61-0.8V83.3c0,0-0.21,0.02-0.64,0.02h-4.26v-0.77h5.97v0.61
		l-4.53,6.58c-0.32,0.47-0.62,0.8-0.62,0.8v0.02c0,0,0.22-0.02,0.65-0.02h4.54v0.77h-6.25V90.71z"/>
	<path class="st1" d="M489.34,89.68c0,0,0.91,0.96,2.29,0.96c0.96,0,1.75-0.57,1.75-1.52c0-2.21-4.38-1.65-4.38-4.36
		c0-1.26,1.11-2.36,2.73-2.36c1.52,0,2.34,0.85,2.34,0.85l-0.42,0.72c0,0-0.77-0.75-1.92-0.75c-1.12,0-1.85,0.74-1.85,1.51
		c0,2.08,4.38,1.48,4.38,4.36c0,1.31-1.01,2.37-2.66,2.37c-1.79,0-2.78-1.12-2.78-1.12L489.34,89.68z"/>
	<path class="st1" d="M499.93,82.55h4.94v0.77h-4.08v3.19h3.33v0.77h-3.33v3.25h4.3v0.77h-5.16V82.55z M502.99,80.46h0.99
		l-1.07,1.48h-0.77L502.99,80.46z"/>
	<path class="st1" d="M514.54,82.4c2.03,0,3.12,1.02,3.12,1.02l-0.46,0.65c0,0-1.02-0.87-2.62-0.87c-2.12,0-3.55,1.63-3.55,3.71
		c0,2.16,1.48,3.75,3.48,3.75c1.71,0,2.75-1.28,2.75-1.28V87.9h-1.5v-0.77h2.32v4.19h-0.8v-0.66c0-0.19,0.01-0.37,0.01-0.37h-0.02
		c0,0-1.01,1.18-2.86,1.18c-2.39,0-4.29-1.93-4.29-4.54C510.13,84.4,512.02,82.4,514.54,82.4z"/>
</g>
<g>
	<g id="XMLID_2_">
		<g id="XMLID_8_">
			<g id="XMLID_1_">
				<path class="st2" d="M17.07,27.94c7.81,0,27.8-0.1,35.61-0.1l7.44-9.83H17.07C17.07,22.07,17.07,23.89,17.07,27.94"/>
			</g>
			<g id="XMLID_5_">
				<path class="st2" d="M17.07,61.22c0,4.5,0,5.24,0,9.74c15.11,0,27.99,0,43.1,0l-7.51-9.83H17.07"/>
			</g>
		</g>
		<g id="XMLID_470_">
			<polygon class="st1" points="46.67,44.49 67.22,70.96 80.72,70.96 60.11,44.67 80.72,18.02 67.25,18.02 			"/>
		</g>
	</g>
	<g>
		<rect x="9.37" y="38.4" class="st2" width="27.57" height="12.19"/>
	</g>
	<g>
		
			<rect x="9.37" y="38.28" transform="matrix(-1.836970e-16 1 -1 -1.836970e-16 67.5335 21.2208)" class="st2" width="27.57" height="12.19"/>
	</g>
	<g>
		
			<rect x="22.24" y="54.42" transform="matrix(-1.836970e-16 1 -1 -1.836970e-16 83.6661 37.3535)" class="st2" width="1.83" height="12.19"/>
	</g>
	<g>
		
			<rect x="22.24" y="22.28" transform="matrix(-1.836970e-16 1 -1 -1.836970e-16 51.5293 5.2166)" class="st2" width="1.83" height="12.19"/>
	</g>
</g>
<g>
	<path class="st0" d="M28.05,56.79h-9.79v-7.41H10.7v-9.78h7.57v-7.93h9.79v7.93h7.69v9.78h-7.69V56.79z M18.76,56.29h8.79v-7.41
		h7.69v-8.78h-7.69v-7.93h-8.79v7.93H11.2v8.78h7.57V56.29z"/>
</g>
<g>
	
		<rect x="27.66" y="38.67" transform="matrix(0.7071 -0.7071 0.7071 0.7071 -19.0784 31.7715)" class="st0" width="2.3" height="0.5"/>
</g>
<g>
	
		<rect x="16.43" y="49.84" transform="matrix(0.7071 -0.7071 0.7071 0.7071 -30.2719 27.1003)" class="st0" width="2.3" height="0.5"/>
</g>
<g>
	
		<rect x="16.54" y="57.18" transform="matrix(0.7071 -0.7071 0.7071 0.7071 -35.4263 29.3235)" class="st0" width="2.3" height="0.5"/>
</g>
<g>
	<rect x="8.93" y="49.63" transform="matrix(0.7071 -0.7071 0.7071 0.7071 -32.32 21.733)" class="st0" width="2.3" height="0.5"/>
</g>
<g>
	
		<rect x="27.29" y="31.15" transform="matrix(0.7071 -0.7071 0.7071 0.7071 -13.8764 29.3077)" class="st0" width="2.3" height="0.5"/>
</g>
<g>
	
		<rect x="35.1" y="38.96" transform="matrix(0.7071 -0.7071 0.7071 0.7071 -17.1104 37.1153)" class="st0" width="2.3" height="0.5"/>
</g>
<g>
	
		<rect x="17.6" y="30.26" transform="matrix(0.7071 -0.7071 0.7071 0.7071 -16.9789 21.8175)" class="st0" width="0.5" height="2.3"/>
</g>
<g>
	
		<rect x="17.33" y="37.77" transform="matrix(0.7071 -0.7071 0.7071 0.7071 -22.3691 23.8269)" class="st0" width="0.5" height="2.3"/>
</g>
<g>
	
		<rect x="28.56" y="48.94" transform="matrix(0.7071 -0.7071 0.7071 0.7071 -26.9812 35.0449)" class="st0" width="0.5" height="2.3"/>
</g>
<g>
	<rect x="36" y="48.73" transform="matrix(0.7071 -0.7071 0.7071 0.7071 -24.6542 40.24)" class="st0" width="0.5" height="2.3"/>
</g>
<g>
	
		<rect x="28.29" y="56.27" transform="matrix(0.707 -0.7072 0.7072 0.707 -32.2432 37.0107)" class="st0" width="0.5" height="2.3"/>
</g>
<g>
	<rect x="9.82" y="37.9" transform="matrix(0.707 -0.7072 0.7072 0.707 -24.667 18.567)" class="st0" width="0.5" height="2.3"/>
</g>
</svg>
