<?xml version="1.0" encoding="UTF-8" standalone="no"?>
<!DOCTYPE svg PUBLIC "-//W3C//DTD SVG 1.1//EN" "http://www.w3.org/Graphics/SVG/1.1/DTD/svg11.dtd">
<svg width="100%" height="100%" viewBox="0 0 500 108" version="1.1" xmlns="http://www.w3.org/2000/svg" xmlns:xlink="http://www.w3.org/1999/xlink" xml:space="preserve" xmlns:serif="http://www.serif.com/" style="fill-rule:evenodd;clip-rule:evenodd;stroke-linejoin:round;stroke-miterlimit:2;">
    <g>
        <g transform="matrix(1.5861,0,0,1.5861,-146.526,-88.8218)">
            <path d="M167.699,110.363L182.179,110.363L182.179,116.203L160.419,116.203L160.419,66.123L181.619,66.123L181.619,71.963L167.699,71.963L167.699,87.403L179.219,87.403L179.219,93.243L167.699,93.243L167.699,110.363Z" style="fill:white;fill-rule:nonzero;"/>
        </g>
        <g transform="matrix(1.5861,0,0,1.5861,-146.526,-88.8218)">
            <path d="M187.859,66.123L204.259,66.123C209.219,66.123 211.699,68.47 211.699,73.163L211.699,89.803C211.699,94.496 209.219,96.843 204.259,96.843L195.059,96.843L195.059,116.203L187.859,116.203L187.859,66.123ZM204.499,88.683L204.499,74.283C204.499,73.323 204.339,72.696 204.019,72.403C203.699,72.11 203.059,71.963 202.099,71.963L195.059,71.963L195.059,91.083L202.099,91.083C203.059,91.083 203.699,90.923 204.019,90.603C204.339,90.283 204.499,89.643 204.499,88.683Z" style="fill:white;fill-rule:nonzero;"/>
        </g>
        <g transform="matrix(1.5861,0,0,1.5861,-146.526,-88.8218)">
            <rect x="218.739" y="66.123" width="7.2" height="50.08" style="fill:white;"/>
        </g>
        <g transform="matrix(1.5861,0,0,1.5861,-146.526,-88.8218)">
            <path d="M260.659,66.123L250.099,91.243L260.579,116.203L252.739,116.203L242.579,91.243L252.899,66.123L260.659,66.123ZM234.899,116.203L234.899,66.123L242.099,66.123L242.099,116.203L234.899,116.203Z" style="fill:white;fill-rule:nonzero;"/>
        </g>
        <g transform="matrix(1.5861,0,0,1.5861,-146.526,-88.8218)">
            <path d="M287.459,71.963L272.899,71.963L272.899,88.443L284.419,88.443L284.419,94.123L272.899,94.123L272.899,116.203L265.619,116.203L265.619,66.123L287.459,66.123L287.459,71.963Z" style="fill:white;fill-rule:nonzero;"/>
        </g>
        <g transform="matrix(1.5861,0,0,1.5861,-146.526,-88.8218)">
            <path d="M299.299,66.123L308.179,66.123C313.139,66.123 315.619,68.47 315.619,73.163L315.619,109.163C315.619,113.856 313.139,116.203 308.179,116.203L299.299,116.203C294.286,116.203 291.779,113.856 291.779,109.163L291.779,73.163C291.779,68.47 294.286,66.123 299.299,66.123ZM308.419,108.043L308.419,74.283C308.419,73.323 308.259,72.696 307.939,72.403C307.619,72.11 306.979,71.963 306.019,71.963L301.379,71.963C300.419,71.963 299.793,72.11 299.499,72.403C299.206,72.696 299.059,73.323 299.059,74.283L299.059,108.043C299.059,109.003 299.206,109.63 299.499,109.923C299.793,110.216 300.419,110.363 301.379,110.363L306.019,110.363C306.979,110.363 307.619,110.216 307.939,109.923C308.259,109.63 308.419,109.003 308.419,108.043Z" style="fill:white;fill-rule:nonzero;"/>
        </g>
        <g transform="matrix(1.5861,0,0,1.5861,-146.526,-88.8218)">
            <path d="M330.819,95.963L330.819,116.203L323.619,116.203L323.619,66.123L340.019,66.123C344.979,66.123 347.459,68.47 347.459,73.163L347.459,88.843C347.459,92.896 345.673,95.216 342.099,95.803L350.019,116.203L342.259,116.203L334.739,95.963L330.819,95.963ZM330.819,71.963L330.819,90.203L337.859,90.203C338.819,90.203 339.459,90.056 339.779,89.763C340.099,89.47 340.259,88.843 340.259,87.883L340.259,74.283C340.259,73.323 340.099,72.696 339.779,72.403C339.459,72.11 338.819,71.963 337.859,71.963L330.819,71.963Z" style="fill:white;fill-rule:nonzero;"/>
        </g>
        <g transform="matrix(1.5861,0,0,1.5861,-146.526,-88.8218)">
            <path d="M378.339,80.763L371.059,80.763L371.059,74.123C371.059,73.163 370.899,72.536 370.579,72.243C370.259,71.95 369.619,71.803 368.659,71.803L364.579,71.803C363.619,71.803 362.979,71.95 362.659,72.243C362.339,72.536 362.179,73.163 362.179,74.123L362.179,108.283C362.179,109.243 362.339,109.87 362.659,110.163C362.979,110.456 363.619,110.603 364.579,110.603L368.659,110.603C369.619,110.603 370.259,110.456 370.579,110.163C370.899,109.87 371.059,109.243 371.059,108.283L371.059,96.043L367.059,96.043L367.059,90.443L378.339,90.443L378.339,109.163C378.339,113.91 375.859,116.283 370.899,116.283L362.339,116.283C357.379,116.283 354.899,113.91 354.899,109.163L354.899,73.163C354.899,68.47 357.379,66.123 362.339,66.123L370.899,66.123C375.859,66.123 378.339,68.47 378.339,73.163L378.339,80.763Z" style="fill:white;fill-rule:nonzero;"/>
        </g>
        <g transform="matrix(1.5861,0,0,1.5861,-146.526,-88.8218)">
            <path d="M393.139,110.363L407.619,110.363L407.619,116.203L385.859,116.203L385.859,66.123L407.059,66.123L407.059,71.963L393.139,71.963L393.139,87.403L404.659,87.403L404.659,93.243L393.139,93.243L393.139,110.363Z" style="fill:white;fill-rule:nonzero;"/>
        </g>
    </g>
    <g>
        <g transform="matrix(1.5861,0,0,1.5861,-146.526,-88.8218)">
            <path d="M117.699,107.814L92.381,124L143.018,124L117.699,107.814Z" style="fill:white;"/>
        </g>
        <g transform="matrix(1.5861,0,0,1.5861,-146.526,-88.8218)">
            <path d="M117.699,98.173L92.381,114.359L117.699,56L143.018,114.359L117.699,98.173Z" style="fill:white;"/>
        </g>
    </g>
</svg>
