<svg xmlns="http://www.w3.org/2000/svg" xmlns:xlink="http://www.w3.org/1999/xlink" version="1.1" id="Layer_1" x="0px" y="0px" viewBox="0 0 186 33" style="enable-background:new 0 0 186 33;" xml:space="preserve">
<style type="text/css">
	.st0{fill:#000016;}
	.st1{fill:#F69220;}
</style>
<g>
	<g>
		<path class="st0" d="M85 0v9H72.5709305c-4.5804062 0-8.3527069 1.7360945-11.3201523 4.1 C58.4183769 15.3 57 18.3 57 21.2733269c0 3 1.4 5.9 4.3 8.1 C64.2182236 31.8 68 33 72.6 33h12.1388016H98V0H85z M85 28.0433922h-6.1220627 c-2.5986023 0-4.6940384-0.7100754-6.3142624-2.1155777c-1.5207596-1.272934-2.2900238-2.9252586-2.2900238-4.6544876 c0-1.7398586 0.7148972-3.456831 2.2900238-4.6544876C74.3079224 15.3 76.3 15 78.9 15H85V28.0433922z"/>
		<rect class="st1" width="13" height="6"/>
		<g>
			<rect y="9" class="st0" width="12.9" height="24"/>
		</g>
		<path class="st0" d="M122.9845352 14H137V9h-20.3083191c-4.591301 0-8.3810196 1.7360945-11.3415756 4.1 c-2.8182373 2.2067614-4.2329865 5.1554575-4.2329865 8.1502962c0 3 1.4 5.9 4.2 8.1 C108.3106613 31.8 112.1 33 116.7 33H137v-4.9566078h-14.0154648 c-6.6511993 0.0121632-7.6614914-3.2494564-8.040863-4.0433922H137v-6h-22.0563278 C115.5293884 17.1 117.1 14 123 14z"/>
		<path class="st0" d="M39.0367889 9H17v24h13.2694931V15h7.2503738c3.8147812-0.1127167 3.8 3 3.8 3.8 V33H54V17.0604858C54 15.4 54 9 39 9z"/>
		<polygon class="st0" points="182.5,9 167.2,9 161.3,14.7 155.3,9 140,9 153.6,21.3 140,33 155.3,33 161.3,27.9 167.2,33 182.5,33 168.9,21.3"/>
	</g>
</g>
</svg>
