<svg width="40" height="42" viewBox="0 0 40 42" fill="none" xmlns="http://www.w3.org/2000/svg">
<path d="M20.0045 10.0417C14.3291 10.0417 9.75125 14.7601 9.75125 20.6099C9.75125 26.4597 14.3291 31.1781 20.0045 31.1781C25.6799 31.1781 30.2577 26.4597 30.2577 20.6099C30.2577 14.7601 25.6799 10.0417 20.0045 10.0417ZM20.0045 27.4806C16.3369 27.4806 13.3385 24.3994 13.3385 20.6099C13.3385 16.8204 16.3279 13.7392 20.0045 13.7392C23.681 13.7392 26.6704 16.8204 26.6704 20.6099C26.6704 24.3994 23.6721 27.4806 20.0045 27.4806ZM33.0686 9.60936C33.0686 10.9798 31.9978 12.0744 30.6771 12.0744C29.3475 12.0744 28.2856 10.9706 28.2856 9.60936C28.2856 8.24809 29.3564 7.14436 30.6771 7.14436C31.9978 7.14436 33.0686 8.24809 33.0686 9.60936ZM39.8595 12.1112C39.7078 8.80916 38.976 5.88427 36.6291 3.47445C34.2911 1.06464 31.4534 0.310424 28.2499 0.144865C24.9481 -0.0482882 15.0519 -0.0482882 11.7501 0.144865C8.55549 0.301227 5.71779 1.05544 3.37089 3.46526C1.02398 5.87507 0.301171 8.79996 0.140547 12.102C-0.0468489 15.5051 -0.0468489 25.7054 0.140547 29.1086C0.292248 32.4106 1.02398 35.3355 3.37089 37.7453C5.71779 40.1551 8.54657 40.9093 11.7501 41.0749C15.0519 41.2681 24.9481 41.2681 28.2499 41.0749C31.4534 40.9185 34.2911 40.1643 36.6291 37.7453C38.9671 35.3355 39.6988 32.4106 39.8595 29.1086C40.0468 25.7054 40.0468 15.5143 39.8595 12.1112ZM35.594 32.7601C34.8979 34.5629 33.5505 35.9518 31.7925 36.6784C29.1601 37.7545 22.9136 37.5062 20.0045 37.5062C17.0954 37.5062 10.8399 37.7453 8.2164 36.6784C6.46737 35.9609 5.11991 34.5721 4.41495 32.7601C3.37089 30.0468 3.61182 23.6084 3.61182 20.6099C3.61182 17.6114 3.37981 11.1638 4.41495 8.45964C5.11099 6.65688 6.45845 5.26802 8.2164 4.54139C10.8489 3.46526 17.0954 3.7136 20.0045 3.7136C22.9136 3.7136 29.169 3.47445 31.7925 4.54139C33.5416 5.25882 34.889 6.64768 35.594 8.45964C36.638 11.173 36.3971 17.6114 36.3971 20.6099C36.3971 23.6084 36.638 30.056 35.594 32.7601Z" fill="white"/>
</svg>
