<svg width="23" height="23" viewBox="0 0 23 23" fill="none" xmlns="http://www.w3.org/2000/svg">
<path d="M15.8125 4.3125H18.6875C19.4826 4.3125 20.125 4.95488 20.125 5.75V17.25C20.125 18.0451 19.4826 18.6875 18.6875 18.6875H15.8125C15.0174 18.6875 14.375 19.3299 14.375 20.125C14.375 20.9201 15.0174 21.5625 15.8125 21.5625H18.6875C21.0684 21.5625 23 19.6309 23 17.25V5.75C23 3.36914 21.0684 1.4375 18.6875 1.4375H15.8125C15.0174 1.4375 14.375 2.07988 14.375 2.875C14.375 3.67012 15.0174 4.3125 15.8125 4.3125ZM15.3902 12.5152C15.9518 11.9537 15.9518 11.0418 15.3902 10.4803L9.64023 4.73027C9.07871 4.16875 8.1668 4.16875 7.60527 4.73027C7.04375 5.2918 7.04375 6.20371 7.60527 6.76523L10.9025 10.0625H1.4375C0.642383 10.0625 0 10.7049 0 11.5C0 12.2951 0.642383 12.9375 1.4375 12.9375H10.9025L7.60527 16.2348C7.04375 16.7963 7.04375 17.7082 7.60527 18.2697C8.1668 18.8313 9.07871 18.8313 9.64023 18.2697L15.3902 12.5197V12.5152Z" fill="white"/>
</svg>
