<svg id="Layer_1" data-name="Layer 1" xmlns="http://www.w3.org/2000/svg" viewBox="0 0 448.05 183.35"><defs><style>.cls-1{fill:#fff;}.cls-2{fill:none;}.cls-3{fill:#a4d816;}</style></defs><path class="cls-1" d="M448,107.94a43.44,43.44,0,0,0-1-8.61l-.06-.26c-.21-.87-.45-1.92-.72-3.1-.31-1.43-.65-2.92-1-4.49s-.72-3-1.1-4.57-.67-2.71-.94-3.84L442.4,80a17.79,17.79,0,0,0-6.73-10.6c-.35-.26-.71-.51-1.07-.74a22.24,22.24,0,0,0-16.08-3.17c-.68.13-1.34.3-2,.49a16.65,16.65,0,0,0-1.4-1.74,18.23,18.23,0,0,0-16.33-5.64l-.21,0a16.57,16.57,0,0,0-10.41,6l-.15.19c-.7.86-1.38,1.75-2,2.65a28.4,28.4,0,0,0-3.09,5.11c-.08.18-.15.36-.23.55l-.6.07A26.69,26.69,0,0,0,371.92,77c-.56.36-1.1.74-1.63,1.13a18.72,18.72,0,0,0-10.6-1.36,16.57,16.57,0,0,0-1.7.36l-.11,0a16,16,0,0,0-1.53.49,37,37,0,0,0-4.51,2.08,18,18,0,0,0-5.35-1.22,23.6,23.6,0,0,0-5.13.24c-.42.07-.83.14-1.24.23a18.43,18.43,0,0,0-1.88-2.44A18.22,18.22,0,0,0,322,71l-.22,0a16.62,16.62,0,0,0-10.49,6.09l-.09.11c-.68.85-1.36,1.73-2,2.63a30.37,30.37,0,0,0-1.8,2.66,21.43,21.43,0,0,0-4.92.35,23.65,23.65,0,0,0-10.8,5.23,24.41,24.41,0,0,0-2.73-.76,21.91,21.91,0,0,0-7.55-.3,21.9,21.9,0,0,0-13.83,7.18,17.72,17.72,0,0,0-4.21-3.08,16.62,16.62,0,0,0-10.23-8.58l-.38-.11-.12,0a20.41,20.41,0,0,0-2.12-.47,19.84,19.84,0,0,0-2.13-.24c-.65-.05-1.29-.09-1.92-.1h-.62a17.92,17.92,0,0,0-8.07,2c-.39,0-.78-.08-1.17-.1-.63,0-1.25-.08-1.87-.09h-.82a17.86,17.86,0,0,0-12,5,17.55,17.55,0,0,0-3.32,4.48,17.5,17.5,0,0,0-6.23-5.73,18.34,18.34,0,0,0-10-2.25,21,21,0,0,0-4.08.64h-.08a16.55,16.55,0,0,0-13.86,18.5,19.63,19.63,0,0,0-1.59,1.45,18.85,18.85,0,0,0-9.71-1,17.14,17.14,0,0,0-1.73.36l-.11,0c-.52.14-1,.31-1.54.5a39.19,39.19,0,0,0-5.85,2.83l-.32.19a17.79,17.79,0,0,0-4.75-1,23.64,23.64,0,0,0-5.2.24,26.69,26.69,0,0,0-10.13,3.81A28.29,28.29,0,0,0,136,118c-.25.31-.46.64-.69,1a22.22,22.22,0,0,0-5-3.61,24.33,24.33,0,0,0-6.28-2.29,22.12,22.12,0,0,0-7.63-.29,23.38,23.38,0,0,0-8.64,3,20.11,20.11,0,0,0-2.69,0,28.1,28.1,0,0,0-7.06,1.13,16.57,16.57,0,0,0-9.77-7.77L87.9,109l-.16,0a18.08,18.08,0,0,0-2.22-.49,16.41,16.41,0,0,0-1.94-.21c-.61-.06-1.23-.09-1.85-.11a17.71,17.71,0,0,0-13,5,17.53,17.53,0,0,0-5.14,10.52c-.38.2-.75.42-1.12.64-.49-.19-1-.36-1.49-.51a16.59,16.59,0,0,0-16.69-7.69l-.6.1c-.28,0-.74.12-1.44.26l-.85.18a17.71,17.71,0,0,0-1.93.53l-.26.08c-.49.13-1.06.28-1.7.43-.94.23-1.93.49-3,.77l-.31.09a18.61,18.61,0,0,0-6.58-.14,18,18,0,0,0-9.7,4.86l-4.73,1.47a18.31,18.31,0,0,0-10.65,8.44A18.71,18.71,0,0,0,.21,145.43a17.84,17.84,0,0,0,16.3,15.15c.47,0,.93,0,1.4.06q.29,1.08.57,2.13c.49,1.82,1,3.54,1.48,5.09A48.46,48.46,0,0,0,22,173.25l.16.37a16.61,16.61,0,0,0,15.1,9.73,14.46,14.46,0,0,0,1.47-.07l.41,0c.84-.08,1.57-.17,2.13-.25a18.65,18.65,0,0,0,7-2.58,21.61,21.61,0,0,0,4.57.49,23.8,23.8,0,0,0,3.64-.29A22.58,22.58,0,0,0,65,177.39a18.19,18.19,0,0,0,7.38,1.54,19.55,19.55,0,0,0,2.53-.17,20.32,20.32,0,0,0,8-2.85,19.16,19.16,0,0,0,4.69.61,19.74,19.74,0,0,0,2.91-.23,17.59,17.59,0,0,0,7.37-3,19.76,19.76,0,0,0,2.17.14,19.42,19.42,0,0,0,2.85-.21l.2,0a18.83,18.83,0,0,0,8.32-3.51,21.12,21.12,0,0,0,6.66,1.07,23.9,23.9,0,0,0,3.64-.29,22.71,22.71,0,0,0,8.89-3.51,34,34,0,0,0,4.85-3.85,44.91,44.91,0,0,0,3.77-4.1c.08-.1.15-.21.24-.31a17.82,17.82,0,0,0,14.32,7,19.79,19.79,0,0,0,2.53-.17,20.71,20.71,0,0,0,9.14-3.59,16.79,16.79,0,0,0,4.36.59,16.58,16.58,0,0,0,5.51-.94l.52-.19,7.91-2.78c1.5-.53,2.81-1,3.93-1.38a19.43,19.43,0,0,0,6.84.48,18.91,18.91,0,0,0,6.29-1.86,16.94,16.94,0,0,0,5.46.08l.18,0,.53-.11H207c.65,0,1.32,0,1.93-.1a23.16,23.16,0,0,0,3.83-.7,25.84,25.84,0,0,0,4.71-1.79,15.87,15.87,0,0,0,2.42-1.43c.18-.12.34-.25.51-.37a19.09,19.09,0,0,0,7.05,1.35,19.8,19.8,0,0,0,3.25-.27,17,17,0,0,0,2.11-.49,23.06,23.06,0,0,0,2.67-1,18.91,18.91,0,0,0,8,.49,17.67,17.67,0,0,0,5.63-1.9,18.47,18.47,0,0,0,3.23.29,18.18,18.18,0,0,0,2.86-.22,17.58,17.58,0,0,0,13.43-10.34,21.65,21.65,0,0,0,2.36,1.91,20.67,20.67,0,0,0,11.89,3.66,25.13,25.13,0,0,0,3.21-.23,17.31,17.31,0,0,0,8.11,12.6,17.76,17.76,0,0,0,7.6,2.57,24.17,24.17,0,0,0,4.47.43,22.43,22.43,0,0,0,8-1.5,24.35,24.35,0,0,0,10.52-8,31.31,31.31,0,0,0,4.73-9.08,44.76,44.76,0,0,0,1.28-4.68,25.94,25.94,0,0,0,3.42-1.78,18.4,18.4,0,0,0,7.38,1.54,19.55,19.55,0,0,0,2.53-.17,20.22,20.22,0,0,0,7.55-2.57,16.44,16.44,0,0,0,10.32-.23l.52-.18,7.91-2.79,4-1.4a18.17,18.17,0,0,0,7.88,1.78,19.55,19.55,0,0,0,2.53-.17,20.81,20.81,0,0,0,9.67-3.95,22,22,0,0,0,7.68.22A17.42,17.42,0,0,0,410.25,140a17.73,17.73,0,0,0,7.7,2.6,22.8,22.8,0,0,0,4.41.43,22.27,22.27,0,0,0,8-1.49,24.48,24.48,0,0,0,10.54-8,31.18,31.18,0,0,0,4.72-9.06,45.48,45.48,0,0,0,1.93-8.31A52.86,52.86,0,0,0,448,107.94ZM387.43,73c0-.12.07-.24.11-.35l.51.41Z"/><path class="cls-1" d="M345.56,82.5c-.09-1.15-.2-2.56-.44-4.06-.25-1.88-.51-3.74-.77-5.6-.45-3.2-.87-6.22-1.22-9.34-.85-7-1.64-14.08-2.41-21.08.64.07,1.29.13,1.94.14a22.16,22.16,0,0,0,3-.13,21.44,21.44,0,0,0,12.46-5.8,27.22,27.22,0,0,0,6.18-11.33,21.51,21.51,0,0,0,.27-6.47,21,21,0,0,0-8-14.29,21.67,21.67,0,0,0-29.9,3.23,16.68,16.68,0,0,0-5.8-1c-2.08,0-7.65,0-12,4.31a14.42,14.42,0,0,0-4.09,10.84c0,.39,0,.77.07,1.15A16.87,16.87,0,0,0,299,27a37.52,37.52,0,0,0-2.14-8c-3-7.71-11.89-11.64-20-8.8a15.31,15.31,0,0,0-6.29,4,16.52,16.52,0,0,0-4-.59c-4.78-.12-8.16,1-10.54,2.75l-.25,0-.5,0c-9.44-.23-15.16,4.78-16.1,14.11-.68,6.26-1.45,12.7-2.22,19l-1.12-1.79-4.35-6.89a16.92,16.92,0,0,0-10.85-7.31,18.22,18.22,0,0,0-3.87-.39A15.1,15.1,0,0,0,202.18,22a17.44,17.44,0,0,0-10.09,2.35,14.13,14.13,0,0,0-6.52,12.13,18.1,18.1,0,0,0,1.55,8,30.21,30.21,0,0,0-8.46,1.63l-.2.07a35.36,35.36,0,0,0-16.7,12.41,30.58,30.58,0,0,0-3-7.5,17.49,17.49,0,0,0-15.31-8.87h-.21c-6.31,0-14.33,2-19.63,10.7a20.59,20.59,0,0,0-17.82-2.75A17.86,17.86,0,0,0,95.89,57c.26-10.64-5.3-15.14-10-17l-.54-.2c-5.39-1.89-11.17-1.94-17.67-.16l-.26.07a41.8,41.8,0,0,0-12.8,6.54c-2-.33-7.62-1.21-12.48,2.66s-5.27,9.58-5.39,11.71l0,.43a20.6,20.6,0,0,0,2.17,9.36c.09.19.18.38.26.59.7,2.49,1.36,5,2,7.48.72,2.7,1.44,5.4,2.19,8.1h0c.77,2.79,1.53,5.55,2.28,8.31,1.09,4,2.17,7.89,3.28,11.83.64,2.38,1.3,4.75,2,7.13s1.29,4.63,1.92,7A13.55,13.55,0,0,0,66,131.17c.5,0,1,0,1.53,0l.83,0c5.84-.4,9.74-3.3,11.86-6.94a17.93,17.93,0,0,0,6.61-4.61l.18-.2a104.18,104.18,0,0,0,7.52-9.51c.16.64.32,1.28.5,1.93,1.9,7,6.09,10.38,9.27,12a17.45,17.45,0,0,0,7.6,1.92,21.23,21.23,0,0,0,7.8-1.37l.14-.06a25.68,25.68,0,0,0,10.55-7.43,21.3,21.3,0,0,0,6.43,3.48,26.63,26.63,0,0,0,8.24,1.52,28,28,0,0,0,16.35-5l.2-.13a32.5,32.5,0,0,0,5.54-4.87,14,14,0,0,0,10.52,7.27,23.13,23.13,0,0,0,3.09.29,19.08,19.08,0,0,0,9.92-2.4l.33-.2a47.28,47.28,0,0,0,8.19-6.34,13.59,13.59,0,0,0,9.91,4.52,12.27,12.27,0,0,0,1.48,0c2.74,0,7.84-.23,11.79-4.39,4.32-4.55,3.88-10.21,3.73-12.27s-.42-3.78-.67-5.39l-.18-1.1c.88,1.43,1.76,2.86,2.62,4.29l.08.13c6.29,10.08,14.68,12.54,21,12.69h1.16l.4,0a14,14,0,0,0,12.3-7.93,14.08,14.08,0,0,0,2.77,2.79,15.18,15.18,0,0,0,8.93,3,22.1,22.1,0,0,0,3.79-.25l.18,0c.43-.07.86-.16,1.3-.27a14.82,14.82,0,0,0,7,1.92c7.07.17,12.63-3.54,14.94-9.94.15-.41.29-.82.42-1.22l7.3,2,.21,0c2.84.72,8.29,2.08,13.5-.46a15.35,15.35,0,0,0,6,1.35c2.4,0,8,.19,12.34-4.21s4.16-10,4.07-12.38Z"/><path class="cls-2" d="M116.59,71.76c-.55-1-1.32-2.09-2.7-2A3.22,3.22,0,0,0,111.32,72a16.09,16.09,0,0,0-1.16,5.12,57.37,57.37,0,0,0,.77,10.9c.68,5,.78,10.2,2.15,15.16.21.69.31,1.61,1.1,1.74,1,.26,1.39-.65,1.87-1.32,3.08-4.16,2.74-9.21,3.54-13.77-.27-3.33-.42-6.42-.8-9.52A27.67,27.67,0,0,0,116.59,71.76Z"/><path class="cls-2" d="M344.18,28.52a7,7,0,0,0,6.15-8A7.11,7.11,0,1,0,336.21,22,7.14,7.14,0,0,0,344.18,28.52ZM342.72,16.6a5.73,5.73,0,0,1,3.25.31,2.53,2.53,0,0,1,1.12,1.91,2.36,2.36,0,0,1-1.65,2.33v.11a2.72,2.72,0,0,1,1.92,2,7,7,0,0,0,.93,2.21l-2.28.26a7.74,7.74,0,0,1-1-2.15c-.28-1-.89-1.36-2.06-1.23l-1,.11.41,3.68-2.12.24-1-9.14A17.72,17.72,0,0,1,342.72,16.6Z"/><path class="cls-2" d="M342.86,20.88c1.17-.14,2.08-.63,2-1.58s-.77-1.33-2.11-1.18a5.53,5.53,0,0,0-1.16.25l.3,2.62Z"/><path class="cls-2" d="M61.33,79.58c.43,1.27,1.11,1.75,2.17.4,2.25-3,4.72-6,6.75-9.11,2.37-3.61,5-7.21,6.23-11.41.25-1.14.62-2.16-1.21-2.21a2.57,2.57,0,0,0-.8.1,29.27,29.27,0,0,0-11.72,6.47c-2.11,1.89-3.88,4.14-3.39,7.36A43.05,43.05,0,0,0,61.33,79.58Z"/><path class="cls-3" d="M55,83.32c1.89,6.8,3.68,13.48,5.58,20.17,1.26,4.72,2.63,9.45,3.89,14.18.52,2,1.91,1.42,3.17,1.45s2.53-.4,2.57-2a24.31,24.31,0,0,0-.31-6.42c-.84-3.11-1.8-6-2.64-9-.74-2.53-2.17-5.09-1.3-7.93,2-6.36,6.45-10.72,12-14a21.21,21.21,0,0,1,8.21-3.23c3.33-.38,5.22,2,3.88,5a24.18,24.18,0,0,1-1.56,2.94A131,131,0,0,1,78.4,98.09a65,65,0,0,0-6.88,10.13c-1.69,3.4-.59,5.14,3.2,5a5,5,0,0,0,3.36-1.86A110.3,110.3,0,0,0,93,89.28c2-3.84,4.19-7.57,4.53-12s-1.45-6.33-5.79-6.66a32.9,32.9,0,0,0-12.53,1.76c-.57.21-1.28.88-1.83.3-.67-.82.37-1.26.73-1.82,3-4.28,5.7-8.45,5.71-13.83.06-2.29.23-4.8-2.49-5.9a17.36,17.36,0,0,0-10.53.09,32.12,32.12,0,0,0-11.5,6.59c-1.75,1.45-3.17,3.48-5.39.67-.23-.23-.8-.25-1.25-.37-3.2-.54-3.78,0-4,3.22-.06,2.4,1.27,4,1.91,6.12C52.11,72.72,53.47,78,55,83.32Zm7.8-19.5a29.27,29.27,0,0,1,11.72-6.47,2.54,2.54,0,0,1,.8-.1c1.83,0,1.46,1.07,1.2,2.21-1.24,4.2-3.85,7.8-6.22,11.41-2,3.15-4.5,6.07-6.75,9.11-1.06,1.35-1.74.87-2.17-.4a43.05,43.05,0,0,1-2-8.4C58.87,68,60.64,65.71,62.75,63.82Z"/><path class="cls-3" d="M284.58,93.69a2.48,2.48,0,0,0,2.58,2.47c1.6,0,2.75-.28,3.37-2.09.85-2.16.68-4.45.84-6.62a10.36,10.36,0,0,0-.25-3.79c0-1.48.4-2,2-1.55,6.48,1.76,13.08,3.52,19.56,5.28,6,1.52,7,.63,6.88-5.44.05-1.72-.63-2.3-2.23-2.23a51.76,51.76,0,0,1-13.24-1.58,29.57,29.57,0,0,1-7.62-2.36c-2-1-2-1.54-.61-3.11a46.62,46.62,0,0,0,4-4.48c6.62-8.42,11-17.93,14.64-27.92a9.53,9.53,0,0,0,.33-4c-.08-1.49-1-2.08-2.46-2.35a5.1,5.1,0,0,0-5.8,3.07c-1.44,2.83-2.88,5.54-4.21,8.37A162.22,162.22,0,0,1,291.8,64.91c-.36.56-.6,1.24-1.29,1.11s-.43-.93-.53-1.5c-1.38-9.19-1-18.46-2-27.75-.47-4.48-.59-9.06-2.31-13.34a3.73,3.73,0,0,0-4.88-1.84,3,3,0,0,0-2.15,3.5c.37,3.56.75,7.12,1,10.67.82,9,1.63,17.9,2.33,26.85l1.56,20.64C283.84,86.69,284.21,90.25,284.58,93.69Z"/><path class="cls-3" d="M255,28.41c-3.2-.08-3.55.25-3.85,3.34-.89,8.11-1.89,16.32-2.89,24.54-1,8.45-1.9,17-2.91,25.46-.12.57.2,1.5-.61,1.7s-1-.82-1.34-1.29c-2.54-4-5-7.79-7.39-11.74-5-7.68-9.81-15.47-14.66-23.14-1.33-2.09-5.09-2.75-7.07-1.43-1.39,1-1.22,3.18.21,5.61,7.93,12.79,15.87,25.58,23.68,38.47,2.76,4.42,6.36,7.14,11.74,7,1.49-.08,2.19-.63,2.34-2.12.17-2,.44-4.11.61-6.16C254,77.38,254.92,66,256,54.53c.75-7.19,1.5-14.5,2.25-21.7a1.4,1.4,0,0,1,.13-.68C258.44,29.29,257.77,28.59,255,28.41Z"/><path class="cls-3" d="M154.78,106.92c7-4.87,9-11.92,8.38-20-.19-1.61-.26-3.32-2.54-3.61s-3.46.72-4,2.88c-.77,3.53-1.54,7.06-2.54,10.59-1,3.75-3.92,5.85-7.6,6.34-2.64.39-4.31-1.71-5.86-3.69a13.11,13.11,0,0,1-2.07-4.63c-1.66-7-1.49-14-.63-21.08a36.79,36.79,0,0,1,2.42-9.9c.24-.57.38-1.6,1.29-1.58s.66,1.05.88,1.63a19.42,19.42,0,0,0,2.5,5.44A5.4,5.4,0,0,0,150.13,72c.92-.09,1.5-.42,1.41-1.34-.58-4.71-.81-9.4-3.22-13.59a5.55,5.55,0,0,0-5.2-2.87c-6.53,0-9.25,3.67-11,8.55-1.48,4.43-1.71,9-1.85,15.07.3,6.42-.35,14.3,2.56,21.81,1.62,3.93,3.47,7.87,7.9,9.35A15.34,15.34,0,0,0,154.78,106.92Z"/><path class="cls-3" d="M120.17,65.9c-2.9-3.39-6.28-5.65-10.89-4.28-2.08.64-3.93,1.74-4.22,4.14-1.52,10.49-2.68,20.88-.76,31.35.71,3.79,1.3,7.7,2.35,11.5,1.27,4.61,4.55,6.07,8.94,4.46a13.73,13.73,0,0,0,6.3-4.78c3.9-5.17,4.51-11.22,4.91-18.54.39-1.82-.34-4.81-.49-7.91C125.64,76.1,124.06,70.45,120.17,65.9Zm-4.12,37.68c-.48.67-.84,1.58-1.87,1.32-.79-.13-.89-1.05-1.1-1.74-1.37-5-1.47-10.11-2.15-15.16a57.43,57.43,0,0,1-.77-10.9A16.09,16.09,0,0,1,111.32,72a3.2,3.2,0,0,1,2.57-2.23c1.38-.08,2.15,1,2.7,2a27.6,27.6,0,0,1,2.2,8.53c.38,3.1.53,6.19.8,9.52C118.79,94.37,119.13,99.42,116.05,103.58Z"/><path class="cls-3" d="M174,89.52c4,.45,7.35-1,10.6-2.83,2.08-1.09,4.29-2.18,6.92-2.12,1.71.15,2.15.85,1.32,2.32a22.89,22.89,0,0,1-3.2,4.27,85.33,85.33,0,0,1-11,10.38c-1.4,1.11-1.32,2.49-1.13,3.87a2.09,2.09,0,0,0,1.9,1.88,8.12,8.12,0,0,0,5.4-.67c6.86-4.19,11.47-10.14,14.84-17.27a8.94,8.94,0,0,0-.91-9.64c-2.55-3.38-6.77-3.94-11.75-1.77-3,1.3-5.69,3.41-9.13,3.9-2.53.39-3.66-.44-3.37-3,.72-5.82,3-10.68,7.68-14.35a4.65,4.65,0,0,1,4.25-.81,14.59,14.59,0,0,0,3.09.19c2-.07,3.37-2.1,3.31-4.5-.06-2.07-.84-2.77-3.24-2.94a17.75,17.75,0,0,0-7,1c-8.32,3-15.15,10.74-15.16,20.81a14.71,14.71,0,0,0,1.41,7.94A6.12,6.12,0,0,0,174,89.52Z"/><path class="cls-3" d="M266.74,41.17c-1.28.66-.4,2.39-.66,3.53a10.27,10.27,0,0,0-.05,1.84c-.06,2.51.23,4.92.4,7.33.64,6.43,1.64,12.75,2.63,19.18.87,6.21,1.76,12.3,2.64,18.5.38,2.87,1.51,3.59,5,3.1,2.53-.4,2.23-2.24,2.16-4a64.85,64.85,0,0,0-.88-6.43c-1.62-13.55-3.12-27-4.63-40.53-.08-1-.17-2.29-1.53-2.67A6.88,6.88,0,0,0,266.74,41.17Z"/><path class="cls-3" d="M320.74,37.78l0,1.61a52.9,52.9,0,0,0,.52,7.22c.63,6.89,1.73,13.55,2.71,20.33.88,6.2,1.88,12.3,2.76,18.5a2.53,2.53,0,0,0,2.8,2.47c3.66.09,4.24-.35,4.11-4.13-.09-1.15-.17-2.41-.37-3.56-.68-5.17-1.47-10.23-2-15.28C330.05,55.53,329,46,328,36.59c-.09-1.15-.41-2.08-1.66-2.45C322.81,32.91,320.83,34.24,320.74,37.78Z"/><path class="cls-3" d="M203.8,49.38c-2-.05-2.43.85-2.47,2.68-.28,6.86.7,13.64,1.68,20.42,1.26,9.19,3,18.28,4,27.46.29,2.07,1.06,3.35,3.13,3,3.66.09,4.25-.35,4-3.79-.16-2.41-.68-4.83-1-7.24-.66-5.39-1.22-10.79-1.89-16.19-.85-7.34-2-14.81-2.55-22.27C208.38,49.37,206.89,49.34,203.8,49.38Z"/><path class="cls-3" d="M201.48,41.31c2.85.18,3.79-.6,4-3.11.07-2.75-1-4.15-3.56-4.21-3.32-.08-4.24.47-4.3,2.75C197.5,39.83,198.73,41.24,201.48,41.31Z"/><path class="cls-3" d="M321.26,26c2.4.06,3.45-.83,3.5-3,0-2.87-1.27-4.27-3.9-4.22-3.09-.07-4,.71-4,2.88C316.94,24.75,318.17,25.93,321.26,26Z"/><path class="cls-3" d="M266.25,32.91c2.63.07,3.68-.71,3.73-2.88.18-2.75-1.15-4.27-3.67-4.33-3.2-.07-3.9.36-4,2.77C262.28,31.56,263.39,32.84,266.25,32.91Z"/><path d="M342.39,26.18,342,22.5l1-.12c1.18-.13,1.79.26,2.06,1.24a7.74,7.74,0,0,0,1,2.15l2.29-.26a7.16,7.16,0,0,1-.93-2.21,2.71,2.71,0,0,0-1.93-2v-.11a2.36,2.36,0,0,0,1.66-2.34,2.55,2.55,0,0,0-1.12-1.9,5.68,5.68,0,0,0-3.26-.31,19,19,0,0,0-3.48.67l1,9.15Zm.33-8.06c1.34-.15,2,.34,2.11,1.18s-.8,1.44-2,1.58l-1,.11-.3-2.62A5.53,5.53,0,0,1,342.72,18.12Z"/><path d="M344.34,30.48a9.26,9.26,0,1,0-10.47-8.2A9.34,9.34,0,0,0,344.34,30.48Zm-1.87-16.56a7.12,7.12,0,0,1,7.86,6.56,7.05,7.05,0,0,1-6.15,8,7.14,7.14,0,0,1-8-6.5A7.15,7.15,0,0,1,342.47,13.92Z"/><path d="M47,136.55l-.09-.57-.56.09-.73.14-.69.14q-.41.15-1.29.39c-.61.17-1.32.35-2.13.55s-1.68.42-2.57.66l-2.54.68-2.12.57-1.28.35-.29,0-.48-.51a3.15,3.15,0,0,0-.72-.59,1.76,1.76,0,0,0-1.24-.22,1.43,1.43,0,0,0-.94.62,2.84,2.84,0,0,0-.39.89,5.15,5.15,0,0,0-.13.85v.12L18,144.12a1.73,1.73,0,0,0-1.06.88,2,2,0,0,0-.3,1.3c.16,1,.81,1.14,1.09,1.16a4.29,4.29,0,0,0,1,0,15.36,15.36,0,0,0,2.84-.72c.89-.31,1.77-.65,2.66-1s1.74-.69,2.63-1a15.36,15.36,0,0,1,2.61-.66l.3,0c.36,1.05.71,2.23,1.06,3.51.41,1.47.81,3,1.21,4.64s.81,3.27,1.22,4.92.84,3.26,1.26,4.82.85,3,1.27,4.37a32.8,32.8,0,0,0,1.34,3.55l.16.37.41,0,1.06-.12a1.87,1.87,0,0,0,.9-.35,1.13,1.13,0,0,0,.37-1,3.29,3.29,0,0,0-.32-1,50.42,50.42,0,0,0-1.4-6.2q-.94-3.21-1.95-6.47c-.67-2.15-1.29-4.32-1.84-6.46a42.35,42.35,0,0,1-1.07-5.74c.39-.11.88-.23,1.46-.36l2.83-.67c1-.24,2.09-.52,3.17-.82a22.39,22.39,0,0,0,3-1.05,9.41,9.41,0,0,0,2.21-1.32A2.13,2.13,0,0,0,47,136.55Z"/><path d="M63.69,153.41a3.44,3.44,0,0,0-1.11,0c-.44.07-.84.42-1.23,1.1-.31.52-.64,1.17-1,2s-.76,1.58-1.22,2.46a15.62,15.62,0,0,1-1.54,2.44,11,11,0,0,1-1.93,2,4.71,4.71,0,0,1-2.26,1,2.15,2.15,0,0,1-1.54-.17,2.12,2.12,0,0,1-.73-1.07,7.84,7.84,0,0,1-.35-1.71c-.06-.67-.13-1.28-.22-1.84,0-.13,0-.33-.07-.59s0-.54,0-.86a8.94,8.94,0,0,1,0-1,3.72,3.72,0,0,1,.13-.79,11.8,11.8,0,0,1,1-.79l2-1.54c.76-.58,1.55-1.21,2.36-1.88s1.57-1.33,2.21-1.94a13.07,13.07,0,0,0,1.54-1.73c.45-.65.56-1.18.32-1.6a3.82,3.82,0,0,0-.9-1.86,5.76,5.76,0,0,0-1.66-1.32,7.85,7.85,0,0,0-2-.71,5.3,5.3,0,0,0-1.87-.1,6.24,6.24,0,0,0-3.12,1.22,7,7,0,0,0-1.88,2.29,14.2,14.2,0,0,0-1.08,2.83c-.27,1-.52,2-.75,3a23.41,23.41,0,0,1-.79,2.72,6.13,6.13,0,0,1-1.19,2.06q-.27.31-.39.48a1.13,1.13,0,0,0-.16.87A1.32,1.32,0,0,0,45,159.4a2.45,2.45,0,0,0,1.12.17,3.5,3.5,0,0,0,1-.21c.13.71.26,1.47.4,2.28a11.9,11.9,0,0,0,.94,3.08,5.8,5.8,0,0,0,1.94,2.36,4,4,0,0,0,2.38.67,6.94,6.94,0,0,0,1.08-.09,6.23,6.23,0,0,0,2.4-1,18.45,18.45,0,0,0,2.45-2,27.7,27.7,0,0,0,2.34-2.56,23.12,23.12,0,0,0,2-2.79,16.24,16.24,0,0,0,1.31-2.6,4.34,4.34,0,0,0,.37-2.22A1.24,1.24,0,0,0,63.69,153.41ZM50.56,152a5.85,5.85,0,0,1,.17-.88,10.5,10.5,0,0,1,.79-2.11,8.7,8.7,0,0,1,1.17-1.83,1.88,1.88,0,0,1,1.07-.74h0a3,3,0,0,1,.46,0h.2a4,4,0,0,1,.76.11,2.23,2.23,0,0,1,.61.25.26.26,0,0,1,.13.19,1.8,1.8,0,0,1-.53,1.23A13.59,13.59,0,0,1,53.62,150a16,16,0,0,1-2.14,1.54A8.89,8.89,0,0,1,50.56,152Z"/><path d="M80.8,152.12a4.8,4.8,0,0,0-1-1,3.86,3.86,0,0,0-1.24-.64,2.91,2.91,0,0,0-1.22-.1,7.09,7.09,0,0,0-1.93.59,16.34,16.34,0,0,0-1.66.89,16.55,16.55,0,0,1-1.56.83,5.53,5.53,0,0,1-1.53.48c-.28,0-.54.08-.81.1a1.4,1.4,0,0,1-.55,0,.62.62,0,0,1-.3-.16.75.75,0,0,1-.15-.41,7,7,0,0,1,.16-2.59,11.06,11.06,0,0,1,1.11-2.91A7.61,7.61,0,0,1,72,144.9a2.73,2.73,0,0,1,2.2-.67l.12,0a1,1,0,0,1,.22.09,2.18,2.18,0,0,0,.52.19,1.16,1.16,0,0,0,.43,0A2.39,2.39,0,0,0,77.32,142c-.17-1.13-.84-1.35-1.23-1.38a7.16,7.16,0,0,0-1.47.09,10.17,10.17,0,0,0-3.84,1.45,11.86,11.86,0,0,0-3.06,2.75,11.67,11.67,0,0,0-1.91,3.67,9.29,9.29,0,0,0-.32,4.22,6.7,6.7,0,0,0,1.33,3.34,3.26,3.26,0,0,0,3.23,1,4.17,4.17,0,0,0,1.87-.55l1.5-.89a14.67,14.67,0,0,1,1.73-.85,6.55,6.55,0,0,1,2.34-.41c.43,0,.75.1.76.2a2.77,2.77,0,0,1-.57,1.49,17.56,17.56,0,0,1-1.8,2.33c-.76.85-1.51,1.65-2.24,2.38s-1.36,1.32-1.91,1.78-.64.53-.73.59l.26.5-.56.09s0,.06,0,.09l0,.24h0a4.93,4.93,0,0,0,.31.94,1.29,1.29,0,0,0,1.26.72,1.87,1.87,0,0,0,.4,0,4.29,4.29,0,0,0,2.07-.93,14.22,14.22,0,0,0,2.11-1.92,28,28,0,0,0,2-2.45,18.66,18.66,0,0,0,1.67-2.62,10.66,10.66,0,0,0,.93-2.41,2.68,2.68,0,0,0-.11-2A3.69,3.69,0,0,0,80.8,152.12Z"/><path d="M88.56,159.42c-.18-1-.4-2.12-.67-3.43s-.54-2.7-.83-4.21-.57-2.92-.83-4.24l-.69-3.41c-.13-.63-.22-1.1-.28-1.42l6.8-4.23-.11-.41a9.15,9.15,0,0,0-.4-1.2,7.14,7.14,0,0,0-.34-.68.81.81,0,0,0-1-.43l-5.49,2.51c-.11-.48-.21-1-.29-1.56-.11-.85-.21-1.72-.3-2.62s-.15-1.8-.22-2.7-.14-1.75-.2-2.53l0-.39-.38-.11a1.51,1.51,0,0,0-.36-.08,1.27,1.27,0,0,0-.37,0c-.45-.05-.87-.07-1.28-.08a1.09,1.09,0,0,0-.88.3,1.12,1.12,0,0,0-.31.9L81.45,140,77.77,143v.26a3,3,0,0,0,.12.79,6.74,6.74,0,0,0,.3.86,4.09,4.09,0,0,0,.46.8,1.09,1.09,0,0,0,1,.48,2.05,2.05,0,0,0,.93-.16,2.91,2.91,0,0,0,.77-.46c.21-.16.42-.34.64-.53l3.82,17.72.21.13a3.17,3.17,0,0,0,1.6.51,1.56,1.56,0,0,0,.31,0c.44-.07,1.17-.42,1-2.05Q88.83,160.89,88.56,159.42Z"/><path d="M107.48,136.07a1.75,1.75,0,0,0-1.4-.32,10.09,10.09,0,0,0-5,1.14,6.56,6.56,0,0,0-2.82,3.4,14,14,0,0,0-.74,5.35c0,.6,0,1.22.11,1.87-.16-.51-.31-1-.47-1.59l-.81-2.82c-.26-.89-.48-1.7-.69-2.44a16.18,16.18,0,0,0-.59-1.87,1.24,1.24,0,0,0-1-.7,4,4,0,0,0-.77,0,2.1,2.1,0,0,0-1,.4,1.21,1.21,0,0,0-.45,1.19L98,159.24l.1.2a2.25,2.25,0,0,0,1.08.71,2.72,2.72,0,0,0,.8.12,3.28,3.28,0,0,0,.43,0,2.18,2.18,0,0,0,1.08-.47,1.24,1.24,0,0,0,.44-1.13,51.58,51.58,0,0,0-.35-6.06c-.23-1.91-.38-3.7-.46-5.33a19.25,19.25,0,0,1,.2-4.22,4.13,4.13,0,0,1,1.53-2.63l.09-.09a1.64,1.64,0,0,1,.88-.43l1.7-.42a9.07,9.07,0,0,0,1.69-.54,1.33,1.33,0,0,0,.94-1.47A2,2,0,0,0,107.48,136.07Z"/><path d="M128.89,143.24a3.75,3.75,0,0,0-1.11,0c-.45.07-.84.42-1.24,1.11a21.56,21.56,0,0,0-1,2c-.36.77-.77,1.59-1.22,2.47a16.61,16.61,0,0,1-1.54,2.43,11.81,11.81,0,0,1-1.94,2,4.81,4.81,0,0,1-2.26,1A1.72,1.72,0,0,1,116.3,153a8.09,8.09,0,0,1-.35-1.71c-.06-.68-.13-1.29-.21-1.84,0-.14,0-.33-.08-.59s0-.55,0-.87a9,9,0,0,1,0-1,3.52,3.52,0,0,1,.13-.78,9.39,9.39,0,0,1,1-.8l2-1.53c.76-.59,1.55-1.22,2.36-1.89s1.57-1.32,2.21-1.94a13.07,13.07,0,0,0,1.54-1.73c.45-.65.56-1.18.32-1.59a3.81,3.81,0,0,0-.9-1.87,5.6,5.6,0,0,0-1.66-1.31,7.49,7.49,0,0,0-2-.72,5.28,5.28,0,0,0-1.87-.09,6.24,6.24,0,0,0-3.12,1.22,7.11,7.11,0,0,0-1.88,2.28,14.69,14.69,0,0,0-1.08,2.83c-.27,1-.52,2-.75,3a22.25,22.25,0,0,1-.79,2.73,6.23,6.23,0,0,1-1.18,2.05l-.4.48a1.15,1.15,0,0,0-.16.88,1.37,1.37,0,0,0,.82,1.11,2.65,2.65,0,0,0,1.13.16,3.49,3.49,0,0,0,1-.21c.13.72.26,1.48.4,2.28a12.1,12.1,0,0,0,.94,3.09,5.83,5.83,0,0,0,1.94,2.35,4,4,0,0,0,2.38.67,6.94,6.94,0,0,0,1.08-.09,6.23,6.23,0,0,0,2.4-1,17,17,0,0,0,2.45-2,27.44,27.44,0,0,0,2.34-2.55,23.59,23.59,0,0,0,2-2.79,17.8,17.8,0,0,0,1.32-2.61,4.32,4.32,0,0,0,.36-2.22A1.24,1.24,0,0,0,128.89,143.24Zm-13.14-1.43a7,7,0,0,1,.17-.87,10.74,10.74,0,0,1,.79-2.12,9,9,0,0,1,1.17-1.82,1.94,1.94,0,0,1,1.07-.75h0a3.09,3.09,0,0,1,.45,0h.22a4.85,4.85,0,0,1,.75.11,2.11,2.11,0,0,1,.61.25.26.26,0,0,1,.13.2,1.73,1.73,0,0,1-.53,1.22,13.59,13.59,0,0,1-1.78,1.78,15.15,15.15,0,0,1-2.14,1.54A8.89,8.89,0,0,1,115.75,141.81Z"/><path d="M162.22,138.89a5.15,5.15,0,0,0-1-1,3.73,3.73,0,0,0-1.24-.63,2.87,2.87,0,0,0-1.21-.1,7,7,0,0,0-1.93.58c-.58.28-1.14.58-1.67.9a15.4,15.4,0,0,1-1.56.83,5.43,5.43,0,0,1-1.53.48c-.27,0-.54.08-.8.1a1.7,1.7,0,0,1-.56,0,.59.59,0,0,1-.29-.16.75.75,0,0,1-.16-.42,6.94,6.94,0,0,1,.17-2.58,11.33,11.33,0,0,1,1.1-2.92,8,8,0,0,1,1.82-2.26,2.78,2.78,0,0,1,2.2-.66l.13,0a.9.9,0,0,1,.21.08,2.14,2.14,0,0,0,.53.2,1.16,1.16,0,0,0,.43,0,2.4,2.4,0,0,0,1.88-2.58c-.18-1.13-.85-1.35-1.23-1.38a6.39,6.39,0,0,0-1.47.09,10,10,0,0,0-3.85,1.45,11.86,11.86,0,0,0-3.06,2.75,11.67,11.67,0,0,0-1.91,3.67,9.29,9.29,0,0,0-.32,4.22,6.8,6.8,0,0,0,1.33,3.34,3.29,3.29,0,0,0,3.24,1,4.09,4.09,0,0,0,1.86-.55l1.5-.89a15.49,15.49,0,0,1,1.73-.86,6.63,6.63,0,0,1,2.35-.4c.43,0,.74.09.75.2a2.68,2.68,0,0,1-.57,1.49,18.07,18.07,0,0,1-1.79,2.33c-.76.85-1.51,1.65-2.24,2.38s-1.37,1.32-1.91,1.78-.65.53-.74.59l.27.5-.57.09,0,.1,0,.23h0a4.24,4.24,0,0,0,.32.95,1.27,1.27,0,0,0,1.26.71l.4,0a4.37,4.37,0,0,0,2.07-.93,15.29,15.29,0,0,0,2.11-1.92c.68-.75,1.36-1.57,2-2.45a19.77,19.77,0,0,0,1.66-2.62,11.23,11.23,0,0,0,.94-2.41,2.72,2.72,0,0,0-.12-1.95A3.67,3.67,0,0,0,162.22,138.89Z"/><path d="M204.3,136c-.37-1.32-.74-2.58-1.12-3.78s-.74-2.43-1.1-3.74a41.08,41.08,0,0,1-1-4.65c.1-1.93-.25-3.24-1.08-4a3.16,3.16,0,0,0-3.31-.51,4.36,4.36,0,0,0-2.65,1.69,15.56,15.56,0,0,0-2,3.31,29.25,29.25,0,0,0-1.59,4.21,41,41,0,0,0-1.1,4.44,40.12,40.12,0,0,0-.58,4,16.27,16.27,0,0,0-.08,1.75,2.35,2.35,0,0,0-.53,0l-.3,0-14.56,5.42a8.06,8.06,0,0,1,.11-2.68,22.53,22.53,0,0,1,.88-3c.37-1,.79-2,1.25-3s.91-2,1.3-3.08a21.19,21.19,0,0,0,.89-3.18,9.28,9.28,0,0,0,.07-3.28,2,2,0,0,0-.74-1.38,2,2,0,0,0-1.54-.29l-.11,0a21.21,21.21,0,0,0-3.27,1.61l-3.65,2.12c-1.22.7-2.45,1.35-3.65,1.93a11.81,11.81,0,0,1-3.07,1l-.2,0-.14.15a1.21,1.21,0,0,0-.24,1.46,2.53,2.53,0,0,0,.83.87,4,4,0,0,0,1.05.53,1.23,1.23,0,0,0,1.08-.06c.73-.29,1.53-.65,2.39-1.09s1.78-.92,2.7-1.43,1.83-1,2.72-1.56l1.6-1c-.1.5-.26,1.11-.47,1.84q-.47,1.56-1.05,3.45c-.4,1.28-.81,2.62-1.22,4s-.75,2.78-1,4.08a28.93,28.93,0,0,0-.53,3.63,6.44,6.44,0,0,0,.28,2.81l.2.52.53-.19,7.88-2.78,5.3-1.85c1.39-.48,2.47-.84,3.25-1.09l1.77-.59.81-.28a.9.9,0,0,1,.24-.07l.13,0a4.85,4.85,0,0,0,1,1.48,2.43,2.43,0,0,0,1.7.71h.28a3.84,3.84,0,0,0,2.32-1.57,18.38,18.38,0,0,0,2.44-4.22,60.06,60.06,0,0,0,2.38-6.39,8.76,8.76,0,0,1,.37,1c.3.89.59,1.87.86,2.91s.55,2.08.81,3.1.53,1.9.79,2.62a1.12,1.12,0,0,0,.43.6,1.07,1.07,0,0,0,.8.28c.34,0,1.36-.21,1.47-1a3.85,3.85,0,0,0,0-1.06A42.7,42.7,0,0,0,204.3,136Zm-6.7-9.86c0,.47-.07,1-.13,1.49a13.54,13.54,0,0,1-.31,1.65c-.2.61-.47,1.4-.82,2.38s-.73,2-1.14,3.05-.82,2-1.26,2.95a13.28,13.28,0,0,1-1.19,2.11,2.46,2.46,0,0,1-.44.47,2.6,2.6,0,0,1-.34-1.09,19,19,0,0,1,.37-2.75c.23-1.13.51-2.36.86-3.65s.74-2.59,1.17-3.86a27.94,27.94,0,0,1,1.33-3.29,6.74,6.74,0,0,1,1.3-1.94c.15-.15.25-.2.32-.2h.05c.07.46.13.9.18,1.31A6.91,6.91,0,0,1,197.6,126.18Z"/><path d="M220.42,122a9.85,9.85,0,0,0-1-2.32,5.25,5.25,0,0,0-1.67-1.71,3.61,3.61,0,0,0-2.48-.45,9.53,9.53,0,0,0-2.3.48,6.78,6.78,0,0,0-2.3,1.4,16.48,16.48,0,0,0-2.2,2.45,25.05,25.05,0,0,0-1.5,2.25q-.33-2.25-.57-4.29c-.22-1.86-.4-3.64-.54-5.29s-.28-3.18-.43-4.57-.3-2.65-.46-3.69a1.46,1.46,0,0,0-.69-1.14,1.84,1.84,0,0,0-1-.22,4.69,4.69,0,0,0-1,.19,8.17,8.17,0,0,1-.9.2l-.57.09.09.57c.69,4,1.27,7.79,1.73,11.22s.88,6.62,1.25,9.56.74,5.68,1.09,8.22.78,5,1.27,7.18a.65.65,0,0,0,.65.51H207a3.71,3.71,0,0,0,.44,0,8.89,8.89,0,0,0,1.07-.21,11.22,11.22,0,0,0,1.77-.71,50.15,50.15,0,0,0,4.81-3.84,26.32,26.32,0,0,0,3.19-3.45,16,16,0,0,0,1.86-3,11,11,0,0,0,.84-2.69,10.62,10.62,0,0,0,.17-2.31,18.37,18.37,0,0,0-.18-1.89A19.88,19.88,0,0,0,220.42,122Zm-3.16,6.31a13.64,13.64,0,0,1-1.61,3.27,15.86,15.86,0,0,1-2.29,2.72c-.88.83-1.71,1.55-2.46,2.15s-1.44,1.11-2,1.49l-.3.21-1-7.2a23.7,23.7,0,0,1,1-2.75,17.65,17.65,0,0,1,1.57-3,11,11,0,0,1,2.1-2.4,5.06,5.06,0,0,1,2.54-1.19,1.67,1.67,0,0,1,1,.14,2.9,2.9,0,0,1,.9.73,4.14,4.14,0,0,1,.65,1,5.28,5.28,0,0,1,.32,1.08A9.24,9.24,0,0,1,217.26,128.31Z"/><path d="M241.61,134.65q-.27-1.46-.66-3.42c-.26-1.29-.54-2.7-.83-4.21s-.57-2.92-.84-4.24l-.68-3.41c-.13-.63-.22-1.1-.28-1.43l6.8-4.22-.11-.41a9.4,9.4,0,0,0-.4-1.21c-.12-.26-.24-.48-.35-.68a.8.8,0,0,0-1-.42l-5.5,2.5c-.11-.48-.2-1-.28-1.56q-.18-1.26-.3-2.61c-.08-.9-.16-1.8-.22-2.7l-.23-2.93-.38-.11a2.86,2.86,0,0,0-.36-.07,1.34,1.34,0,0,0-.38,0c-.44,0-.86-.08-1.27-.09a1.28,1.28,0,0,0-.89.31,1.15,1.15,0,0,0-.3.89l1.4,10.64-3.15,2.52-.13-.19a11.71,11.71,0,0,0-1.41-1.73,8,8,0,0,0-1.74-1.33,3.39,3.39,0,0,0-2.17-.4,3.57,3.57,0,0,0-1.06.38,5.58,5.58,0,0,0-.93.66,3,3,0,0,0-.72,1,2.18,2.18,0,0,0-.17,1.15c-.14,1.64-.26,3.16-.34,4.58a41.3,41.3,0,0,0-.06,4.14,30.73,30.73,0,0,0,.36,3.88,25.9,25.9,0,0,0,.9,3.81q.09.63.27,1.59a9.54,9.54,0,0,0,.59,2,4.84,4.84,0,0,0,1.14,1.7,2.2,2.2,0,0,0,1.58.61,3.88,3.88,0,0,0,.57-.05,7.11,7.11,0,0,0,3.22-2,9.07,9.07,0,0,0,1.91-3.18,15.89,15.89,0,0,0,.81-3.82,22.94,22.94,0,0,0,0-4.06,28,28,0,0,0-.63-3.93c-.11-.43-.22-.83-.34-1.24a1.89,1.89,0,0,0,.58-.14,3.64,3.64,0,0,0,.77-.46c.21-.16.42-.34.64-.53L238.8,138l.22.13a3.15,3.15,0,0,0,1.6.51l.31,0c.44-.07,1.16-.42,1-2C241.91,136.26,241.8,135.64,241.61,134.65ZM230.54,128a24.33,24.33,0,0,1-.12,2.66,12.67,12.67,0,0,1-.45,2.46,5.41,5.41,0,0,1-.86,1.77,1.85,1.85,0,0,1-1.13.71c-.08-.16-.15-.32-.22-.47s-.19-.47-.27-.69-.13-.44-.18-.67-.1-.5-.14-.78c-.21-1.31-.42-2.61-.64-3.92s-.4-2.53-.55-3.69a26.55,26.55,0,0,1-.24-3.17,10.53,10.53,0,0,1,.22-2.41,2.43,2.43,0,0,1,.67-1.3,1.28,1.28,0,0,1,1.11-.24h.17a.59.59,0,0,1,.51.12,2.53,2.53,0,0,1,.57.74,8.47,8.47,0,0,1,.49,1.21c.14.48.26.94.36,1.39s.18.86.23,1.21l.14.86c.07.44.14,1,.21,1.79S230.53,127.15,230.54,128Z"/><path d="M256.74,111.48a8.71,8.71,0,0,0-.41-1.21,6.86,6.86,0,0,0-.34-.67.8.8,0,0,0-1.05-.43l-5.49,2.51a15.64,15.64,0,0,1-.28-1.56c-.12-.85-.22-1.72-.3-2.62s-.16-1.8-.23-2.7l-.23-2.92-.38-.11a2,2,0,0,0-.36-.08,1.27,1.27,0,0,0-.37,0,11.39,11.39,0,0,0-1.27-.08,1.25,1.25,0,0,0-.89.3,1.2,1.2,0,0,0-.31.9l1.41,10.63-3.68,3v.26a2.78,2.78,0,0,0,.11.78,5.29,5.29,0,0,0,.31.87,4.07,4.07,0,0,0,.45.8,1,1,0,0,0,1,.48,2,2,0,0,0,.94-.16,3,3,0,0,0,.76-.46c.21-.16.42-.34.64-.53l3.82,17.72.21.13a3.17,3.17,0,0,0,1.6.51l.31,0c.45-.07,1.17-.42,1-2.05,0-.26-.16-.88-.34-1.86s-.4-2.12-.66-3.43-.54-2.7-.83-4.21L251,121l-.69-3.41c-.12-.63-.22-1.1-.28-1.43l6.81-4.22Z"/><path d="M293.72,117.43a3.75,3.75,0,0,0-1.11,0c-.44.07-.83.42-1.23,1.1-.3.52-.65,1.18-1,2s-.76,1.59-1.21,2.47a17.75,17.75,0,0,1-1.54,2.43,11.81,11.81,0,0,1-1.94,2,4.7,4.7,0,0,1-2.26,1,2.15,2.15,0,0,1-1.54-.17,2.22,2.22,0,0,1-.73-1.06,8.18,8.18,0,0,1-.35-1.72c-.06-.67-.13-1.28-.22-1.84,0-.13,0-.32-.07-.59s0-.55-.05-.86a8.94,8.94,0,0,1,0-1,3.52,3.52,0,0,1,.13-.78,9.39,9.39,0,0,1,.95-.8l2-1.53c.76-.59,1.55-1.22,2.36-1.89s1.57-1.32,2.21-1.94a13.07,13.07,0,0,0,1.54-1.73c.45-.65.56-1.18.32-1.59a3.81,3.81,0,0,0-.9-1.87,5.76,5.76,0,0,0-1.66-1.32,7.85,7.85,0,0,0-1.95-.71,5.28,5.28,0,0,0-1.87-.09,6.06,6.06,0,0,0-3.12,1.22,6.91,6.91,0,0,0-1.88,2.28,14.44,14.44,0,0,0-1.08,2.83c-.27,1-.52,2-.75,3a23.41,23.41,0,0,1-.79,2.72,6.13,6.13,0,0,1-1.19,2.06c-.18.22-.31.38-.38.48a1.08,1.08,0,0,0-.17.87,1.34,1.34,0,0,0,.82,1.11,2.49,2.49,0,0,0,1.13.17,3.49,3.49,0,0,0,1-.21c.13.71.26,1.47.4,2.28a11.9,11.9,0,0,0,.94,3.08,5.8,5.8,0,0,0,1.94,2.36,4,4,0,0,0,2.38.67,6.94,6.94,0,0,0,1.08-.09,6.23,6.23,0,0,0,2.4-1,17,17,0,0,0,2.45-2,26.36,26.36,0,0,0,2.34-2.56,24.29,24.29,0,0,0,2-2.79,15.45,15.45,0,0,0,1.31-2.6,4.22,4.22,0,0,0,.37-2.22A1.24,1.24,0,0,0,293.72,117.43ZM280.59,116a5.52,5.52,0,0,1,.17-.87,10.74,10.74,0,0,1,.79-2.12,8.62,8.62,0,0,1,1.17-1.82,1.89,1.89,0,0,1,1.07-.75h0a3.13,3.13,0,0,1,.46,0h.21a4,4,0,0,1,.75.11,2.23,2.23,0,0,1,.61.25.23.23,0,0,1,.13.19,1.74,1.74,0,0,1-.53,1.23,13.59,13.59,0,0,1-1.78,1.78,16.39,16.39,0,0,1-2.14,1.54A8.89,8.89,0,0,1,280.59,116Z"/><path d="M313.9,120.28c-.29-1.35-.62-2.77-1-4.24s-.69-2.94-1.05-4.39-.68-2.74-1-3.91-.52-2.11-.7-2.82c-.32-1.22-.36-1.29-.58-1.45a5.53,5.53,0,0,0-4.08-.92,7.22,7.22,0,0,0-3.55,1.87,14.35,14.35,0,0,0-2.78,3.76,26.83,26.83,0,0,0-2,4.77,30.77,30.77,0,0,0-1.13,5,19,19,0,0,0-.12,4.6l0,.12a9.34,9.34,0,0,0,1.17,2.26,4.12,4.12,0,0,0,1.89,1.57,3,3,0,0,0,2.47-.2,6.66,6.66,0,0,0,2.43-2.66,27,27,0,0,0,2.28-5.58q.78-2.53,1.52-6.14c.25,1.27.54,2.59.86,3.94.61,2.48,1.17,5,1.68,7.52a69.69,69.69,0,0,1,1.09,7.3,20.93,20.93,0,0,1-.28,6.36,10.14,10.14,0,0,1-2.38,4.75,9.59,9.59,0,0,1-5.29,2.71l-.2,0-.13.16a2.63,2.63,0,0,0-.57,1,.84.84,0,0,0,.38.94,1.21,1.21,0,0,0,.77.17l.29,0a7.78,7.78,0,0,0,2.26.37,5.61,5.61,0,0,0,2.05-.38,7.68,7.68,0,0,0,3.33-2.56,14.84,14.84,0,0,0,2.19-4.3,28.39,28.39,0,0,0,1.21-5.24,35.67,35.67,0,0,0,.31-5.58,27.59,27.59,0,0,0-.63-5.31C314.47,122.79,314.2,121.63,313.9,120.28Zm-8-13.63c-.34,1.24-.71,2.57-1.09,4s-.8,2.9-1.22,4.3-.86,2.7-1.32,3.88a16,16,0,0,1-1.32,2.76c-.33.52-.68.83-1,.87-.12,0-.4-.18-.72-.78a11.4,11.4,0,0,1,0-2.3,22.91,22.91,0,0,1,.42-3,32.29,32.29,0,0,1,.86-3.27,19.78,19.78,0,0,1,1.27-3,11,11,0,0,1,1.66-2.4,5.2,5.2,0,0,1,1.94-1.37,2,2,0,0,1,.3-.09A1.19,1.19,0,0,1,305.9,106.65Z"/><path d="M333,111.31a3.77,3.77,0,0,0-1.11,0c-.44.07-.84.42-1.23,1.11-.31.52-.64,1.16-1,2s-.76,1.58-1.22,2.46a15.62,15.62,0,0,1-1.54,2.44,11.31,11.31,0,0,1-1.93,2,4.81,4.81,0,0,1-2.26,1,2.15,2.15,0,0,1-1.54-.17,2.19,2.19,0,0,1-.73-1.07,8.09,8.09,0,0,1-.35-1.71c-.06-.67-.13-1.29-.22-1.84,0-.13,0-.33-.07-.59s0-.55,0-.87a8.83,8.83,0,0,1,0-1,3.72,3.72,0,0,1,.13-.79,10.49,10.49,0,0,1,1-.82l1.95-1.51c.76-.58,1.55-1.21,2.36-1.88s1.57-1.33,2.21-1.94a14.47,14.47,0,0,0,1.54-1.73c.45-.65.56-1.19.32-1.6a3.89,3.89,0,0,0-.9-1.87,6.05,6.05,0,0,0-1.66-1.31,7.13,7.13,0,0,0-1.95-.71,5.3,5.3,0,0,0-1.87-.1,6.31,6.31,0,0,0-3.13,1.22,7.14,7.14,0,0,0-1.87,2.29,14.2,14.2,0,0,0-1.08,2.83c-.27,1-.52,2-.75,3a25.07,25.07,0,0,1-.79,2.73,6.08,6.08,0,0,1-1.19,2l-.39.48a1.15,1.15,0,0,0-.16.88,1.34,1.34,0,0,0,.82,1.11,2.45,2.45,0,0,0,1.12.17,4.26,4.26,0,0,0,1-.21c.13.71.26,1.47.4,2.28a12,12,0,0,0,.94,3.08,5.86,5.86,0,0,0,1.94,2.36,4.12,4.12,0,0,0,2.38.67,6.94,6.94,0,0,0,1.08-.09,6.42,6.42,0,0,0,2.4-1,17,17,0,0,0,2.45-2,27.55,27.55,0,0,0,2.34-2.55,24.81,24.81,0,0,0,2-2.79,17.12,17.12,0,0,0,1.31-2.6,4.48,4.48,0,0,0,.37-2.23A1.23,1.23,0,0,0,333,111.31Zm-13.13-1.43A5.85,5.85,0,0,1,320,109a10.28,10.28,0,0,1,.79-2.11,8.7,8.7,0,0,1,1.17-1.83,1.88,1.88,0,0,1,1.07-.74h0a2.07,2.07,0,0,1,.46,0h.2a4,4,0,0,1,.76.11,2.23,2.23,0,0,1,.61.25.24.24,0,0,1,.13.19,1.77,1.77,0,0,1-.53,1.23,13.59,13.59,0,0,1-1.78,1.78,16.94,16.94,0,0,1-2.14,1.54C320.4,109.61,320.1,109.77,319.86,109.88Z"/><path d="M322.77,98.36l.29,0,.19-.23q.39-.5,1-1.14c.4-.46.77-.92,1.11-1.39a10.74,10.74,0,0,0,.89-1.43,3.31,3.31,0,0,0,.39-1.53l-.05-.3A2.12,2.12,0,0,0,326,91.2a1.64,1.64,0,0,0-1.55-.41l-.22,0-.14.17c-.56.7-1.12,1.43-1.68,2.18a11.94,11.94,0,0,0-1.32,2.13,2.7,2.7,0,0,0-.24,2C321.08,97.93,321.72,98.29,322.77,98.36Z"/><path d="M350.1,110a5.1,5.1,0,0,0-1-1,3.64,3.64,0,0,0-1.24-.63,2.91,2.91,0,0,0-1.22-.1,7.07,7.07,0,0,0-1.93.58c-.57.28-1.13.58-1.66.89a14.59,14.59,0,0,1-1.56.84,5.53,5.53,0,0,1-1.53.48l-.81.1a2,2,0,0,1-.55,0,.53.53,0,0,1-.3-.17.76.76,0,0,1-.15-.41,6.92,6.92,0,0,1,.16-2.58,11.26,11.26,0,0,1,1.11-2.92,7.87,7.87,0,0,1,1.82-2.26,2.8,2.8,0,0,1,2.2-.66l.12,0a.65.65,0,0,1,.22.08,2.14,2.14,0,0,0,.53.2,1.27,1.27,0,0,0,.42,0,2.11,2.11,0,0,0,1.45-.95,2.13,2.13,0,0,0,.43-1.62c-.17-1.14-.84-1.35-1.23-1.38a7.08,7.08,0,0,0-1.47.08,10.18,10.18,0,0,0-3.84,1.46,11.56,11.56,0,0,0-5,6.42,9.29,9.29,0,0,0-.32,4.22,6.74,6.74,0,0,0,1.33,3.34,3.28,3.28,0,0,0,3.23,1,4.17,4.17,0,0,0,1.87-.55l1.5-.89a12.68,12.68,0,0,1,1.73-.86,6.57,6.57,0,0,1,2.34-.4c.43,0,.75.09.76.2A2.87,2.87,0,0,1,347,114a18.23,18.23,0,0,1-1.8,2.33c-.76.85-1.51,1.65-2.24,2.38s-1.37,1.32-1.91,1.78-.64.53-.73.59l.26.5-.56.09h0s0,0,0,.07l0,.26h0a4.24,4.24,0,0,0,.31,1,1.29,1.29,0,0,0,1.26.71l.4,0a4.33,4.33,0,0,0,2.07-.93,15.29,15.29,0,0,0,2.11-1.92,29.61,29.61,0,0,0,2-2.45,18.18,18.18,0,0,0,1.67-2.63,11.09,11.09,0,0,0,.93-2.4,2.67,2.67,0,0,0-.11-2A3.69,3.69,0,0,0,350.1,110Z"/><path d="M376.42,111.26a2.43,2.43,0,0,0-1.5-.25l-.3,0-14.55,5.41a7.81,7.81,0,0,1,.11-2.68,20.21,20.21,0,0,1,.87-3q.56-1.5,1.26-3c.47-1,.9-2,1.29-3.08a22,22,0,0,0,.9-3.17,9.58,9.58,0,0,0,.06-3.29,2,2,0,0,0-.74-1.37,2,2,0,0,0-1.54-.29l-.11,0a21.54,21.54,0,0,0-3.27,1.6l-3.64,2.12c-1.22.71-2.45,1.36-3.66,1.93a11.4,11.4,0,0,1-3.07,1l-.2,0-.14.15A1.19,1.19,0,0,0,348,105a2.76,2.76,0,0,0,.83.88,4.27,4.27,0,0,0,1.05.52,1.25,1.25,0,0,0,1.08-.05c.73-.29,1.54-.66,2.39-1.09s1.79-.92,2.71-1.43,1.82-1,2.71-1.57l1.6-1c-.1.5-.26,1.12-.47,1.85q-.47,1.55-1.05,3.45c-.4,1.27-.81,2.61-1.22,4s-.75,2.81-1,4.09a28.54,28.54,0,0,0-.53,3.62,6.6,6.6,0,0,0,.28,2.81l.2.52.53-.18,7.88-2.78,5.3-1.86,3.25-1.09,1.77-.58c.42-.14.69-.24.81-.29l.24-.06.13,0a2,2,0,0,0,1.29-1.23,1.59,1.59,0,0,0-.25-1.4A3.14,3.14,0,0,0,376.42,111.26Z"/><path d="M399.61,86l.3,0,.18-.23,1-1.14c.4-.45.77-.92,1.12-1.39a10.25,10.25,0,0,0,.88-1.43,3.23,3.23,0,0,0,.39-1.54l0-.3a2.13,2.13,0,0,0-.54-1.15,1.65,1.65,0,0,0-1.55-.41l-.22,0-.14.17c-.57.7-1.13,1.43-1.68,2.17A12.35,12.35,0,0,0,398,83a2.6,2.6,0,0,0-.24,2C397.92,85.59,398.56,86,399.61,86Z"/><path d="M409.84,100.11a3.44,3.44,0,0,0-1.11,0c-.45.07-.84.42-1.24,1.1s-.64,1.17-1,2-.76,1.59-1.22,2.46a17.26,17.26,0,0,1-1.54,2.44,11.39,11.39,0,0,1-1.93,2,4.87,4.87,0,0,1-2.27,1,2.11,2.11,0,0,1-1.53-.17,2.14,2.14,0,0,1-.73-1.06,7.09,7.09,0,0,1-.35-1.72c-.06-.67-.14-1.28-.22-1.84,0-.13-.05-.33-.07-.59a7.25,7.25,0,0,1-.05-.86c0-.32,0-.66,0-1a4.49,4.49,0,0,1,.13-.79,9.45,9.45,0,0,1,1-.79l2-1.54c.76-.58,1.55-1.21,2.37-1.88s1.57-1.33,2.2-1.94a11.7,11.7,0,0,0,1.54-1.73q.69-1,.33-1.59a3.89,3.89,0,0,0-.9-1.87,6,6,0,0,0-1.66-1.32,8.07,8.07,0,0,0-2-.71,5,5,0,0,0-1.86-.09,6.18,6.18,0,0,0-3.13,1.21,7.17,7.17,0,0,0-1.88,2.29,14.84,14.84,0,0,0-1.08,2.83c-.27,1-.52,2-.74,3a27.32,27.32,0,0,1-.79,2.72,6.3,6.3,0,0,1-1.19,2.06,5.16,5.16,0,0,0-.39.48h0a5.21,5.21,0,0,0-.71-.7,3.83,3.83,0,0,0-1.24-.63,2.92,2.92,0,0,0-1.22-.1,6.85,6.85,0,0,0-1.93.59,16.34,16.34,0,0,0-1.66.89,16.55,16.55,0,0,1-1.56.83,5.53,5.53,0,0,1-1.53.48c-.28,0-.55.08-.81.1a1.7,1.7,0,0,1-.56,0,.59.59,0,0,1-.29-.16.83.83,0,0,1-.16-.41,7.2,7.2,0,0,1,.17-2.59,11.06,11.06,0,0,1,1.11-2.91,7.61,7.61,0,0,1,1.82-2.26,2.77,2.77,0,0,1,2.2-.67l.12,0a1.19,1.19,0,0,1,.22.08,1.8,1.8,0,0,0,.53.2,1.11,1.11,0,0,0,.42,0,2.39,2.39,0,0,0,1.88-2.58c-.17-1.13-.84-1.35-1.23-1.38a6.45,6.45,0,0,0-1.47.09,10.27,10.27,0,0,0-3.85,1.45,11.83,11.83,0,0,0-3.05,2.75,11.67,11.67,0,0,0-1.91,3.67,9.29,9.29,0,0,0-.32,4.22,6.79,6.79,0,0,0,1.32,3.34,3.31,3.31,0,0,0,3.24,1,4.17,4.17,0,0,0,1.87-.55l1.49-.89a15.68,15.68,0,0,1,1.74-.86,6.57,6.57,0,0,1,2.34-.4c.43,0,.75.09.76.2a2.87,2.87,0,0,1-.57,1.49,18.23,18.23,0,0,1-1.8,2.33c-.76.85-1.51,1.65-2.24,2.38s-1.37,1.32-1.91,1.78-.64.53-.74.59l.27.5-.56.09v.1l0,.23h0a4.24,4.24,0,0,0,.31,1,1.29,1.29,0,0,0,1.26.72,1.87,1.87,0,0,0,.4,0,4.33,4.33,0,0,0,2.07-.93,14.22,14.22,0,0,0,2.11-1.92,28,28,0,0,0,2-2.45,19.89,19.89,0,0,0,1.67-2.62,11.16,11.16,0,0,0,.93-2.41,3.1,3.1,0,0,0,.05-1.53,2.49,2.49,0,0,0,.73.06,3.49,3.49,0,0,0,1-.21c.13.71.27,1.47.4,2.28a12.56,12.56,0,0,0,.94,3.08,5.82,5.82,0,0,0,1.95,2.36,4,4,0,0,0,2.38.67,6.94,6.94,0,0,0,1.08-.09,6.13,6.13,0,0,0,2.39-1,17.83,17.83,0,0,0,2.45-2,26.43,26.43,0,0,0,2.35-2.56,24.81,24.81,0,0,0,2-2.79,17.12,17.12,0,0,0,1.31-2.6,4.3,4.3,0,0,0,.36-2.22A1.23,1.23,0,0,0,409.84,100.11ZM396.7,98.68a7,7,0,0,1,.17-.87,11.15,11.15,0,0,1,.79-2.12,9,9,0,0,1,1.17-1.82,1.9,1.9,0,0,1,1.08-.75,3.51,3.51,0,0,1,.67,0,3.77,3.77,0,0,1,.75.11,2,2,0,0,1,.61.25.27.27,0,0,1,.14.19,1.77,1.77,0,0,1-.54,1.23,13.48,13.48,0,0,1-1.77,1.78,15.82,15.82,0,0,1-2.15,1.54A8,8,0,0,1,396.7,98.68Z"/><path d="M430.82,106.45c-.24-1-.51-2.14-.8-3.49s-.62-2.76-1-4.24-.7-2.94-1.06-4.39-.67-2.74-1-3.91-.51-2.11-.7-2.82c-.32-1.23-.35-1.29-.57-1.45a5.56,5.56,0,0,0-4.09-.92,7.22,7.22,0,0,0-3.55,1.87,14.58,14.58,0,0,0-2.78,3.76,27.94,27.94,0,0,0-2,4.76,31.12,31.12,0,0,0-1.13,5,18.91,18.91,0,0,0-.11,4.59l0,.13a9.3,9.3,0,0,0,1.16,2.26,4.19,4.19,0,0,0,1.9,1.57,3,3,0,0,0,2.46-.2,6.66,6.66,0,0,0,2.43-2.66,27.45,27.45,0,0,0,2.29-5.58c.52-1.68,1-3.74,1.52-6.14.24,1.28.53,2.59.86,3.94.6,2.49,1.16,5,1.67,7.52a72.1,72.1,0,0,1,1.1,7.3,21.17,21.17,0,0,1-.28,6.35,10.15,10.15,0,0,1-2.39,4.76,9.62,9.62,0,0,1-5.29,2.71l-.2,0-.12.16a2.55,2.55,0,0,0-.57,1,.84.84,0,0,0,.37.94,1.26,1.26,0,0,0,.77.17l.3,0a7.73,7.73,0,0,0,2.26.37,5.56,5.56,0,0,0,2-.38,7.68,7.68,0,0,0,3.33-2.56,14.84,14.84,0,0,0,2.19-4.3,27.78,27.78,0,0,0,1.21-5.24,35.6,35.6,0,0,0,.31-5.58A26.18,26.18,0,0,0,430.82,106.45ZM422,89.32l-1.09,4c-.39,1.47-.8,2.9-1.22,4.3s-.86,2.7-1.32,3.88a15.91,15.91,0,0,1-1.31,2.75c-.34.53-.68.84-1,.88-.12,0-.41-.18-.72-.78a11.43,11.43,0,0,1-.05-2.31,25.8,25.8,0,0,1,.42-3,29.19,29.19,0,0,1,.87-3.26,20.18,20.18,0,0,1,1.26-3,11.07,11.07,0,0,1,1.66-2.4A5.37,5.37,0,0,1,421.49,89a1.9,1.9,0,0,1,.31-.09A1.37,1.37,0,0,1,422,89.32Z"/><rect class="cls-1" x="89.81" y="106.18" width="11.29" height="15.46"/></svg>