<svg width="18" height="18" viewBox="0 0 18 18" fill="none" xmlns="http://www.w3.org/2000/svg">
<path d="M7.65316 1.17338L8.54503 0.282814C8.92266 -0.0942712 9.53331 -0.0942712 9.90693 0.282814L17.7168 8.07724C18.0944 8.45432 18.0944 9.06408 17.7168 9.43715L9.90693 17.2356C9.52929 17.6127 8.91865 17.6127 8.54503 17.2356L7.65316 16.345C7.27151 15.9639 7.27954 15.3421 7.66923 14.9691L12.5102 10.3638H0.964178C0.429863 10.3638 0 9.93458 0 9.40105V8.11735C0 7.58382 0.429863 7.15458 0.964178 7.15458H12.5102L7.66923 2.54933C7.27553 2.17626 7.26749 1.55447 7.65316 1.17338Z" fill="white"/>
</svg>
