<svg id="Layer_1" data-name="Layer 1" xmlns="http://www.w3.org/2000/svg" viewBox="0 0 292.86 136.5"><defs><style>.cls-1{fill:#ce00bb;}.cls-2{fill:#a1a895;}</style></defs><path class="cls-1" d="M64,33.05c-.53,2.39-.93,4.65-1.46,6.9s-.93,4.78-1.46,7l-3.32,13.8L53.36,79.24c-1.46,6.24-1.59,6.51-3.32,7.84s-2.12,1.46-8.49,1.46H27c-6.38,0-6.64,0-8.37-1.46s-1.85-1.73-3.32-8L1.06,12.21C.13,7.83,0,7.43,0,6.11A6.77,6.77,0,0,1,2.79,1.06C4.25.13,5,0,10.22,0h2.12C18.72,0,19.25.13,21,1.46S22.83,3.32,24,9.56L28.8,34.11c2.13,11.42,3.59,19,4.25,22.7s1.2,7.7,1.86,11.42h.93C38.36,56.81,41,45.4,43.94,34.11L50.17,9.16c1.46-6.11,1.6-6.37,3.32-7.83S55.48,0,61.85,0h5.58c6.37,0,6.64,0,8.36,1.46s1.86,1.59,3.32,7.83l6,24.82q4,17.13,5.18,22.7c.8,3.85,1.59,7.7,2.52,11.42h.8c2-11.29,4.11-22.57,6.5-34.12L105,9.56c1.33-6.24,1.46-6.64,3.19-8.1S110.3,0,116.68,0h2.12c5.71,0,6.5.13,8.1,1.73A5.81,5.81,0,0,1,129,6.24c0,1.19,0,1.46-1.06,6l-14.87,66.9L112.43,82c-.67,3.32-1.73,4.78-3.85,5.84-1.2.67-1.73.67-7.17.67H86.54c-6.37,0-6.77,0-8.49-1.46s-1.86-1.73-3.19-8L70.75,60.79,67.56,47c-.4-2.26-.93-4.65-1.32-7s-.93-4.51-1.33-6.9Z"/><path class="cls-1" d="M151.59,61.06a20.2,20.2,0,0,0-.13,2.52c0,8.76,2.52,11.55,10.62,11.55,5,0,7.43-.8,8.36-2.92,2-4.25,2.39-4.38,10.49-4.38h.39c4.12,0,5.18.26,6.64,1.59,1.73,1.46,2.26,2.79,2.26,5.31a11.6,11.6,0,0,1-4.65,9.56c-4.91,3.71-10.35,4.91-21.9,4.91-13.94,0-21.77-2-26.28-6.9-4.25-4.52-5.71-11-5.71-26.15,0-13.54,1.73-19.91,6.5-24.16s11.82-6.11,23.76-6.11c21.77,0,29.34,7,29.34,27.21,0,3.06-.53,4.65-2,6.11-1.86,1.73-2.39,1.86-9,1.86Zm20.18-13c0-6.5-1.86-7.83-10.49-7.83-7.17,0-9.29,1.72-9.42,8l-.14,1.73H171.9Z"/><path class="cls-2" d="M224.07,80.84c0,5.17-2.39,7.7-7.57,7.7h-2c-4.78,0-6.11-.4-7.7-1.86S205,83.62,205,80.84V78.31c0-5.17.27-6.5,1.86-8.23,1.46-1.32,2.92-1.85,5.71-1.85h2c5.31,0,7.17.66,8.63,3.31.79,1.2.93,2,.93,6.77Z"/><path class="cls-2" d="M56.9,97.19q3,0,3.12,3.13l1.45,35.4H53.6l-1.28-31.94h-1l-6.2,24a3,3,0,0,1-3.35,2.68H36.4a3.18,3.18,0,0,1-3.46-2.68l-6.2-24h-.95l-1.17,31.94H16.69l1.45-35.4q.12-3.13,3.19-3.13h8a3.13,3.13,0,0,1,3.35,2.74l5,19.37c.22.9.41,1.8.56,2.71s.32,1.83.5,2.76h.73c.18-.93.36-1.85.53-2.76s.34-1.83.53-2.76l4.91-19.32a3.09,3.09,0,0,1,3.35-2.74Z"/><path class="cls-2" d="M86.94,97.19a3.08,3.08,0,0,1,1.87.61,3,3,0,0,1,1.09,1.62l11.16,36.3H92.35l-7.87-28.31c-.15-.63-.3-1.28-.45-1.93s-.28-1.27-.39-1.87H82.13c-.11.6-.23,1.22-.36,1.87s-.29,1.3-.47,1.93l-7.88,28.31H64.66l11.22-36.3A3,3,0,0,1,77,97.8a3.06,3.06,0,0,1,1.87-.61Zm5.91,21.94v6.43h-20v-6.43Z"/><path class="cls-2" d="M120.55,96.41c1.67,0,3.2,0,4.58.17s2.69.26,3.93.44a24.92,24.92,0,0,1,3.66.84l-.67,6.2c-1.3-.08-2.57-.13-3.8-.17s-2.45-.06-3.68-.08-2.51,0-3.85,0a13.74,13.74,0,0,0-4,.5,4.82,4.82,0,0,0-2.54,1.87,9.72,9.72,0,0,0-1.36,3.91,41.15,41.15,0,0,0-.42,6.51,36,36,0,0,0,.61,7.53,6.57,6.57,0,0,0,2.07,3.88,6.09,6.09,0,0,0,3.91,1.15,12.83,12.83,0,0,0,3.07-.34,12,12,0,0,0,2.57-.92c.78-.39,1.5-.77,2.17-1.14l.9,4a13.55,13.55,0,0,1-2.49,2.51,15.58,15.58,0,0,1-4,2.29,14.24,14.24,0,0,1-5.36.95,11.57,11.57,0,0,1-7.12-2.07,11.93,11.93,0,0,1-4-6.5,42.43,42.43,0,0,1-1.28-11.53q0-7.55,1.64-11.9a11,11,0,0,1,5.42-6.22Q114.24,96.41,120.55,96.41Zm13.51,17.08v22.23h-6.31l-1.17-5.87-.78-1.56v-14.8Z"/><path class="cls-2" d="M159.24,97.19a3.06,3.06,0,0,1,1.87.61,3,3,0,0,1,1.09,1.62l11.17,36.3h-8.71l-7.87-28.31c-.15-.63-.3-1.28-.45-1.93s-.28-1.27-.39-1.87h-1.51c-.11.6-.23,1.22-.36,1.87s-.29,1.3-.48,1.93l-7.87,28.31H137l11.22-36.3a3,3,0,0,1,1.09-1.62,3.06,3.06,0,0,1,1.87-.61Zm5.92,21.94v6.43h-20v-6.43Z"/><path class="cls-2" d="M194.2,103.5l9.38.06L185,129.41l-9.44-.06ZM204,129.35v6.37H175.55v-6.37Zm-.45-32.16v6.37H176V97.19Z"/><path class="cls-2" d="M218.54,97.19v38.53h-8.48V97.19Z"/><path class="cls-2" d="M258.91,97.19v35.46c0,2-1,3.07-3.07,3.07h-4.69a3.14,3.14,0,0,1-2.12-.64,6.08,6.08,0,0,1-1.34-1.93L237,112.94q-.67-1.29-1.32-2.85c-.43-1-.79-2-1.09-3H234c.11,1,.2,2,.28,3.05s.11,2,.11,3v22.56h-8.1V100.26c0-2.05,1-3.07,3.13-3.07h4.64a2.88,2.88,0,0,1,2,.64,6.81,6.81,0,0,1,1.37,1.93l10.33,19.6c.45.85.91,1.8,1.4,2.85s1,2.12,1.39,3.23h.67c-.11-1.11-.19-2.2-.25-3.26s-.08-2.11-.08-3.16l-.06-21.83Z"/><path class="cls-2" d="M274.55,97l6.31,0q3.18,0,6.25.14c2.05.08,4,.21,5.75.39l-.39,6.2h-14.8a2.77,2.77,0,0,0-2.09.72,3,3,0,0,0-.7,2.13v19.65a2.92,2.92,0,0,0,.7,2.12,2.74,2.74,0,0,0,2.09.73h14.8l.39,6.2c-1.79.15-3.7.27-5.75.36s-4.13.15-6.25.17l-6.31,0a8.3,8.3,0,0,1-5.95-2.15,7.41,7.41,0,0,1-2.26-5.62V104.78a7.38,7.38,0,0,1,2.26-5.64A8.36,8.36,0,0,1,274.55,97Zm-7.21,15.64H290.4v6H267.34Z"/><path class="cls-1" d="M224.73,48.54c-.13,6.24-.13,6.77-1.46,8.37-1.46,1.85-3.05,2.52-6.37,2.52h-2.39c-6,0-7.83-.67-9.29-3.32-.8-1.2-.93-2-1.06-7.57L203.63,11V7.83c0-5.57,2.25-7.83,8-7.83h6.11c5.57,0,8,2.39,8,7.7L225.53,11Z"/></svg>