<?xml version="1.0" encoding="UTF-8"?> <!-- Generator: Adobe Illustrator 24.0.0, SVG Export Plug-In . SVG Version: 6.00 Build 0) --> <svg xmlns="http://www.w3.org/2000/svg" xmlns:xlink="http://www.w3.org/1999/xlink" version="1.1" id="Layer_1" x="0px" y="0px" viewBox="0 0 480 140" style="enable-background:new 0 0 480 140;" xml:space="preserve"> <style type="text/css"> .st0{fill:#231F20;} .st1{clip-path:url(#SVGID_2_);fill:#231F20;} </style> <g> <g> <path class="st0" d="M455.5,92.946c11.354,0,19.72-4.169,24.5-9.12l-2.476-3.159h-1.366c-5.122,5.72-13.232,8.195-20.659,8.195 c-12.549,0-22.707-5.72-22.707-20.573V55.825c0-14.854,10.159-20.587,22.707-20.587c7.427,0,15.281,2.739,20.403,8.636h1.366 L480,40.203c-4.78-4.873-13.146-9.049-24.5-9.049c-18.183,0-34.986,11.098-34.986,30.817S437.317,92.946,455.5,92.946 M400.453,91.921h10.237V32.179h-10.237V91.921z M358.616,61.374l-1.793,4.083h18.019v17.856 c-5.037,3.841-11.702,5.549-17.849,5.549c-12.549,0-22.715-5.72-22.715-20.58V55.825c0-14.854,10.166-20.587,22.715-20.587 c7.427,0,15.288,2.739,20.41,8.636h1.359l2.732-3.671c-4.773-4.873-13.139-9.049-24.5-9.049 c-18.183,0-34.993,11.098-34.993,30.817s16.81,30.974,34.993,30.974c8.544,0,15.458-2.383,20.324-5.62l5.883,5.108h1.871V61.374 H358.616z M269.16,74.606l16.725-32.525l16.732,32.525H269.16z M311.58,91.921h11.524l-30.903-59.742h-6.146L255.16,91.921h5.037 l6.829-13.232h37.725L311.58,91.921z M237.147,32.179l-26.812,47.542l-26.89-47.542h-11.773v59.742h4.688V40.445l29.11,51.476 h3.244l29.202-51.639v51.639h10.237V32.179H237.147z M128.384,88.862c-12.89,0-21.256-5.463-21.256-20.324V55.562 c0-14.854,8.366-20.324,21.256-20.324c12.897,0,21.178,5.471,21.178,20.324v12.976C149.562,83.399,141.281,88.862,128.384,88.862 M128.384,92.946c17.678,0,33.464-11.169,33.464-30.895c0-19.89-15.786-30.895-33.464-30.895 c-17.671,0-33.542,11.005-33.542,30.895C94.842,81.777,110.713,92.946,128.384,92.946 M91.079,32.179L71.871,78.44l-19.2-46.261 h-2.902L30.476,78.526L11.268,32.179H0l24.756,59.742h4.951l18.354-43.779l18.261,43.779h4.951l24.671-59.742H91.079z"></path> <g> <circle class="st0" cx="387.401" cy="16.182" r="7.111"></circle> <circle class="st0" cx="405.798" cy="16.182" r="7.111"></circle> <circle class="st0" cx="424.195" cy="16.182" r="7.111"></circle> </g> </g> <g> <defs> <rect id="SVGID_1_" x="161.328" y="116.891" width="157.344" height="14.038"></rect> </defs> <clipPath id="SVGID_2_"> <use xlink:href="#SVGID_1_" style="overflow:visible;"></use> </clipPath> <path class="st1" d="M318.368,129.612h-0.263c-0.426,0.252-1.094,0.446-1.844,0.446c-1.479,0-2.027-0.446-2.027-2.056v-6.13h4.053 v-0.871h-4.053v-3.006h-0.626c-0.993,1.862-2.227,2.831-3.768,3.355v0.522h1.946v5.897c0,2.153,1.498,3.159,4.029,3.159 c1.196,0,1.986-0.175,2.858-0.541L318.368,129.612z M310.689,129.612h-0.263c-0.426,0.252-1.094,0.446-1.844,0.446 c-1.479,0-2.027-0.446-2.027-2.056v-6.13h4.053v-0.871h-4.053v-3.006h-0.628c-0.993,1.862-2.227,2.831-3.768,3.355v0.522h1.946 v5.897c0,2.153,1.498,3.159,4.031,3.159c1.196,0,1.986-0.175,2.858-0.541L310.689,129.612z M296.279,121.64 c2.15,0,3.609,1.047,3.609,3.299v0.291h-7.298v-0.291C292.591,122.687,294.111,121.64,296.279,121.64 M302.319,126.1v-0.252 c0-3.258-2.653-5.079-6.06-5.079c-3.425,0-6.2,1.821-6.2,5.079c0,3.24,2.673,5.081,6.544,5.081c2.13,0,3.65-0.485,5.148-1.588 l-0.507-0.776h-0.263c-0.991,0.97-2.754,1.493-4.378,1.493c-2.655,0-4.013-1.26-4.013-3.182V126.1H302.319z M286.148,130.696h2.45 v-13.573h-2.45V130.696z M278.647,121.64c2.15,0,3.609,1.047,3.609,3.299v0.291h-7.298v-0.291 C274.959,122.687,276.479,121.64,278.647,121.64 M284.687,126.1v-0.252c0-3.258-2.653-5.079-6.06-5.079 c-3.425,0-6.2,1.821-6.2,5.079c0,3.24,2.673,5.081,6.546,5.081c2.128,0,3.648-0.485,5.146-1.588l-0.507-0.776h-0.263 c-0.991,0.97-2.754,1.493-4.376,1.493c-2.657,0-4.015-1.26-4.015-3.182V126.1H284.687z M271.169,117.762 c0.75,0,1.419,0.213,1.844,0.504h0.263l0.304-0.834c-0.871-0.367-1.662-0.541-2.858-0.541c-2.533,0-4.031,1.006-4.031,3.161v0.95 h-1.946v0.871h1.946v8.823h2.45v-8.823h4.053v-0.871h-4.053v-1.183C269.142,118.169,269.69,117.762,271.169,117.762 M251.35,130 c-3.062,0-5.048-1.241-5.048-4.615v-2.891c0-3.374,1.986-4.674,5.048-4.674c3.06,0,5.026,1.299,5.026,4.674v2.891 C256.376,128.759,254.411,130,251.35,130 M251.35,130.929c4.195,0,7.943-2.538,7.943-7.02c0-4.518-3.747-7.018-7.943-7.018 c-4.197,0-7.965,2.5-7.965,7.018C243.386,128.391,247.153,130.929,251.35,130.929 M231.408,126.723l6.83-6.632v6.632H231.408z M243.343,126.723h-2.574v-9.696h-0.75l-10.314,10.006v0.619h8.532v3.045h2.531v-3.045h2.574V126.723z M224.941,129.612h-0.263 c-0.426,0.252-1.094,0.446-1.844,0.446c-1.479,0-2.027-0.446-2.027-2.056v-6.13h4.053v-0.871h-4.053v-3.006h-0.626 c-0.993,1.862-2.229,2.831-3.77,3.355v0.522h1.946v5.897c0,2.153,1.5,3.159,4.031,3.159c1.196,0,1.986-0.175,2.858-0.541 L224.941,129.612z M210.533,121.64c2.148,0,3.609,1.047,3.609,3.299v0.291h-7.3v-0.291 C206.843,122.687,208.365,121.64,210.533,121.64 M216.571,126.1v-0.252c0-3.258-2.651-5.079-6.058-5.079 c-3.427,0-6.2,1.821-6.2,5.079c0,3.24,2.671,5.081,6.544,5.081c2.128,0,3.648-0.485,5.148-1.588l-0.507-0.776h-0.263 c-0.991,0.97-2.756,1.493-4.378,1.493c-2.655,0-4.015-1.26-4.015-3.182V126.1H216.571z M214.404,117.122v-0.192h-2.209 l-2.128,3.103h0.993L214.404,117.122z M200.402,130.696h2.45v-13.573h-2.45V130.696z M189.965,130.696h2.45v-9.694h-2.45V130.696z M191.179,119.604c0.79,0,1.358-0.543,1.358-1.28c0-0.754-0.567-1.297-1.358-1.297c-0.768,0-1.336,0.543-1.336,1.297 C189.843,119.061,190.411,119.604,191.179,119.604 M182.322,130.058c-2.169,0-3.648-0.931-3.648-3.18v-2.058 c0-2.249,1.479-3.18,3.648-3.18c2.171,0,3.65,0.931,3.65,3.18v2.058C185.972,129.128,184.493,130.058,182.322,130.058 M182.322,130.929c3.447,0,6.181-1.821,6.181-5.081c0-3.258-2.734-5.079-6.181-5.079c-3.445,0-6.179,1.821-6.179,5.079 C176.143,129.108,178.877,130.929,182.322,130.929 M183.538,120.033h0.995l3.139-2.911v-0.192h-2.004L183.538,120.033z M180.012,120.033h0.993l3.143-2.911v-0.192h-2.008L180.012,120.033z M173.164,117.124v10.043l-8.676-10.043h-3.16v13.573h1.113 v-12.295l10.601,12.295h1.234v-13.573H173.164z"></path> </g> <g> <rect x="23.026" y="125.23" class="st0" width="123.269" height="0.871"></rect> <rect x="333.705" y="125.23" class="st0" width="123.269" height="0.871"></rect> </g> </g> <g> </g> <g> </g> <g> </g> <g> </g> <g> </g> <g> </g> <g> </g> <g> </g> <g> </g> <g> </g> <g> </g> <g> </g> <g> </g> <g> </g> <g> </g> </svg> 